<?xml version="1.0" encoding="UTF-8" standalone="no"?>
<svg
   xmlns:dc="http://purl.org/dc/elements/1.1/"
   xmlns:cc="http://creativecommons.org/ns#"
   xmlns:rdf="http://www.w3.org/1999/02/22-rdf-syntax-ns#"
   xmlns:svg="http://www.w3.org/2000/svg"
   xmlns="http://www.w3.org/2000/svg"
   viewBox="0 0 960 720"
   height="720"
   width="960"
   xml:space="preserve"
   id="svg2"
   version="1.1"><metadata
     id="metadata8"><rdf:RDF><cc:Work
         rdf:about=""><dc:format>image/svg+xml</dc:format><dc:type
           rdf:resource="http://purl.org/dc/dcmitype/StillImage" /></cc:Work></rdf:RDF></metadata><defs
     id="defs6"><clipPath
       id="clipPath18"
       clipPathUnits="userSpaceOnUse"><path
         style="clip-rule:evenodd"
         id="path16"
         d="M 0,0 H 720 V 540 H 0 Z" /></clipPath><clipPath
       id="clipPath30"
       clipPathUnits="userSpaceOnUse"><path
         style="clip-rule:evenodd"
         id="path28"
         d="M 0,0 H 702 V 540 H 0 Z" /></clipPath><clipPath
       id="clipPath52"
       clipPathUnits="userSpaceOnUse"><path
         style="clip-rule:evenodd"
         id="path50"
         d="M 0,0 H 720 V 540 H 0 Z" /></clipPath></defs><g
     transform="matrix(1.3333333,0,0,-1.3333333,0,720)"
     id="g10"><g
       id="g12"><g
         clip-path="url(#clipPath18)"
         id="g14"><path
           id="path20"
           style="fill:#ffffff;fill-opacity:1;fill-rule:evenodd;stroke:none"
           d="M 0,540 H 720 V 0 H 0 Z" /><path
           id="path22"
           style="fill:#ffffff;fill-opacity:1;fill-rule:evenodd;stroke:none"
           d="M 0,540 H 720 V 0 H 0 Z" /></g></g><g
       id="g24"><g
         clip-path="url(#clipPath30)"
         id="g26"><path
           id="path32"
           style="fill:#99cc99;fill-opacity:1;fill-rule:evenodd;stroke:none"
           d="M 30,0 H 0 V 540 H 60 V 0 Z" /><path
           id="path34"
           style="fill:#99cc99;fill-opacity:1;fill-rule:evenodd;stroke:none"
           d="M 153,456 H 54 v 84 h 198 v -84 z" /><path
           id="path36"
           style="fill:#ffffff;fill-opacity:1;fill-rule:evenodd;stroke:none"
           d="M 84,480 C 72,480 60,468 60,456 v 0 c 0,-12 12,-24 24,-24 h 354 c 12,0 24,12 24,24 v 0 c 0,12 -12,24 -24,24 z m -24,0 z m 402,-48 z" /><g
           id="g38" /><g
           id="g40" /><path
           id="path42"
           style="fill:#003366;fill-opacity:1;fill-rule:evenodd;stroke:none"
           d="m 48,384 v 0 -25 0 h 552 v 0 25 0 z m 0,0 z m 552,-25 z" /><path
           id="path44"
           style="fill:#003366;fill-opacity:1;fill-rule:evenodd;stroke:none"
           d="M 33.5,384 C 25.7,384 18,377.7 18,371.5 c 0,-6.3 7.7,-12.6 15.5,-12.6 H 49 V 384 Z M 49,384 Z M 18,358.9 Z" /></g></g><g
       id="g46"><g
         clip-path="url(#clipPath52)"
         id="g48"><g
           id="g54"><g
             id="text58"
             style="font-variant:normal;font-weight:bold;font-size:36px;font-family:Arial;-inkscape-font-specification:Arial-BoldMT;writing-mode:lr-tb;fill:#009c98;fill-opacity:1;fill-rule:nonzero;stroke:none"
             transform="matrix(1,0,0,-1,79.1,400.9)"
             aria-label="Fonts - Bad"><path
               id="path88"
               style=""
               d="M 2.6542969,0 V -25.769531 H 20.320312 v 4.359375 H 7.8574219 v 6.099609 H 18.615234 v 4.359375 H 7.8574219 V 0 Z" /><path
               id="path90"
               style=""
               d="m 23.329407,-9.5976563 q 0,-2.4609377 1.21289,-4.7636717 1.212891,-2.302734 3.427735,-3.515625 2.232422,-1.212891 4.974609,-1.212891 4.236328,0 6.943359,2.759766 2.707032,2.742187 2.707032,6.9433592 0,4.2363282 -2.742188,7.03125 -2.724609,2.7773438 -6.873047,2.7773438 -2.566406,0 -4.904297,-1.16015625 -2.320312,-1.16015625 -3.533203,-3.39257815 -1.21289,-2.25 -1.21289,-5.4667969 z m 5.0625,0.2636719 q 0,2.7773438 1.318359,4.2539063 1.318359,1.4765625 3.251953,1.4765625 1.933594,0 3.234375,-1.4765625 1.31836,-1.4765625 1.31836,-4.2890625 0,-2.7421874 -1.31836,-4.2187504 -1.300781,-1.476562 -3.234375,-1.476562 -1.933594,0 -3.251953,1.476562 -1.318359,1.476563 -1.318359,4.2539066 z" /><path
               id="path92"
               style=""
               d="M 63.412453,0 H 58.473 v -9.5273438 q 0,-3.0234372 -0.316407,-3.9023442 -0.316406,-0.896484 -1.037109,-1.388671 -0.703125,-0.492188 -1.705078,-0.492188 -1.283203,0 -2.302735,0.703125 -1.019531,0.703125 -1.40625,1.863281 -0.36914,1.160157 -0.36914,4.2890629 V 0 h -4.939453 v -18.667969 h 4.58789 v 2.742188 q 2.44336,-3.164063 6.152344,-3.164063 1.634766,0 2.988281,0.597657 1.353516,0.580078 2.039063,1.49414 0.703125,0.914063 0.966797,2.074219 0.28125,1.160156 0.28125,3.322265 z" /><path
               id="path94"
               style=""
               d="m 76.880531,-18.667969 v 3.9375 h -3.375 v 7.5234378 q 0,2.2851562 0.08789,2.671875 0.105469,0.3691406 0.439453,0.6152343 0.351563,0.2460938 0.84375,0.2460938 0.685547,0 1.986328,-0.4746094 l 0.421875,3.83203125 Q 75.562172,0.421875 73.382484,0.421875 q -1.335937,0 -2.408203,-0.43945313 Q 69.902016,-0.47460938 69.39225,-1.1777344 68.900063,-1.8984375 68.706703,-3.1113281 68.5485,-3.9726563 68.5485,-6.5917969 v -8.1386721 h -2.267578 v -3.9375 H 68.5485 v -3.708984 l 4.957031,-2.882813 v 6.591797 z" /><path
               id="path96"
               style=""
               d="m 78.567749,-5.3261719 4.957031,-0.7558593 q 0.316407,1.4414062 1.283203,2.1972656 0.966797,0.7382812 2.707032,0.7382812 1.916015,0 2.882812,-0.703125 0.650391,-0.4921875 0.650391,-1.3183593 0,-0.5625 -0.351563,-0.9316407 Q 90.327515,-6.4511719 89.044312,-6.75 83.067749,-8.0683594 81.46814,-9.1582031 q -2.214844,-1.5117189 -2.214844,-4.2011719 0,-2.425781 1.916016,-4.078125 1.916015,-1.652344 5.941406,-1.652344 3.832031,0 5.695312,1.248047 1.863282,1.248047 2.566407,3.691406 l -4.658204,0.861328 q -0.298828,-1.089843 -1.142578,-1.669921 -0.826172,-0.580079 -2.373047,-0.580079 -1.951171,0 -2.794921,0.544922 -0.5625,0.386719 -0.5625,1.001953 0,0.527344 0.492187,0.896485 0.667969,0.492187 4.605469,1.388672 3.955078,0.896484 5.519531,2.1972654 1.546875,1.3183593 1.546875,3.6738281 0,2.5664062 -2.144531,4.4121094 -2.144531,1.8457031 -6.345703,1.8457031 -3.814453,0 -6.046875,-1.546875 -2.214844,-1.546875 -2.900391,-4.2011719 z" /><path
               id="path98"
               style=""
               d="M 109.69749,-6.8730469 V -11.8125 h 9.70312 v 4.9394531 z" /><path
               id="path100"
               style=""
               d="m 132.27272,-25.769531 h 10.30078 q 3.0586,0 4.55274,0.263672 1.51171,0.246093 2.68945,1.054687 1.19531,0.808594 1.98633,2.16211 0.79101,1.335937 0.79101,3.005859 0,1.810547 -0.98437,3.322265 -0.9668,1.511719 -2.63672,2.267579 2.35547,0.685546 3.62109,2.33789 1.26563,1.652344 1.26563,3.8847659 0,1.7578125 -0.82617,3.4277344 -0.8086,1.6523437 -2.23243,2.6542968 -1.40625,0.98437502 -3.48046,1.21289065 Q 146.01881,-0.03515625 141.0442,0 h -8.77148 z m 5.20313,4.289062 v 5.958985 h 3.41015 q 3.04102,0 3.7793,-0.08789 1.33594,-0.158203 2.0918,-0.914062 0.77343,-0.773438 0.77343,-2.021485 0,-1.195312 -0.66797,-1.933594 -0.65039,-0.755859 -1.95117,-0.914062 -0.77344,-0.08789 -4.44726,-0.08789 z m 0,10.248047 v 6.8906251 h 4.8164 q 2.8125,0 3.56836,-0.1582031 1.16016,-0.2109375 1.88086,-1.0195312 0.73828,-0.8261719 0.73828,-2.1972657 0,-1.1601562 -0.5625,-1.96875 -0.5625,-0.8085941 -1.63476,-1.1777341 -1.05469,-0.369141 -4.60547,-0.369141 z" /><path
               id="path102"
               style=""
               d="m 161.9034,-12.972656 -4.48243,-0.808594 q 0.75586,-2.707031 2.60157,-4.007812 1.8457,-1.300782 5.48437,-1.300782 3.30469,0 4.92188,0.791016 1.61718,0.773437 2.26758,1.986328 0.66796,1.195312 0.66796,4.412109 l -0.0527,5.7656254 q 0,2.4609375 0.22852,3.6386718 Q 173.78621,-1.3359375 174.4366,0 h -4.88672 q -0.19336,-0.4921875 -0.47461,-1.4589844 -0.12305,-0.4394531 -0.17578,-0.5800781 -1.26562,1.23046875 -2.70703,1.84570313 -1.44141,0.61523437 -3.07617,0.61523437 -2.88282,0 -4.55274,-1.5644531 -1.65234,-1.5644532 -1.65234,-3.9550781 0,-1.5820313 0.75586,-2.8125 0.75586,-1.2480469 2.10937,-1.8984376 1.3711,-0.6679692 3.9375,-1.1601562 3.46289,-0.650391 4.79883,-1.212891 v -0.492187 q 0,-1.423828 -0.70312,-2.021485 -0.70313,-0.615234 -2.6543,-0.615234 -1.31836,0 -2.05664,0.527344 -0.73828,0.509765 -1.19531,1.810547 z m 6.60937,4.0078122 q -0.94922,0.3164063 -3.00586,0.7558594 -2.05664,0.4394532 -2.68945,0.8613282 -0.9668,0.6855468 -0.9668,1.7402343 0,1.0371094 0.77344,1.7929688 0.77344,0.7558593 1.96875,0.7558593 1.33594,0 2.54883,-0.8789062 0.89648,-0.6679687 1.17773,-1.6347656 0.19336,-0.6328125 0.19336,-2.4082031 z" /><path
               id="path104"
               style=""
               d="m 195.38507,0 h -4.58789 v -2.7421875 q -1.14258,1.5996094 -2.70703,2.390625 -1.54688,0.7734375 -3.12891,0.7734375 -3.21679,0 -5.51953,-2.5839844 -2.28515,-2.6015625 -2.28515,-7.2421875 0,-4.7460941 2.23242,-7.2070311 2.23242,-2.478516 5.64258,-2.478516 3.1289,0 5.41406,2.601563 v -9.28125 h 4.93945 z m -13.18359,-9.7382813 q 0,2.9882813 0.82617,4.3242188 1.19531,1.9335937 3.33984,1.9335937 1.70508,0 2.90039,-1.4414062 1.19532,-1.4589844 1.19532,-4.3417969 0,-3.2167971 -1.16016,-4.6230471 -1.16016,-1.423828 -2.9707,-1.423828 -1.75782,0 -2.95313,1.40625 -1.17773,1.388672 -1.17773,4.1660157 z" /></g></g><g
           id="text62"
           style="font-variant:normal;font-weight:normal;font-size:10.5px;font-family:OpenSymbol;-inkscape-font-specification:OpenSymbol;writing-mode:lr-tb;fill:#003366;fill-opacity:1;fill-rule:nonzero;stroke:none"
           transform="matrix(1,0,0,-1,79.1,338.7)"
           aria-label=""><path
             id="path107"
             style=""
             d="M 1.5645,-7.182 H 6.804 Q 6.6465,-5.334 6.3315,-4.221 L 5.586,-4.305 Q 5.943,-5.46 6.027,-6.489 H 1.5645 Z" /></g><g
           id="text66"
           style="font-variant:normal;font-weight:normal;font-size:14px;font-family:Arial;-inkscape-font-specification:ArialMT;writing-mode:lr-tb;fill:#003366;fill-opacity:1;fill-rule:nonzero;stroke:none"
           transform="matrix(1,0,0,-1,106,336.2)"
           aria-label="If you use a small font, your audience won’t be able to read what you have written"><path
             id="path110"
             style=""
             d="M 1.3056641,0 V -10.021484 H 2.6318359 V 0 Z" /><path
             id="path112"
             style=""
             d="M 5.2067969,0 V -6.3027344 H 4.1198828 v -0.9570312 h 1.0869141 v -0.772461 q 0,-0.7314453 0.1298828,-1.086914 0.1777344,-0.4785157 0.6220703,-0.772461 0.4511719,-0.3007814 1.2578125,-0.3007814 0.5195313,0 1.1484375,0.123047 l -0.1845703,1.0732422 q -0.3828125,-0.068359 -0.7246094,-0.068359 -0.5605469,0 -0.7929687,0.2392578 -0.2324219,0.2392578 -0.2324219,0.8955078 v 0.6699219 h 1.4150391 v 0.9570312 H 6.4304297 V 0 Z" /><path
             id="path114"
             style=""
             d="M 12.740164,2.7958984 12.603445,1.640625 Q 13.006765,1.75 13.307547,1.75 q 0.410156,0 0.65625,-0.1367188 0.246093,-0.1367187 0.40332,-0.3828125 0.116211,-0.1845703 0.375976,-0.91601557 0.03418,-0.10253907 0.109375,-0.30078125 L 12.097586,-7.2597656 h 1.326172 l 1.510742,4.2041015 q 0.293945,0.7998047 0.526367,1.6816407 0.211914,-0.8476563 0.505859,-1.6542969 l 1.551758,-4.2314453 h 1.230469 l -2.761719,7.38281247 q -0.444336,1.19628903 -0.69043,1.64746093 -0.328125,0.6083985 -0.751953,0.8886719 -0.423828,0.2871094 -1.011718,0.2871094 -0.355469,0 -0.792969,-0.1503907 z" /><path
             id="path116"
             style=""
             d="m 19.420843,-3.6298828 q 0,-2.0166016 1.121094,-2.9873047 0.936523,-0.8066406 2.283203,-0.8066406 1.49707,0 2.447266,0.984375 0.950195,0.977539 0.950195,2.7070312 0,1.4013672 -0.423828,2.2080078 -0.416992,0.79980473 -1.223633,1.24414066 -0.799805,0.44433594 -1.75,0.44433594 -1.524414,0 -2.467773,-0.97753906 -0.936524,-0.97753904 -0.936524,-2.81640624 z m 1.264649,0 q 0,1.3945312 0.608398,2.0917969 0.608398,0.69042965 1.53125,0.69042965 0.916016,0 1.524414,-0.69726565 0.608398,-0.6972656 0.608398,-2.1259765 0,-1.3466797 -0.615234,-2.0371094 -0.608398,-0.6972656 -1.517578,-0.6972656 -0.922852,0 -1.53125,0.6904297 -0.608398,0.6904296 -0.608398,2.0849609 z" /><path
             id="path118"
             style=""
             d="m 32.420664,0 v -1.0664062 q -0.847656,1.2304687 -2.303711,1.2304687 -0.642578,0 -1.203125,-0.24609375 -0.553711,-0.24609375 -0.827149,-0.61523437 -0.266601,-0.37597658 -0.375976,-0.91601558 -0.07519,-0.3623047 -0.07519,-1.1484376 v -4.4980468 h 1.230468 v 4.0263672 q 0,0.9638671 0.0752,1.2988281 0.116211,0.4853516 0.492187,0.765625 0.375977,0.27343749 0.929688,0.27343749 0.553711,0 1.039062,-0.28027339 0.485352,-0.2871094 0.683594,-0.772461 0.205078,-0.4921875 0.205078,-1.421875 V -7.2597656 H 33.52125 V 0 Z" /><path
             id="path120"
             style=""
             d="m 44.194664,0 v -1.0664062 q -0.847656,1.2304687 -2.303711,1.2304687 -0.642578,0 -1.203125,-0.24609375 Q 40.134117,-0.328125 39.86068,-0.69726562 39.594078,-1.0732422 39.484703,-1.6132812 q -0.0752,-0.3623047 -0.0752,-1.1484376 v -4.4980468 h 1.230469 v 4.0263672 q 0,0.9638671 0.0752,1.2988281 0.116211,0.4853516 0.492187,0.765625 0.375977,0.27343749 0.929688,0.27343749 0.553711,0 1.039062,-0.28027339 0.485352,-0.2871094 0.683594,-0.772461 0.205078,-0.4921875 0.205078,-1.421875 V -7.2597656 H 45.29525 V 0 Z" /><path
             id="path122"
             style=""
             d="m 46.728664,-2.1669922 1.216797,-0.1914062 q 0.102539,0.7314453 0.567383,1.1210937 0.47168,0.38964845 1.3125,0.38964845 0.847656,0 1.257813,-0.34179685 0.410156,-0.3486328 0.410156,-0.8134766 0,-0.4169922 -0.362305,-0.65625 -0.25293,-0.1640625 -1.257812,-0.4169922 -1.353516,-0.3417969 -1.879883,-0.5878906 -0.519531,-0.2529297 -0.792969,-0.6904297 -0.266601,-0.4443359 -0.266601,-0.977539 0,-0.4853516 0.21875,-0.8955079 0.225585,-0.4169921 0.608398,-0.6904296 0.287109,-0.2119141 0.779297,-0.3554688 0.499023,-0.1503906 1.066406,-0.1503906 0.854492,0 1.49707,0.2460937 0.649414,0.2460938 0.957032,0.6699219 0.307617,0.4169922 0.423828,1.1210938 l -1.203125,0.1640625 q -0.08203,-0.5605469 -0.478516,-0.875 -0.389648,-0.3144532 -1.107422,-0.3144532 -0.847656,0 -1.209961,0.2802735 -0.362304,0.2802734 -0.362304,0.65625 0,0.2392578 0.15039,0.430664 0.150391,0.1982422 0.47168,0.328125 0.18457,0.068359 1.086914,0.3144532 1.305664,0.3486328 1.818359,0.5742187 0.519532,0.21875 0.813477,0.6425781 0.293945,0.4238281 0.293945,1.0527344 0,0.6152344 -0.362304,1.16210937 -0.355469,0.54003907 -1.032227,0.84082032 -0.676758,0.29394531 -1.53125,0.29394531 -1.415039,0 -2.160156,-0.58789063 -0.738281,-0.58789057 -0.94336,-1.74316407 z" /><path
             id="path124"
             style=""
             d="m 59.190578,-2.3378906 1.271485,0.1572265 q -0.300781,1.1142579 -1.114258,1.72949222 -0.813477,0.61523438 -2.078125,0.61523438 -1.592773,0 -2.529297,-0.97753906 -0.929687,-0.98437504 -0.929687,-2.75488284 0,-1.8320312 0.943359,-2.84375 0.943359,-1.0117187 2.447266,-1.0117187 1.456054,0 2.378906,0.9912109 0.922851,0.991211 0.922851,2.7890625 0,0.109375 -0.0068,0.328125 H 55.08218 q 0.06836,1.1962891 0.676758,1.8320313 0.608398,0.63574215 1.517578,0.63574215 0.676758,0 1.155273,-0.35546875 0.478516,-0.3554687 0.758789,-1.1347656 z m -4.040039,-1.9892578 h 4.053711 q -0.08203,-0.9160157 -0.464843,-1.3740235 -0.587891,-0.7109375 -1.524414,-0.7109375 -0.847657,0 -1.428711,0.5673828 -0.574219,0.5673829 -0.635743,1.5175782 z" /><path
             id="path126"
             style=""
             d="m 70.732155,-0.89550781 q -0.683594,0.58105468 -1.319336,0.8203125 -0.628906,0.23925781 -1.353516,0.23925781 -1.196289,0 -1.838867,-0.58105469 -0.642578,-0.58789061 -0.642578,-1.49707031 0,-0.5332031 0.239258,-0.9707031 0.246094,-0.444336 0.635742,-0.7109375 0.396484,-0.2666016 0.888672,-0.4033203 0.362305,-0.095703 1.09375,-0.1845703 1.490234,-0.1777344 2.194336,-0.4238282 0.0068,-0.2529297 0.0068,-0.321289 0,-0.7519532 -0.348633,-1.0595703 -0.47168,-0.4169922 -1.401367,-0.4169922 -0.868164,0 -1.285157,0.3076172 -0.410156,0.3007812 -0.608398,1.0732421 l -1.203125,-0.1640625 q 0.164063,-0.7724609 0.540039,-1.2441406 0.375977,-0.4785156 1.086914,-0.7314453 0.710938,-0.2597656 1.647461,-0.2597656 0.929688,0 1.510742,0.21875 0.581055,0.21875 0.854492,0.5537109 0.273438,0.328125 0.382813,0.8339844 0.06152,0.3144531 0.06152,1.1347656 v 1.640625 q 0,1.7158203 0.0752,2.17382814 Q 72.030983,-0.41699219 72.263405,0 H 70.978249 Q 70.786842,-0.3828125 70.732155,-0.89550781 Z M 70.629616,-3.6435547 q -0.669922,0.2734375 -2.009766,0.4648438 -0.758789,0.109375 -1.073242,0.2460937 -0.314453,0.1367188 -0.485352,0.4033203 -0.170898,0.2597656 -0.170898,0.5810547 0,0.4921875 0.369141,0.8203125 0.375976,0.32812501 1.09375,0.32812501 0.710937,0 1.264648,-0.30761721 0.553711,-0.3144531 0.813477,-0.8544922 0.198242,-0.4169922 0.198242,-1.2304687 z" /><path
             id="path128"
             style=""
             d="m 77.276665,-2.1669922 1.216797,-0.1914062 q 0.102539,0.7314453 0.567382,1.1210937 0.47168,0.38964845 1.3125,0.38964845 0.847657,0 1.257813,-0.34179685 0.410156,-0.3486328 0.410156,-0.8134766 0,-0.4169922 -0.362305,-0.65625 -0.252929,-0.1640625 -1.257812,-0.4169922 -1.353516,-0.3417969 -1.879883,-0.5878906 -0.519531,-0.2529297 -0.792969,-0.6904297 -0.266601,-0.4443359 -0.266601,-0.977539 0,-0.4853516 0.21875,-0.8955079 0.225586,-0.4169921 0.608398,-0.6904296 0.28711,-0.2119141 0.779297,-0.3554688 0.499024,-0.1503906 1.066406,-0.1503906 0.854493,0 1.497071,0.2460937 0.649414,0.2460938 0.957031,0.6699219 0.307617,0.4169922 0.423828,1.1210938 l -1.203125,0.1640625 q -0.08203,-0.5605469 -0.478516,-0.875 -0.389648,-0.3144532 -1.107421,-0.3144532 -0.847657,0 -1.209961,0.2802735 -0.362305,0.2802734 -0.362305,0.65625 0,0.2392578 0.150391,0.430664 0.15039,0.1982422 0.471679,0.328125 0.184571,0.068359 1.086914,0.3144532 1.305664,0.3486328 1.81836,0.5742187 0.519531,0.21875 0.813476,0.6425781 0.293946,0.4238281 0.293946,1.0527344 0,0.6152344 -0.362305,1.16210937 -0.355469,0.54003907 -1.032227,0.84082032 -0.676757,0.29394531 -1.53125,0.29394531 -1.415039,0 -2.160156,-0.58789063 -0.738281,-0.58789057 -0.943359,-1.74316407 z" /><path
             id="path130"
             style=""
             d="m 84.768852,0 v -7.2597656 h 1.100586 v 1.0185547 q 0.341797,-0.5332032 0.90918,-0.8544922 0.567383,-0.328125 1.291992,-0.328125 0.806641,0 1.319336,0.3349609 0.519531,0.334961 0.731445,0.9365235 0.861328,-1.2714844 2.242188,-1.2714844 1.080078,0 1.661133,0.6015625 0.581054,0.5947265 0.581054,1.8388672 V 0 h -1.223633 v -4.5732422 q 0,-0.7382812 -0.123046,-1.0595703 -0.116211,-0.328125 -0.430664,-0.5263672 -0.314454,-0.1982422 -0.738282,-0.1982422 -0.765625,0 -1.271484,0.5126953 -0.505859,0.5058594 -0.505859,1.6269532 V 0 h -1.230469 v -4.7167969 q 0,-0.8203125 -0.300781,-1.2304687 -0.300782,-0.4101563 -0.984375,-0.4101563 -0.519532,0 -0.963868,0.2734375 -0.4375,0.2734375 -0.635742,0.7998047 -0.198242,0.5263672 -0.198242,1.5175781 V 0 Z" /><path
             id="path132"
             style=""
             d="m 101.19616,-0.89550781 q -0.68359,0.58105468 -1.319337,0.8203125 -0.628906,0.23925781 -1.353515,0.23925781 -1.196289,0 -1.838867,-0.58105469 -0.642579,-0.58789061 -0.642579,-1.49707031 0,-0.5332031 0.239258,-0.9707031 0.246094,-0.444336 0.635742,-0.7109375 0.396485,-0.2666016 0.888672,-0.4033203 0.362305,-0.095703 1.09375,-0.1845703 1.490236,-0.1777344 2.194336,-0.4238282 0.007,-0.2529297 0.007,-0.321289 0,-0.7519532 -0.34864,-1.0595703 -0.47168,-0.4169922 -1.401364,-0.4169922 -0.868164,0 -1.285156,0.3076172 -0.410156,0.3007812 -0.608398,1.0732421 l -1.203125,-0.1640625 q 0.164062,-0.7724609 0.540039,-1.2441406 0.375976,-0.4785156 1.086914,-0.7314453 0.710937,-0.2597656 1.647461,-0.2597656 0.929689,0 1.510739,0.21875 0.58106,0.21875 0.85449,0.5537109 0.27344,0.328125 0.38282,0.8339844 0.0615,0.3144531 0.0615,1.1347656 v 1.640625 q 0,1.7158203 0.0752,2.17382814 0.082,0.45117187 0.31445,0.86816406 h -1.28516 q -0.1914,-0.3828125 -0.24609,-0.89550781 z m -0.10254,-2.74804689 q -0.66992,0.2734375 -2.009765,0.4648438 -0.758789,0.109375 -1.073243,0.2460937 -0.314453,0.1367188 -0.485351,0.4033203 -0.170899,0.2597656 -0.170899,0.5810547 0,0.4921875 0.369141,0.8203125 0.375977,0.32812501 1.09375,0.32812501 0.710938,0 1.264647,-0.30761721 0.55371,-0.3144531 0.81348,-0.8544922 0.19824,-0.4169922 0.19824,-1.2304687 z" /><path
             id="path134"
             style=""
             d="m 104.21551,0 v -10.021484 h 1.23047 V 0 Z" /><path
             id="path136"
             style=""
             d="m 107.30951,0 v -10.021484 h 1.23047 V 0 Z" /><path
             id="path138"
             style=""
             d="m 114.7148,0 v -6.3027344 h -1.08692 v -0.9570312 h 1.08692 v -0.772461 q 0,-0.7314453 0.12988,-1.086914 0.17774,-0.4785157 0.62207,-0.772461 0.45117,-0.3007814 1.25781,-0.3007814 0.51953,0 1.14844,0.123047 l -0.18457,1.0732422 q -0.38281,-0.068359 -0.72461,-0.068359 -0.56055,0 -0.79297,0.2392578 -0.23242,0.2392578 -0.23242,0.8955078 v 0.6699219 h 1.41504 v 0.9570312 h -1.41504 V 0 Z" /><path
             id="path140"
             style=""
             d="m 117.95284,-3.6298828 q 0,-2.0166016 1.1211,-2.9873047 0.93652,-0.8066406 2.2832,-0.8066406 1.49707,0 2.44727,0.984375 0.95019,0.977539 0.95019,2.7070312 0,1.4013672 -0.42383,2.2080078 -0.41699,0.79980473 -1.22363,1.24414066 -0.79981,0.44433594 -1.75,0.44433594 -1.52441,0 -2.46777,-0.97753906 -0.93653,-0.97753904 -0.93653,-2.81640624 z m 1.26465,0 q 0,1.3945312 0.6084,2.0917969 0.6084,0.69042965 1.53125,0.69042965 0.91602,0 1.52441,-0.69726565 0.6084,-0.6972656 0.6084,-2.1259765 0,-1.3466797 -0.61523,-2.0371094 -0.6084,-0.6972656 -1.51758,-0.6972656 -0.92285,0 -1.53125,0.6904297 -0.6084,0.6904296 -0.6084,2.0849609 z" /><path
             id="path142"
             style=""
             d="m 126.11086,0 v -7.2597656 h 1.10742 v 1.0322265 q 0.7998,-1.196289 2.31054,-1.196289 0.65625,0 1.20313,0.2392578 0.55371,0.2324219 0.82715,0.6152344 0.27343,0.3828125 0.38281,0.9091797 0.0684,0.3417968 0.0684,1.196289 V 0 h -1.23047 v -4.4160156 q 0,-0.7519531 -0.14355,-1.1210938 -0.14356,-0.3759765 -0.5127,-0.5947265 -0.3623,-0.225586 -0.85449,-0.225586 -0.78613,0 -1.36035,0.4990235 -0.56739,0.4990234 -0.56739,1.8935546 V 0 Z" /><path
             id="path144"
             style=""
             d="m 136.58138,-1.1005859 0.17773,1.08691402 q -0.51953,0.109375 -0.92969,0.109375 -0.66992,0 -1.03906,-0.21191406 -0.36914,-0.21191406 -0.51953,-0.55371093 -0.15039,-0.34863283 -0.15039,-1.45605473 v -4.1767578 h -0.90235 v -0.9570312 h 0.90235 v -1.7978516 l 1.22363,-0.7382812 v 2.5361328 h 1.23731 v 0.9570312 h -1.23731 v 4.2451172 q 0,0.5263672 0.0615,0.6767578 0.0684,0.1503907 0.21192,0.2392578 0.15039,0.088867 0.42383,0.088867 0.20507,0 0.54004,-0.047851 z" /><path
             id="path146"
             style=""
             d="m 138.20615,0 v -1.4013672 h 1.40136 V 0 q 0,0.77246094 -0.27343,1.2441406 -0.27344,0.4785156 -0.86817,0.7382813 l -0.3418,-0.5263672 Q 138.51376,1.2851562 138.69833,0.95019531 138.8829,0.62207031 138.90341,0 Z" /><path
             id="path148"
             style=""
             d="M 145.71216,2.7958984 145.57544,1.640625 Q 145.97876,1.75 146.27954,1.75 q 0.41016,0 0.65625,-0.1367188 0.24609,-0.1367187 0.40332,-0.3828125 0.11621,-0.1845703 0.37598,-0.91601557 0.0342,-0.10253907 0.10937,-0.30078125 l -2.75488,-7.27343748 h 1.32617 l 1.51074,4.2041015 q 0.29395,0.7998047 0.52637,1.6816407 0.21192,-0.8476563 0.50586,-1.6542969 l 1.55176,-4.2314453 h 1.23047 l -2.76172,7.38281247 q -0.44434,1.19628903 -0.69043,1.64746093 -0.32813,0.6083985 -0.75195,0.8886719 -0.42383,0.2871094 -1.01172,0.2871094 -0.35547,0 -0.79297,-0.1503907 z" /><path
             id="path150"
             style=""
             d="m 152.39284,-3.6298828 q 0,-2.0166016 1.12109,-2.9873047 0.93652,-0.8066406 2.2832,-0.8066406 1.49707,0 2.44727,0.984375 0.9502,0.977539 0.9502,2.7070312 0,1.4013672 -0.42383,2.2080078 -0.41699,0.79980473 -1.22364,1.24414066 -0.7998,0.44433594 -1.75,0.44433594 -1.52441,0 -2.46777,-0.97753906 -0.93652,-0.97753904 -0.93652,-2.81640624 z m 1.26465,0 q 0,1.3945312 0.60839,2.0917969 0.6084,0.69042965 1.53125,0.69042965 0.91602,0 1.52442,-0.69726565 0.6084,-0.6972656 0.6084,-2.1259765 0,-1.3466797 -0.61524,-2.0371094 -0.6084,-0.6972656 -1.51758,-0.6972656 -0.92285,0 -1.53125,0.6904297 -0.60839,0.6904296 -0.60839,2.0849609 z" /><path
             id="path152"
             style=""
             d="m 165.39267,0 v -1.0664062 q -0.84766,1.2304687 -2.30371,1.2304687 -0.64258,0 -1.20313,-0.24609375 -0.55371,-0.24609375 -0.82714,-0.61523437 -0.26661,-0.37597658 -0.37598,-0.91601558 -0.0752,-0.3623047 -0.0752,-1.1484376 v -4.4980468 h 1.23047 v 4.0263672 q 0,0.9638671 0.0752,1.2988281 0.11621,0.4853516 0.49218,0.765625 0.37598,0.27343749 0.92969,0.27343749 0.55371,0 1.03906,-0.28027339 0.48536,-0.2871094 0.6836,-0.772461 0.20508,-0.4921875 0.20508,-1.421875 v -3.8896484 h 1.23047 V 0 Z" /><path
             id="path154"
             style=""
             d="m 168.40518,0 v -7.2597656 h 1.10742 v 1.1005859 q 0.42383,-0.7724609 0.7793,-1.0185547 0.36231,-0.2460937 0.79297,-0.2460937 0.62207,0 1.26465,0.3964844 l -0.42383,1.1416015 q -0.45117,-0.2666015 -0.90234,-0.2666015 -0.40332,0 -0.72461,0.2460937 -0.32129,0.2392578 -0.45801,0.6699219 -0.20508,0.65625 -0.20508,1.4355468 V 0 Z" /><path
             id="path156"
             style=""
             d="m 181.73816,-0.89550781 q -0.68359,0.58105468 -1.31934,0.8203125 -0.6289,0.23925781 -1.35351,0.23925781 -1.19629,0 -1.83887,-0.58105469 -0.64258,-0.58789061 -0.64258,-1.49707031 0,-0.5332031 0.23926,-0.9707031 0.24609,-0.444336 0.63574,-0.7109375 0.39649,-0.2666016 0.88867,-0.4033203 0.36231,-0.095703 1.09375,-0.1845703 1.49024,-0.1777344 2.19434,-0.4238282 0.007,-0.2529297 0.007,-0.321289 0,-0.7519532 -0.34864,-1.0595703 -0.47168,-0.4169922 -1.40136,-0.4169922 -0.86817,0 -1.28516,0.3076172 -0.41016,0.3007812 -0.6084,1.0732421 l -1.20312,-0.1640625 q 0.16406,-0.7724609 0.54004,-1.2441406 0.37597,-0.4785156 1.08691,-0.7314453 0.71094,-0.2597656 1.64746,-0.2597656 0.92969,0 1.51074,0.21875 0.58106,0.21875 0.85449,0.5537109 0.27344,0.328125 0.38282,0.8339844 0.0615,0.3144531 0.0615,1.1347656 v 1.640625 q 0,1.7158203 0.0752,2.17382814 0.082,0.45117187 0.31445,0.86816406 h -1.28516 q -0.1914,-0.3828125 -0.24609,-0.89550781 z m -0.10254,-2.74804689 q -0.66992,0.2734375 -2.00977,0.4648438 -0.75878,0.109375 -1.07324,0.2460937 -0.31445,0.1367188 -0.48535,0.4033203 -0.1709,0.2597656 -0.1709,0.5810547 0,0.4921875 0.36914,0.8203125 0.37598,0.32812501 1.09375,0.32812501 0.71094,0 1.26465,-0.30761721 0.55371,-0.3144531 0.81348,-0.8544922 0.19824,-0.4169922 0.19824,-1.2304687 z" /><path
             id="path158"
             style=""
             d="m 189.54266,0 v -1.0664062 q -0.84765,1.2304687 -2.30371,1.2304687 -0.64258,0 -1.20312,-0.24609375 -0.55371,-0.24609375 -0.82715,-0.61523437 -0.2666,-0.37597658 -0.37598,-0.91601558 -0.0752,-0.3623047 -0.0752,-1.1484376 v -4.4980468 h 1.23047 v 4.0263672 q 0,0.9638671 0.0752,1.2988281 0.11621,0.4853516 0.49219,0.765625 0.37598,0.27343749 0.92969,0.27343749 0.55371,0 1.03906,-0.28027339 0.48535,-0.2871094 0.68359,-0.772461 0.20508,-0.4921875 0.20508,-1.421875 v -3.8896484 h 1.23047 V 0 Z" /><path
             id="path160"
             style=""
             d="m 197.27881,0 v -0.91601563 q -0.69043,1.08007813 -2.03027,1.08007813 -0.86817,0 -1.59961,-0.47851563 -0.72461,-0.47851562 -1.12793,-1.33300777 -0.39649,-0.8613282 -0.39649,-1.975586 0,-1.086914 0.36231,-1.96875 0.3623,-0.8886718 1.08691,-1.3603515 0.72461,-0.4716797 1.62012,-0.4716797 0.65625,0 1.16894,0.2802734 0.5127,0.2734375 0.83399,0.7177735 v -3.5957028 h 1.22363 V 0 Z m -3.88965,-3.6230469 q 0,1.3945313 0.58789,2.084961 0.58789,0.69042965 1.3877,0.69042965 0.80664,0 1.36718,-0.65624995 0.56739,-0.663086 0.56739,-2.0166016 0,-1.4902344 -0.57422,-2.1875 -0.57422,-0.6972656 -1.41504,-0.6972656 -0.82031,0 -1.37402,0.6699218 -0.54688,0.6699219 -0.54688,2.1123047 z" /><path
             id="path162"
             style=""
             d="m 200.45769,-8.6064453 v -1.4150387 h 1.23047 v 1.4150387 z m 0,8.6064453 v -7.2597656 h 1.23047 V 0 Z" /><path
             id="path164"
             style=""
             d="m 208.51457,-2.3378906 1.27149,0.1572265 q -0.30078,1.1142579 -1.11426,1.72949222 -0.81348,0.61523438 -2.07813,0.61523438 -1.59277,0 -2.52929,-0.97753906 -0.92969,-0.98437504 -0.92969,-2.75488284 0,-1.8320312 0.94336,-2.84375 0.94336,-1.0117187 2.44726,-1.0117187 1.45606,0 2.37891,0.9912109 0.92285,0.991211 0.92285,2.7890625 0,0.109375 -0.007,0.328125 h -5.41407 q 0.0684,1.1962891 0.67676,1.8320313 0.6084,0.63574215 1.51758,0.63574215 0.67676,0 1.15527,-0.35546875 0.47852,-0.3554687 0.75879,-1.1347656 z m -4.04004,-1.9892578 h 4.05371 q -0.082,-0.9160157 -0.46484,-1.3740235 -0.58789,-0.7109375 -1.52441,-0.7109375 -0.84766,0 -1.42871,0.5673828 -0.57422,0.5673829 -0.63575,1.5175782 z" /><path
             id="path166"
             style=""
             d="m 211.32886,0 v -7.2597656 h 1.10742 v 1.0322265 q 0.7998,-1.196289 2.31055,-1.196289 0.65625,0 1.20312,0.2392578 0.55371,0.2324219 0.82715,0.6152344 0.27344,0.3828125 0.38281,0.9091797 0.0684,0.3417968 0.0684,1.196289 V 0 h -1.23047 v -4.4160156 q 0,-0.7519531 -0.14355,-1.1210938 -0.14356,-0.3759765 -0.5127,-0.5947265 -0.3623,-0.225586 -0.85449,-0.225586 -0.78613,0 -1.36035,0.4990235 -0.56738,0.4990234 -0.56738,1.8935546 V 0 Z" /><path
             id="path168"
             style=""
             d="m 223.85016,-2.6591797 1.20996,0.1572266 q -0.19824,1.2509765 -1.01856,1.96191404 -0.81347,0.70410156 -2.00292,0.70410156 -1.49024,0 -2.39942,-0.97070313 -0.90234,-0.97753907 -0.90234,-2.79589847 0,-1.1757812 0.38965,-2.0576171 0.38964,-0.881836 1.18261,-1.319336 0.79981,-0.4443359 1.73633,-0.4443359 1.18262,0 1.93457,0.6015625 0.75195,0.5947265 0.96387,1.6953125 l -1.19629,0.1845703 q -0.1709,-0.7314453 -0.6084,-1.1005859 -0.43066,-0.3691407 -1.0459,-0.3691407 -0.92968,0 -1.51074,0.6699219 -0.58105,0.6630859 -0.58105,2.1054687 0,1.4628907 0.56054,2.1259766 0.56055,0.66308595 1.46289,0.66308595 0.72461,0 1.20996,-0.44433595 0.48536,-0.4443359 0.61524,-1.3671875 z" /><path
             id="path170"
             style=""
             d="m 231.16658,-2.3378906 1.27148,0.1572265 q -0.30078,1.1142579 -1.11425,1.72949222 -0.81348,0.61523438 -2.07813,0.61523438 -1.59277,0 -2.5293,-0.97753906 -0.92968,-0.98437504 -0.92968,-2.75488284 0,-1.8320312 0.94336,-2.84375 0.94336,-1.0117187 2.44726,-1.0117187 1.45606,0 2.37891,0.9912109 0.92285,0.991211 0.92285,2.7890625 0,0.109375 -0.007,0.328125 h -5.41406 q 0.0684,1.1962891 0.67676,1.8320313 0.6084,0.63574215 1.51758,0.63574215 0.67676,0 1.15527,-0.35546875 0.47852,-0.3554687 0.75879,-1.1347656 z m -4.04004,-1.9892578 h 4.05371 q -0.082,-0.9160157 -0.46484,-1.3740235 -0.58789,-0.7109375 -1.52442,-0.7109375 -0.84765,0 -1.42871,0.5673828 -0.57422,0.5673829 -0.63574,1.5175782 z" /><path
             id="path172"
             style=""
             d="m 239.2267,0 -2.22168,-7.2597656 h 1.27148 l 1.15528,4.1904297 0.43066,1.5585937 q 0.0274,-0.1162109 0.37598,-1.4970703 l 1.15527,-4.2519531 h 1.26465 l 1.08691,4.2109375 0.36231,1.3876953 0.41699,-1.4013672 1.24414,-4.1972656 h 1.19629 L 244.69545,0 h -1.27832 L 242.26186,-4.3476562 241.98158,-5.5849609 240.51186,0 Z" /><path
             id="path174"
             style=""
             d="m 247.62085,-3.6298828 q 0,-2.0166016 1.12109,-2.9873047 0.93653,-0.8066406 2.28321,-0.8066406 1.49707,0 2.44726,0.984375 0.9502,0.977539 0.9502,2.7070312 0,1.4013672 -0.42383,2.2080078 -0.41699,0.79980473 -1.22363,1.24414066 -0.79981,0.44433594 -1.75,0.44433594 -1.52442,0 -2.46778,-0.97753906 -0.93652,-0.97753904 -0.93652,-2.81640624 z m 1.26465,0 q 0,1.3945312 0.6084,2.0917969 0.60839,0.69042965 1.53125,0.69042965 0.91601,0 1.52441,-0.69726565 0.6084,-0.6972656 0.6084,-2.1259765 0,-1.3466797 -0.61524,-2.0371094 -0.60839,-0.6972656 -1.51757,-0.6972656 -0.92286,0 -1.53125,0.6904297 -0.6084,0.6904296 -0.6084,2.0849609 z" /><path
             id="path176"
             style=""
             d="m 255.86285,0 v -7.2597656 h 1.10743 v 1.0322265 q 0.7998,-1.196289 2.31054,-1.196289 0.65625,0 1.20313,0.2392578 0.55371,0.2324219 0.82715,0.6152344 0.27343,0.3828125 0.38281,0.9091797 0.0684,0.3417968 0.0684,1.196289 V 0 h -1.23047 v -4.4160156 q 0,-0.7519531 -0.14356,-1.1210938 -0.14355,-0.3759765 -0.51269,-0.5947265 -0.36231,-0.225586 -0.85449,-0.225586 -0.78614,0 -1.36035,0.4990235 -0.56739,0.4990234 -0.56739,1.8935546 V 0 Z" /><path
             id="path178"
             style=""
             d="m 263.57166,-8.6953125 v -1.4287105 h 1.31933 v 1.1279292 q 0,0.9160157 -0.21191,1.319336 -0.29395,0.5537109 -0.91602,0.8339844 l -0.30078,-0.4853516 q 0.36914,-0.1503906 0.54688,-0.4716797 0.18457,-0.328125 0.20507,-0.8955078 z" /><path
             id="path180"
             style=""
             d="m 269.42737,-1.1005859 0.17773,1.08691402 q -0.51953,0.109375 -0.92968,0.109375 -0.66993,0 -1.03907,-0.21191406 -0.36914,-0.21191406 -0.51953,-0.55371093 -0.15039,-0.34863283 -0.15039,-1.45605473 v -4.1767578 h -0.90234 v -0.9570312 h 0.90234 v -1.7978516 l 1.22363,-0.7382812 v 2.5361328 h 1.23731 v 0.9570312 h -1.23731 v 4.2451172 q 0,0.5263672 0.0615,0.6767578 0.0684,0.1503907 0.21191,0.2392578 0.15039,0.088867 0.42383,0.088867 0.20508,0 0.54004,-0.047851 z" /><path
             id="path182"
             style=""
             d="m 275.75763,0 h -1.1416 v -10.021484 h 1.23047 v 3.5751949 q 0.77929,-0.977539 1.98925,-0.977539 0.66993,0 1.26465,0.2734375 0.60157,0.2666015 0.98438,0.758789 0.38965,0.4853516 0.6084,1.1757813 0.21875,0.6904297 0.21875,1.4765625 0,1.8662109 -0.92286,2.88476561 -0.92285,1.01855469 -2.21484,1.01855469 -1.28516,0 -2.0166,-1.07324219 z m -0.0137,-3.6845703 q 0,1.305664 0.35547,1.8867187 0.58105,0.95019535 1.57226,0.95019535 0.80664,0 1.39453,-0.69726565 0.58789,-0.7041015 0.58789,-2.0917969 0,-1.4218749 -0.56738,-2.0986328 -0.56055,-0.6767578 -1.36035,-0.6767578 -0.80664,0 -1.39453,0.7041016 -0.58789,0.6972656 -0.58789,2.0234375 z" /><path
             id="path184"
             style=""
             d="m 287.37659,-2.3378906 1.27148,0.1572265 q -0.30078,1.1142579 -1.11426,1.72949222 -0.81347,0.61523438 -2.07812,0.61523438 -1.59277,0 -2.5293,-0.97753906 -0.92969,-0.98437504 -0.92969,-2.75488284 0,-1.8320312 0.94336,-2.84375 0.94336,-1.0117187 2.44727,-1.0117187 1.45605,0 2.37891,0.9912109 0.92285,0.991211 0.92285,2.7890625 0,0.109375 -0.007,0.328125 h -5.41406 q 0.0684,1.1962891 0.67676,1.8320313 0.60839,0.63574215 1.51757,0.63574215 0.67676,0 1.15528,-0.35546875 0.47851,-0.3554687 0.75879,-1.1347656 z m -4.04004,-1.9892578 h 4.05371 q -0.082,-0.9160157 -0.46484,-1.3740235 -0.5879,-0.7109375 -1.52442,-0.7109375 -0.84766,0 -1.42871,0.5673828 -0.57422,0.5673829 -0.63574,1.5175782 z" /><path
             id="path186"
             style=""
             d="m 298.91815,-0.89550781 q -0.68359,0.58105468 -1.31933,0.8203125 -0.62891,0.23925781 -1.35352,0.23925781 -1.19629,0 -1.83887,-0.58105469 -0.64258,-0.58789061 -0.64258,-1.49707031 0,-0.5332031 0.23926,-0.9707031 0.2461,-0.444336 0.63574,-0.7109375 0.39649,-0.2666016 0.88868,-0.4033203 0.3623,-0.095703 1.09375,-0.1845703 1.49023,-0.1777344 2.19433,-0.4238282 0.007,-0.2529297 0.007,-0.321289 0,-0.7519532 -0.34863,-1.0595703 -0.47168,-0.4169922 -1.40137,-0.4169922 -0.86817,0 -1.28516,0.3076172 -0.41015,0.3007812 -0.6084,1.0732421 l -1.20312,-0.1640625 q 0.16406,-0.7724609 0.54004,-1.2441406 0.37597,-0.4785156 1.08691,-0.7314453 0.71094,-0.2597656 1.64746,-0.2597656 0.92969,0 1.51075,0.21875 0.58105,0.21875 0.85449,0.5537109 0.27343,0.328125 0.38281,0.8339844 0.0615,0.3144531 0.0615,1.1347656 v 1.640625 q 0,1.7158203 0.0752,2.17382814 Q 300.21698,-0.41699219 300.4494,0 h -1.28515 q -0.19141,-0.3828125 -0.2461,-0.89550781 z m -0.10254,-2.74804689 q -0.66992,0.2734375 -2.00976,0.4648438 -0.75879,0.109375 -1.07325,0.2460937 -0.31445,0.1367188 -0.48535,0.4033203 -0.1709,0.2597656 -0.1709,0.5810547 0,0.4921875 0.36915,0.8203125 0.37597,0.32812501 1.09375,0.32812501 0.71093,0 1.26464,-0.30761721 0.55371,-0.3144531 0.81348,-0.8544922 0.19824,-0.4169922 0.19824,-1.2304687 z" /><path
             id="path188"
             style=""
             d="m 303.09961,0 h -1.1416 v -10.021484 h 1.23047 v 3.5751949 q 0.77929,-0.977539 1.98925,-0.977539 0.66993,0 1.26465,0.2734375 0.60157,0.2666015 0.98438,0.758789 0.38965,0.4853516 0.6084,1.1757813 0.21875,0.6904297 0.21875,1.4765625 0,1.8662109 -0.92286,2.88476561 -0.92285,1.01855469 -2.21484,1.01855469 -1.28516,0 -2.0166,-1.07324219 z m -0.0137,-3.6845703 q 0,1.305664 0.35547,1.8867187 0.58105,0.95019535 1.57226,0.95019535 0.80664,0 1.39453,-0.69726565 0.58789,-0.7041015 0.58789,-2.0917969 0,-1.4218749 -0.56738,-2.0986328 -0.56055,-0.6767578 -1.36035,-0.6767578 -0.80664,0 -1.39453,0.7041016 -0.58789,0.6972656 -0.58789,2.0234375 z" /><path
             id="path190"
             style=""
             d="m 309.7215,0 v -10.021484 h 1.23047 V 0 Z" /><path
             id="path192"
             style=""
             d="m 317.81259,-2.3378906 1.27149,0.1572265 q -0.30079,1.1142579 -1.11426,1.72949222 -0.81348,0.61523438 -2.07813,0.61523438 -1.59277,0 -2.52929,-0.97753906 -0.92969,-0.98437504 -0.92969,-2.75488284 0,-1.8320312 0.94336,-2.84375 0.94336,-1.0117187 2.44726,-1.0117187 1.45606,0 2.37891,0.9912109 0.92285,0.991211 0.92285,2.7890625 0,0.109375 -0.007,0.328125 h -5.41407 q 0.0684,1.1962891 0.67676,1.8320313 0.6084,0.63574215 1.51758,0.63574215 0.67676,0 1.15527,-0.35546875 0.47852,-0.3554687 0.75879,-1.1347656 z m -4.04004,-1.9892578 h 4.05371 q -0.082,-0.9160157 -0.46484,-1.3740235 -0.58789,-0.7109375 -1.52441,-0.7109375 -0.84766,0 -1.42872,0.5673828 -0.57421,0.5673829 -0.63574,1.5175782 z" /><path
             id="path194"
             style=""
             d="m 327.30338,-1.1005859 0.17773,1.08691402 q -0.51953,0.109375 -0.92969,0.109375 -0.66992,0 -1.03906,-0.21191406 -0.36914,-0.21191406 -0.51953,-0.55371093 -0.15039,-0.34863283 -0.15039,-1.45605473 v -4.1767578 h -0.90235 v -0.9570312 h 0.90235 v -1.7978516 l 1.22363,-0.7382812 v 2.5361328 h 1.23731 v 0.9570312 h -1.23731 v 4.2451172 q 0,0.5263672 0.0615,0.6767578 0.0684,0.1503907 0.21192,0.2392578 0.15039,0.088867 0.42383,0.088867 0.20507,0 0.54004,-0.047851 z" /><path
             id="path196"
             style=""
             d="m 328.05084,-3.6298828 q 0,-2.0166016 1.1211,-2.9873047 0.93652,-0.8066406 2.2832,-0.8066406 1.49707,0 2.44726,0.984375 0.9502,0.977539 0.9502,2.7070312 0,1.4013672 -0.42383,2.2080078 -0.41699,0.79980473 -1.22363,1.24414066 -0.79981,0.44433594 -1.75,0.44433594 -1.52441,0 -2.46777,-0.97753906 -0.93653,-0.97753904 -0.93653,-2.81640624 z m 1.26465,0 q 0,1.3945312 0.6084,2.0917969 0.6084,0.69042965 1.53125,0.69042965 0.91601,0 1.52441,-0.69726565 0.6084,-0.6972656 0.6084,-2.1259765 0,-1.3466797 -0.61523,-2.0371094 -0.6084,-0.6972656 -1.51758,-0.6972656 -0.92285,0 -1.53125,0.6904297 -0.6084,0.6904296 -0.6084,2.0849609 z" /><path
             id="path198"
             style=""
             d="m 340.26917,0 v -7.2597656 h 1.10742 v 1.1005859 q 0.42383,-0.7724609 0.77929,-1.0185547 0.36231,-0.2460937 0.79297,-0.2460937 0.62207,0 1.26465,0.3964844 l -0.42383,1.1416015 q -0.45117,-0.2666015 -0.90234,-0.2666015 -0.40332,0 -0.72461,0.2460937 -0.32129,0.2392578 -0.45801,0.6699219 -0.20508,0.65625 -0.20508,1.4355468 V 0 Z" /><path
             id="path200"
             style=""
             d="m 349.94257,-2.3378906 1.27148,0.1572265 q -0.30078,1.1142579 -1.11426,1.72949222 -0.81347,0.61523438 -2.07812,0.61523438 -1.59278,0 -2.5293,-0.97753906 -0.92969,-0.98437504 -0.92969,-2.75488284 0,-1.8320312 0.94336,-2.84375 0.94336,-1.0117187 2.44727,-1.0117187 1.45605,0 2.3789,0.9912109 0.92286,0.991211 0.92286,2.7890625 0,0.109375 -0.007,0.328125 h -5.41406 q 0.0684,1.1962891 0.67676,1.8320313 0.60839,0.63574215 1.51757,0.63574215 0.67676,0 1.15528,-0.35546875 0.47851,-0.3554687 0.75879,-1.1347656 z m -4.04004,-1.9892578 h 4.05371 q -0.082,-0.9160157 -0.46485,-1.3740235 -0.58789,-0.7109375 -1.52441,-0.7109375 -0.84766,0 -1.42871,0.5673828 -0.57422,0.5673829 -0.63574,1.5175782 z" /><path
             id="path202"
             style=""
             d="m 357.49417,-0.89550781 q -0.68359,0.58105468 -1.31933,0.8203125 -0.62891,0.23925781 -1.35352,0.23925781 -1.19629,0 -1.83887,-0.58105469 -0.64258,-0.58789061 -0.64258,-1.49707031 0,-0.5332031 0.23926,-0.9707031 0.2461,-0.444336 0.63574,-0.7109375 0.39649,-0.2666016 0.88868,-0.4033203 0.3623,-0.095703 1.09375,-0.1845703 1.49023,-0.1777344 2.19433,-0.4238282 0.007,-0.2529297 0.007,-0.321289 0,-0.7519532 -0.34863,-1.0595703 -0.47168,-0.4169922 -1.40137,-0.4169922 -0.86817,0 -1.28516,0.3076172 -0.41015,0.3007812 -0.6084,1.0732421 l -1.20312,-0.1640625 q 0.16406,-0.7724609 0.54004,-1.2441406 0.37597,-0.4785156 1.08691,-0.7314453 0.71094,-0.2597656 1.64746,-0.2597656 0.92969,0 1.51074,0.21875 0.58106,0.21875 0.8545,0.5537109 0.27343,0.328125 0.38281,0.8339844 0.0615,0.3144531 0.0615,1.1347656 v 1.640625 q 0,1.7158203 0.0752,2.17382814 Q 358.793,-0.41699219 359.02542,0 h -1.28516 q -0.1914,-0.3828125 -0.24609,-0.89550781 z m -0.10254,-2.74804689 q -0.66992,0.2734375 -2.00976,0.4648438 -0.75879,0.109375 -1.07325,0.2460937 -0.31445,0.1367188 -0.48535,0.4033203 -0.1709,0.2597656 -0.1709,0.5810547 0,0.4921875 0.36914,0.8203125 0.37598,0.32812501 1.09375,0.32812501 0.71094,0 1.26465,-0.30761721 0.55371,-0.3144531 0.81348,-0.8544922 0.19824,-0.4169922 0.19824,-1.2304687 z" /><path
             id="path204"
             style=""
             d="m 365.25082,0 v -0.91601563 q -0.69043,1.08007813 -2.03027,1.08007813 -0.86816,0 -1.59961,-0.47851563 -0.72461,-0.47851562 -1.12793,-1.33300777 -0.39648,-0.8613282 -0.39648,-1.975586 0,-1.086914 0.3623,-1.96875 0.36231,-0.8886718 1.08692,-1.3603515 0.72461,-0.4716797 1.62011,-0.4716797 0.65625,0 1.16895,0.2802734 0.51269,0.2734375 0.83398,0.7177735 v -3.5957028 h 1.22364 V 0 Z m -3.88964,-3.6230469 q 0,1.3945313 0.58789,2.084961 0.58789,0.69042965 1.38769,0.69042965 0.80664,0 1.36719,-0.65624995 0.56738,-0.663086 0.56738,-2.0166016 0,-1.4902344 -0.57422,-2.1875 -0.57422,-0.6972656 -1.41504,-0.6972656 -0.82031,0 -1.37402,0.6699218 -0.54687,0.6699219 -0.54687,2.1123047 z" /><path
             id="path206"
             style=""
             d="m 373.5567,0 -2.22168,-7.2597656 h 1.27149 l 1.15527,4.1904297 0.43066,1.5585937 q 0.0274,-0.1162109 0.37598,-1.4970703 l 1.15527,-4.2519531 h 1.26465 l 1.08692,4.2109375 0.3623,1.3876953 0.41699,-1.4013672 1.24414,-4.1972656 h 1.19629 L 379.02545,0 h -1.27832 L 376.59186,-4.3476562 376.31158,-5.5849609 374.84186,0 Z" /><path
             id="path208"
             style=""
             d="m 382.40884,0 v -10.021484 h 1.23047 v 3.5957028 q 0.86133,-0.9980469 2.17383,-0.9980469 0.80664,0 1.40137,0.321289 0.59472,0.3144532 0.84765,0.875 0.25977,0.5605469 0.25977,1.6269532 V 0 h -1.23047 v -4.6005859 q 0,-0.9228516 -0.40332,-1.3398438 -0.39648,-0.4238281 -1.12793,-0.4238281 -0.54687,0 -1.03223,0.2871094 -0.47851,0.2802734 -0.68359,0.765625 -0.20508,0.4853515 -0.20508,1.3398437 V 0 Z" /><path
             id="path210"
             style=""
             d="m 394.93015,-0.89550781 q -0.6836,0.58105468 -1.31934,0.8203125 -0.62891,0.23925781 -1.35352,0.23925781 -1.19629,0 -1.83886,-0.58105469 -0.64258,-0.58789061 -0.64258,-1.49707031 0,-0.5332031 0.23926,-0.9707031 0.24609,-0.444336 0.63574,-0.7109375 0.39648,-0.2666016 0.88867,-0.4033203 0.3623,-0.095703 1.09375,-0.1845703 1.49023,-0.1777344 2.19434,-0.4238282 0.007,-0.2529297 0.007,-0.321289 0,-0.7519532 -0.34863,-1.0595703 -0.47168,-0.4169922 -1.40137,-0.4169922 -0.86816,0 -1.28515,0.3076172 -0.41016,0.3007812 -0.6084,1.0732421 l -1.20313,-0.1640625 q 0.16406,-0.7724609 0.54004,-1.2441406 0.37598,-0.4785156 1.08692,-0.7314453 0.71093,-0.2597656 1.64746,-0.2597656 0.92968,0 1.51074,0.21875 0.58105,0.21875 0.85449,0.5537109 0.27344,0.328125 0.38281,0.8339844 0.0615,0.3144531 0.0615,1.1347656 v 1.640625 q 0,1.7158203 0.0752,2.17382814 Q 396.22897,-0.41699219 396.4614,0 h -1.28516 q -0.19141,-0.3828125 -0.24609,-0.89550781 z m -0.10254,-2.74804689 q -0.66993,0.2734375 -2.00977,0.4648438 -0.75879,0.109375 -1.07324,0.2460937 -0.31445,0.1367188 -0.48535,0.4033203 -0.1709,0.2597656 -0.1709,0.5810547 0,0.4921875 0.36914,0.8203125 0.37598,0.32812501 1.09375,0.32812501 0.71094,0 1.26465,-0.30761721 0.55371,-0.3144531 0.81347,-0.8544922 0.19825,-0.4169922 0.19825,-1.2304687 z" /><path
             id="path212"
             style=""
             d="m 400.76138,-1.1005859 0.17774,1.08691402 q -0.51953,0.109375 -0.92969,0.109375 -0.66992,0 -1.03906,-0.21191406 -0.36914,-0.21191406 -0.51953,-0.55371093 -0.15039,-0.34863283 -0.15039,-1.45605473 v -4.1767578 h -0.90235 v -0.9570312 h 0.90235 v -1.7978516 l 1.22363,-0.7382812 v 2.5361328 h 1.2373 v 0.9570312 h -1.2373 v 4.2451172 q 0,0.5263672 0.0615,0.6767578 0.0684,0.1503907 0.21192,0.2392578 0.15039,0.088867 0.42382,0.088867 0.20508,0 0.54004,-0.047851 z" /><path
             id="path214"
             style=""
             d="M 405.90216,2.7958984 405.76544,1.640625 Q 406.16876,1.75 406.46954,1.75 q 0.41016,0 0.65625,-0.1367188 0.2461,-0.1367187 0.40332,-0.3828125 0.11621,-0.1845703 0.37598,-0.91601557 0.0342,-0.10253907 0.10938,-0.30078125 l -2.75489,-7.27343748 h 1.32617 l 1.51075,4.2041015 q 0.29394,0.7998047 0.52636,1.6816407 0.21192,-0.8476563 0.50586,-1.6542969 l 1.55176,-4.2314453 h 1.23047 l -2.76172,7.38281247 q -0.44433,1.19628903 -0.69043,1.64746093 -0.32812,0.6083985 -0.75195,0.8886719 -0.42383,0.2871094 -1.01172,0.2871094 -0.35547,0 -0.79297,-0.1503907 z" /><path
             id="path216"
             style=""
             d="m 412.58286,-3.6298828 q 0,-2.0166016 1.12109,-2.9873047 0.93652,-0.8066406 2.2832,-0.8066406 1.49707,0 2.44727,0.984375 0.95019,0.977539 0.95019,2.7070312 0,1.4013672 -0.42383,2.2080078 -0.41699,0.79980473 -1.22363,1.24414066 -0.7998,0.44433594 -1.75,0.44433594 -1.52441,0 -2.46777,-0.97753906 -0.93652,-0.97753904 -0.93652,-2.81640624 z m 1.26464,0 q 0,1.3945312 0.6084,2.0917969 0.6084,0.69042965 1.53125,0.69042965 0.91602,0 1.52442,-0.69726565 0.60839,-0.6972656 0.60839,-2.1259765 0,-1.3466797 -0.61523,-2.0371094 -0.6084,-0.6972656 -1.51758,-0.6972656 -0.92285,0 -1.53125,0.6904297 -0.6084,0.6904296 -0.6084,2.0849609 z" /><path
             id="path218"
             style=""
             d="m 425.49866,0 v -1.0664062 q -0.84766,1.2304687 -2.30371,1.2304687 -0.64258,0 -1.20313,-0.24609375 -0.55371,-0.24609375 -0.82715,-0.61523437 -0.2666,-0.37597658 -0.37597,-0.91601558 -0.0752,-0.3623047 -0.0752,-1.1484376 v -4.4980468 h 1.23047 v 4.0263672 q 0,0.9638671 0.0752,1.2988281 0.11621,0.4853516 0.49218,0.765625 0.37598,0.27343749 0.92969,0.27343749 0.55371,0 1.03906,-0.28027339 0.48535,-0.2871094 0.6836,-0.772461 0.20507,-0.4921875 0.20507,-1.421875 v -3.8896484 h 1.23047 V 0 Z" /><path
             id="path220"
             style=""
             d="m 432.51486,0 v -10.021484 h 1.23047 v 3.5957028 q 0.86133,-0.9980469 2.17383,-0.9980469 0.80664,0 1.40137,0.321289 0.59472,0.3144532 0.84765,0.875 0.25977,0.5605469 0.25977,1.6269532 V 0 h -1.23047 v -4.6005859 q 0,-0.9228516 -0.40332,-1.3398438 -0.39649,-0.4238281 -1.12793,-0.4238281 -0.54688,0 -1.03223,0.2871094 -0.47851,0.2802734 -0.68359,0.765625 -0.20508,0.4853515 -0.20508,1.3398437 V 0 Z" /><path
             id="path222"
             style=""
             d="m 445.03616,-0.89550781 q -0.68359,0.58105468 -1.31933,0.8203125 -0.62891,0.23925781 -1.35352,0.23925781 -1.19629,0 -1.83887,-0.58105469 -0.64257,-0.58789061 -0.64257,-1.49707031 0,-0.5332031 0.23925,-0.9707031 0.2461,-0.444336 0.63575,-0.7109375 0.39648,-0.2666016 0.88867,-0.4033203 0.3623,-0.095703 1.09375,-0.1845703 1.49023,-0.1777344 2.19433,-0.4238282 0.007,-0.2529297 0.007,-0.321289 0,-0.7519532 -0.34863,-1.0595703 -0.47168,-0.4169922 -1.40137,-0.4169922 -0.86816,0 -1.28516,0.3076172 -0.41015,0.3007812 -0.60839,1.0732421 l -1.20313,-0.1640625 q 0.16406,-0.7724609 0.54004,-1.2441406 0.37598,-0.4785156 1.08691,-0.7314453 0.71094,-0.2597656 1.64746,-0.2597656 0.92969,0 1.51075,0.21875 0.58105,0.21875 0.85449,0.5537109 0.27344,0.328125 0.38281,0.8339844 0.0615,0.3144531 0.0615,1.1347656 v 1.640625 q 0,1.7158203 0.0752,2.17382814 0.082,0.45117187 0.31445,0.86816406 h -1.28515 q -0.19141,-0.3828125 -0.2461,-0.89550781 z m -0.10254,-2.74804689 q -0.66992,0.2734375 -2.00976,0.4648438 -0.75879,0.109375 -1.07324,0.2460937 -0.31446,0.1367188 -0.48536,0.4033203 -0.17089,0.2597656 -0.17089,0.5810547 0,0.4921875 0.36914,0.8203125 0.37597,0.32812501 1.09375,0.32812501 0.71093,0 1.26465,-0.30761721 0.55371,-0.3144531 0.81347,-0.8544922 0.19824,-0.4169922 0.19824,-1.2304687 z" /><path
             id="path224"
             style=""
             d="m 450.09946,0 -2.76172,-7.2597656 h 1.29883 l 1.55859,4.3476562 q 0.25293,0.7041016 0.46484,1.4628907 0.16407,-0.5742188 0.45801,-1.3808594 l 1.61328,-4.4296875 h 1.26465 L 451.24789,0 Z" /><path
             id="path226"
             style=""
             d="m 460.13657,-2.3378906 1.27148,0.1572265 q -0.30078,1.1142579 -1.11426,1.72949222 -0.81347,0.61523438 -2.07812,0.61523438 -1.59278,0 -2.5293,-0.97753906 -0.92969,-0.98437504 -0.92969,-2.75488284 0,-1.8320312 0.94336,-2.84375 0.94336,-1.0117187 2.44727,-1.0117187 1.45605,0 2.3789,0.9912109 0.92286,0.991211 0.92286,2.7890625 0,0.109375 -0.007,0.328125 h -5.41406 q 0.0684,1.1962891 0.67676,1.8320313 0.60839,0.63574215 1.51757,0.63574215 0.67676,0 1.15528,-0.35546875 0.47851,-0.3554687 0.75879,-1.1347656 z m -4.04004,-1.9892578 h 4.05371 q -0.082,-0.9160157 -0.46485,-1.3740235 -0.58789,-0.7109375 -1.52441,-0.7109375 -0.84766,0 -1.42871,0.5673828 -0.57422,0.5673829 -0.63574,1.5175782 z" /><path
             id="path228"
             style=""
             d="m 468.2807,0 -2.22168,-7.2597656 h 1.27149 l 1.15527,4.1904297 0.43066,1.5585937 q 0.0273,-0.1162109 0.37598,-1.4970703 l 1.15527,-4.2519531 h 1.26465 l 1.08692,4.2109375 0.3623,1.3876953 0.41699,-1.4013672 1.24414,-4.1972656 h 1.19629 L 473.74945,0 h -1.27832 L 471.31586,-4.3476562 471.03558,-5.5849609 469.56586,0 Z" /><path
             id="path230"
             style=""
             d="m 477.11917,0 v -7.2597656 h 1.10742 v 1.1005859 q 0.42383,-0.7724609 0.7793,-1.0185547 0.3623,-0.2460937 0.79297,-0.2460937 0.62207,0 1.26465,0.3964844 l -0.42383,1.1416015 q -0.45117,-0.2666015 -0.90234,-0.2666015 -0.40333,0 -0.72461,0.2460937 -0.32129,0.2392578 -0.45801,0.6699219 -0.20508,0.65625 -0.20508,1.4355468 V 0 Z" /><path
             id="path232"
             style=""
             d="m 481.7457,-8.6064453 v -1.4150387 h 1.23047 v 1.4150387 z M 481.7457,0 v -7.2597656 h 1.23047 V 0 Z" /><path
             id="path234"
             style=""
             d="m 487.61737,-1.1005859 0.17773,1.08691402 q -0.51953,0.109375 -0.92968,0.109375 -0.66992,0 -1.03907,-0.21191406 -0.36914,-0.21191406 -0.51953,-0.55371093 -0.15039,-0.34863283 -0.15039,-1.45605473 v -4.1767578 h -0.90234 v -0.9570312 h 0.90234 v -1.7978516 l 1.22364,-0.7382812 v 2.5361328 h 1.2373 v 0.9570312 h -1.2373 v 4.2451172 q 0,0.5263672 0.0615,0.6767578 0.0684,0.1503907 0.21191,0.2392578 0.15039,0.088867 0.42383,0.088867 0.20508,0 0.54004,-0.047851 z" /><path
             id="path236"
             style=""
             d="m 491.50937,-1.1005859 0.17773,1.08691402 q -0.51953,0.109375 -0.92968,0.109375 -0.66993,0 -1.03907,-0.21191406 -0.36914,-0.21191406 -0.51953,-0.55371093 -0.15039,-0.34863283 -0.15039,-1.45605473 v -4.1767578 h -0.90234 v -0.9570312 h 0.90234 v -1.7978516 l 1.22363,-0.7382812 v 2.5361328 h 1.23731 v 0.9570312 h -1.23731 v 4.2451172 q 0,0.5263672 0.0615,0.6767578 0.0684,0.1503907 0.21191,0.2392578 0.15039,0.088867 0.42383,0.088867 0.20508,0 0.54004,-0.047851 z" /><path
             id="path238"
             style=""
             d="m 497.78259,-2.3378906 1.27149,0.1572265 q -0.30078,1.1142579 -1.11426,1.72949222 -0.81348,0.61523438 -2.07813,0.61523438 -1.59277,0 -2.52929,-0.97753906 -0.92969,-0.98437504 -0.92969,-2.75488284 0,-1.8320312 0.94336,-2.84375 0.94336,-1.0117187 2.44726,-1.0117187 1.45606,0 2.37891,0.9912109 0.92285,0.991211 0.92285,2.7890625 0,0.109375 -0.007,0.328125 h -5.41407 q 0.0684,1.1962891 0.67676,1.8320313 0.6084,0.63574215 1.51758,0.63574215 0.67676,0 1.15527,-0.35546875 0.47852,-0.3554687 0.75879,-1.1347656 z m -4.04004,-1.9892578 h 4.05371 q -0.082,-0.9160157 -0.46484,-1.3740235 -0.58789,-0.7109375 -1.52441,-0.7109375 -0.84766,0 -1.42871,0.5673828 -0.57422,0.5673829 -0.63575,1.5175782 z" /><path
             id="path240"
             style=""
             d="m 500.59686,0 v -7.2597656 h 1.10742 v 1.0322265 q 0.79981,-1.196289 2.31055,-1.196289 0.65625,0 1.20313,0.2392578 0.55371,0.2324219 0.82714,0.6152344 0.27344,0.3828125 0.38282,0.9091797 0.0684,0.3417968 0.0684,1.196289 V 0 h -1.23047 v -4.4160156 q 0,-0.7519531 -0.14356,-1.1210938 -0.14355,-0.3759765 -0.51269,-0.5947265 -0.36231,-0.225586 -0.85449,-0.225586 -0.78614,0 -1.36036,0.4990235 -0.56738,0.4990234 -0.56738,1.8935546 V 0 Z" /></g><g
           id="text70"
           style="font-variant:normal;font-weight:normal;font-size:21px;font-family:OpenSymbol;-inkscape-font-specification:OpenSymbol;writing-mode:lr-tb;fill:#003366;fill-opacity:1;fill-rule:nonzero;stroke:none"
           transform="matrix(1,0,0,-1,79.1,282.7)"
           aria-label=""><path
             id="path243"
             style=""
             d="m 3.129,-14.364 h 10.479 q -0.315,3.696 -0.945,5.922 L 11.172,-8.61 q 0.714,-2.31 0.882,-4.368 H 3.129 Z" /></g><g
           id="text74"
           style="font-variant:normal;font-weight:normal;font-size:28px;font-family:Arial;-inkscape-font-specification:ArialMT;writing-mode:lr-tb;fill:#003366;fill-opacity:1;fill-rule:nonzero;stroke:none"
           transform="matrix(1,0,0,-1,106,277.8)"
           aria-label="CAPITALIZE ONLY WHEN NECESSARY. IT "><path
             id="path246"
             style=""
             d="m 16.460937,-7.0273437 2.652344,0.6699218 q -0.833984,3.2675781 -3.007812,4.9902344 -2.160156,1.70898438 -5.291016,1.70898438 -3.2402343,0 -5.2773436,-1.31250001 Q 3.5136719,-2.296875 2.4472656,-4.7988281 1.3945312,-7.3007812 1.3945312,-10.171875 q 0,-3.130859 1.1894532,-5.455078 1.203125,-2.337891 3.4042968,-3.541016 2.2148438,-1.216797 4.8671878,-1.216797 3.007812,0 5.058594,1.53125 2.050781,1.53125 2.857421,4.306641 l -2.611328,0.615234 q -0.697265,-2.1875 -2.023437,-3.185546 -1.326172,-0.998047 -3.335938,-0.998047 -2.3105466,0 -3.8691404,1.107422 -1.5449219,1.107421 -2.1738281,2.980468 -0.6289063,1.859375 -0.6289063,3.841797 0,2.5566408 0.7382813,4.4707033 0.7519531,1.9003906 2.3242187,2.8437499 1.5722657,0.9433594 3.4042968,0.9433594 2.228516,0 3.773438,-1.2851562 1.544922,-1.2851563 2.091796,-3.8144531 z" /><path
             id="path248"
             style=""
             d="m 20.146984,0 7.697266,-20.042969 h 2.857422 L 38.904797,0 h -3.021485 l -2.33789,-6.0703125 h -8.38086 L 22.96339,0 Z m 5.783203,-8.2304688 h 6.794922 L 30.633312,-13.78125 q -0.957031,-2.529297 -1.421875,-4.15625 -0.382812,1.927734 -1.080078,3.828125 z" /><path
             id="path250"
             style=""
             d="m 40.940155,0 v -20.042969 h 7.560547 q 1.996094,0 3.048828,0.191407 1.476563,0.246093 2.474609,0.943359 0.998047,0.683594 1.59961,1.927734 0.615234,1.244141 0.615234,2.734375 0,2.556641 -1.626953,4.3339846 -1.626953,1.7636719 -5.878906,1.7636719 H 43.592499 V 0 Z m 2.652344,-10.513672 h 5.18164 q 2.570313,0 3.650391,-0.957031 1.080078,-0.957031 1.080078,-2.69336 0,-1.257812 -0.642578,-2.146484 -0.628906,-0.902344 -1.667969,-1.189453 -0.669922,-0.177734 -2.474609,-0.177734 h -5.126953 z" /><path
             id="path252"
             style=""
             d="m 59.98333,0 v -20.042969 h 2.652344 V 0 Z" /><path
             id="path254"
             style=""
             d="m 72.415764,0 v -17.677734 h -6.603516 v -2.365235 h 15.886719 v 2.365235 H 75.068108 V 0 Z" /><path
             id="path256"
             style=""
             d="m 81.102982,0 7.697265,-20.042969 h 2.857422 L 99.860794,0 H 96.83931 L 94.501419,-6.0703125 H 86.12056 L 83.919388,0 Z m 5.783203,-8.2304688 h 6.794922 L 91.58931,-13.78125 q -0.957032,-2.529297 -1.421875,-4.15625 -0.382813,1.927734 -1.080078,3.828125 z" /><path
             id="path258"
             style=""
             d="m 100.69478,0 v -20.042969 h 2.65234 v 17.6777346 h 9.8711 V 0 Z" /><path
             id="path260"
             style=""
             d="m 116.82333,0 v -20.042969 h 2.65234 V 0 Z" /><path
             id="path262"
             style=""
             d="m 122.55655,0 v -2.4609375 l 10.26758,-12.8378905 q 1.09375,-1.367188 2.07812,-2.378906 h -11.18359 v -2.365235 h 14.35547 v 2.365235 l -11.25196,13.9042965 -1.21679,1.4082031 h 12.79687 V 0 Z" /><path
             id="path264"
             style=""
             d="m 141.20685,0 v -20.042969 h 14.49219 v 2.365235 h -11.83985 v 6.138671 h 11.08789 V -9.1875 h -11.08789 v 6.8222656 h 12.30469 V 0 Z" /><path
             id="path266"
             style=""
             d="m 166.72151,-9.7617188 q 0,-4.9902342 2.67969,-7.8066402 2.67969,-2.830078 6.91797,-2.830078 2.77539,0 5.0039,1.326171 2.22852,1.326172 3.39063,3.705078 1.17578,2.365235 1.17578,5.3730474 0,3.0488281 -1.23047,5.4550781 -1.23047,2.40625 -3.48633,3.65039062 -2.25586,1.23046876 -4.86718,1.23046876 -2.83008,0 -5.0586,-1.36718748 -2.22851,-1.3671875 -3.37695,-3.7324219 -1.14844,-2.3652344 -1.14844,-5.0039063 z m 2.73438,0.041016 q 0,3.6230469 1.9414,5.7148437 1.95508,2.078125 4.89453,2.078125 2.99414,0 4.92188,-2.1054687 1.94141,-2.1054688 1.94141,-5.9746099 0,-2.447265 -0.83399,-4.265625 -0.82031,-1.832031 -2.41992,-2.830078 -1.58594,-1.011718 -3.56836,-1.011718 -2.81641,0 -4.85352,1.941406 -2.02343,1.927734 -2.02343,6.4531249 z" /><path
             id="path268"
             style=""
             d="m 189.20081,0 v -20.042969 h 2.7207 l 10.52734,15.7363284 V -20.042969 h 2.54297 V 0 h -2.7207 L 191.74377,-15.75 V 0 Z" /><path
             id="path270"
             style=""
             d="m 209.30678,0 v -20.042969 h 2.65234 v 17.6777346 h 9.8711 V 0 Z" /><path
             id="path272"
             style=""
             d="m 229.56664,0 v -8.4902344 l -7.72461,-11.5527346 h 3.22656 L 229.01976,-14 q 1.09375,1.695312 2.03711,3.390625 0.90234,-1.572266 2.1875,-3.541016 l 3.88281,-5.892578 h 3.08985 l -7.99805,11.5527346 V 0 Z" /><path
             id="path274"
             style=""
             d="m 252.31215,0 -5.31836,-20.042969 h 2.7207 l 3.04883,13.1386721 q 0.49219,2.0644532 0.84766,4.1015625 0.76562,-3.2128906 0.90234,-3.7050781 l 3.81445,-13.5351565 h 3.19922 l 2.8711,10.1445315 q 1.08007,3.7734375 1.55859,7.0957031 0.38281,-1.9003906 0.99805,-4.3613281 l 3.14453,-12.8789065 h 2.66601 L 267.26918,0 h -2.55664 l -4.22461,-15.271484 q -0.5332,-1.914063 -0.62891,-2.351563 -0.31445,1.38086 -0.58789,2.351563 L 255.01918,0 Z" /><path
             id="path276"
             style=""
             d="m 275.29819,0 v -20.042969 h 2.65234 v 8.230469 h 10.41797 v -8.230469 h 2.65234 V 0 H 288.3685 V -9.4472656 H 277.95053 V 0 Z" /><path
             id="path278"
             style=""
             d="m 295.37485,0 v -20.042969 h 14.49218 v 2.365235 h -11.83984 v 6.138671 h 11.08789 V -9.1875 h -11.08789 v 6.8222656 h 12.30469 V 0 Z" /><path
             id="path280"
             style=""
             d="m 313.88483,0 v -20.042969 h 2.7207 l 10.52734,15.7363284 V -20.042969 h 2.54297 V 0 h -2.7207 L 316.4278,-15.75 V 0 Z" /><path
             id="path282"
             style=""
             d="m 341.85681,0 v -20.042969 h 2.7207 l 10.52735,15.7363284 V -20.042969 h 2.54297 V 0 h -2.72071 L 344.39978,-15.75 V 0 Z" /><path
             id="path284"
             style=""
             d="m 362.04285,0 v -20.042969 h 14.49218 v 2.365235 h -11.83984 v 6.138671 h 11.08789 V -9.1875 h -11.08789 v 6.8222656 h 12.30469 V 0 Z" /><path
             id="path286"
             style=""
             d="m 394.88095,-7.0273437 2.65234,0.6699218 q -0.83398,3.2675781 -3.00781,4.9902344 -2.16015,1.70898438 -5.29101,1.70898438 -3.24024,0 -5.27735,-1.31250001 -2.02343,-1.32617187 -3.08984,-3.82812497 -1.05274,-2.5019531 -1.05274,-5.3730469 0,-3.130859 1.18946,-5.455078 1.20312,-2.337891 3.40429,-3.541016 2.21485,-1.216797 4.86719,-1.216797 3.00781,0 5.0586,1.53125 2.05078,1.53125 2.85742,4.306641 l -2.61133,0.615234 q -0.69727,-2.1875 -2.02344,-3.185546 -1.32617,-0.998047 -3.33594,-0.998047 -2.31054,0 -3.86914,1.107422 -1.54492,1.107421 -2.17382,2.980468 -0.62891,1.859375 -0.62891,3.841797 0,2.5566408 0.73828,4.4707033 0.75195,1.9003906 2.32422,2.8437499 1.57227,0.9433594 3.4043,0.9433594 2.22851,0 3.77343,-1.2851562 1.54493,-1.2851563 2.0918,-3.8144531 z" /><path
             id="path288"
             style=""
             d="m 400.82285,0 v -20.042969 h 14.49218 v 2.365235 h -11.83984 v 6.138671 h 11.08789 V -9.1875 h -11.08789 v 6.8222656 h 12.30469 V 0 Z" /><path
             id="path290"
             style=""
             d="m 418.45782,-6.4394531 2.50196,-0.21875 q 0.17773,1.5039062 0.82031,2.4746094 0.65625,0.9570312 2.02344,1.5585937 1.36719,0.5878906 3.07617,0.5878906 1.51758,0 2.67969,-0.4511719 1.16211,-0.4511718 1.72265,-1.2304687 0.57422,-0.7929687 0.57422,-1.7226562 0,-0.9433594 -0.54687,-1.640625 -0.54688,-0.7109375 -1.80469,-1.1894532 -0.80664,-0.3144531 -3.56836,-0.9707031 -2.76172,-0.6699219 -3.86914,-1.2578125 -1.43555,-0.751953 -2.14648,-1.859375 -0.69727,-1.121094 -0.69727,-2.501953 0,-1.517578 0.86133,-2.830078 0.86133,-1.326172 2.51562,-2.009766 1.6543,-0.683594 3.67774,-0.683594 2.22851,0 3.92383,0.72461 1.70898,0.710937 2.625,2.105469 0.91601,1.394531 0.98437,3.158203 l -2.54297,0.191406 q -0.20508,-1.900391 -1.39453,-2.871094 -1.17578,-0.970703 -3.48633,-0.970703 -2.40625,0 -3.51367,0.888672 -1.09375,0.875 -1.09375,2.11914 0,1.080079 0.7793,1.777344 0.76562,0.697266 3.99218,1.435547 3.24024,0.724609 4.44336,1.271484 1.75,0.8066411 2.58399,2.0507817 0.83398,1.2304688 0.83398,2.8437501 0,1.5996093 -0.91601,3.0214843 -0.91602,1.4082032 -2.63867,2.2011719 -1.70899,0.77929688 -3.85547,0.77929688 -2.72071,0 -4.56641,-0.79296876 -1.83203,-0.79296872 -2.88477,-2.37890622 -1.03906,-1.5996094 -1.09375,-3.609375 z" /><path
             id="path292"
             style=""
             d="m 437.0498,-6.4394531 2.50196,-0.21875 q 0.17773,1.5039062 0.82031,2.4746094 0.65625,0.9570312 2.02344,1.5585937 1.36719,0.5878906 3.07617,0.5878906 1.51758,0 2.67969,-0.4511719 1.16211,-0.4511718 1.72265,-1.2304687 0.57422,-0.7929687 0.57422,-1.7226562 0,-0.9433594 -0.54687,-1.640625 -0.54688,-0.7109375 -1.80469,-1.1894532 -0.80664,-0.3144531 -3.56836,-0.9707031 -2.76172,-0.6699219 -3.86914,-1.2578125 -1.43555,-0.751953 -2.14648,-1.859375 -0.69727,-1.121094 -0.69727,-2.501953 0,-1.517578 0.86133,-2.830078 0.86133,-1.326172 2.51562,-2.009766 1.6543,-0.683594 3.67774,-0.683594 2.22851,0 3.92383,0.72461 1.70898,0.710937 2.625,2.105469 0.91601,1.394531 0.98437,3.158203 l -2.54297,0.191406 q -0.20508,-1.900391 -1.39453,-2.871094 -1.17578,-0.970703 -3.48633,-0.970703 -2.40625,0 -3.51367,0.888672 -1.09375,0.875 -1.09375,2.11914 0,1.080079 0.7793,1.777344 0.76562,0.697266 3.99218,1.435547 3.24024,0.724609 4.44336,1.271484 1.75,0.8066411 2.58399,2.0507817 0.83398,1.2304688 0.83398,2.8437501 0,1.5996093 -0.91601,3.0214843 -0.91602,1.4082032 -2.63867,2.2011719 -1.70899,0.77929688 -3.85547,0.77929688 -2.72071,0 -4.56641,-0.79296876 -1.83203,-0.79296872 -2.88477,-2.37890622 -1.03906,-1.5996094 -1.09375,-3.609375 z" /><path
             id="path294"
             style=""
             d="m 454.34299,0 7.69726,-20.042969 h 2.85742 L 473.1008,0 h -3.02148 l -2.3379,-6.0703125 h -8.38085 L 457.15939,0 Z m 5.7832,-8.2304688 h 6.79492 l -2.09179,-5.5507812 q -0.95704,-2.529297 -1.42188,-4.15625 -0.38281,1.927734 -1.08008,3.828125 z" /><path
             id="path296"
             style=""
             d="m 475.17719,0 v -20.042969 h 8.88671 q 2.67969,0 4.07422,0.546875 1.39453,0.533203 2.22852,1.900391 0.83398,1.367187 0.83398,3.021484 0,2.132813 -1.38086,3.595703 -1.38086,1.462891 -4.26562,1.8593754 1.05273,0.5058593 1.59961,0.9980468 1.16211,1.0664063 2.20117,2.6660157 L 492.84125,0 h -3.33594 l -2.65234,-4.1699219 q -1.16211,-1.8046875 -1.91407,-2.7617187 -0.75195,-0.9570313 -1.35351,-1.3398438 -0.58789,-0.3828125 -1.20313,-0.5332031 -0.45117,-0.095703 -1.47656,-0.095703 h -3.07617 V 0 Z m 2.65234,-11.197266 h 5.70117 q 1.81836,0 2.84375,-0.36914 1.02539,-0.382813 1.55859,-1.203125 0.53321,-0.833985 0.53321,-1.804688 0,-1.421875 -1.03906,-2.33789 -1.0254,-0.916016 -3.25391,-0.916016 h -6.34375 z" /><path
             id="path298"
             style=""
             d="m 500.69064,0 v -8.4902344 l -7.72461,-11.5527346 h 3.22657 L 500.14377,-14 q 1.09375,1.695312 2.03711,3.390625 0.90234,-1.572266 2.1875,-3.541016 l 3.88281,-5.892578 h 3.08984 l -7.99804,11.5527346 V 0 Z" /><path
             id="path300"
             style=""
             d="m 512.03098,0 v -2.8027344 h 2.80273 V 0 Z" /><path
             id="path302"
             style=""
             d="m 533.6593,0 v -20.042969 h 2.65235 V 0 Z" /><path
             id="path304"
             style=""
             d="m 546.09174,0 v -17.677734 h -6.60352 v -2.365235 h 15.88672 v 2.365235 h -6.63086 V 0 Z" /></g><g
           id="text78"
           style="font-variant:normal;font-weight:normal;font-size:28px;font-family:Arial;-inkscape-font-specification:ArialMT;writing-mode:lr-tb;fill:#003366;fill-opacity:1;fill-rule:nonzero;stroke:none"
           transform="matrix(1,0,0,-1,106,244.1)"
           aria-label="IS DIFFICULT TO READ"><path
             id="path307"
             style=""
             d="M 2.6113281,0 V -20.042969 H 5.2636719 V 0 Z" /><path
             id="path309"
             style=""
             d="m 9.0418124,-6.4394531 2.5019536,-0.21875 q 0.177734,1.5039062 0.820312,2.4746094 0.65625,0.9570312 2.023438,1.5585937 1.367187,0.5878906 3.076171,0.5878906 1.517579,0 2.679688,-0.4511719 1.162109,-0.4511718 1.722656,-1.2304687 0.574219,-0.7929687 0.574219,-1.7226562 0,-0.9433594 -0.546875,-1.640625 Q 21.3465,-7.7929687 20.088687,-8.2714844 19.282047,-8.5859375 16.520328,-9.2421875 13.758609,-9.9121094 12.651187,-10.5 q -1.435546,-0.751953 -2.146484,-1.859375 -0.6972656,-1.121094 -0.6972656,-2.501953 0,-1.517578 0.8613286,-2.830078 0.861328,-1.326172 2.515625,-2.009766 1.654296,-0.683594 3.677734,-0.683594 2.228516,0 3.923828,0.72461 1.708984,0.710937 2.625,2.105469 0.916016,1.394531 0.984375,3.158203 l -2.542969,0.191406 q -0.205078,-1.900391 -1.394531,-2.871094 -1.175781,-0.970703 -3.486328,-0.970703 -2.40625,0 -3.513672,0.888672 -1.09375,0.875 -1.09375,2.11914 0,1.080079 0.779297,1.777344 0.765625,0.697266 3.992187,1.435547 3.240235,0.724609 4.44336,1.271484 1.75,0.8066411 2.583984,2.0507817 0.833985,1.2304688 0.833985,2.8437501 0,1.5996093 -0.916016,3.0214843 -0.916016,1.4082032 -2.638672,2.2011719 -1.708984,0.77929688 -3.855469,0.77929688 -2.720703,0 -4.566406,-0.79296876 Q 11.188297,-1.2441406 10.135562,-2.8300781 9.0964999,-4.4296875 9.0418124,-6.4394531 Z" /><path
             id="path311"
             style=""
             d="m 36.404156,0 v -20.042969 h 6.904297 q 2.33789,0 3.568359,0.28711 1.722656,0.396484 2.939453,1.435547 1.585938,1.339843 2.365234,3.43164 0.792969,2.078125 0.792969,4.757813 0,2.2832028 -0.533203,4.0468746 -0.533203,1.7636719 -1.367187,2.9257813 -0.833985,1.1484375 -1.832032,1.8183594 -0.984375,0.65624995 -2.392578,0.99804682 Q 45.454937,0 43.636578,0 Z m 2.652343,-2.3652344 h 4.279297 q 1.982422,0 3.103516,-0.3691406 1.134766,-0.3691406 1.804687,-1.0390625 0.94336,-0.9433594 1.462891,-2.5292969 0.533203,-1.5996093 0.533203,-3.8691406 0,-3.144531 -1.039062,-4.826172 -1.025391,-1.695312 -2.501953,-2.269531 -1.066407,-0.410156 -3.431641,-0.410156 h -4.210938 z" /><path
             id="path313"
             style=""
             d="m 56.959328,0 v -20.042969 h 2.652343 V 0 Z" /><path
             id="path315"
             style=""
             d="m 64.428875,0 v -20.042969 h 13.521484 v 2.365235 h -10.86914 v 6.207031 h 9.40625 v 2.3652342 h -9.40625 V 0 Z" /><path
             id="path317"
             style=""
             d="m 81.424873,0 v -20.042969 h 13.521485 v 2.365235 H 84.077217 v 6.207031 h 9.40625 v 2.3652342 h -9.40625 V 0 Z" /><path
             id="path319"
             style=""
             d="m 98.819328,0 v -20.042969 h 2.652342 V 0 Z" /><path
             id="path321"
             style=""
             d="m 120.45293,-7.0273437 2.65235,0.6699218 q -0.83399,3.2675781 -3.00781,4.9902344 -2.16016,1.70898438 -5.29102,1.70898438 -3.24023,0 -5.27734,-1.31250001 -2.02344,-1.32617187 -3.08985,-3.82812497 -1.05273,-2.5019531 -1.05273,-5.3730469 0,-3.130859 1.18945,-5.455078 1.20313,-2.337891 3.4043,-3.541016 2.21484,-1.216797 4.86719,-1.216797 3.00781,0 5.05859,1.53125 2.05078,1.53125 2.85742,4.306641 l -2.61133,0.615234 q -0.69726,-2.1875 -2.02343,-3.185546 -1.32618,-0.998047 -3.33594,-0.998047 -2.31055,0 -3.86914,1.107422 -1.54492,1.107421 -2.17383,2.980468 -0.62891,1.859375 -0.62891,3.841797 0,2.5566408 0.73828,4.4707033 0.75196,1.9003906 2.32422,2.8437499 1.57227,0.9433594 3.4043,0.9433594 2.22852,0 3.77344,-1.2851562 1.54492,-1.2851563 2.09179,-3.8144531 z" /><path
             id="path323"
             style=""
             d="m 139.4925,-20.042969 h 2.65234 v 11.5800784 q 0,3.0214844 -0.68359,4.7988281 -0.68359,1.7773438 -2.47461,2.8984375 -1.77734,1.10742188 -4.67578,1.10742188 -2.81641,0 -4.60742,-0.97070313 -1.79102,-0.97070315 -2.55664,-2.80273435 -0.76563,-1.8457031 -0.76563,-5.03125 V -20.042969 h 2.65235 v 11.5664065 q 0,2.6113281 0.47851,3.8554688 0.49219,1.2304687 1.66797,1.9003906 1.18945,0.6699218 2.89844,0.6699218 2.92578,0 4.16992,-1.3261718 1.24414,-1.3261719 1.24414,-5.0996094 z" /><path
             id="path325"
             style=""
             d="m 146.33478,0 v -20.042969 h 2.65234 v 17.6777346 h 9.8711 V 0 Z" /><path
             id="path327"
             style=""
             d="m 166.04776,0 v -17.677734 h -6.60352 v -2.365235 h 15.88672 v 2.365235 H 168.7001 V 0 Z" /><path
             id="path329"
             style=""
             d="m 189.14777,0 v -17.677734 h -6.60352 v -2.365235 h 15.88672 v 2.365235 h -6.63086 V 0 Z" /><path
             id="path331"
             style=""
             d="m 199.73352,-9.7617188 q 0,-4.9902342 2.67969,-7.8066402 2.67969,-2.830078 6.91797,-2.830078 2.77539,0 5.0039,1.326171 2.22852,1.326172 3.39063,3.705078 1.17578,2.365235 1.17578,5.3730474 0,3.0488281 -1.23047,5.4550781 -1.23047,2.40625 -3.48633,3.65039062 -2.25586,1.23046876 -4.86719,1.23046876 -2.83007,0 -5.05859,-1.36718748 -2.22851,-1.3671875 -3.37695,-3.7324219 -1.14844,-2.3652344 -1.14844,-5.0039063 z m 2.73438,0.041016 q 0,3.6230469 1.9414,5.7148437 1.95508,2.078125 4.89453,2.078125 2.99414,0 4.92188,-2.1054687 1.9414,-2.1054688 1.9414,-5.9746099 0,-2.447265 -0.83398,-4.265625 -0.82031,-1.832031 -2.41992,-2.830078 -1.58594,-1.011718 -3.56836,-1.011718 -2.81641,0 -4.85352,1.941406 -2.02343,1.927734 -2.02343,6.4531249 z" /><path
             id="path333"
             style=""
             d="m 229.86917,0 v -20.042969 h 8.88672 q 2.67969,0 4.07422,0.546875 1.39453,0.533203 2.22851,1.900391 0.83399,1.367187 0.83399,3.021484 0,2.132813 -1.38086,3.595703 -1.38086,1.462891 -4.26563,1.8593754 1.05274,0.5058593 1.59961,0.9980468 1.16211,1.0664063 2.20118,2.6660157 L 247.53323,0 h -3.33593 l -2.65235,-4.1699219 q -1.16211,-1.8046875 -1.91406,-2.7617187 -0.75195,-0.9570313 -1.35352,-1.3398438 -0.58789,-0.3828125 -1.20312,-0.5332031 -0.45117,-0.095703 -1.47656,-0.095703 h -3.07618 V 0 Z m 2.65234,-11.197266 h 5.70118 q 1.81836,0 2.84375,-0.36914 1.02539,-0.382813 1.55859,-1.203125 0.5332,-0.833985 0.5332,-1.804688 0,-1.421875 -1.03906,-2.33789 -1.02539,-0.916016 -3.25391,-0.916016 h -6.34375 z" /><path
             id="path335"
             style=""
             d="m 250.07085,0 v -20.042969 h 14.49218 v 2.365235 h -11.83984 v 6.138671 h 11.08789 V -9.1875 h -11.08789 v 6.8222656 h 12.30469 V 0 Z" /><path
             id="path337"
             style=""
             d="m 266.40698,0 7.69727,-20.042969 h 2.85742 L 285.16479,0 h -3.02148 l -2.33789,-6.0703125 h -8.38086 L 269.22339,0 Z m 5.78321,-8.2304688 h 6.79492 l -2.0918,-5.5507812 q -0.95703,-2.529297 -1.42187,-4.15625 -0.38282,1.927734 -1.08008,3.828125 z" /><path
             id="path339"
             style=""
             d="m 287.20016,0 v -20.042969 h 6.9043 q 2.33789,0 3.56836,0.28711 1.72266,0.396484 2.93945,1.435547 1.58594,1.339843 2.36524,3.43164 0.79297,2.078125 0.79297,4.757813 0,2.2832028 -0.53321,4.0468746 -0.5332,1.7636719 -1.36718,2.9257813 -0.83399,1.1484375 -1.83203,1.8183594 -0.98438,0.65624995 -2.39258,0.99804682 Q 296.25095,0 294.43259,0 Z m 2.65235,-2.3652344 h 4.2793 q 1.98242,0 3.10351,-0.3691406 1.13477,-0.3691406 1.80469,-1.0390625 0.94336,-0.9433594 1.46289,-2.5292969 0.5332,-1.5996093 0.5332,-3.8691406 0,-3.144531 -1.03906,-4.826172 -1.02539,-1.695312 -2.50195,-2.269531 -1.06641,-0.410156 -3.43164,-0.410156 h -4.21094 z" /></g><g
           id="text82"
           style="font-variant:normal;font-weight:normal;font-size:21px;font-family:OpenSymbol;-inkscape-font-specification:OpenSymbol;writing-mode:lr-tb;fill:#003366;fill-opacity:1;fill-rule:nonzero;stroke:none"
           transform="matrix(1,0,0,-1,79.1,167.6)"
           aria-label=""><path
             id="path342"
             style=""
             d="m 3.129,-14.364 h 10.479 q -0.315,3.696 -0.945,5.922 L 11.172,-8.61 q 0.714,-2.31 0.882,-4.368 H 3.129 Z" /></g><g
           id="text86"
           style="font-variant:normal;font-weight:normal;font-size:28px;font-family:Impact;-inkscape-font-specification:Impact;writing-mode:lr-tb;fill:#003366;fill-opacity:1;fill-rule:nonzero;stroke:none"
           transform="matrix(1,0,0,-1,106,162.7)"
           aria-label="Don’t use a complicated font"><path
             id="path345"
             style=""
             d="m 1.1484375,-22.134766 h 4.3066406 q 4.1699219,0 5.6328129,0.382813 1.476562,0.382812 2.242187,1.257812 0.765625,0.875 0.957031,1.955079 0.191407,1.066406 0.191407,4.210937 v 7.7519531 q 0,2.9804688 -0.28711,3.9921875 -0.273437,0.9980469 -0.970703,1.5722657 Q 12.523438,-0.45117188 11.498047,-0.21875 10.472656,0 8.4082031,0 H 1.1484375 Z m 5.7558594,3.78711 v 14.5605466 q 1.2441406,0 1.53125,-0.4921875 Q 8.7226563,-4.7851562 8.7226563,-7 v -8.599609 q 0,-1.503907 -0.095703,-1.927735 -0.095703,-0.423828 -0.4375,-0.615234 -0.3417969,-0.205078 -1.2851562,-0.205078 z" /><path
             id="path347"
             style=""
             d="m 28.964469,-11.771484 v 4.443359 q 0,2.4472656 -0.246094,3.5957031 -0.246094,1.1347656 -1.052734,2.1328125 Q 26.859,-0.61523437 25.587516,-0.13671875 24.329703,0.328125 22.689078,0.328125 q -1.832031,0 -3.103515,-0.39648437 -1.271485,-0.41015626 -1.982422,-1.21679683 -0.697266,-0.8203126 -0.998047,-1.9687501 -0.300781,-1.1621093 -0.300781,-3.4726562 V -11.375 q 0,-2.529297 0.546875,-3.951172 0.546875,-1.421875 1.96875,-2.283203 1.421875,-0.861328 3.636718,-0.861328 1.859375,0 3.185547,0.560547 1.339844,0.546875 2.064453,1.435547 0.72461,0.888671 0.984375,1.832031 0.273438,0.943359 0.273438,2.871094 z m -5.523438,-1.367188 q 0,-1.394531 -0.15039,-1.75 -0.150391,-0.369141 -0.642578,-0.369141 -0.492188,0 -0.65625,0.369141 -0.164063,0.355469 -0.164063,1.75 v 8.1894533 q 0,1.2851562 0.164063,1.6816406 0.164062,0.3828125 0.642578,0.3828125 0.492187,0 0.642578,-0.3554688 0.164062,-0.3554687 0.164062,-1.53125 z" /><path
             id="path349"
             style=""
             d="m 36.395515,-18.142578 -0.0957,1.667969 q 0.601563,-0.998047 1.462891,-1.490235 0.875,-0.505859 2.009766,-0.505859 1.421875,0 2.324218,0.669922 0.902344,0.669922 1.16211,1.695312 0.259765,1.011719 0.259765,3.390625 V 0 h -5.523437 v -12.564453 q 0,-1.873047 -0.123047,-2.283203 -0.123047,-0.410157 -0.683594,-0.410157 -0.58789,0 -0.738281,0.478516 -0.150391,0.464844 -0.150391,2.515625 V 0 h -5.523437 v -18.142578 z" /><path
             id="path351"
             style=""
             d="m 48.577267,-22.134766 v 1.982422 q 0,1.544922 -0.369141,2.556641 -0.369141,0.998047 -1.285156,1.695312 -0.902344,0.683594 -2.050781,0.929688 v -1.599609 q 0.820312,-0.451172 0.929687,-1.230469 h -0.929687 v -4.333985 z" /><path
             id="path353"
             style=""
             d="m 55.864594,-20.5625 v 2.857422 h 1.490234 v 2.871094 h -1.490234 v 9.7070309 q 0,1.7910156 0.177734,1.9960937 0.191406,0.2050781 1.544922,0.2050781 V 0 H 55.358734 Q 53.472015,0 52.665375,-0.15039062 51.858734,-0.31445313 51.2435,-0.875 50.628265,-1.4492187 50.477875,-2.1738281 50.327484,-2.9121094 50.327484,-5.6191406 v -9.2148434 h -1.189453 v -2.871094 h 1.189453 V -20.5625 Z" /><path
             id="path355"
             style=""
             d="M 76.182858,-18.142578 V 0 h -5.619141 l 0.0957,-1.5039062 q -0.574219,0.91601558 -1.421875,1.38085933 -0.833984,0.45117187 -1.927734,0.45117187 -1.244141,0 -2.064453,-0.4375 -0.820313,-0.4375 -1.216797,-1.1621094 -0.382813,-0.7246093 -0.478516,-1.5039062 -0.0957,-0.7929688 -0.0957,-3.1308594 v -12.236328 h 5.523437 v 12.345703 q 0,2.1191406 0.123047,2.515625 0.136719,0.3964844 0.710938,0.3964844 0.615234,0 0.724609,-0.4101563 0.123047,-0.4101562 0.123047,-2.6386718 V -18.142578 Z" /><path
             id="path357"
             style=""
             d="M 89.403671,-12.345703 H 84.50914 v -0.984375 q 0,-1.257813 -0.150391,-1.585938 -0.136718,-0.341797 -0.710937,-0.341797 -0.464844,0 -0.697266,0.314454 -0.232422,0.300781 -0.232422,0.916015 0,0.833985 0.109375,1.230469 0.123047,0.382812 0.697266,0.847656 0.587891,0.464844 2.392578,1.353516 2.40625,1.1757811 3.158203,2.2148436 0.751953,1.0390625 0.751953,3.0214844 0,2.2148437 -0.574218,3.3496094 -0.574219,1.12109372 -1.927735,1.7363281 -1.339843,0.6015625 -3.240234,0.6015625 -2.105469,0 -3.609375,-0.65625 -1.490234,-0.65625 -2.050781,-1.7773438 -0.560547,-1.1210937 -0.560547,-3.3906249 v -0.875 h 4.894531 v 1.1484375 q 0,1.4628906 0.177734,1.9003906 0.191407,0.4375 0.738282,0.4375 0.58789,0 0.820312,-0.2871094 0.232422,-0.3007813 0.232422,-1.2441406 0,-1.2988281 -0.300781,-1.6269531 -0.314453,-0.328125 -3.212891,-1.9414063 -2.433594,-1.3671875 -2.966797,-2.474609 -0.533203,-1.121094 -0.533203,-2.652344 0,-2.173828 0.574219,-3.199219 0.574219,-1.039062 1.941406,-1.599609 1.38086,-0.560547 3.199219,-0.560547 1.804687,0 3.0625,0.464844 1.271484,0.451172 1.941406,1.203125 0.683594,0.751953 0.820313,1.394531 0.15039,0.642578 0.15039,2.009765 z" /><path
             id="path359"
             style=""
             d="m 103.79414,-8.75 h -7.150387 v 3.9238281 q 0,1.2304688 0.177734,1.5859375 0.177735,0.3554688 0.683594,0.3554688 0.628906,0 0.833985,-0.4648438 0.21875,-0.4785156 0.21875,-1.8320312 v -2.3925781 h 5.236324 v 1.3398437 q 0,1.6816406 -0.21875,2.5839844 -0.20507,0.9023437 -0.98437,1.9277344 -0.7793,1.02539058 -1.98242,1.54492183 -1.189456,0.50585937 -2.994144,0.50585937 -1.75,0 -3.089844,-0.50585937 Q 93.184769,-0.68359375 92.432816,-1.5585937 91.694534,-2.4472656 91.407425,-3.5 91.120316,-4.5664062 91.120316,-6.5898437 v -5.2910153 q 0,-2.378907 0.642578,-3.746094 0.642578,-1.380859 2.105468,-2.105469 1.462891,-0.738281 3.363282,-0.738281 2.324218,0 3.828126,0.888672 1.51758,0.875 2.11914,2.33789 0.61523,1.449219 0.61523,4.087891 z m -5.537106,-2.953125 v -1.326172 q 0,-1.408203 -0.15039,-1.818359 -0.150391,-0.410157 -0.615235,-0.410157 -0.574218,0 -0.710937,0.355469 -0.136719,0.341797 -0.136719,1.873047 v 1.326172 z" /><path
             id="path361"
             style=""
             d="m 115.42793,-11.115234 h -5.18165 v -1.216797 q 0,-2.105469 0.47852,-3.240235 0.49219,-1.148437 1.95508,-2.023437 1.46289,-0.875 3.80078,-0.875 2.80273,0 4.22461,0.998047 1.42187,0.984375 1.70898,2.433593 0.28711,1.435547 0.28711,5.9335942 V 0 h -5.37304 v -1.6132812 q -0.50586,0.97070308 -1.3125,1.46289058 -0.79297,0.47851562 -1.90039,0.47851562 -1.44922,0 -2.66602,-0.80664063 -1.20313,-0.82031247 -1.20313,-3.56835937 v -1.4902344 q 0,-2.0371093 0.64258,-2.7753906 0.64258,-0.7382813 3.18555,-1.722656 2.7207,-1.066407 2.91211,-1.435547 0.19141,-0.369141 0.19141,-1.503906 0,-1.421875 -0.21875,-1.845704 -0.20508,-0.4375 -0.69727,-0.4375 -0.56055,0 -0.69727,0.369141 -0.13671,0.355469 -0.13671,1.873047 z m 1.75,2.4882809 Q 115.85175,-7.65625 115.633,-7 q -0.20507,0.65625 -0.20507,1.8867188 0,1.4082031 0.17773,1.8183593 0.19141,0.4101563 0.73828,0.4101563 0.51953,0 0.66992,-0.3144532 0.16407,-0.328125 0.16407,-1.6953124 z" /><path
             id="path363"
             style=""
             d="m 141.68536,-11.292969 h -5.20898 v -2.091797 q 0,-1.09375 -0.17773,-1.476562 -0.17774,-0.396485 -0.65625,-0.396485 -0.47852,0 -0.64258,0.341797 -0.16407,0.341797 -0.16407,1.53125 v 8.5585941 q 0,0.9707031 0.2461,1.4628906 0.24609,0.4785157 0.72461,0.4785157 0.56054,0 0.75195,-0.5058594 0.20508,-0.5058594 0.20508,-1.9140625 v -2.1601562 h 4.92187 q -0.0137,2.1738281 -0.16406,3.2675781 -0.13672,1.0800781 -0.91601,2.2285156 -0.76563,1.13476562 -2.00977,1.72265625 -1.24414,0.57421875 -3.07617,0.57421875 -2.33789,0 -3.70508,-0.79296875 -1.36719,-0.80664065 -1.94141,-2.24218755 -0.56054,-1.4492187 -0.56054,-4.1015624 v -5.1542973 q 0,-2.310547 0.46484,-3.486328 0.46484,-1.175781 1.98242,-2.091797 1.51758,-0.929687 3.69141,-0.929687 2.16016,0 3.69141,0.916016 1.53125,0.916015 2.0371,2.310546 0.50586,1.394532 0.50586,3.951172 z" /><path
             id="path365"
             style=""
             d="m 155.77647,-11.771484 v 4.443359 q 0,2.4472656 -0.24609,3.5957031 -0.24609,1.1347656 -1.05273,2.1328125 -0.80664,0.98437503 -2.07813,1.46289065 -1.25781,0.46484375 -2.89844,0.46484375 -1.83203,0 -3.10351,-0.39648437 -1.27149,-0.41015626 -1.98242,-1.21679683 -0.69727,-0.8203126 -0.99805,-1.9687501 -0.30078,-1.1621093 -0.30078,-3.4726562 V -11.375 q 0,-2.529297 0.54687,-3.951172 0.54688,-1.421875 1.96875,-2.283203 1.42188,-0.861328 3.63672,-0.861328 1.85938,0 3.18555,0.560547 1.33984,0.546875 2.06445,1.435547 0.72461,0.888671 0.98438,1.832031 0.27343,0.943359 0.27343,2.871094 z m -5.52343,-1.367188 q 0,-1.394531 -0.15039,-1.75 -0.15039,-0.369141 -0.64258,-0.369141 -0.49219,0 -0.65625,0.369141 -0.16406,0.355469 -0.16406,1.75 v 8.1894533 q 0,1.2851562 0.16406,1.6816406 0.16406,0.3828125 0.64258,0.3828125 0.49218,0 0.64257,-0.3554688 0.16407,-0.3554687 0.16407,-1.53125 z" /><path
             id="path367"
             style=""
             d="m 163.04346,-18.142578 -0.0957,1.722656 q 0.64258,-1.02539 1.53125,-1.53125 0.88868,-0.519531 2.02344,-0.519531 2.21485,0 3.48633,2.050781 0.69727,-1.02539 1.57227,-1.53125 0.875,-0.519531 1.9414,-0.519531 1.4082,0 2.32422,0.683594 0.92969,0.683593 1.18945,1.68164 0.25977,0.984375 0.25977,3.212891 V 0 h -5.35938 v -11.826172 q 0,-2.324219 -0.16406,-2.871094 -0.15039,-0.560547 -0.72461,-0.560547 -0.58789,0 -0.76562,0.546875 -0.16407,0.546875 -0.16407,2.884766 V 0 h -5.35937 v -11.525391 q 0,-2.666015 -0.13672,-3.199218 -0.12305,-0.533204 -0.71094,-0.533204 -0.36914,0 -0.6289,0.28711 -0.25977,0.273437 -0.28711,0.683594 -0.0273,0.396484 -0.0273,1.708984 V 0 h -5.35937 v -18.142578 z" /><path
             id="path369"
             style=""
             d="m 184.76752,-18.142578 -0.0957,1.599609 q 0.73829,-0.970703 1.62696,-1.449218 0.88867,-0.478516 1.9414,-0.478516 1.28516,0 2.21485,0.697266 0.94336,0.683593 1.17578,1.585937 0.23242,0.902344 0.23242,3.0625 v 7.6425781 q 0,2.4746094 -0.30078,3.5273438 -0.28711,1.03906247 -1.20313,1.66796872 -0.90234,0.61523438 -2.1875,0.61523438 -1.02539,0 -1.90039,-0.47851562 -0.875,-0.47851563 -1.59961,-1.42187498 v 4.15625 h -5.52343 V -18.142578 Z m 1.57226,5.277344 q 0,-1.681641 -0.12304,-2.03711 -0.12305,-0.355469 -0.6836,-0.355469 -0.54687,0 -0.71094,0.410157 -0.15039,0.410156 -0.15039,1.982422 v 7.5195309 q 0,1.640625 0.16407,2.0507812 0.16406,0.4101563 0.71093,0.4101563 0.53321,0 0.65625,-0.3691407 0.13672,-0.3828125 0.13672,-1.8320312 z" /><path
             id="path371"
             style=""
             d="M 199.33987,-22.134766 V 0 h -5.6875 v -22.134766 z" /><path
             id="path373"
             style=""
             d="M 207.01187,-22.134766 V -19.25 h -5.6875 v -2.884766 z m 0,3.992188 V 0 h -5.6875 v -18.142578 z" /><path
             id="path375"
             style=""
             d="m 221.12135,-11.292969 h -5.20898 v -2.091797 q 0,-1.09375 -0.17774,-1.476562 -0.17773,-0.396485 -0.65625,-0.396485 -0.47851,0 -0.64257,0.341797 -0.16407,0.341797 -0.16407,1.53125 v 8.5585941 q 0,0.9707031 0.2461,1.4628906 0.24609,0.4785157 0.72461,0.4785157 0.56054,0 0.75195,-0.5058594 0.20508,-0.5058594 0.20508,-1.9140625 v -2.1601562 h 4.92187 q -0.0137,2.1738281 -0.16406,3.2675781 -0.13672,1.0800781 -0.91601,2.2285156 -0.76563,1.13476562 -2.00977,1.72265625 -1.24414,0.57421875 -3.07617,0.57421875 -2.33789,0 -3.70508,-0.79296875 -1.36719,-0.80664065 -1.94141,-2.24218755 -0.56054,-1.4492187 -0.56054,-4.1015624 v -5.1542973 q 0,-2.310547 0.46484,-3.486328 0.46484,-1.175781 1.98242,-2.091797 1.51758,-0.929687 3.69141,-0.929687 2.16015,0 3.6914,0.916016 1.53125,0.916015 2.03711,2.310546 0.50586,1.394532 0.50586,3.951172 z" /><path
             id="path377"
             style=""
             d="m 227.65192,-11.115234 h -5.18164 v -1.216797 q 0,-2.105469 0.47851,-3.240235 0.49219,-1.148437 1.95508,-2.023437 1.46289,-0.875 3.80078,-0.875 2.80274,0 4.22461,0.998047 1.42188,0.984375 1.70898,2.433593 0.28711,1.435547 0.28711,5.9335942 V 0 h -5.37304 v -1.6132812 q -0.50586,0.97070308 -1.3125,1.46289058 -0.79297,0.47851562 -1.90039,0.47851562 -1.44922,0 -2.66602,-0.80664063 -1.20312,-0.82031247 -1.20312,-3.56835937 v -1.4902344 q 0,-2.0371093 0.64257,-2.7753906 0.64258,-0.7382813 3.18555,-1.722656 2.7207,-1.066407 2.91211,-1.435547 0.19141,-0.369141 0.19141,-1.503906 0,-1.421875 -0.21875,-1.845704 -0.20508,-0.4375 -0.69727,-0.4375 -0.56055,0 -0.69726,0.369141 -0.13672,0.355469 -0.13672,1.873047 z m 1.75,2.4882809 Q 228.07574,-7.65625 227.85699,-7 q -0.20507,0.65625 -0.20507,1.8867188 0,1.4082031 0.17773,1.8183593 0.19141,0.4101563 0.73828,0.4101563 0.51953,0 0.66992,-0.3144532 0.16407,-0.328125 0.16407,-1.6953124 z" /><path
             id="path379"
             style=""
             d="m 242.62459,-20.5625 v 2.857422 h 1.49023 v 2.871094 h -1.49023 v 9.7070309 q 0,1.7910156 0.17773,1.9960937 0.19141,0.2050781 1.54492,0.2050781 V 0 h -2.22851 q -1.88672,0 -2.69336,-0.15039062 -0.80664,-0.16406251 -1.42188,-0.72460938 -0.61523,-0.5742187 -0.76562,-1.2988281 -0.15039,-0.7382813 -0.15039,-3.4453125 v -9.2148434 h -1.18945 v -2.871094 h 1.18945 V -20.5625 Z" /><path
             id="path381"
             style=""
             d="m 257.82214,-8.75 h -7.15039 v 3.9238281 q 0,1.2304688 0.17774,1.5859375 0.17773,0.3554688 0.68359,0.3554688 0.62891,0 0.83399,-0.4648438 0.21875,-0.4785156 0.21875,-1.8320312 v -2.3925781 h 5.23632 v 1.3398437 q 0,1.6816406 -0.21875,2.5839844 -0.20507,0.9023437 -0.98437,1.9277344 -0.7793,1.02539058 -1.98242,1.54492183 -1.18946,0.50585937 -2.99414,0.50585937 -1.75,0 -3.08985,-0.50585937 -1.33984,-0.50585938 -2.09179,-1.38085933 -0.73829,-0.8886719 -1.0254,-1.9414063 -0.2871,-1.0664062 -0.2871,-3.0898437 v -5.2910153 q 0,-2.378907 0.64257,-3.746094 0.64258,-1.380859 2.10547,-2.105469 1.46289,-0.738281 3.36328,-0.738281 2.32422,0 3.82813,0.888672 1.51758,0.875 2.11914,2.33789 0.61523,1.449219 0.61523,4.087891 z m -5.53711,-2.953125 v -1.326172 q 0,-1.408203 -0.15039,-1.818359 -0.15039,-0.410157 -0.61523,-0.410157 -0.57422,0 -0.71094,0.355469 -0.13672,0.341797 -0.13672,1.873047 v 1.326172 z" /><path
             id="path383"
             style=""
             d="M 272.18481,-22.134766 V 0 h -5.52343 v -1.3125 q -0.79297,0.8203125 -1.66797,1.23046875 -0.875,0.41015625 -1.83203,0.41015625 -1.28516,0 -2.22852,-0.66992188 Q 259.9895,-1.0253906 259.71606,-1.9140625 259.4563,-2.8027344 259.4563,-4.8125 v -8.490234 q 0,-2.091797 0.25976,-2.966797 0.27344,-0.875 1.23047,-1.53125 0.95703,-0.669922 2.28321,-0.669922 1.02539,0 1.87304,0.369141 0.86133,0.36914 1.5586,1.107421 v -5.140625 z m -5.52343,8.558594 q 0,-0.998047 -0.17774,-1.339844 -0.16406,-0.341797 -0.66992,-0.341797 -0.49219,0 -0.66992,0.314454 -0.16406,0.300781 -0.16406,1.367187 v 8.8867189 q 0,1.1074218 0.16406,1.4628906 0.16406,0.3417969 0.62891,0.3417969 0.5332,0 0.71093,-0.3828125 0.17774,-0.3964844 0.17774,-1.9140625 z" /><path
             id="path385"
             style=""
             d="m 286.0654,-22.134766 v 2.802735 q -1.70899,0 -2.02344,0.164062 -0.30078,0.150391 -0.30078,0.888672 v 0.574219 h 2.32422 v 2.871094 h -1.3125 V 0 h -5.52344 v -14.833984 h -1.13476 v -2.871094 h 1.13476 q 0,-1.791016 0.12305,-2.392578 0.12305,-0.601563 0.60156,-1.066406 0.49219,-0.478516 1.36719,-0.72461 0.875,-0.246094 2.7207,-0.246094 z" /><path
             id="path387"
             style=""
             d="m 299.61246,-11.771484 v 4.443359 q 0,2.4472656 -0.2461,3.5957031 -0.24609,1.1347656 -1.05273,2.1328125 -0.80664,0.98437503 -2.07813,1.46289065 -1.25781,0.46484375 -2.89843,0.46484375 -1.83203,0 -3.10352,-0.39648437 -1.27148,-0.41015626 -1.98242,-1.21679683 -0.69727,-0.8203126 -0.99805,-1.9687501 -0.30078,-1.1621093 -0.30078,-3.4726562 V -11.375 q 0,-2.529297 0.54688,-3.951172 0.54687,-1.421875 1.96875,-2.283203 1.42187,-0.861328 3.63671,-0.861328 1.85938,0 3.18555,0.560547 1.33985,0.546875 2.06445,1.435547 0.72461,0.888671 0.98438,1.832031 0.27344,0.943359 0.27344,2.871094 z m -5.52344,-1.367188 q 0,-1.394531 -0.15039,-1.75 -0.15039,-0.369141 -0.64258,-0.369141 -0.49219,0 -0.65625,0.369141 -0.16406,0.355469 -0.16406,1.75 v 8.1894533 q 0,1.2851562 0.16406,1.6816406 0.16406,0.3828125 0.64258,0.3828125 0.49219,0 0.64258,-0.3554688 0.16406,-0.3554687 0.16406,-1.53125 z" /><path
             id="path389"
             style=""
             d="m 306.93152,-18.142578 -0.0957,1.667969 q 0.60156,-0.998047 1.46289,-1.490235 0.875,-0.505859 2.00976,-0.505859 1.42188,0 2.32422,0.669922 0.90234,0.669922 1.16211,1.695312 0.25977,1.011719 0.25977,3.390625 V 0 h -5.52344 v -12.564453 q 0,-1.873047 -0.12305,-2.283203 -0.12305,-0.410157 -0.68359,-0.410157 -0.58789,0 -0.73828,0.478516 -0.15039,0.464844 -0.15039,2.515625 V 0 h -5.52344 v -18.142578 z" /><path
             id="path391"
             style=""
             d="m 321.80859,-20.5625 v 2.857422 h 1.49024 v 2.871094 h -1.49024 v 9.7070309 q 0,1.7910156 0.17774,1.9960937 0.1914,0.2050781 1.54492,0.2050781 V 0 h -2.22852 q -1.88671,0 -2.69336,-0.15039062 -0.80664,-0.16406251 -1.42187,-0.72460938 -0.61523,-0.5742187 -0.76563,-1.2988281 -0.15039,-0.7382813 -0.15039,-3.4453125 v -9.2148434 h -1.18945 v -2.871094 h 1.18945 V -20.5625 Z" /></g></g></g></g></svg>