<?xml version="1.0" encoding="UTF-8" standalone="no"?>
<svg
   xmlns:dc="http://purl.org/dc/elements/1.1/"
   xmlns:cc="http://creativecommons.org/ns#"
   xmlns:rdf="http://www.w3.org/1999/02/22-rdf-syntax-ns#"
   xmlns:svg="http://www.w3.org/2000/svg"
   xmlns="http://www.w3.org/2000/svg"
   viewBox="0 0 960 720"
   height="720"
   width="960"
   xml:space="preserve"
   id="svg2"
   version="1.1"><metadata
     id="metadata8"><rdf:RDF><cc:Work
         rdf:about=""><dc:format>image/svg+xml</dc:format><dc:type
           rdf:resource="http://purl.org/dc/dcmitype/StillImage" /></cc:Work></rdf:RDF></metadata><defs
     id="defs6"><clipPath
       id="clipPath18"
       clipPathUnits="userSpaceOnUse"><path
         style="clip-rule:evenodd"
         id="path16"
         d="M 0,0 H 720 V 540 H 0 Z" /></clipPath><clipPath
       id="clipPath30"
       clipPathUnits="userSpaceOnUse"><path
         style="clip-rule:evenodd"
         id="path28"
         d="M 0,0 H 702 V 540 H 0 Z" /></clipPath><clipPath
       id="clipPath52"
       clipPathUnits="userSpaceOnUse"><path
         style="clip-rule:evenodd"
         id="path50"
         d="M 0,0 H 720 V 540 H 0 Z" /></clipPath><clipPath
       id="clipPath66"
       clipPathUnits="userSpaceOnUse"><path
         style="clip-rule:evenodd"
         id="path64"
         d="M 99.7,57 H 604.4 V 298.8 H 99.7 Z" /></clipPath><clipPath
       id="clipPath94"
       clipPathUnits="userSpaceOnUse"><path
         style="clip-rule:evenodd"
         id="path92"
         d="M 48.1,10.6 H 701.9 V 375.3 H 48.1 Z" /></clipPath><clipPath
       id="clipPath118"
       clipPathUnits="userSpaceOnUse"><path
         style="clip-rule:evenodd"
         id="path116"
         d="m 99.7,59.6 h 506 v 237.8 h -506 z" /></clipPath><clipPath
       id="clipPath174"
       clipPathUnits="userSpaceOnUse"><path
         style="clip-rule:evenodd"
         id="path172"
         d="M 48.1,10.6 H 701.9 V 375.3 H 48.1 Z" /></clipPath><clipPath
       id="clipPath218"
       clipPathUnits="userSpaceOnUse"><path
         style="clip-rule:evenodd"
         id="path216"
         d="m 188,323.7 h 374 v 41.1 H 188 Z" /></clipPath><clipPath
       id="clipPath232"
       clipPathUnits="userSpaceOnUse"><path
         style="clip-rule:evenodd"
         id="path230"
         d="M 48.1,10.6 H 701.9 V 375.3 H 48.1 Z" /></clipPath><clipPath
       id="clipPath334"
       clipPathUnits="userSpaceOnUse"><path
         style="clip-rule:evenodd"
         id="path332"
         d="m 612.4,158.3 h 81.7 v 39.1 h -81.7 z" /></clipPath></defs><g
     transform="matrix(1.3333333,0,0,-1.3333333,0,720)"
     id="g10"><g
       id="g12"><g
         clip-path="url(#clipPath18)"
         id="g14"><path
           id="path20"
           style="fill:#ffffff;fill-opacity:1;fill-rule:evenodd;stroke:none"
           d="M 0,540 H 720 V 0 H 0 Z" /><path
           id="path22"
           style="fill:#ffffff;fill-opacity:1;fill-rule:evenodd;stroke:none"
           d="M 0,540 H 720 V 0 H 0 Z" /></g></g><g
       id="g24"><g
         clip-path="url(#clipPath30)"
         id="g26"><path
           id="path32"
           style="fill:#99cc99;fill-opacity:1;fill-rule:evenodd;stroke:none"
           d="M 30,0 H 0 V 540 H 60 V 0 Z" /><path
           id="path34"
           style="fill:#99cc99;fill-opacity:1;fill-rule:evenodd;stroke:none"
           d="M 153,456 H 54 v 84 h 198 v -84 z" /><path
           id="path36"
           style="fill:#ffffff;fill-opacity:1;fill-rule:evenodd;stroke:none"
           d="M 84,480 C 72,480 60,468 60,456 v 0 c 0,-12 12,-24 24,-24 h 354 c 12,0 24,12 24,24 v 0 c 0,12 -12,24 -24,24 z m -24,0 z m 402,-48 z" /><g
           id="g38" /><g
           id="g40" /><path
           id="path42"
           style="fill:#003366;fill-opacity:1;fill-rule:evenodd;stroke:none"
           d="m 48,384 v 0 -25 0 h 552 v 0 25 0 z m 0,0 z m 552,-25 z" /><path
           id="path44"
           style="fill:#003366;fill-opacity:1;fill-rule:evenodd;stroke:none"
           d="M 33.5,384 C 25.7,384 18,377.7 18,371.5 c 0,-6.3 7.7,-12.6 15.5,-12.6 H 49 V 384 Z M 49,384 Z M 18,358.9 Z" /></g></g><g
       id="g46"><g
         clip-path="url(#clipPath52)"
         id="g48"><g
           id="g54"><g
             id="text58"
             style="font-variant:normal;font-weight:bold;font-size:36px;font-family:Arial;-inkscape-font-specification:Arial-BoldMT;writing-mode:lr-tb;fill:#009c98;fill-opacity:1;fill-rule:nonzero;stroke:none"
             transform="matrix(1,0,0,-1,79.1,400.9)"
             aria-label="Graphs - Good"><path
               id="path360"
               style=""
               d="m 14.607422,-9.4746094 v -4.3417966 h 11.214844 v 10.2656247 q -1.634766,1.5820313 -4.746094,2.79492193 -3.09375,1.1953125 -6.275391,1.1953125 -4.042968,0 -7.0488279,-1.68750003 Q 4.7460937,-2.953125 3.234375,-6.0996094 1.7226562,-9.2636719 1.7226562,-12.972656 q 0,-4.025391 1.6875001,-7.154297 1.6874999,-3.128906 4.9394531,-4.798828 2.4785156,-1.283203 6.1699216,-1.283203 4.798828,0 7.488281,2.021484 2.707032,2.003906 3.480469,5.554688 l -5.167969,0.966796 q -0.544921,-1.898437 -2.05664,-2.988281 -1.494141,-1.107422 -3.744141,-1.107422 -3.410156,0 -5.4316404,2.16211 -2.0039062,2.162109 -2.0039062,6.416015 0,4.5878909 2.0390625,6.8906253 2.0390621,2.2851562 5.3437501,2.2851562 1.634765,0 3.269531,-0.6328125 1.652344,-0.6503906 2.830078,-1.5644531 v -3.2695313 z" /><path
               id="path362"
               style=""
               d="m 35.2125,0 h -4.939454 v -18.667969 h 4.587891 v 2.654297 q 1.177734,-1.880859 2.109375,-2.478515 0.949219,-0.597657 2.144531,-0.597657 1.6875,0 3.251953,0.931641 l -1.529296,4.30664 q -1.248047,-0.808593 -2.320313,-0.808593 -1.037109,0 -1.757812,0.580078 -0.720704,0.5625 -1.142579,2.05664 -0.404296,1.494141 -0.404296,6.257813 z" /><path
               id="path364"
               style=""
               d="M 48.251392,-12.972656 43.76897,-13.78125 q 0.75586,-2.707031 2.601563,-4.007812 1.845703,-1.300782 5.484375,-1.300782 3.304687,0 4.921875,0.791016 1.617187,0.773437 2.267578,1.986328 0.667969,1.195312 0.667969,4.412109 l -0.05273,5.7656254 q 0,2.4609375 0.228516,3.6386718 Q 60.134205,-1.3359375 60.784595,0 h -4.886718 q -0.19336,-0.4921875 -0.47461,-1.4589844 -0.123047,-0.4394531 -0.175781,-0.5800781 -1.265625,1.23046875 -2.707031,1.84570313 -1.441406,0.61523437 -3.076172,0.61523437 -2.882813,0 -4.552734,-1.5644531 -1.652344,-1.5644532 -1.652344,-3.9550781 0,-1.5820313 0.755859,-2.8125 0.75586,-1.2480469 2.109375,-1.8984376 1.371094,-0.6679692 3.9375,-1.1601562 3.462891,-0.650391 4.798828,-1.212891 v -0.492187 q 0,-1.423828 -0.703125,-2.021485 -0.703125,-0.615234 -2.654297,-0.615234 -1.318359,0 -2.05664,0.527344 -0.738281,0.509765 -1.195313,1.810547 z m 6.609375,4.0078122 q -0.949218,0.3164063 -3.005859,0.7558594 -2.056641,0.4394532 -2.689453,0.8613282 -0.966797,0.6855468 -0.966797,1.7402343 0,1.0371094 0.773437,1.7929688 0.773438,0.7558593 1.96875,0.7558593 1.335938,0 2.548829,-0.8789062 0.896484,-0.6679687 1.177734,-1.6347656 0.193359,-0.6328125 0.193359,-2.4082031 z" /><path
               id="path366"
               style=""
               d="m 64.43536,-18.667969 h 4.605469 v 2.742188 q 0.896484,-1.40625 2.425781,-2.285156 1.529297,-0.878907 3.392578,-0.878907 3.251953,0 5.519531,2.548828 2.267578,2.548828 2.267578,7.1015629 0,4.6757812 -2.285156,7.2773437 -2.285156,2.5839844 -5.537109,2.5839844 -1.546875,0 -2.8125,-0.61523437 -1.248047,-0.61523438 -2.636719,-2.10937503 V 7.1015625 H 64.43536 Z m 4.886719,9.0175784 q 0,3.1464844 1.248047,4.6582031 1.248046,1.4941406 3.041015,1.4941406 1.722656,0 2.865235,-1.3710937 1.142578,-1.3886719 1.142578,-4.5351563 0,-2.9355471 -1.177735,-4.3593751 -1.177734,-1.423828 -2.917968,-1.423828 -1.810547,0 -3.00586,1.40625 -1.195312,1.388672 -1.195312,4.1308594 z" /><path
               id="path368"
               style=""
               d="m 91.385857,-25.769531 v 9.474609 q 2.390625,-2.794922 5.71289,-2.794922 1.705078,0 3.076173,0.632813 1.37109,0.632812 2.05664,1.617187 0.70312,0.984375 0.94922,2.179688 0.26367,1.195312 0.26367,3.708984 V 0 h -4.939453 v -9.8613281 q 0,-2.9355469 -0.28125,-3.7265629 -0.28125,-0.791015 -1.001953,-1.248047 -0.703125,-0.474609 -1.77539,-0.474609 -1.230469,0 -2.197266,0.597656 -0.966797,0.597657 -1.423828,1.810547 -0.439453,1.195313 -0.439453,3.5507815 V 0 h -4.939453 v -25.769531 z" /><path
               id="path370"
               style=""
               d="m 106.68375,-5.3261719 4.95703,-0.7558593 q 0.3164,1.4414062 1.2832,2.1972656 0.9668,0.7382812 2.70703,0.7382812 1.91602,0 2.88281,-0.703125 0.6504,-0.4921875 0.6504,-1.3183593 0,-0.5625 -0.35157,-0.9316407 -0.36914,-0.3515625 -1.65234,-0.6503906 -5.97656,-1.3183594 -7.57617,-2.4082031 -2.21485,-1.5117189 -2.21485,-4.2011719 0,-2.425781 1.91602,-4.078125 1.91601,-1.652344 5.94141,-1.652344 3.83203,0 5.69531,1.248047 1.86328,1.248047 2.5664,3.691406 l -4.6582,0.861328 q -0.29883,-1.089843 -1.14258,-1.669921 -0.82617,-0.580079 -2.37304,-0.580079 -1.95118,0 -2.79493,0.544922 -0.5625,0.386719 -0.5625,1.001953 0,0.527344 0.49219,0.896485 0.66797,0.492187 4.60547,1.388672 3.95508,0.896484 5.51953,2.1972654 1.54688,1.3183593 1.54688,3.6738281 0,2.5664062 -2.14453,4.4121094 -2.14454,1.8457031 -6.34571,1.8457031 -3.81445,0 -6.04687,-1.546875 -2.21485,-1.546875 -2.90039,-4.2011719 z" /><path
               id="path372"
               style=""
               d="M 137.81349,-6.8730469 V -11.8125 h 9.70313 v 4.9394531 z" /><path
               id="path374"
               style=""
               d="m 172.35942,-9.4746094 v -4.3417966 h 11.21484 v 10.2656247 q -1.63476,1.5820313 -4.74609,2.79492193 -3.09375,1.1953125 -6.27539,1.1953125 -4.04297,0 -7.04883,-1.68750003 -3.00586,-1.7050781 -4.51758,-4.8515625 -1.51171,-3.1640625 -1.51171,-6.8730466 0,-4.025391 1.6875,-7.154297 1.6875,-3.128906 4.93945,-4.798828 2.47851,-1.283203 6.16992,-1.283203 4.79883,0 7.48828,2.021484 2.70703,2.003906 3.48047,5.554688 l -5.16797,0.966796 q -0.54492,-1.898437 -2.05664,-2.988281 -1.49414,-1.107422 -3.74414,-1.107422 -3.41016,0 -5.43164,2.16211 -2.00391,2.162109 -2.00391,6.416015 0,4.5878909 2.03907,6.8906253 2.03906,2.2851562 5.34375,2.2851562 1.63476,0 3.26953,-0.6328125 1.65234,-0.6503906 2.83008,-1.5644531 v -3.2695313 z" /><path
               id="path376"
               style=""
               d="m 187.0934,-9.5976563 q 0,-2.4609377 1.21289,-4.7636717 1.21289,-2.302734 3.42773,-3.515625 2.23243,-1.212891 4.97461,-1.212891 4.23633,0 6.94336,2.759766 2.70703,2.742187 2.70703,6.9433592 0,4.2363282 -2.74218,7.03125 -2.72461,2.7773438 -6.87305,2.7773438 -2.56641,0 -4.9043,-1.16015625 -2.32031,-1.16015625 -3.5332,-3.39257815 -1.21289,-2.25 -1.21289,-5.4667969 z m 5.0625,0.2636719 q 0,2.7773438 1.31836,4.2539063 1.31836,1.4765625 3.25195,1.4765625 1.9336,0 3.23438,-1.4765625 1.31836,-1.4765625 1.31836,-4.2890625 0,-2.7421874 -1.31836,-4.2187504 -1.30078,-1.476562 -3.23438,-1.476562 -1.93359,0 -3.25195,1.476562 -1.31836,1.476563 -1.31836,4.2539066 z" /><path
               id="path378"
               style=""
               d="m 209.05341,-9.5976563 q 0,-2.4609377 1.21289,-4.7636717 1.21289,-2.302734 3.42773,-3.515625 2.23242,-1.212891 4.97461,-1.212891 4.23633,0 6.94336,2.759766 2.70703,2.742187 2.70703,6.9433592 0,4.2363282 -2.74219,7.03125 -2.72461,2.7773438 -6.87304,2.7773438 -2.56641,0 -4.9043,-1.16015625 -2.32031,-1.16015625 -3.5332,-3.39257815 -1.21289,-2.25 -1.21289,-5.4667969 z m 5.0625,0.2636719 q 0,2.7773438 1.31836,4.2539063 1.31835,1.4765625 3.25195,1.4765625 1.93359,0 3.23437,-1.4765625 1.31836,-1.4765625 1.31836,-4.2890625 0,-2.7421874 -1.31836,-4.2187504 -1.30078,-1.476562 -3.23437,-1.476562 -1.9336,0 -3.25195,1.476562 -1.31836,1.476563 -1.31836,4.2539066 z" /><path
               id="path380"
               style=""
               d="m 249.27708,0 h -4.58789 v -2.7421875 q -1.14257,1.5996094 -2.70703,2.390625 -1.54687,0.7734375 -3.1289,0.7734375 -3.2168,0 -5.51954,-2.5839844 -2.28515,-2.6015625 -2.28515,-7.2421875 0,-4.7460941 2.23242,-7.2070311 2.23242,-2.478516 5.64258,-2.478516 3.1289,0 5.41406,2.601563 v -9.28125 h 4.93945 z m -13.18359,-9.7382813 q 0,2.9882813 0.82617,4.3242188 1.19531,1.9335937 3.33985,1.9335937 1.70507,0 2.90039,-1.4414062 1.19531,-1.4589844 1.19531,-4.3417969 0,-3.2167971 -1.16016,-4.6230471 -1.16015,-1.423828 -2.9707,-1.423828 -1.75781,0 -2.95313,1.40625 -1.17773,1.388672 -1.17773,4.1660157 z" /></g></g></g></g><g
       id="g60"><g
         clip-path="url(#clipPath66)"
         id="g62"><path
           id="path68"
           style="fill:none;stroke:#000000;stroke-width:0.1;stroke-linecap:butt;stroke-linejoin:miter;stroke-miterlimit:10;stroke-dasharray:none;stroke-opacity:1"
           d="M 99.8,83.2 H 604.6" /><path
           id="path70"
           style="fill:none;stroke:#000000;stroke-width:0.1;stroke-linecap:butt;stroke-linejoin:miter;stroke-miterlimit:10;stroke-dasharray:none;stroke-opacity:1"
           d="M 99.8,106.7 H 604.6" /><path
           id="path72"
           style="fill:none;stroke:#000000;stroke-width:0.1;stroke-linecap:butt;stroke-linejoin:miter;stroke-miterlimit:10;stroke-dasharray:none;stroke-opacity:1"
           d="M 99.8,130.9 H 604.6" /><path
           id="path74"
           style="fill:none;stroke:#000000;stroke-width:0.1;stroke-linecap:butt;stroke-linejoin:miter;stroke-miterlimit:10;stroke-dasharray:none;stroke-opacity:1"
           d="M 99.8,154.4 H 604.6" /><path
           id="path76"
           style="fill:none;stroke:#000000;stroke-width:0.1;stroke-linecap:butt;stroke-linejoin:miter;stroke-miterlimit:10;stroke-dasharray:none;stroke-opacity:1"
           d="M 99.8,178 H 604.6" /><path
           id="path78"
           style="fill:none;stroke:#000000;stroke-width:0.1;stroke-linecap:butt;stroke-linejoin:miter;stroke-miterlimit:10;stroke-dasharray:none;stroke-opacity:1"
           d="M 99.8,201.5 H 604.6" /><path
           id="path80"
           style="fill:none;stroke:#000000;stroke-width:0.1;stroke-linecap:butt;stroke-linejoin:miter;stroke-miterlimit:10;stroke-dasharray:none;stroke-opacity:1"
           d="M 99.8,225 H 604.6" /><path
           id="path82"
           style="fill:none;stroke:#000000;stroke-width:0.1;stroke-linecap:butt;stroke-linejoin:miter;stroke-miterlimit:10;stroke-dasharray:none;stroke-opacity:1"
           d="M 99.8,249.2 H 604.6" /><path
           id="path84"
           style="fill:none;stroke:#000000;stroke-width:0.1;stroke-linecap:butt;stroke-linejoin:miter;stroke-miterlimit:10;stroke-dasharray:none;stroke-opacity:1"
           d="M 99.8,272.7 H 604.6" /><path
           id="path86"
           style="fill:none;stroke:#000000;stroke-width:0.1;stroke-linecap:butt;stroke-linejoin:miter;stroke-miterlimit:10;stroke-dasharray:none;stroke-opacity:1"
           d="M 99.8,296.3 H 604.6" /></g></g><g
       id="g88"><g
         clip-path="url(#clipPath94)"
         id="g90"><g
           id="g96"><path
             id="path98"
             style="fill:none;stroke:#808080;stroke-width:0.6437;stroke-linecap:round;stroke-linejoin:miter;stroke-miterlimit:1;stroke-dasharray:none;stroke-opacity:1"
             d="M 99.8,296.3 H 604.6" /></g><g
           id="g100"><path
             id="path102"
             style="fill:none;stroke:#808080;stroke-width:0.6437;stroke-linecap:round;stroke-linejoin:miter;stroke-miterlimit:1;stroke-dasharray:none;stroke-opacity:1"
             d="M 604.6,296.3 V 59.6" /></g><g
           id="g104"><path
             id="path106"
             style="fill:none;stroke:#808080;stroke-width:0.6437;stroke-linecap:round;stroke-linejoin:miter;stroke-miterlimit:1;stroke-dasharray:none;stroke-opacity:1"
             d="M 604.6,59.6 H 99.8" /></g><g
           id="g108"><path
             id="path110"
             style="fill:none;stroke:#808080;stroke-width:0.6437;stroke-linecap:round;stroke-linejoin:miter;stroke-miterlimit:1;stroke-dasharray:none;stroke-opacity:1"
             d="M 99.8,59.6 V 296.3" /></g></g></g><g
       id="g112"><g
         clip-path="url(#clipPath118)"
         id="g114"><path
           id="path120"
           style="fill:#9999ff;fill-opacity:1;fill-rule:evenodd;stroke:none"
           d="m 126.6,108 h 36 V 59.6 h -36 z" /><g
           id="g122"><path
             id="path124"
             style="fill:none;stroke:#000000;stroke-width:0.6437;stroke-linecap:round;stroke-linejoin:round;stroke-miterlimit:10;stroke-dasharray:none;stroke-opacity:1"
             d="m 126.6,108 h 36 V 59.6 h -36 z" /></g><path
           id="path126"
           style="fill:#9999ff;fill-opacity:1;fill-rule:evenodd;stroke:none"
           d="m 252.8,124.4 h 36 V 59.6 h -36 z" /><g
           id="g128"><path
             id="path130"
             style="fill:none;stroke:#000000;stroke-width:0.6437;stroke-linecap:round;stroke-linejoin:round;stroke-miterlimit:10;stroke-dasharray:none;stroke-opacity:1"
             d="m 252.8,124.4 h 36 V 59.6 h -36 z" /></g><path
           id="path132"
           style="fill:#9999ff;fill-opacity:1;fill-rule:evenodd;stroke:none"
           d="m 379,272.7 h 36 V 59.6 h -36 z" /><g
           id="g134"><path
             id="path136"
             style="fill:none;stroke:#000000;stroke-width:0.6437;stroke-linecap:round;stroke-linejoin:round;stroke-miterlimit:10;stroke-dasharray:none;stroke-opacity:1"
             d="m 379,272.7 h 36 V 59.6 h -36 z" /></g><path
           id="path138"
           style="fill:#9999ff;fill-opacity:1;fill-rule:evenodd;stroke:none"
           d="m 505.2,108 h 36 V 59.6 h -36 z" /><g
           id="g140"><path
             id="path142"
             style="fill:none;stroke:#000000;stroke-width:0.6437;stroke-linecap:round;stroke-linejoin:round;stroke-miterlimit:10;stroke-dasharray:none;stroke-opacity:1"
             d="m 505.2,108 h 36 V 59.6 h -36 z" /></g><path
           id="path144"
           style="fill:#993366;fill-opacity:1;fill-rule:evenodd;stroke:none"
           d="m 162.6,132.2 h 35.9 V 59.6 h -35.9 z" /><g
           id="g146"><path
             id="path148"
             style="fill:none;stroke:#000000;stroke-width:0.6437;stroke-linecap:round;stroke-linejoin:round;stroke-miterlimit:10;stroke-dasharray:none;stroke-opacity:1"
             d="m 162.6,132.2 h 35.9 V 59.6 h -35.9 z" /></g><path
           id="path150"
           style="fill:#993366;fill-opacity:1;fill-rule:evenodd;stroke:none"
           d="m 288.8,151.2 h 35.9 V 59.6 h -35.9 z" /><g
           id="g152"><path
             id="path154"
             style="fill:none;stroke:#000000;stroke-width:0.6437;stroke-linecap:round;stroke-linejoin:round;stroke-miterlimit:10;stroke-dasharray:none;stroke-opacity:1"
             d="m 288.8,151.2 h 35.9 V 59.6 h -35.9 z" /></g><path
           id="path156"
           style="fill:#993366;fill-opacity:1;fill-rule:evenodd;stroke:none"
           d="m 415,141.3 h 35.9 V 59.6 H 415 Z" /><g
           id="g158"><path
             id="path160"
             style="fill:none;stroke:#000000;stroke-width:0.6437;stroke-linecap:round;stroke-linejoin:round;stroke-miterlimit:10;stroke-dasharray:none;stroke-opacity:1"
             d="m 415,141.3 h 35.9 V 59.6 H 415 Z" /></g><path
           id="path162"
           style="fill:#993366;fill-opacity:1;fill-rule:evenodd;stroke:none"
           d="m 541.2,134.2 h 35.9 V 59.6 h -35.9 z" /><g
           id="g164"><path
             id="path166"
             style="fill:none;stroke:#000000;stroke-width:0.6437;stroke-linecap:round;stroke-linejoin:round;stroke-miterlimit:10;stroke-dasharray:none;stroke-opacity:1"
             d="m 541.2,134.2 h 35.9 V 59.6 h -35.9 z" /></g></g></g><g
       id="g168"><g
         clip-path="url(#clipPath174)"
         id="g170"><path
           id="path176"
           style="fill:none;stroke:#000000;stroke-width:0.1;stroke-linecap:butt;stroke-linejoin:miter;stroke-miterlimit:10;stroke-dasharray:none;stroke-opacity:1"
           d="M 99.8,296.3 V 59.6" /><path
           id="path178"
           style="fill:none;stroke:#000000;stroke-width:0.1;stroke-linecap:butt;stroke-linejoin:miter;stroke-miterlimit:10;stroke-dasharray:none;stroke-opacity:1"
           d="m 94.6,59.6 h 5.2" /><path
           id="path180"
           style="fill:none;stroke:#000000;stroke-width:0.1;stroke-linecap:butt;stroke-linejoin:miter;stroke-miterlimit:10;stroke-dasharray:none;stroke-opacity:1"
           d="m 94.6,83.2 h 5.2" /><path
           id="path182"
           style="fill:none;stroke:#000000;stroke-width:0.1;stroke-linecap:butt;stroke-linejoin:miter;stroke-miterlimit:10;stroke-dasharray:none;stroke-opacity:1"
           d="m 94.6,106.7 h 5.2" /><path
           id="path184"
           style="fill:none;stroke:#000000;stroke-width:0.1;stroke-linecap:butt;stroke-linejoin:miter;stroke-miterlimit:10;stroke-dasharray:none;stroke-opacity:1"
           d="m 94.6,130.9 h 5.2" /><path
           id="path186"
           style="fill:none;stroke:#000000;stroke-width:0.1;stroke-linecap:butt;stroke-linejoin:miter;stroke-miterlimit:10;stroke-dasharray:none;stroke-opacity:1"
           d="m 94.6,154.4 h 5.2" /><path
           id="path188"
           style="fill:none;stroke:#000000;stroke-width:0.1;stroke-linecap:butt;stroke-linejoin:miter;stroke-miterlimit:10;stroke-dasharray:none;stroke-opacity:1"
           d="m 94.6,178 h 5.2" /><path
           id="path190"
           style="fill:none;stroke:#000000;stroke-width:0.1;stroke-linecap:butt;stroke-linejoin:miter;stroke-miterlimit:10;stroke-dasharray:none;stroke-opacity:1"
           d="m 94.6,201.5 h 5.2" /><path
           id="path192"
           style="fill:none;stroke:#000000;stroke-width:0.1;stroke-linecap:butt;stroke-linejoin:miter;stroke-miterlimit:10;stroke-dasharray:none;stroke-opacity:1"
           d="m 94.6,225 h 5.2" /><path
           id="path194"
           style="fill:none;stroke:#000000;stroke-width:0.1;stroke-linecap:butt;stroke-linejoin:miter;stroke-miterlimit:10;stroke-dasharray:none;stroke-opacity:1"
           d="m 94.6,249.2 h 5.2" /><path
           id="path196"
           style="fill:none;stroke:#000000;stroke-width:0.1;stroke-linecap:butt;stroke-linejoin:miter;stroke-miterlimit:10;stroke-dasharray:none;stroke-opacity:1"
           d="m 94.6,272.7 h 5.2" /><path
           id="path198"
           style="fill:none;stroke:#000000;stroke-width:0.1;stroke-linecap:butt;stroke-linejoin:miter;stroke-miterlimit:10;stroke-dasharray:none;stroke-opacity:1"
           d="m 94.6,296.3 h 5.2" /><path
           id="path200"
           style="fill:none;stroke:#000000;stroke-width:0.1;stroke-linecap:butt;stroke-linejoin:miter;stroke-miterlimit:10;stroke-dasharray:none;stroke-opacity:1"
           d="M 99.8,59.6 H 604.6" /><path
           id="path202"
           style="fill:none;stroke:#000000;stroke-width:0.1;stroke-linecap:butt;stroke-linejoin:miter;stroke-miterlimit:10;stroke-dasharray:none;stroke-opacity:1"
           d="m 99.8,54.4 v 5.2" /><path
           id="path204"
           style="fill:none;stroke:#000000;stroke-width:0.1;stroke-linecap:butt;stroke-linejoin:miter;stroke-miterlimit:10;stroke-dasharray:none;stroke-opacity:1"
           d="m 226,54.4 v 5.2" /><path
           id="path206"
           style="fill:none;stroke:#000000;stroke-width:0.1;stroke-linecap:butt;stroke-linejoin:miter;stroke-miterlimit:10;stroke-dasharray:none;stroke-opacity:1"
           d="m 352.2,54.4 v 5.2" /><path
           id="path208"
           style="fill:none;stroke:#000000;stroke-width:0.1;stroke-linecap:butt;stroke-linejoin:miter;stroke-miterlimit:10;stroke-dasharray:none;stroke-opacity:1"
           d="m 478.4,54.4 v 5.2" /><path
           id="path210"
           style="fill:none;stroke:#000000;stroke-width:0.1;stroke-linecap:butt;stroke-linejoin:miter;stroke-miterlimit:10;stroke-dasharray:none;stroke-opacity:1"
           d="m 604.6,54.4 v 5.2" /></g></g><g
       id="g212"><g
         clip-path="url(#clipPath218)"
         id="g214"><g
           id="g220"><g
             id="text224"
             style="font-variant:normal;font-weight:bold;font-size:22.89999962px;font-family:Arial;-inkscape-font-specification:Arial-BoldMT;writing-mode:lr-tb;fill:#000000;fill-opacity:1;fill-rule:nonzero;stroke:none"
             transform="matrix(1,0,0,-1,191.3,336.3)"
             aria-label="Items Sold in First Quarter of 2002"><path
               id="path383"
               style=""
               d="M 1.5654297,0 V -16.392285 H 4.8751952 V 0 Z" /><path
               id="path385"
               style=""
               d="m 12.99736,-11.874902 v 2.5046873 h -2.146875 v 4.7857421 q 0,1.4536133 0.05591,1.6996094 0.06709,0.2348144 0.279541,0.3913574 0.223633,0.1565429 0.536719,0.1565429 0.436084,0 1.263525,-0.3019042 l 0.26836,2.43759757 q -1.095801,0.4696289 -2.482325,0.4696289 -0.8498043,0 -1.5318844,-0.27954101 Q 8.5582486,-0.30190429 8.233981,-0.74916991 7.9208951,-1.2076172 7.797897,-1.9791504 7.6972623,-2.5270507 7.6972623,-4.1931152 V -9.3702147 H 6.2548306 v -2.5046873 h 1.4424317 v -2.359326 l 3.1532227,-1.833789 v 4.193115 z" /><path
               id="path387"
               style=""
               d="m 22.30621,-3.7793945 3.130859,0.5255371 q -0.603808,1.7219727 -1.91206,2.62768554 -1.29707,0.89453123 -3.253858,0.89453123 -3.097314,0 -4.584472,-2.02387687 -1.174072,-1.6213379 -1.174072,-4.0924804 0,-2.9519531 1.543066,-4.6180171 1.543066,-1.677247 3.902393,-1.677247 2.650048,0 4.181933,1.755518 1.531885,1.7443359 1.464795,5.3560058 h -7.871875 q 0.03355,1.3977051 0.760352,2.1804199 0.726806,0.7715332 1.811425,0.7715332 0.737989,0 1.241162,-0.4025391 0.503174,-0.402539 0.760352,-1.2970703 z m 0.178906,-3.1755859 q -0.03355,-1.3641601 -0.704443,-2.0686034 -0.670899,-0.715625 -1.63252,-0.715625 -1.028711,0 -1.699609,0.7491699 -0.670898,0.7491699 -0.659717,2.0350585 z" /><path
               id="path389"
               style=""
               d="m 27.583586,-11.874902 h 2.896045 v 1.621338 q 1.554248,-1.889698 3.701123,-1.889698 1.140528,0 1.979151,0.469629 0.838623,0.469629 1.375341,1.420069 0.782715,-0.95044 1.688428,-1.420069 0.905713,-0.469629 1.934424,-0.469629 1.308252,0 2.213965,0.536719 0.905713,0.525537 1.352978,1.554248 0.324268,0.7603518 0.324268,2.4599611 V 0 h -3.142041 v -6.7872557 q 0,-1.7666992 -0.324268,-2.2810547 -0.436084,-0.6708984 -1.341797,-0.6708984 -0.659716,0 -1.241162,0.402539 -0.581445,0.4025391 -0.838623,1.1852539 -0.257177,0.7715332 -0.257177,2.4487793 V 0 H 34.7622 v -6.5077147 q 0,-1.7331543 -0.167725,-2.2363281 -0.167725,-0.5031738 -0.525537,-0.7491699 -0.346631,-0.2459961 -0.95044,-0.2459961 -0.726806,0 -1.308251,0.3913574 -0.581446,0.3913574 -0.838623,1.1293457 -0.245997,0.7379882 -0.245997,2.4487792 V 0 h -3.142041 z" /><path
               id="path391"
               style=""
               d="m 46.90922,-3.3880371 3.153223,-0.4808105 q 0.201269,0.9168945 0.816259,1.3977051 0.614991,0.4696289 1.721973,0.4696289 1.218799,0 1.833789,-0.4472657 0.413721,-0.3130859 0.413721,-0.838623 0,-0.3578125 -0.223633,-0.5926269 -0.234814,-0.2236328 -1.051074,-0.4137207 -3.801758,-0.8386231 -4.819287,-1.5318848 -1.408887,-0.961621 -1.408887,-2.672412 0,-1.5430663 1.218799,-2.5941403 1.218799,-1.051075 3.779394,-1.051075 2.437598,0 3.622852,0.793897 1.185254,0.793896 1.632519,2.3481444 l -2.963134,0.5479004 q -0.190088,-0.6932617 -0.726807,-1.0622558 -0.525537,-0.3689941 -1.509521,-0.3689941 -1.241163,0 -1.777881,0.3466308 -0.357813,0.2459961 -0.357813,0.6373535 0,0.3354492 0.313086,0.5702637 0.424903,0.3130859 2.92959,0.8833496 2.515869,0.5702636 3.511035,1.397705 0.983984,0.8386231 0.983984,2.3369629 0,1.6325195 -1.36416,2.80659172 -1.36416,1.17407225 -4.036572,1.17407225 -2.426416,0 -3.846484,-0.98398436 Q 47.345304,-1.6996093 46.90922,-3.3880371 Z" /><path
               id="path393"
               style=""
               d="m 66.184039,-5.3336425 3.220313,-0.3130859 q 0.290722,1.6213378 1.174072,2.3816894 0.894531,0.7603515 2.404053,0.7603515 1.598974,0 2.404052,-0.6708984 0.81626,-0.6820801 0.81626,-1.5877929 0,-0.5814453 -0.346631,-0.9839844 -0.335449,-0.4137207 -1.185254,-0.715625 -0.581445,-0.2012695 -2.650048,-0.715625 -2.661231,-0.6597167 -3.734668,-1.6213378 -1.509522,-1.352979 -1.509522,-3.298584 0,-1.252344 0.704444,-2.336963 0.715625,-1.095801 2.04624,-1.666064 1.341797,-0.570264 3.231494,-0.570264 3.086133,0 4.640381,1.352979 1.565429,1.352978 1.643701,3.611669 l -3.309766,0.145362 q -0.212451,-1.263526 -0.916894,-1.811426 -0.693262,-0.559082 -2.090967,-0.559082 -1.442432,0 -2.258691,0.592627 -0.525538,0.380176 -0.525538,1.017529 0,0.581446 0.491993,0.995166 0.626172,0.525537 3.041406,1.095801 2.415234,0.5702637 3.566943,1.1852539 1.162891,0.6038086 1.811426,1.6660644 0.659717,1.0510742 0.659717,2.6053222 0,1.4088867 -0.782715,2.6388672 -0.782715,1.22998042 -2.213965,1.83378901 -1.43125,0.59262694 -3.566943,0.59262694 -3.108496,0 -4.774561,-1.43124995 -1.666064,-1.4424316 -1.990332,-4.1931152 z" /><path
               id="path395"
               style=""
               d="m 81.272997,-6.1051757 q 0,-1.5654296 0.771533,-3.0302245 0.771533,-1.4647948 2.18042,-2.2363278 1.420068,-0.771534 3.164404,-0.771534 2.694775,0 4.416748,1.755518 1.721972,1.7443359 1.721972,4.416748 0,2.6947754 -1.744335,4.4726562 -1.733155,1.76669917 -4.372022,1.76669917 -1.632519,0 -3.119678,-0.73798827 -1.475976,-0.7379883 -2.247509,-2.1580566 -0.771533,-1.43125 -0.771533,-3.4774902 z m 3.220312,0.1677246 q 0,1.7666992 0.838623,2.705957 0.838623,0.9392578 2.068603,0.9392578 1.229981,0 2.057422,-0.9392578 0.838623,-0.9392578 0.838623,-2.7283203 0,-1.7443359 -0.838623,-2.6835937 -0.827441,-0.9392578 -2.057422,-0.9392578 -1.22998,0 -2.068603,0.9392578 -0.838623,0.9392578 -0.838623,2.705957 z" /><path
               id="path397"
               style=""
               d="m 95.808504,0 v -16.392285 h 3.142041 V 0 Z" /><path
               id="path399"
               style=""
               d="m 112.49312,0 h -2.91841 v -1.7443359 q -0.7268,1.01752927 -1.72197,1.52070309 -0.98398,0.49199218 -1.99033,0.49199218 -2.04624,0 -3.51104,-1.64370117 -1.45361,-1.6548828 -1.45361,-4.6068358 0,-3.019043 1.42007,-4.5844724 1.42007,-1.576612 3.58931,-1.576612 1.99033,0 3.44394,1.654883 v -5.903906 h 3.14204 z m -8.38623,-6.1946288 q 0,1.9008789 0.52554,2.7506835 0.76035,1.2299805 2.12451,1.2299805 1.08462,0 1.84497,-0.9168945 0.76035,-0.9280762 0.76035,-2.7618652 0,-2.0462402 -0.73798,-2.9407714 -0.73799,-0.9057129 -1.8897,-0.9057129 -1.11817,0 -1.87852,0.8945312 -0.74917,0.8833496 -0.74917,2.6500488 z" /><path
               id="path401"
               style=""
               d="m 121.8916,-13.485058 v -2.907227 h 3.14204 v 2.907227 z M 121.8916,0 v -11.874902 h 3.14204 V 0 Z" /><path
               id="path403"
               style=""
               d="m 138.60126,0 h -3.14204 v -6.0604491 q 0,-1.9232422 -0.20127,-2.4823242 -0.20127,-0.5702637 -0.65971,-0.8833496 -0.44727,-0.3130859 -1.08462,-0.3130859 -0.81626,0 -1.4648,0.4472656 -0.64853,0.4472656 -0.89453,1.1852539 -0.23481,0.7379883 -0.23481,2.7283202 V 0 h -3.14204 v -11.874902 h 2.9184 v 1.744336 q 1.55425,-2.012696 3.91358,-2.012696 1.03989,0 1.90088,0.380176 0.86098,0.368994 1.29707,0.95044 0.44726,0.581445 0.61499,1.3194333 0.1789,0.7379882 0.1789,2.11333 z" /><path
               id="path405"
               style=""
               d="m 147.42402,0 v -16.392285 h 11.23755 v 2.773047 h -7.92778 v 3.8800292 h 6.84316 v 2.7730468 h -6.84316 V 0 Z" /><path
               id="path407"
               style=""
               d="m 161.188,-13.485058 v -2.907227 h 3.14204 v 2.907227 z M 161.188,0 v -11.874902 h 3.14204 V 0 Z" /><path
               id="path409"
               style=""
               d="m 169.98956,0 h -3.14204 v -11.874902 h 2.91841 v 1.688428 q 0.74917,-1.196436 1.34179,-1.576612 0.60381,-0.380176 1.36416,-0.380176 1.07344,0 2.06861,0.592627 l -0.97281,2.7395023 q -0.79389,-0.5143554 -1.47597,-0.5143554 -0.65972,0 -1.11817,0.3689941 -0.45844,0.3578125 -0.7268,1.3082519 -0.25718,0.9504395 -0.25718,3.980664 z" /><path
               id="path411"
               style=""
               d="m 175.05762,-3.3880371 3.15323,-0.4808105 q 0.20127,0.9168945 0.81626,1.3977051 0.61499,0.4696289 1.72197,0.4696289 1.2188,0 1.83379,-0.4472657 0.41372,-0.3130859 0.41372,-0.838623 0,-0.3578125 -0.22363,-0.5926269 -0.23482,-0.2236328 -1.05108,-0.4137207 -3.80176,-0.8386231 -4.81929,-1.5318848 -1.40888,-0.961621 -1.40888,-2.672412 0,-1.5430663 1.2188,-2.5941403 1.21879,-1.051075 3.77939,-1.051075 2.4376,0 3.62285,0.793897 1.18526,0.793896 1.63252,2.3481444 l -2.96313,0.5479004 q -0.19009,-0.6932617 -0.72681,-1.0622558 -0.52554,-0.3689941 -1.50952,-0.3689941 -1.24116,0 -1.77788,0.3466308 -0.35781,0.2459961 -0.35781,0.6373535 0,0.3354492 0.31308,0.5702637 0.4249,0.3130859 2.92959,0.8833496 2.51587,0.5702636 3.51104,1.397705 0.98398,0.8386231 0.98398,2.3369629 0,1.6325195 -1.36416,2.80659172 -1.36416,1.17407225 -4.03657,1.17407225 -2.42642,0 -3.84649,-0.98398436 -1.40888,-0.98398431 -1.84497,-2.67241211 z" /><path
               id="path413"
               style=""
               d="m 193.99897,-11.874902 v 2.5046873 h -2.14688 v 4.7857421 q 0,1.4536133 0.0559,1.6996094 0.0671,0.2348144 0.27954,0.3913574 0.22363,0.1565429 0.53672,0.1565429 0.43608,0 1.26352,-0.3019042 l 0.26836,2.43759757 q -1.0958,0.4696289 -2.48232,0.4696289 -0.84981,0 -1.53189,-0.27954101 -0.68208,-0.29072265 -1.00634,-0.73798827 -0.31309,-0.45844729 -0.43609,-1.22998049 -0.10063,-0.5479003 -0.10063,-2.2139648 v -5.1770995 h -1.44243 v -2.5046873 h 1.44243 v -2.359326 l 3.15322,-1.833789 v 4.193115 z" /><path
               id="path415"
               style=""
               d="m 216.1285,-2.0797851 q 1.2188,0.8721679 2.65005,1.38652339 l -1.2188,2.33696281 q -0.74917,-0.2236328 -1.4648,-0.6149902 -0.15654,-0.0782715 -2.20278,-1.45361324 -1.61016,0.70444335 -3.56694,0.70444335 -3.7794,0 -5.92627,-2.22514641 -2.1357,-2.2251465 -2.1357,-6.250537 0,-4.0142086 2.14688,-6.2393556 2.14687,-2.236328 5.82563,-2.236328 3.64522,0 5.78091,2.236328 2.13569,2.225147 2.13569,6.2393556 0,2.1245116 -0.59262,3.7346679 -0.44727,1.2299804 -1.43125,2.3816894 z m -2.66123,-1.867334 q 0.63735,-0.7491699 0.95044,-1.8114257 0.32426,-1.0622559 0.32426,-2.4375976 0,-2.8401366 -1.25234,-4.2378416 -1.25234,-1.408887 -3.27622,-1.408887 -2.02388,0 -3.2874,1.408887 -1.25235,1.408887 -1.25235,4.2378416 0,2.8736816 1.25235,4.3049315 1.26352,1.4200684 3.18676,1.4200684 0.71563,0 1.35298,-0.2348145 -1.00634,-0.6597168 -2.04624,-1.0287109 l 0.92808,-1.8896972 q 1.63252,0.559082 3.11968,1.677246 z" /><path
               id="path417"
               style=""
               d="m 228.33787,0 v -1.7778808 q -0.64853,0.95043941 -1.71079,1.49833979 -1.05107,0.54790038 -2.22515,0.54790038 -1.19643,0 -2.14687,-0.5255371 -0.95044,-0.5255371 -1.37534,-1.47597657 -0.4249,-0.9504394 -0.4249,-2.6276855 v -7.5140622 h 3.14204 v 5.4566404 q 0,2.5046874 0.16772,3.0749511 0.17891,0.559082 0.63735,0.8945312 0.45845,0.3242676 1.1629,0.3242676 0.80507,0 1.44243,-0.436084 0.63735,-0.4472656 0.87216,-1.0958007 0.23482,-0.6597168 0.23482,-3.2091308 v -5.0093748 h 3.14204 V 0 Z" /><path
               id="path419"
               style=""
               d="m 235.96885,-8.2520506 -2.85132,-0.5143555 q 0.48081,-1.7219729 1.65489,-2.5494139 1.17407,-0.827442 3.48867,-0.827442 2.10215,0 3.13086,0.503174 1.02871,0.491992 1.44243,1.263526 0.4249,0.7603512 0.4249,2.8065914 l -0.0335,3.6675781 q 0,1.5654296 0.14536,2.3145996 Q 243.52764,-0.84980467 243.94136,0 h -3.1085 q -0.12299,-0.31308593 -0.3019,-0.92807616 -0.0783,-0.27954104 -0.11182,-0.36899414 -0.80507,0.78271484 -1.72197,1.17407226 -0.91689,0.39135741 -1.95679,0.39135741 -1.83379,0 -2.89604,-0.995166 -1.05108,-0.99516597 -1.05108,-2.51586907 0,-1.0063477 0.48082,-1.7890625 0.48081,-0.7938965 1.34179,-1.2076172 0.87217,-0.4249023 2.50469,-0.7379882 2.20278,-0.4137207 3.05259,-0.7715332 v -0.313086 q 0,-0.9057128 -0.44727,-1.2858886 -0.44726,-0.3913574 -1.68843,-0.3913574 -0.83862,0 -1.30825,0.3354492 -0.46963,0.3242676 -0.76035,1.151709 z m 4.2043,2.549414 q -0.60381,0.2012695 -1.91206,0.4808105 -1.30825,0.279541 -1.71079,0.5479004 -0.61499,0.436084 -0.61499,1.1069824 0,0.6597168 0.49199,1.1405273 0.49199,0.4808106 1.25234,0.4808106 0.84981,0 1.62134,-0.5590821 0.57026,-0.4249023 0.74917,-1.0398925 0.123,-0.4025391 0.123,-1.5318848 z" /><path
               id="path421"
               style=""
               d="m 249.13195,0 h -3.14204 v -11.874902 h 2.91841 v 1.688428 q 0.74917,-1.196436 1.3418,-1.576612 0.60381,-0.380176 1.36416,-0.380176 1.07344,0 2.0686,0.592627 l -0.9728,2.7395023 q -0.7939,-0.5143554 -1.47598,-0.5143554 -0.65971,0 -1.11816,0.3689941 -0.45845,0.3578125 -0.72681,1.3082519 -0.25718,0.9504395 -0.25718,3.980664 z" /><path
               id="path423"
               style=""
               d="m 260.63796,-11.874902 v 2.5046873 h -2.14688 v 4.7857421 q 0,1.4536133 0.0559,1.6996094 0.0671,0.2348144 0.27954,0.3913574 0.22363,0.1565429 0.53672,0.1565429 0.43608,0 1.26353,-0.3019042 l 0.26836,2.43759757 q -1.09581,0.4696289 -2.48233,0.4696289 -0.8498,0 -1.53188,-0.27954101 -0.68208,-0.29072265 -1.00635,-0.73798827 -0.31309,-0.45844729 -0.43609,-1.22998049 -0.10063,-0.5479003 -0.10063,-2.2139648 v -5.1770995 h -1.44243 v -2.5046873 h 1.44243 v -2.359326 l 3.15322,-1.833789 v 4.193115 z" /><path
               id="path425"
               style=""
               d="m 269.9468,-3.7793945 3.13086,0.5255371 q -0.60381,1.7219727 -1.91206,2.62768554 -1.29707,0.89453123 -3.25386,0.89453123 -3.09731,0 -4.58447,-2.02387687 -1.17407,-1.6213379 -1.17407,-4.0924804 0,-2.9519531 1.54306,-4.6180171 1.54307,-1.677247 3.9024,-1.677247 2.65005,0 4.18193,1.755518 1.53189,1.7443359 1.4648,5.3560058 h -7.87188 q 0.0335,1.3977051 0.76035,2.1804199 0.72681,0.7715332 1.81143,0.7715332 0.73799,0 1.24116,-0.4025391 0.50317,-0.402539 0.76035,-1.2970703 z m 0.17891,-3.1755859 q -0.0336,-1.3641601 -0.70445,-2.0686034 -0.67089,-0.715625 -1.63251,-0.715625 -1.02872,0 -1.69961,0.7491699 -0.6709,0.7491699 -0.65972,2.0350585 z" /><path
               id="path427"
               style=""
               d="m 278.46687,0 h -3.14204 v -11.874902 h 2.91841 v 1.688428 q 0.74917,-1.196436 1.34179,-1.576612 0.60381,-0.380176 1.36416,-0.380176 1.07344,0 2.06861,0.592627 l -0.97281,2.7395023 q -0.79389,-0.5143554 -1.47597,-0.5143554 -0.65972,0 -1.11817,0.3689941 -0.45844,0.3578125 -0.7268,1.3082519 -0.25718,0.9504395 -0.25718,3.980664 z" /><path
               id="path429"
               style=""
               d="m 290.37289,-6.1051757 q 0,-1.5654296 0.77153,-3.0302245 0.77153,-1.4647948 2.18042,-2.2363278 1.42007,-0.771534 3.16441,-0.771534 2.69477,0 4.41674,1.755518 1.72198,1.7443359 1.72198,4.416748 0,2.6947754 -1.74434,4.4726562 -1.73315,1.76669917 -4.37202,1.76669917 -1.63252,0 -3.11968,-0.73798827 -1.47598,-0.7379883 -2.24751,-2.1580566 -0.77153,-1.43125 -0.77153,-3.4774902 z m 3.22031,0.1677246 q 0,1.7666992 0.83862,2.705957 0.83863,0.9392578 2.06861,0.9392578 1.22998,0 2.05742,-0.9392578 0.83862,-0.9392578 0.83862,-2.7283203 0,-1.7443359 -0.83862,-2.6835937 -0.82744,-0.9392578 -2.05742,-0.9392578 -1.22998,0 -2.06861,0.9392578 -0.83862,0.9392578 -0.83862,2.705957 z" /><path
               id="path431"
               style=""
               d="m 303.41857,-11.874902 h 1.74433 v -0.894531 q 0,-1.49834 0.31309,-2.236328 0.32427,-0.737989 1.17407,-1.196436 0.86099,-0.469629 2.16924,-0.469629 1.3418,0 2.62768,0.402539 l -0.4249,2.191602 q -0.74917,-0.178907 -1.44243,-0.178907 -0.68208,0 -0.98398,0.324268 -0.29073,0.313086 -0.29073,1.218799 v 0.838623 h 2.34815 v 2.4711424 h -2.34815 V 0 h -3.14204 v -9.4037596 h -1.74433 z" /><path
               id="path433"
               style=""
               d="M 329.09269,-2.9184082 V 0 h -11.01391 q 0.1789,-1.6548828 1.07344,-3.1308593 0.89453,-1.4871582 3.53339,-3.9359375 2.12452,-1.9791503 2.60533,-2.6835937 0.64853,-0.9728025 0.64853,-1.9232425 0,-1.051074 -0.57026,-1.610156 -0.55908,-0.570264 -1.55425,-0.570264 -0.98398,0 -1.56543,0.592627 -0.58145,0.592627 -0.6709,1.967969 l -3.13086,-0.313086 q 0.27954,-2.59414 1.75552,-3.723486 1.47598,-1.129346 3.68994,-1.129346 2.42642,0 3.81294,1.308252 1.38652,1.308252 1.38652,3.253858 0,1.106982 -0.40254,2.1133296 -0.39135,0.995166 -1.25234,2.0909668 -0.57026,0.7268066 -2.05742,2.0909667 -1.48716,1.3641602 -1.8897,1.8114258 -0.39136,0.4472656 -0.63735,0.8721679 z" /><path
               id="path435"
               style=""
               d="m 336.18148,-16.459375 q 2.38169,0 3.72349,1.69961 1.59897,2.012695 1.59897,6.675439 0,4.6515624 -1.61015,6.6866209 -1.33062,1.67724611 -3.71231,1.67724611 -2.39287,0 -3.85766,-1.83378901 -1.4648,-1.8449707 -1.4648,-6.563623 0,-4.629199 1.61016,-6.664258 1.33061,-1.677246 3.7123,-1.677246 z m 0,2.605322 q -0.57026,0 -1.01753,0.368995 -0.44726,0.357812 -0.69326,1.29707 -0.32427,1.218799 -0.32427,4.103662 0,2.8848632 0.29073,3.9694823 0.29072,1.0734375 0.7268,1.43125 0.44727,0.3578125 1.01753,0.3578125 0.57027,0 1.01753,-0.3578125 0.44727,-0.3689941 0.69326,-1.3082519 0.32427,-1.2076172 0.32427,-4.0924804 0,-2.884863 -0.29072,-3.958301 -0.29072,-1.084619 -0.73799,-1.442431 -0.43608,-0.368995 -1.00635,-0.368995 z" /><path
               id="path437"
               style=""
               d="m 348.57037,-16.459375 q 2.38169,0 3.72348,1.69961 1.59898,2.012695 1.59898,6.675439 0,4.6515624 -1.61016,6.6866209 -1.33061,1.67724611 -3.7123,1.67724611 -2.39287,0 -3.85767,-1.83378901 -1.46479,-1.8449707 -1.46479,-6.563623 0,-4.629199 1.61015,-6.664258 1.33062,-1.677246 3.71231,-1.677246 z m 0,2.605322 q -0.57027,0 -1.01753,0.368995 -0.44727,0.357812 -0.69326,1.29707 -0.32427,1.218799 -0.32427,4.103662 0,2.8848632 0.29072,3.9694823 0.29072,1.0734375 0.72681,1.43125 0.44726,0.3578125 1.01753,0.3578125 0.57026,0 1.01753,-0.3578125 0.44726,-0.3689941 0.69326,-1.3082519 0.32427,-1.2076172 0.32427,-4.0924804 0,-2.884863 -0.29073,-3.958301 -0.29072,-1.084619 -0.73799,-1.442431 -0.43608,-0.368995 -1.00634,-0.368995 z" /><path
               id="path439"
               style=""
               d="M 366.25938,-2.9184082 V 0 h -11.01391 q 0.1789,-1.6548828 1.07343,-3.1308593 0.89453,-1.4871582 3.5334,-3.9359375 2.12451,-1.9791503 2.60532,-2.6835937 0.64854,-0.9728025 0.64854,-1.9232425 0,-1.051074 -0.57027,-1.610156 -0.55908,-0.570264 -1.55424,-0.570264 -0.98399,0 -1.56543,0.592627 -0.58145,0.592627 -0.6709,1.967969 l -3.13086,-0.313086 q 0.27954,-2.59414 1.75552,-3.723486 1.47597,-1.129346 3.68994,-1.129346 2.42641,0 3.81294,1.308252 1.38652,1.308252 1.38652,3.253858 0,1.106982 -0.40254,2.1133296 -0.39136,0.995166 -1.25234,2.0909668 -0.57027,0.7268066 -2.05742,2.0909667 -1.48716,1.3641602 -1.8897,1.8114258 -0.39136,0.4472656 -0.63735,0.8721679 z" /></g></g></g></g><g
       id="g226"><g
         clip-path="url(#clipPath232)"
         id="g228"><g
           id="g234"><g
             id="text238"
             style="font-variant:normal;font-weight:normal;font-size:15.69999981px;font-family:Arial;-inkscape-font-specification:ArialMT;writing-mode:lr-tb;fill:#000000;fill-opacity:1;fill-rule:nonzero;stroke:none"
             transform="matrix(1,0,0,-1,78.2,53.3)"
             aria-label="0"><path
               id="path442"
               style=""
               d="m 0.65161132,-5.5425292 q 0,-1.9931641 0.40629878,-3.2043945 0.4139649,-1.2188965 1.2188965,-1.8781743 0.8125977,-0.659277 2.0391601,-0.659277 0.9045899,0 1.5868653,0.367969 0.6822753,0.360303 1.1269042,1.050244 0.4446289,0.6822754 0.6976075,1.6711914 0.2529785,0.98125 0.2529785,2.6524414 0,1.977832 -0.4062989,3.1967284 -0.4062988,1.2112305 -1.2188964,1.87817385 -0.8049317,0.65927734 -2.0391602,0.65927734 -1.6251952,0 -2.5527831,-1.16523436 Q 0.65161132,-2.3764648 0.65161132,-5.5425292 Z m 1.41821288,0 q 0,2.7674316 0.6439453,3.6873534 0.6516113,0.91225589 1.6021972,0.91225589 0.950586,0 1.5945313,-0.91992189 0.6516113,-0.9199218 0.6516113,-3.6796874 0,-2.7750977 -0.6516113,-3.6873535 -0.6439453,-0.9122563 -1.6098633,-0.9122563 -0.9505859,0 -1.5178711,0.8049321 -0.7129394,1.0272461 -0.7129394,3.7946777 z" /></g></g><g
           id="g240"><g
             id="text244"
             style="font-variant:normal;font-weight:normal;font-size:15.69999981px;font-family:Arial;-inkscape-font-specification:ArialMT;writing-mode:lr-tb;fill:#000000;fill-opacity:1;fill-rule:nonzero;stroke:none"
             transform="matrix(1,0,0,-1,69.7,76.8)"
             aria-label="10"><path
               id="path445"
               style=""
               d="M 5.8491699,0 H 4.4692871 V -8.7929198 Q 3.970996,-8.3176269 3.1583984,-7.8423339 2.3534668,-7.3670409 1.7095215,-7.1293944 V -8.4632811 Q 2.8670898,-9.0075682 3.7333496,-9.7818358 4.5996093,-10.556103 4.959912,-11.284375 h 0.8892579 z" /><path
               id="path447"
               style=""
               d="m 9.1453113,-5.5425292 q 0,-1.9931641 0.4062989,-3.2043945 0.4139648,-1.2188965 1.2188968,-1.8781743 0.812597,-0.659277 2.03916,-0.659277 0.90459,0 1.586865,0.367969 0.682275,0.360303 1.126904,1.050244 0.444629,0.6822754 0.697608,1.6711914 0.252978,0.98125 0.252978,2.6524414 0,1.977832 -0.406299,3.1967284 -0.406298,1.2112305 -1.218896,1.87817385 -0.804932,0.65927734 -2.03916,0.65927734 -1.625196,0 -2.552783,-1.16523436 Q 9.1453113,-2.3764648 9.1453113,-5.5425292 Z m 1.4182127,0 q 0,2.7674316 0.643946,3.6873534 0.651611,0.91225589 1.602197,0.91225589 0.950586,0 1.594531,-0.91992189 0.651611,-0.9199218 0.651611,-3.6796874 0,-2.7750977 -0.651611,-3.6873535 -0.643945,-0.9122563 -1.609863,-0.9122563 -0.950586,0 -1.517871,0.8049321 -0.71294,1.0272461 -0.71294,3.7946777 z" /></g></g><g
           id="g246"><g
             id="text250"
             style="font-variant:normal;font-weight:normal;font-size:15.69999981px;font-family:Arial;-inkscape-font-specification:ArialMT;writing-mode:lr-tb;fill:#000000;fill-opacity:1;fill-rule:nonzero;stroke:none"
             transform="matrix(1,0,0,-1,69.7,100.4)"
             aria-label="20"><path
               id="path450"
               style=""
               d="M 7.903662,-1.3262207 V 0 H 0.47529296 Q 0.45996093,-0.49829101 0.63627929,-0.95825194 0.91992186,-1.7171875 1.5408691,-2.453125 q 0.6286133,-0.7359375 1.8091797,-1.7018554 1.8321777,-1.5025391 2.476123,-2.3764648 0.6439453,-0.8815918 0.6439453,-1.6635254 0,-0.8202637 -0.5902832,-1.3798828 -0.5826172,-0.5672856 -1.5255371,-0.5672856 -0.996582,0 -1.5945312,0.5979497 Q 2.1618164,-8.9462401 2.1541504,-7.88833 L 0.73593749,-8.0339843 q 0.1456543,-1.5868652 1.09624021,-2.4147947 0.9505859,-0.835596 2.5527832,-0.835596 1.6175293,0 2.5604492,0.896924 0.9429199,0.8969238 0.9429199,2.2231445 0,0.6746093 -0.2759766,1.3262206 -0.2759765,0.6516114 -0.9199218,1.3722168 -0.6362793,0.7206055 -2.1234863,1.977832 -1.2418946,1.0425781 -1.5945313,1.4182129 -0.3526367,0.3679688 -0.5826172,0.7436035 z" /><path
               id="path452"
               style=""
               d="m 9.1453113,-5.5425292 q 0,-1.9931641 0.4062989,-3.2043945 0.4139648,-1.2188965 1.2188968,-1.8781743 0.812597,-0.659277 2.03916,-0.659277 0.90459,0 1.586865,0.367969 0.682275,0.360303 1.126904,1.050244 0.444629,0.6822754 0.697608,1.6711914 0.252978,0.98125 0.252978,2.6524414 0,1.977832 -0.406299,3.1967284 -0.406298,1.2112305 -1.218896,1.87817385 -0.804932,0.65927734 -2.03916,0.65927734 -1.625196,0 -2.552783,-1.16523436 Q 9.1453113,-2.3764648 9.1453113,-5.5425292 Z m 1.4182127,0 q 0,2.7674316 0.643946,3.6873534 0.651611,0.91225589 1.602197,0.91225589 0.950586,0 1.594531,-0.91992189 0.651611,-0.9199218 0.651611,-3.6796874 0,-2.7750977 -0.651611,-3.6873535 -0.643945,-0.9122563 -1.609863,-0.9122563 -0.950586,0 -1.517871,0.8049321 -0.71294,1.0272461 -0.71294,3.7946777 z" /></g></g><g
           id="g252"><g
             id="text256"
             style="font-variant:normal;font-weight:normal;font-size:15.69999981px;font-family:Arial;-inkscape-font-specification:ArialMT;writing-mode:lr-tb;fill:#000000;fill-opacity:1;fill-rule:nonzero;stroke:none"
             transform="matrix(1,0,0,-1,69.7,124.6)"
             aria-label="30"><path
               id="path455"
               style=""
               d="M 0.65927734,-2.966748 2.0391601,-3.1507324 q 0.2376465,1.1729004 0.8049317,1.6941894 0.5749511,0.51362309 1.3952148,0.51362309 0.973584,0 1.6405273,-0.67460939 0.6746094,-0.6746093 0.6746094,-1.6711914 0,-0.9505859 -0.6209473,-1.5638671 -0.6209472,-0.6209473 -1.5791992,-0.6209473 -0.3909668,0 -0.973584,0.1533203 l 0.1533204,-1.2112304 q 0.1379882,0.015332 0.2223144,0.015332 0.8815918,0 1.5868652,-0.4599609 0.7052735,-0.459961 0.7052735,-1.4182129 0,-0.7589355 -0.5136231,-1.2572266 -0.513623,-0.4982914 -1.3262207,-0.4982914 -0.8049316,0 -1.3415527,0.5059575 -0.5366211,0.505957 -0.6899414,1.517871 L 0.79726562,-8.371289 q 0.25297848,-1.3875488 1.14990228,-2.146484 0.8969239,-0.766602 2.2308106,-0.766602 0.9199218,0 1.6941894,0.398633 0.7742676,0.390967 1.1805664,1.0732421 0.4139648,0.6822754 0.4139648,1.448877 0,0.7282714 -0.3909668,1.3262206 -0.3909668,0.5979493 -1.1575683,0.950586 0.996582,0.2299804 1.5485351,0.9582519 0.5519531,0.7206055 0.5519531,1.8091797 0,1.471875 -1.0732421,2.49912104 -1.0732422,1.01958006 -2.7137695,1.01958006 -1.479541,0 -2.460791,-0.88159178 Q 0.79726562,-1.5638672 0.65927734,-2.966748 Z" /><path
               id="path457"
               style=""
               d="m 9.1453113,-5.5425292 q 0,-1.9931641 0.4062989,-3.2043945 0.4139648,-1.2188965 1.2188968,-1.8781743 0.812597,-0.659277 2.03916,-0.659277 0.90459,0 1.586865,0.367969 0.682275,0.360303 1.126904,1.050244 0.444629,0.6822754 0.697608,1.6711914 0.252978,0.98125 0.252978,2.6524414 0,1.977832 -0.406299,3.1967284 -0.406298,1.2112305 -1.218896,1.87817385 -0.804932,0.65927734 -2.03916,0.65927734 -1.625196,0 -2.552783,-1.16523436 Q 9.1453113,-2.3764648 9.1453113,-5.5425292 Z m 1.4182127,0 q 0,2.7674316 0.643946,3.6873534 0.651611,0.91225589 1.602197,0.91225589 0.950586,0 1.594531,-0.91992189 0.651611,-0.9199218 0.651611,-3.6796874 0,-2.7750977 -0.651611,-3.6873535 -0.643945,-0.9122563 -1.609863,-0.9122563 -0.950586,0 -1.517871,0.8049321 -0.71294,1.0272461 -0.71294,3.7946777 z" /></g></g><g
           id="g258"><g
             id="text262"
             style="font-variant:normal;font-weight:normal;font-size:15.69999981px;font-family:Arial;-inkscape-font-specification:ArialMT;writing-mode:lr-tb;fill:#000000;fill-opacity:1;fill-rule:nonzero;stroke:none"
             transform="matrix(1,0,0,-1,69.7,148.1)"
             aria-label="40"><path
               id="path460"
               style=""
               d="M 5.0749023,0 V -2.6907715 H 0.1993164 V -3.955664 l 5.1285644,-7.282715 h 1.1269043 v 7.282715 h 1.5178711 v 1.2648925 H 6.4547851 V 0 Z m 0,-3.955664 V -9.0229003 L 1.5562012,-3.955664 Z" /><path
               id="path462"
               style=""
               d="m 9.1453113,-5.5425292 q 0,-1.9931641 0.4062989,-3.2043945 0.4139648,-1.2188965 1.2188968,-1.8781743 0.812597,-0.659277 2.03916,-0.659277 0.90459,0 1.586865,0.367969 0.682275,0.360303 1.126904,1.050244 0.444629,0.6822754 0.697608,1.6711914 0.252978,0.98125 0.252978,2.6524414 0,1.977832 -0.406299,3.1967284 -0.406298,1.2112305 -1.218896,1.87817385 -0.804932,0.65927734 -2.03916,0.65927734 -1.625196,0 -2.552783,-1.16523436 Q 9.1453113,-2.3764648 9.1453113,-5.5425292 Z m 1.4182127,0 q 0,2.7674316 0.643946,3.6873534 0.651611,0.91225589 1.602197,0.91225589 0.950586,0 1.594531,-0.91992189 0.651611,-0.9199218 0.651611,-3.6796874 0,-2.7750977 -0.651611,-3.6873535 -0.643945,-0.9122563 -1.609863,-0.9122563 -0.950586,0 -1.517871,0.8049321 -0.71294,1.0272461 -0.71294,3.7946777 z" /></g></g><g
           id="g264"><g
             id="text268"
             style="font-variant:normal;font-weight:normal;font-size:15.69999981px;font-family:Arial;-inkscape-font-specification:ArialMT;writing-mode:lr-tb;fill:#000000;fill-opacity:1;fill-rule:nonzero;stroke:none"
             transform="matrix(1,0,0,-1,69.7,171.6)"
             aria-label="50"><path
               id="path465"
               style=""
               d="M 0.65161132,-2.94375 2.1004883,-3.0664062 q 0.1609863,1.0579101 0.7436035,1.5945312 0.5902832,0.52895509 1.4182128,0.52895509 0.9965821,0 1.6865235,-0.75126949 0.6899414,-0.7512696 0.6899414,-1.9931641 0,-1.1805664 -0.6669434,-1.8628417 -0.6592773,-0.6822754 -1.7325195,-0.6822754 -0.6669434,0 -1.2035644,0.3066406 -0.5366211,0.2989746 -0.8432618,0.7819336 L 0.89692382,-5.3125488 1.985498,-11.085058 h 5.5885253 v 1.3185542 H 3.0894043 L 2.483789,-6.7460937 q 1.0119141,-0.7052734 2.1234863,-0.7052734 1.471875,0 2.4837891,1.0195801 1.011914,1.01958 1.011914,2.6217773 0,1.5255371 -0.8892578,2.6371093 -1.0809082,1.36455079 -2.951416,1.36455079 -1.5332031,0 -2.506787,-0.85859374 Q 0.7895996,-1.5255371 0.65161132,-2.94375 Z" /><path
               id="path467"
               style=""
               d="m 9.1453113,-5.5425292 q 0,-1.9931641 0.4062989,-3.2043945 0.4139648,-1.2188965 1.2188968,-1.8781743 0.812597,-0.659277 2.03916,-0.659277 0.90459,0 1.586865,0.367969 0.682275,0.360303 1.126904,1.050244 0.444629,0.6822754 0.697608,1.6711914 0.252978,0.98125 0.252978,2.6524414 0,1.977832 -0.406299,3.1967284 -0.406298,1.2112305 -1.218896,1.87817385 -0.804932,0.65927734 -2.03916,0.65927734 -1.625196,0 -2.552783,-1.16523436 Q 9.1453113,-2.3764648 9.1453113,-5.5425292 Z m 1.4182127,0 q 0,2.7674316 0.643946,3.6873534 0.651611,0.91225589 1.602197,0.91225589 0.950586,0 1.594531,-0.91992189 0.651611,-0.9199218 0.651611,-3.6796874 0,-2.7750977 -0.651611,-3.6873535 -0.643945,-0.9122563 -1.609863,-0.9122563 -0.950586,0 -1.517871,0.8049321 -0.71294,1.0272461 -0.71294,3.7946777 z" /></g></g><g
           id="g270"><g
             id="text274"
             style="font-variant:normal;font-weight:normal;font-size:15.69999981px;font-family:Arial;-inkscape-font-specification:ArialMT;writing-mode:lr-tb;fill:#000000;fill-opacity:1;fill-rule:nonzero;stroke:none"
             transform="matrix(1,0,0,-1,69.7,195.1)"
             aria-label="60"><path
               id="path470"
               style=""
               d="M 7.8116698,-8.4862792 6.439453,-8.378955 Q 6.2554687,-9.1915526 5.918164,-9.5595214 5.3585449,-10.149805 4.5382812,-10.149805 q -0.6592773,0 -1.1575684,0.3679692 Q 2.7291015,-9.3065429 2.3534668,-8.394287 1.977832,-7.4820312 1.9625,-5.7955077 2.460791,-6.5544433 3.1813964,-6.922412 q 0.7206055,-0.3679688 1.5102051,-0.3679688 1.3798828,0 2.3458008,1.0195801 0.9735839,1.011914 0.9735839,2.6217773 0,1.0579102 -0.4599609,1.970166 -0.4522949,0.90458983 -1.2495605,1.38754881 -0.7972656,0.48295898 -1.8091797,0.48295898 -1.7248535,0 -2.8134277,-1.26489259 -1.0885742,-1.2725586 -1.0885742,-4.1856445 0,-3.2580566 1.2035644,-4.7375976 1.0502442,-1.2878907 2.8287598,-1.2878907 1.3262207,0 2.1694824,0.743604 0.8509277,0.7436032 1.01958,2.0544918 z m -5.6345214,4.8449218 q 0,0.7129395 0.2989746,1.3645508 0.3066406,0.6516113 0.8509277,0.996582 0.5442871,0.33730469 1.1422364,0.33730469 0.8739257,0 1.502539,-0.70527339 0.6286133,-0.7052735 0.6286133,-1.9165039 0,-1.1652344 -0.6209473,-1.8321777 -0.6209472,-0.6746094 -1.5638672,-0.6746094 -0.9352538,0 -1.5868652,0.6746094 -0.6516113,0.6669433 -0.6516113,1.7555175 z" /><path
               id="path472"
               style=""
               d="m 9.1453113,-5.5425292 q 0,-1.9931641 0.4062989,-3.2043945 0.4139648,-1.2188965 1.2188968,-1.8781743 0.812597,-0.659277 2.03916,-0.659277 0.90459,0 1.586865,0.367969 0.682275,0.360303 1.126904,1.050244 0.444629,0.6822754 0.697608,1.6711914 0.252978,0.98125 0.252978,2.6524414 0,1.977832 -0.406299,3.1967284 -0.406298,1.2112305 -1.218896,1.87817385 -0.804932,0.65927734 -2.03916,0.65927734 -1.625196,0 -2.552783,-1.16523436 Q 9.1453113,-2.3764648 9.1453113,-5.5425292 Z m 1.4182127,0 q 0,2.7674316 0.643946,3.6873534 0.651611,0.91225589 1.602197,0.91225589 0.950586,0 1.594531,-0.91992189 0.651611,-0.9199218 0.651611,-3.6796874 0,-2.7750977 -0.651611,-3.6873535 -0.643945,-0.9122563 -1.609863,-0.9122563 -0.950586,0 -1.517871,0.8049321 -0.71294,1.0272461 -0.71294,3.7946777 z" /></g></g><g
           id="g276"><g
             id="text280"
             style="font-variant:normal;font-weight:normal;font-size:15.69999981px;font-family:Arial;-inkscape-font-specification:ArialMT;writing-mode:lr-tb;fill:#000000;fill-opacity:1;fill-rule:nonzero;stroke:none"
             transform="matrix(1,0,0,-1,69.7,218.7)"
             aria-label="70"><path
               id="path475"
               style=""
               d="M 0.74360351,-9.7665038 V -11.092724 H 8.0186522 v 1.073242 Q 6.9454101,-8.877246 5.8874999,-6.9837401 4.8372558,-5.0902343 4.2623046,-3.0894043 3.8483398,-1.6788574 3.7333496,0 H 2.3151367 q 0.022998,-1.3262207 0.521289,-3.2043945 0.4982911,-1.8781738 1.4258789,-3.6183593 0.9352539,-1.7478516 1.9854981,-2.94375 z" /><path
               id="path477"
               style=""
               d="m 9.1453113,-5.5425292 q 0,-1.9931641 0.4062989,-3.2043945 0.4139648,-1.2188965 1.2188968,-1.8781743 0.812597,-0.659277 2.03916,-0.659277 0.90459,0 1.586865,0.367969 0.682275,0.360303 1.126904,1.050244 0.444629,0.6822754 0.697608,1.6711914 0.252978,0.98125 0.252978,2.6524414 0,1.977832 -0.406299,3.1967284 -0.406298,1.2112305 -1.218896,1.87817385 -0.804932,0.65927734 -2.03916,0.65927734 -1.625196,0 -2.552783,-1.16523436 Q 9.1453113,-2.3764648 9.1453113,-5.5425292 Z m 1.4182127,0 q 0,2.7674316 0.643946,3.6873534 0.651611,0.91225589 1.602197,0.91225589 0.950586,0 1.594531,-0.91992189 0.651611,-0.9199218 0.651611,-3.6796874 0,-2.7750977 -0.651611,-3.6873535 -0.643945,-0.9122563 -1.609863,-0.9122563 -0.950586,0 -1.517871,0.8049321 -0.71294,1.0272461 -0.71294,3.7946777 z" /></g></g><g
           id="g282"><g
             id="text286"
             style="font-variant:normal;font-weight:normal;font-size:15.69999981px;font-family:Arial;-inkscape-font-specification:ArialMT;writing-mode:lr-tb;fill:#000000;fill-opacity:1;fill-rule:nonzero;stroke:none"
             transform="matrix(1,0,0,-1,69.7,242.9)"
             aria-label="80"><path
               id="path480"
               style=""
               d="M 2.7750976,-6.0944823 Q 1.9165039,-6.408789 1.502539,-6.9914062 1.0885742,-7.5740233 1.0885742,-8.386621 q 0,-1.2265625 0.8815918,-2.062158 0.8815918,-0.835596 2.3458007,-0.835596 1.471875,0 2.3687988,0.858594 0.8969239,0.8509276 0.8969239,2.0774901 0,0.7819336 -0.4139649,1.3645508 -0.4062988,0.5749511 -1.2418945,0.8892578 1.0349121,0.3373046 1.5715332,1.0885742 0.5442871,0.7512695 0.5442871,1.7938476 0,1.4412109 -1.0195801,2.4224609 -1.01958,0.98124999 -2.6831054,0.98124999 -1.6635254,0 -2.6831054,-0.98124999 -1.01958011,-0.988916 -1.01958011,-2.460791 0,-1.0962402 0.55195311,-1.8321777 0.5596191,-0.7436035 1.5868652,-1.011914 z M 2.4991211,-8.4326171 q 0,0.7972656 0.513623,1.3032227 0.513623,0.505957 1.3338867,0.505957 0.7972656,0 1.3032226,-0.498291 0.5136231,-0.5059571 0.5136231,-1.2342285 0,-0.7589356 -0.5289551,-1.2725586 -0.521289,-0.5212895 -1.3032226,-0.5212895 -0.7895996,0 -1.3108887,0.5059575 -0.521289,0.505957 -0.521289,1.2112304 z m -0.4446289,5.1898925 q 0,0.5902832 0.2759765,1.1422363 0.2836426,0.5519532 0.8355957,0.8585938 0.5519531,0.29897459 1.1882324,0.29897459 0.988916,0 1.6328613,-0.63627929 0.6439453,-0.6362793 0.6439453,-1.6175293 0,-0.996582 -0.6669433,-1.6481933 -0.6592774,-0.6516113 -1.6558594,-0.6516113 -0.9735839,0 -1.6175292,0.6439453 -0.6362793,0.6439453 -0.6362793,1.6098632 z" /><path
               id="path482"
               style=""
               d="m 9.1453113,-5.5425292 q 0,-1.9931641 0.4062989,-3.2043945 0.4139648,-1.2188965 1.2188968,-1.8781743 0.812597,-0.659277 2.03916,-0.659277 0.90459,0 1.586865,0.367969 0.682275,0.360303 1.126904,1.050244 0.444629,0.6822754 0.697608,1.6711914 0.252978,0.98125 0.252978,2.6524414 0,1.977832 -0.406299,3.1967284 -0.406298,1.2112305 -1.218896,1.87817385 -0.804932,0.65927734 -2.03916,0.65927734 -1.625196,0 -2.552783,-1.16523436 Q 9.1453113,-2.3764648 9.1453113,-5.5425292 Z m 1.4182127,0 q 0,2.7674316 0.643946,3.6873534 0.651611,0.91225589 1.602197,0.91225589 0.950586,0 1.594531,-0.91992189 0.651611,-0.9199218 0.651611,-3.6796874 0,-2.7750977 -0.651611,-3.6873535 -0.643945,-0.9122563 -1.609863,-0.9122563 -0.950586,0 -1.517871,0.8049321 -0.71294,1.0272461 -0.71294,3.7946777 z" /></g></g><g
           id="g288"><g
             id="text292"
             style="font-variant:normal;font-weight:normal;font-size:15.69999981px;font-family:Arial;-inkscape-font-specification:ArialMT;writing-mode:lr-tb;fill:#000000;fill-opacity:1;fill-rule:nonzero;stroke:none"
             transform="matrix(1,0,0,-1,69.7,266.4)"
             aria-label="90"><path
               id="path485"
               style=""
               d="M 0.85859374,-2.5987793 2.1848144,-2.7214355 q 0.1686524,0.9352539 0.6439453,1.3568847 0.475293,0.42163089 1.2188965,0.42163089 0.6362793,0 1.1115723,-0.29130859 0.4829589,-0.2913086 0.7895996,-0.7742676 0.3066406,-0.490625 0.513623,-1.3185546 0.2069824,-0.8279297 0.2069824,-1.6865235 0,-0.091992 -0.00767,-0.2759765 -0.4139648,0.6592773 -1.1345703,1.0732422 -0.7129394,0.4062988 -1.5485351,0.4062988 -1.3952149,0 -2.3611328,-1.0119141 -0.96591798,-1.011914 -0.96591798,-2.6677734 0,-1.7095214 1.00424808,-2.7520998 1.011914,-1.042578 2.5297851,-1.042578 1.0962402,0 2.00083,0.590283 0.9122559,0.590284 1.3798828,1.6865238 0.475293,1.0885742 0.475293,3.1583983 0,2.1541504 -0.467627,3.434375 -0.4676269,1.2725586 -1.3952148,1.93950194 -0.9199218,0.66694335 -2.1618164,0.66694335 -1.3185546,0 -2.1541503,-0.72827148 Q 1.0272461,-1.2725586 0.85859374,-2.5987793 Z m 5.64985346,-4.959912 q 0,-1.1882324 -0.6362793,-1.8858398 -0.6286133,-0.6976079 -1.5178711,-0.6976079 -0.9199218,0 -1.6021972,0.75127 -0.6822754,0.7512695 -0.6822754,1.9471679 0,1.0732422 0.6439453,1.7478516 0.6516113,0.6669433 1.6021972,0.6669433 0.958252,0 1.5715332,-0.6669433 0.6209473,-0.6746094 0.6209473,-1.8628418 z" /><path
               id="path487"
               style=""
               d="m 9.1453113,-5.5425292 q 0,-1.9931641 0.4062989,-3.2043945 0.4139648,-1.2188965 1.2188968,-1.8781743 0.812597,-0.659277 2.03916,-0.659277 0.90459,0 1.586865,0.367969 0.682275,0.360303 1.126904,1.050244 0.444629,0.6822754 0.697608,1.6711914 0.252978,0.98125 0.252978,2.6524414 0,1.977832 -0.406299,3.1967284 -0.406298,1.2112305 -1.218896,1.87817385 -0.804932,0.65927734 -2.03916,0.65927734 -1.625196,0 -2.552783,-1.16523436 Q 9.1453113,-2.3764648 9.1453113,-5.5425292 Z m 1.4182127,0 q 0,2.7674316 0.643946,3.6873534 0.651611,0.91225589 1.602197,0.91225589 0.950586,0 1.594531,-0.91992189 0.651611,-0.9199218 0.651611,-3.6796874 0,-2.7750977 -0.651611,-3.6873535 -0.643945,-0.9122563 -1.609863,-0.9122563 -0.950586,0 -1.517871,0.8049321 -0.71294,1.0272461 -0.71294,3.7946777 z" /></g></g><g
           id="g294"><g
             id="text298"
             style="font-variant:normal;font-weight:normal;font-size:15.69999981px;font-family:Arial;-inkscape-font-specification:ArialMT;writing-mode:lr-tb;fill:#000000;fill-opacity:1;fill-rule:nonzero;stroke:none"
             transform="matrix(1,0,0,-1,61.2,289.9)"
             aria-label="100"><path
               id="path490"
               style=""
               d="M 5.8491699,0 H 4.4692871 V -8.7929198 Q 3.970996,-8.3176269 3.1583984,-7.8423339 2.3534668,-7.3670409 1.7095215,-7.1293944 V -8.4632811 Q 2.8670898,-9.0075682 3.7333496,-9.7818358 4.5996093,-10.556103 4.959912,-11.284375 h 0.8892579 z" /><path
               id="path492"
               style=""
               d="m 9.1453113,-5.5425292 q 0,-1.9931641 0.4062989,-3.2043945 0.4139648,-1.2188965 1.2188968,-1.8781743 0.812597,-0.659277 2.03916,-0.659277 0.90459,0 1.586865,0.367969 0.682275,0.360303 1.126904,1.050244 0.444629,0.6822754 0.697608,1.6711914 0.252978,0.98125 0.252978,2.6524414 0,1.977832 -0.406299,3.1967284 -0.406298,1.2112305 -1.218896,1.87817385 -0.804932,0.65927734 -2.03916,0.65927734 -1.625196,0 -2.552783,-1.16523436 Q 9.1453113,-2.3764648 9.1453113,-5.5425292 Z m 1.4182127,0 q 0,2.7674316 0.643946,3.6873534 0.651611,0.91225589 1.602197,0.91225589 0.950586,0 1.594531,-0.91992189 0.651611,-0.9199218 0.651611,-3.6796874 0,-2.7750977 -0.651611,-3.6873535 -0.643945,-0.9122563 -1.609863,-0.9122563 -0.950586,0 -1.517871,0.8049321 -0.71294,1.0272461 -0.71294,3.7946777 z" /><path
               id="path494"
               style=""
               d="m 17.639011,-5.5425292 q 0,-1.9931641 0.406299,-3.2043945 0.413965,-1.2188965 1.218897,-1.8781743 0.812597,-0.659277 2.03916,-0.659277 0.90459,0 1.586865,0.367969 0.682275,0.360303 1.126904,1.050244 0.444629,0.6822754 0.697608,1.6711914 0.252978,0.98125 0.252978,2.6524414 0,1.977832 -0.406299,3.1967284 -0.406298,1.2112305 -1.218896,1.87817385 -0.804932,0.65927734 -2.03916,0.65927734 -1.625195,0 -2.552783,-1.16523436 -1.111573,-1.40288083 -1.111573,-4.56894523 z m 1.418213,0 q 0,2.7674316 0.643946,3.6873534 0.651611,0.91225589 1.602197,0.91225589 0.950586,0 1.594531,-0.91992189 0.651611,-0.9199218 0.651611,-3.6796874 0,-2.7750977 -0.651611,-3.6873535 -0.643945,-0.9122563 -1.609863,-0.9122563 -0.950586,0 -1.517871,0.8049321 -0.71294,1.0272461 -0.71294,3.7946777 z" /></g></g><g
           id="g300"><g
             id="text304"
             style="font-variant:normal;font-weight:normal;font-size:15.69999981px;font-family:Arial;-inkscape-font-specification:ArialMT;writing-mode:lr-tb;fill:#000000;fill-opacity:1;fill-rule:nonzero;stroke:none"
             transform="matrix(1,0,0,-1,135.1,29.1)"
             aria-label="January"><path
               id="path497"
               style=""
               d="M 0.45229492,-3.1890625 1.7938476,-3.3730468 q 0.053662,1.2878906 0.482959,1.7631835 0.4292969,0.475293 1.1882324,0.475293 0.5596192,0 0.965918,-0.2529785 0.4062988,-0.2606445 0.5596191,-0.6976074 0.1533203,-0.4446289 0.1533203,-1.4105469 v -7.7426759 h 1.487207 v 7.6583497 q 0,1.4105469 -0.3449707,2.1848145 -0.3373046,0.77426754 -1.0809082,1.18056637 -0.7359374,0.40629882 -1.7325195,0.40629882 -1.479541,0 -2.2691406,-0.85092773 Q 0.42163085,-1.5102051 0.45229492,-3.1890625 Z" /><path
               id="path499"
               style=""
               d="m 14.150361,-1.004248 q -0.766602,0.65161129 -1.479541,0.91992183 -0.705274,0.26831054 -1.517871,0.26831054 -1.3415531,0 -2.0621586,-0.65161132 Q 8.370185,-1.1269043 8.370185,-2.1464843 q 0,-0.5979493 0.2683105,-1.0885743 0.2759766,-0.498291 0.7129395,-0.7972656 0.4446289,-0.2989746 0.996582,-0.4522949 0.406299,-0.1073242 1.226562,-0.2069824 1.671192,-0.1993164 2.460791,-0.475293 0.0077,-0.2836425 0.0077,-0.3603027 0,-0.8432617 -0.390966,-1.1882324 -0.528955,-0.467627 -1.571533,-0.467627 -0.973584,0 -1.441211,0.3449707 -0.459961,0.3373047 -0.6822758,1.2035645 L 8.6078315,-5.8185058 q 0.1839843,-0.8662597 0.6056152,-1.3952148 0.4216308,-0.5366211 1.2188963,-0.8202637 0.797266,-0.2913086 1.84751,-0.2913086 1.042578,0 1.694189,0.2453125 0.651612,0.2453125 0.958252,0.6209473 0.306641,0.3679687 0.429297,0.9352539 0.06899,0.3526367 0.06899,1.2725586 v 1.8398437 q 0,1.9241699 0.08433,2.43779293 Q 15.606904,-0.46762695 15.867548,0 H 14.426337 Q 14.211689,-0.42929687 14.150361,-1.004248 Z M 14.03537,-4.0859863 q -0.751269,0.3066406 -2.253808,0.5212891 -0.850928,0.1226562 -1.203565,0.2759765 -0.352636,0.1533203 -0.544287,0.452295 -0.19165,0.2913085 -0.19165,0.6516113 0,0.5519531 0.413965,0.9199218 0.421631,0.36796878 1.226562,0.36796878 0.797266,0 1.418213,-0.34497068 0.620947,-0.3526367 0.912256,-0.958252 0.222314,-0.4676269 0.222314,-1.3798828 z" /><path
               id="path501"
               style=""
               d="m 17.441412,0 v -8.1413085 h 1.241894 v 1.1575684 q 0.896924,-1.3415528 2.591114,-1.3415528 0.735937,0 1.349218,0.2683106 0.620948,0.2606445 0.927588,0.6899414 0.306641,0.4292968 0.429297,1.01958 0.07666,0.3833008 0.07666,1.3415528 V 0 h -1.379882 v -4.952246 q 0,-0.8432617 -0.160987,-1.2572266 -0.160986,-0.4216308 -0.574951,-0.6669433 -0.406299,-0.2529785 -0.958252,-0.2529785 -0.881592,0 -1.525537,0.5596191 -0.636279,0.5596191 -0.636279,2.1234863 V 0 Z" /><path
               id="path503"
               style=""
               d="m 31.867258,0 v -1.1958984 q -0.950586,1.37988277 -2.583447,1.37988277 -0.720605,0 -1.349219,-0.27597656 -0.620947,-0.27597656 -0.927587,-0.68994139 -0.298975,-0.42163082 -0.421631,-1.02724612 -0.08433,-0.4062988 -0.08433,-1.2878906 v -5.0442382 h 1.379882 v 4.5152832 q 0,1.0809081 0.08433,1.4565429 0.130323,0.5442871 0.551954,0.8585937 0.42163,0.3066407 1.042578,0.3066407 0.620947,0 1.165234,-0.3143067 0.544287,-0.3219726 0.766602,-0.8662597 0.22998,-0.5519531 0.22998,-1.5945313 v -4.3619628 h 1.379883 V 0 Z" /><path
               id="path505"
               style=""
               d="m 40.934562,-1.004248 q -0.766602,0.65161129 -1.479541,0.91992183 -0.705274,0.26831054 -1.517871,0.26831054 -1.341553,0 -2.062158,-0.65161132 -0.720606,-0.65927735 -0.720606,-1.67885735 0,-0.5979493 0.268311,-1.0885743 0.275976,-0.498291 0.712939,-0.7972656 0.444629,-0.2989746 0.996582,-0.4522949 0.406299,-0.1073242 1.226563,-0.2069824 1.671191,-0.1993164 2.460791,-0.475293 0.0077,-0.2836425 0.0077,-0.3603027 0,-0.8432617 -0.390967,-1.1882324 -0.528955,-0.467627 -1.571533,-0.467627 -0.973584,0 -1.441211,0.3449707 -0.459961,0.3373047 -0.682276,1.2035645 l -1.349218,-0.1839844 q 0.183984,-0.8662597 0.605615,-1.3952148 0.421631,-0.5366211 1.218896,-0.8202637 0.797266,-0.2913086 1.84751,-0.2913086 1.042578,0 1.694189,0.2453125 0.651612,0.2453125 0.958252,0.6209473 0.306641,0.3679687 0.429297,0.9352539 0.06899,0.3526367 0.06899,1.2725586 v 1.8398437 q 0,1.9241699 0.08433,2.43779293 Q 42.391105,-0.46762695 42.651749,0 H 41.210538 Q 40.99589,-0.42929687 40.934562,-1.004248 Z m -0.11499,-3.0817383 q -0.75127,0.3066406 -2.253809,0.5212891 -0.850928,0.1226562 -1.203564,0.2759765 -0.352637,0.1533203 -0.544287,0.452295 -0.191651,0.2913085 -0.191651,0.6516113 0,0.5519531 0.413965,0.9199218 0.421631,0.36796878 1.226562,0.36796878 0.797266,0 1.418213,-0.34497068 0.620948,-0.3526367 0.912256,-0.958252 0.222315,-0.4676269 0.222315,-1.3798828 z" /><path
               id="path507"
               style=""
               d="m 44.100379,0 v -8.1413085 h 1.241895 V -6.90708 q 0.475293,-0.8662597 0.873925,-1.1422363 0.406299,-0.2759766 0.889258,-0.2759766 0.697608,0 1.418213,0.4446289 l -0.475293,1.2802246 Q 47.54242,-6.899414 47.036463,-6.899414 q -0.452295,0 -0.812598,0.2759766 -0.360302,0.2683105 -0.513623,0.7512695 -0.22998,0.7359375 -0.22998,1.6098633 V 0 Z" /><path
               id="path509"
               style=""
               d="m 49.345284,3.1354004 -0.15332,-1.2955567 q 0.452295,0.1226563 0.7896,0.1226563 0.45996,0 0.735937,-0.1533203 0.275977,-0.1533203 0.452295,-0.4292969 0.130322,-0.2069824 0.421631,-1.02724609 0.03833,-0.11499023 0.122656,-0.33730468 L 48.624679,-8.1413085 h 1.487207 l 1.694189,4.7145996 q 0.329639,0.8969238 0.590283,1.8858398 0.237647,-0.9505859 0.567286,-1.8551758 l 1.740185,-4.7452636 h 1.379883 l -3.09707,8.27929678 Q 52.488351,1.479541 52.212374,1.985498 51.844405,2.6677734 51.369112,2.98208 q -0.475293,0.3219727 -1.13457,0.3219727 -0.398633,0 -0.889258,-0.1686523 z" /></g></g><g
           id="g306"><g
             id="text310"
             style="font-variant:normal;font-weight:normal;font-size:15.69999981px;font-family:Arial;-inkscape-font-specification:ArialMT;writing-mode:lr-tb;fill:#000000;fill-opacity:1;fill-rule:nonzero;stroke:none"
             transform="matrix(1,0,0,-1,258,29.1)"
             aria-label="February"><path
               id="path512"
               style=""
               d="M 1.2878906,0 V -11.238379 H 8.86958 v 1.3262209 H 2.7750976 v 3.4803711 h 5.2742187 v 1.3262207 H 2.7750976 V 0 Z" /><path
               id="path514"
               style=""
               d="m 16.389206,-2.6217773 1.425879,0.1763183 q -0.337305,1.2495606 -1.249561,1.93950197 -0.912256,0.6899414 -2.330469,0.6899414 -1.786181,0 -2.836425,-1.09624022 -1.042579,-1.10390625 -1.042579,-3.08940425 0,-2.0544922 1.057911,-3.1890625 1.05791,-1.1345703 2.744433,-1.1345703 1.632861,0 2.667774,1.1115723 1.034912,1.1115722 1.034912,3.1277343 0,0.1226563 -0.0077,0.3679688 H 11.78193 q 0.07666,1.3415527 0.758936,2.0544921 0.682275,0.71293947 1.701855,0.71293947 0.758936,0 1.295557,-0.39863277 0.536621,-0.3986328 0.850928,-1.2725586 z M 11.85859,-4.8525878 h 4.545948 q -0.09199,-1.0272461 -0.521289,-1.5408692 -0.659278,-0.7972656 -1.709522,-0.7972656 -0.950586,0 -1.602197,0.6362793 -0.643945,0.6362793 -0.71294,1.7018555 z" /><path
               id="path516"
               style=""
               d="m 20.58227,0 h -1.280225 v -11.238379 h 1.379883 v 4.0093264 q 0.873926,-1.0962403 2.230811,-1.0962403 0.751269,0 1.418213,0.3066407 0.674609,0.2989746 1.103906,0.8509277 0.436963,0.5442871 0.682275,1.3185546 0.245313,0.7742676 0.245313,1.6558594 0,2.0928222 -1.034912,3.23505856 -1.034912,1.14223631 -2.483789,1.14223631 -1.441211,0 -2.261475,-1.20356447 z m -0.01533,-4.1319824 q 0,1.464209 0.398633,2.1158203 0.651611,1.06557617 1.763183,1.06557617 0.90459,0 1.563868,-0.78193357 0.659277,-0.7895996 0.659277,-2.3458008 0,-1.5945312 -0.636279,-2.3534667 -0.628614,-0.7589356 -1.525538,-0.7589356 -0.904589,0 -1.563867,0.7895996 -0.659277,0.7819336 -0.659277,2.2691406 z" /><path
               id="path518"
               style=""
               d="m 28.478879,0 v -8.1413085 h 1.241895 V -6.90708 q 0.475293,-0.8662597 0.873925,-1.1422363 0.406299,-0.2759766 0.889258,-0.2759766 0.697608,0 1.418213,0.4446289 l -0.475293,1.2802246 Q 31.92092,-6.899414 31.414963,-6.899414 q -0.452295,0 -0.812598,0.2759766 -0.360302,0.2683105 -0.513623,0.7512695 -0.22998,0.7359375 -0.22998,1.6098633 V 0 Z" /><path
               id="path520"
               style=""
               d="m 39.026457,0 v -1.1958984 q -0.950586,1.37988277 -2.583447,1.37988277 -0.720606,0 -1.349219,-0.27597656 -0.620947,-0.27597656 -0.927588,-0.68994139 -0.298974,-0.42163082 -0.421631,-1.02724612 -0.08433,-0.4062988 -0.08433,-1.2878906 v -5.0442382 h 1.379883 v 4.5152832 q 0,1.0809081 0.08433,1.4565429 0.130322,0.5442871 0.551953,0.8585937 0.421631,0.3066407 1.042578,0.3066407 0.620948,0 1.165235,-0.3143067 0.544287,-0.3219726 0.766601,-0.8662597 0.229981,-0.5519531 0.229981,-1.5945313 v -4.3619628 h 1.379883 V 0 Z" /><path
               id="path522"
               style=""
               d="m 48.187961,-1.004248 q -0.766602,0.65161129 -1.479541,0.91992183 -0.705274,0.26831054 -1.517871,0.26831054 -1.341553,0 -2.062159,-0.65161132 -0.720605,-0.65927735 -0.720605,-1.67885735 0,-0.5979493 0.268311,-1.0885743 0.275976,-0.498291 0.712939,-0.7972656 0.444629,-0.2989746 0.996582,-0.4522949 0.406299,-0.1073242 1.226563,-0.2069824 1.671191,-0.1993164 2.460791,-0.475293 0.0077,-0.2836425 0.0077,-0.3603027 0,-0.8432617 -0.390967,-1.1882324 -0.528955,-0.467627 -1.571533,-0.467627 -0.973584,0 -1.441211,0.3449707 -0.459961,0.3373047 -0.682276,1.2035645 l -1.349218,-0.1839844 q 0.183984,-0.8662597 0.605615,-1.3952148 0.421631,-0.5366211 1.218896,-0.8202637 0.797266,-0.2913086 1.84751,-0.2913086 1.042578,0 1.694189,0.2453125 0.651612,0.2453125 0.958252,0.6209473 0.306641,0.3679687 0.429297,0.9352539 0.06899,0.3526367 0.06899,1.2725586 v 1.8398437 q 0,1.9241699 0.08433,2.43779293 Q 49.644504,-0.46762695 49.905148,0 h -1.441211 q -0.214648,-0.42929687 -0.275976,-1.004248 z m -0.11499,-3.0817383 q -0.75127,0.3066406 -2.253809,0.5212891 -0.850928,0.1226562 -1.203564,0.2759765 -0.352637,0.1533203 -0.544288,0.452295 -0.19165,0.2913085 -0.19165,0.6516113 0,0.5519531 0.413965,0.9199218 0.421631,0.36796878 1.226562,0.36796878 0.797266,0 1.418213,-0.34497068 0.620947,-0.3526367 0.912256,-0.958252 0.222315,-0.4676269 0.222315,-1.3798828 z" /><path
               id="path524"
               style=""
               d="m 51.353782,0 v -8.1413085 h 1.241894 V -6.90708 q 0.475293,-0.8662597 0.873926,-1.1422363 0.406299,-0.2759766 0.889258,-0.2759766 0.697607,0 1.418213,0.4446289 l -0.475293,1.2802246 q -0.505957,-0.2989746 -1.011914,-0.2989746 -0.452295,0 -0.812598,0.2759766 -0.360303,0.2683105 -0.513623,0.7512695 -0.22998,0.7359375 -0.22998,1.6098633 V 0 Z" /><path
               id="path526"
               style=""
               d="M 56.504483,3.1354004 56.351163,1.8398437 Q 56.803458,1.9625 57.140762,1.9625 q 0.459961,0 0.735938,-0.1533203 0.275976,-0.1533203 0.452295,-0.4292969 0.130322,-0.2069824 0.421631,-1.02724609 0.03833,-0.11499023 0.122656,-0.33730468 L 55.783878,-8.1413085 h 1.487207 l 1.694189,4.7145996 q 0.329639,0.8969238 0.590283,1.8858398 0.237647,-0.9505859 0.567285,-1.8551758 l 1.740186,-4.7452636 h 1.379883 L 60.14584,0.13798828 Q 59.647549,1.479541 59.371573,1.985498 59.003604,2.6677734 58.528311,2.98208 q -0.475293,0.3219727 -1.13457,0.3219727 -0.398633,0 -0.889258,-0.1686523 z" /></g></g><g
           id="g312"><g
             id="text316"
             style="font-variant:normal;font-weight:normal;font-size:15.69999981px;font-family:Arial;-inkscape-font-specification:ArialMT;writing-mode:lr-tb;fill:#000000;fill-opacity:1;fill-rule:nonzero;stroke:none"
             transform="matrix(1,0,0,-1,392.1,29.1)"
             aria-label="March "><path
               id="path529"
               style=""
               d="m 1.1652344,0 v -11.238379 h 2.2384765 l 2.6601074,7.9573244 q 0.3679687,1.1115722 0.5366211,1.6635253 0.1916504,-0.6132812 0.5979492,-1.8015136 L 9.88916,-11.238379 h 2.00083 V 0 H 10.456445 V -9.4062011 L 7.1907226,0 H 5.8491699 L 2.5987793,-9.5671874 V 0 Z" /><path
               id="path531"
               style=""
               d="m 18.750461,-1.004248 q -0.766602,0.65161129 -1.479541,0.91992183 -0.705274,0.26831054 -1.517871,0.26831054 -1.341553,0 -2.062159,-0.65161132 -0.720605,-0.65927735 -0.720605,-1.67885735 0,-0.5979493 0.268311,-1.0885743 0.275976,-0.498291 0.712939,-0.7972656 0.444629,-0.2989746 0.996582,-0.4522949 0.406299,-0.1073242 1.226563,-0.2069824 1.671191,-0.1993164 2.460791,-0.475293 0.0077,-0.2836425 0.0077,-0.3603027 0,-0.8432617 -0.390967,-1.1882324 -0.528955,-0.467627 -1.571533,-0.467627 -0.973584,0 -1.441211,0.3449707 -0.459961,0.3373047 -0.682276,1.2035645 l -1.349218,-0.1839844 q 0.183984,-0.8662597 0.605615,-1.3952148 0.421631,-0.5366211 1.218896,-0.8202637 0.797266,-0.2913086 1.84751,-0.2913086 1.042578,0 1.694189,0.2453125 0.651612,0.2453125 0.958252,0.6209473 0.306641,0.3679687 0.429297,0.9352539 0.06899,0.3526367 0.06899,1.2725586 v 1.8398437 q 0,1.9241699 0.08433,2.43779293 Q 20.207004,-0.46762695 20.467648,0 h -1.441211 q -0.214648,-0.42929687 -0.275976,-1.004248 z m -0.11499,-3.0817383 q -0.75127,0.3066406 -2.253809,0.5212891 -0.850928,0.1226562 -1.203564,0.2759765 -0.352637,0.1533203 -0.544288,0.452295 -0.19165,0.2913085 -0.19165,0.6516113 0,0.5519531 0.413965,0.9199218 0.421631,0.36796878 1.226562,0.36796878 0.797266,0 1.418213,-0.34497068 0.620947,-0.3526367 0.912256,-0.958252 0.222315,-0.4676269 0.222315,-1.3798828 z" /><path
               id="path533"
               style=""
               d="m 21.91628,0 v -8.1413085 h 1.241894 V -6.90708 q 0.475293,-0.8662597 0.873926,-1.1422363 0.406299,-0.2759766 0.889258,-0.2759766 0.697607,0 1.418213,0.4446289 l -0.475293,1.2802246 q -0.505957,-0.2989746 -1.011914,-0.2989746 -0.452295,0 -0.812598,0.2759766 -0.360302,0.2683105 -0.513623,0.7512695 -0.22998,0.7359375 -0.22998,1.6098633 V 0 Z" /><path
               id="path535"
               style=""
               d="m 32.44086,-2.98208 1.356885,0.1763183 q -0.222315,1.4028809 -1.142237,2.20014647 -0.912256,0.7895996 -2.246142,0.7895996 -1.671192,0 -2.690772,-1.0885742 -1.011914,-1.09624027 -1.011914,-3.13540037 0,-1.3185547 0.436963,-2.3074707 0.436963,-0.988916 1.326221,-1.479541 0.896924,-0.498291 1.947168,-0.498291 1.32622,0 2.169482,0.6746094 0.843262,0.6669434 1.080908,1.9011719 l -1.341552,0.2069824 q -0.191651,-0.8202637 -0.682276,-1.2342285 -0.482959,-0.4139649 -1.1729,-0.4139649 -1.042578,0 -1.69419,0.7512696 -0.651611,0.7436035 -0.651611,2.3611327 0,1.6405274 0.628613,2.3841309 0.628614,0.74360347 1.640528,0.74360347 0.812597,0 1.356885,-0.49829097 0.544287,-0.498291 0.689941,-1.5332031 z" /><path
               id="path537"
               style=""
               d="m 34.931213,0 v -11.238379 h 1.379883 v 4.0323244 q 0.965918,-1.1192383 2.437793,-1.1192383 0.90459,0 1.571533,0.3603028 0.666944,0.3526367 0.950586,0.98125 0.291309,0.6286132 0.291309,1.8245116 V 0 h -1.379883 v -5.1592285 q 0,-1.034912 -0.452295,-1.502539 -0.444629,-0.475293 -1.264892,-0.475293 -0.613282,0 -1.157569,0.3219727 -0.536621,0.3143066 -0.766601,0.8585937 -0.229981,0.5442871 -0.229981,1.5025391 V 0 Z" /></g></g><g
           id="g318"><g
             id="text322"
             style="font-variant:normal;font-weight:normal;font-size:15.69999981px;font-family:Arial;-inkscape-font-specification:ArialMT;writing-mode:lr-tb;fill:#000000;fill-opacity:1;fill-rule:nonzero;stroke:none"
             transform="matrix(1,0,0,-1,526.1,29.1)"
             aria-label="April"><path
               id="path540"
               style=""
               d="M -0.02299805,0 4.2929687,-11.238379 H 5.8951659 L 10.494775,0 H 8.8005858 L 7.4896972,-3.4037109 H 2.7904297 L 1.5562012,0 Z M 3.2197265,-4.6149414 H 7.0297362 L 5.8568359,-7.7273437 Q 5.3202148,-9.1455565 5.0595703,-10.057812 4.8449218,-8.9769042 4.453955,-7.911328 Z" /><path
               id="path542"
               style=""
               d="M 10.831712,3.1200683 V -8.1413085 h 1.257226 v 1.0579101 q 0.444629,-0.6209472 1.004248,-0.9275878 0.559619,-0.3143067 1.356885,-0.3143067 1.042578,0 1.839844,0.5366211 0.797265,0.5366211 1.203564,1.5178711 0.406299,0.973584 0.406299,2.1388183 0,1.2495606 -0.452295,2.2538086 -0.444629,0.99658201 -1.303222,1.5332031 -0.850928,0.52895507 -1.793848,0.52895507 -0.689942,0 -1.241895,-0.29130859 -0.544287,-0.29130859 -0.896923,-0.73593749 V 3.1200683 Z m 1.24956,-7.1447265 q 0,1.5715332 0.63628,2.3228028 0.636279,0.75126947 1.540869,0.75126947 0.919922,0 1.571533,-0.77426757 0.659277,-0.7819336 0.659277,-2.4147949 0,-1.5562011 -0.643945,-2.3304687 -0.636279,-0.7742676 -1.525537,-0.7742676 -0.881592,0 -1.563867,0.8279297 -0.67461,0.8202637 -0.67461,2.3917968 z" /><path
               id="path544"
               style=""
               d="m 20.00088,0 v -8.1413085 h 1.241895 V -6.90708 q 0.475293,-0.8662597 0.873926,-1.1422363 0.406299,-0.2759766 0.889258,-0.2759766 0.697607,0 1.418212,0.4446289 l -0.475293,1.2802246 q -0.505957,-0.2989746 -1.011914,-0.2989746 -0.452295,0 -0.812597,0.2759766 -0.360303,0.2683105 -0.513623,0.7512695 -0.229981,0.7359375 -0.229981,1.6098633 V 0 Z" /><path
               id="path546"
               style=""
               d="m 25.220578,-9.6515136 v -1.5868654 h 1.379882 v 1.5868654 z M 25.220578,0 V -8.1413085 H 26.60046 V 0 Z" /><path
               id="path548"
               style=""
               d="m 28.385048,0 v -11.238379 h 1.379883 V 0 Z" /></g></g><path
           id="path324"
           style="fill:#ffffff;fill-opacity:1;fill-rule:evenodd;stroke:none"
           d="m 611.8,198.2 h 82.3 v -40.5 h -82.3 z" /><path
           id="path326"
           style="fill:none;stroke:#000000;stroke-width:0.1;stroke-linecap:butt;stroke-linejoin:miter;stroke-miterlimit:10;stroke-dasharray:none;stroke-opacity:1"
           d="m 611.8,198.2 h 82.3 v -40.5 h -82.3 z" /></g></g><g
       id="g328"><g
         clip-path="url(#clipPath334)"
         id="g330"><path
           id="path336"
           style="fill:#9999ff;fill-opacity:1;fill-rule:evenodd;stroke:none"
           d="m 616.3,191 h 8.5 v -8.4 h -8.5 z" /><g
           id="g338"><path
             id="path340"
             style="fill:none;stroke:#000000;stroke-width:0.6437;stroke-linecap:round;stroke-linejoin:round;stroke-miterlimit:10;stroke-dasharray:none;stroke-opacity:1"
             d="m 616.3,191 h 8.5 v -8.4 h -8.5 z" /></g><g
           id="g342"><g
             id="text346"
             style="font-variant:normal;font-weight:normal;font-size:14.39999962px;font-family:Arial;-inkscape-font-specification:ArialMT;writing-mode:lr-tb;fill:#000000;fill-opacity:1;fill-rule:nonzero;stroke:none"
             transform="matrix(0.99803,0,0,-1,629.4,181.9)"
             aria-label="Blue Balls"><path
               id="path551"
               style=""
               d="m 1.0546875,0 v -10.307812 h 3.8671874 q 1.1812499,0 1.8914062,0.316406 0.7171875,0.309375 1.1179687,0.9632812 0.4078125,0.646875 0.4078125,1.3570313 0,0.6609374 -0.3585938,1.2445312 -0.3585937,0.5835937 -1.0828124,0.9421874 0.9351562,0.2742188 1.4343749,0.9351563 0.50625,0.6609375 0.50625,1.5609374 0,0.7242188 -0.309375,1.35 -0.3023437,0.61875 -0.7523437,0.95624997 -0.45,0.33749999 -1.1320312,0.51328123 Q 5.9695311,0 4.9851561,0 Z m 1.3640624,-5.9765623 h 2.2289062 q 0.9070313,0 1.3007812,-0.1195313 0.5203125,-0.1546875 0.7804688,-0.5132812 0.2671875,-0.3585938 0.2671875,-0.9 0,-0.5132812 -0.2460938,-0.9 -0.2460937,-0.39375 -0.703125,-0.534375 Q 5.5898436,-9.091406 4.4789061,-9.091406 H 2.4187499 Z m 0,4.7601561 h 2.5664062 q 0.6609375,0 0.928125,-0.049219 0.4710937,-0.084375 0.7875,-0.28125 0.3164062,-0.196875 0.5203125,-0.5695312 0.2039062,-0.3796875 0.2039062,-0.871875 0,-0.5765625 -0.2953125,-0.9984374 Q 6.8343748,-4.4156249 6.3070311,-4.5843749 5.7867186,-4.7601561 4.8023436,-4.7601561 H 2.4187499 Z" /><path
               id="path553"
               style=""
               d="m 10.713094,0 v -10.307812 h 1.265625 V 0 Z" /><path
               id="path555"
               style=""
               d="m 18.241369,0 v -1.096875 q -0.871875,1.265625 -2.369531,1.265625 -0.660938,0 -1.2375,-0.253125 -0.569531,-0.25312499 -0.850781,-0.63281248 -0.274219,-0.38671872 -0.386719,-0.94218752 -0.07734,-0.3726562 -0.07734,-1.1812499 v -4.6265624 h 1.265625 v 4.1414061 q 0,0.9914063 0.07734,1.3359375 0.119531,0.4992187 0.50625,0.7875 0.386718,0.28124997 0.95625,0.28124997 0.569531,0 1.06875,-0.28828127 0.499218,-0.2953125 0.703125,-0.7945312 0.210937,-0.50625 0.210937,-1.4625 V -7.4671873 H 19.3734 V 0 Z" /><path
               id="path557"
               style=""
               d="m 25.760137,-2.4046874 1.307812,0.1617187 Q 26.758574,-1.096875 25.921856,-0.46406249 25.085137,0.16875 23.784356,0.16875 q -1.638281,0 -2.601563,-1.00546873 -0.95625,-1.01249997 -0.95625,-2.83359367 0,-1.884375 0.970313,-2.9249999 0.970312,-1.040625 2.517187,-1.040625 1.497657,0 2.446875,1.0195312 0.949219,1.0195312 0.949219,2.8687499 0,0.1125 -0.007,0.3375 h -5.56875 q 0.07031,1.2304688 0.696094,1.884375 0.625781,0.65390622 1.560937,0.65390622 0.696094,0 1.188281,-0.36562502 0.492188,-0.365625 0.780469,-1.1671874 z M 21.604668,-4.4507811 H 25.7742 q -0.08438,-0.9421875 -0.478125,-1.4132812 -0.604688,-0.73125 -1.567969,-0.73125 -0.871875,0 -1.469531,0.5835937 -0.590625,0.5835937 -0.653907,1.5609375 z" /><path
               id="path559"
               style=""
               d="m 32.547487,0 v -10.307812 h 3.867188 q 1.18125,0 1.891406,0.316406 0.717187,0.309375 1.117969,0.9632812 0.407812,0.646875 0.407812,1.3570313 0,0.6609374 -0.358594,1.2445312 -0.358593,0.5835937 -1.082812,0.9421874 0.935156,0.2742188 1.434375,0.9351563 0.50625,0.6609375 0.50625,1.5609374 0,0.7242188 -0.309375,1.35 -0.302344,0.61875 -0.752344,0.95624997 -0.45,0.33749999 -1.132031,0.51328123 Q 37.462331,0 36.477956,0 Z m 1.364063,-5.9765623 h 2.228906 q 0.907031,0 1.300781,-0.1195313 0.520313,-0.1546875 0.780469,-0.5132812 0.267187,-0.3585938 0.267187,-0.9 0,-0.5132812 -0.246093,-0.9 -0.246094,-0.39375 -0.703125,-0.534375 Q 37.082643,-9.091406 35.971706,-9.091406 H 33.91155 Z m 0,4.7601561 h 2.566406 q 0.660937,0 0.928125,-0.049219 0.471094,-0.084375 0.7875,-0.28125 0.316406,-0.196875 0.520312,-0.5695312 0.203907,-0.3796875 0.203907,-0.871875 0,-0.5765625 -0.295313,-0.9984374 -0.295312,-0.4289063 -0.822656,-0.5976563 -0.520313,-0.1757812 -1.504688,-0.1757812 H 33.91155 Z" /><path
               id="path561"
               style=""
               d="M 47.106676,-0.92109373 Q 46.403551,-0.32343749 45.749645,-0.07734375 45.10277,0.16875 44.357458,0.16875 q -1.230469,0 -1.891407,-0.59765624 -0.660937,-0.60468746 -0.660937,-1.53984366 0,-0.5484375 0.246094,-0.9984375 0.253125,-0.4570313 0.653906,-0.73125 0.407812,-0.2742187 0.914062,-0.4148437 0.372657,-0.098438 1.125,-0.1898438 1.532813,-0.1828125 2.257032,-0.4359375 0.007,-0.2601562 0.007,-0.3304687 0,-0.7734375 -0.358594,-1.0898437 -0.485156,-0.4289063 -1.441406,-0.4289063 -0.892969,0 -1.321875,0.3164063 -0.421875,0.309375 -0.625781,1.1039062 l -1.2375,-0.16875 q 0.16875,-0.7945312 0.555468,-1.2796875 0.386719,-0.4921875 1.117969,-0.7523437 0.73125,-0.2671875 1.694531,-0.2671875 0.95625,0 1.553907,0.225 0.597656,0.225 0.878906,0.5695312 0.28125,0.3375 0.39375,0.8578125 0.06328,0.3234375 0.06328,1.1671875 v 1.6874999 q 0,1.7648437 0.07734,2.23593747 Q 48.442614,-0.42890624 48.681676,0 H 47.359801 Q 47.162926,-0.39374999 47.106676,-0.92109373 Z M 47.001208,-3.7476562 q -0.689063,0.28125 -2.067188,0.478125 -0.780469,0.1125 -1.103906,0.253125 -0.323438,0.140625 -0.499219,0.4148438 -0.175781,0.2671875 -0.175781,0.5976562 0,0.50625 0.379687,0.84375 0.386719,0.33749997 1.125,0.33749997 0.73125,0 1.300782,-0.31640627 0.569531,-0.3234375 0.836718,-0.8789062 0.203907,-0.4289062 0.203907,-1.265625 z" /><path
               id="path563"
               style=""
               d="m 50.010693,0 v -10.307812 h 1.265625 V 0 Z" /><path
               id="path565"
               style=""
               d="m 52.703492,0 v -10.307812 h 1.265625 V 0 Z" /><path
               id="path567"
               style=""
               d="m 54.83177,-2.2289062 1.251563,-0.196875 q 0.105469,0.7523437 0.583594,1.153125 0.485156,0.40078122 1.349999,0.40078122 0.871875,0 1.29375,-0.35156252 0.421875,-0.3585937 0.421875,-0.8367187 0,-0.4289062 -0.372656,-0.675 -0.260156,-0.16875 -1.29375,-0.4289062 -1.392187,-0.3515625 -1.933593,-0.6046875 -0.534375,-0.2601562 -0.815625,-0.7101562 -0.274219,-0.4570313 -0.274219,-1.0054688 0,-0.4992187 0.225,-0.9210937 0.232031,-0.4289062 0.625781,-0.7101562 0.295313,-0.2179688 0.801563,-0.365625 0.513281,-0.1546875 1.096874,-0.1546875 0.878907,0 1.539844,0.253125 0.667969,0.253125 0.984375,0.6890625 0.316406,0.4289062 0.435938,1.1531249 l -1.2375,0.16875 q -0.08438,-0.5765624 -0.492188,-0.8999999 -0.400781,-0.3234375 -1.139062,-0.3234375 -0.871875,0 -1.244531,0.2882812 -0.372657,0.2882813 -0.372657,0.675 0,0.2460937 0.154688,0.4429687 0.154687,0.2039063 0.485156,0.3375 0.189844,0.070312 1.117969,0.3234375 1.342968,0.3585938 1.870312,0.590625 0.534375,0.225 0.836719,0.6609375 0.302344,0.4359375 0.302344,1.0828125 0,0.6328124 -0.372657,1.19531243 -0.365625,0.55546873 -1.061718,0.86484372 -0.696094,0.30234375 -1.575,0.30234375 -1.455469,0 -2.221875,-0.60468749 Q 55.042708,-1.040625 54.83177,-2.2289062 Z" /></g></g><path
           id="path348"
           style="fill:#993366;fill-opacity:1;fill-rule:evenodd;stroke:none"
           d="m 616.3,170.8 h 8.5 v -8.5 h -8.5 z" /><g
           id="g350"><path
             id="path352"
             style="fill:none;stroke:#000000;stroke-width:0.6437;stroke-linecap:round;stroke-linejoin:round;stroke-miterlimit:10;stroke-dasharray:none;stroke-opacity:1"
             d="m 616.3,170.8 h 8.5 v -8.5 h -8.5 z" /></g><g
           id="g354"><g
             id="text358"
             style="font-variant:normal;font-weight:normal;font-size:14.39999962px;font-family:Arial;-inkscape-font-specification:ArialMT;writing-mode:lr-tb;fill:#000000;fill-opacity:1;fill-rule:nonzero;stroke:none"
             transform="matrix(0.99803,0,0,-1,629.4,161.7)"
             aria-label="Red Balls"><path
               id="path570"
               style=""
               d="m 1.1320312,0 v -10.307812 h 4.5703124 q 1.378125,0 2.0953124,0.28125 0.7171875,0.2742185 1.1460938,0.9773435 0.4289062,0.703125 0.4289062,1.5539062 0,1.096875 -0.7101562,1.8492187 -0.7101563,0.7523437 -2.19375,0.95625 0.5414063,0.2601562 0.8226563,0.5132812 0.5976562,0.5484375 1.1320312,1.3710937 L 10.216406,0 H 8.500781 L 7.1367186,-2.1445312 Q 6.5390623,-3.0726562 6.1523436,-3.5648437 5.7656248,-4.0570311 5.4562499,-4.2539061 5.1539061,-4.4507811 4.8374999,-4.5281249 4.6054686,-4.5773436 4.0781249,-4.5773436 H 2.4960937 V 0 Z m 1.3640625,-5.7585936 h 2.9320312 q 0.9351562,0 1.4624999,-0.1898437 0.5273438,-0.196875 0.8015625,-0.61875 0.2742187,-0.4289063 0.2742187,-0.928125 0,-0.73125 -0.5343749,-1.2023437 Q 6.9046873,-9.1687498 5.7585936,-9.1687498 H 2.4960937 Z" /><path
               id="path572"
               style=""
               d="m 16.544137,-2.4046874 1.307813,0.1617187 Q 17.542575,-1.096875 16.705856,-0.46406249 15.869137,0.16875 14.568356,0.16875 q -1.638281,0 -2.601562,-1.00546873 -0.95625,-1.01249997 -0.95625,-2.83359367 0,-1.884375 0.970312,-2.9249999 0.970313,-1.040625 2.517188,-1.040625 1.497656,0 2.446875,1.0195312 0.949218,1.0195312 0.949218,2.8687499 0,0.1125 -0.007,0.3375 h -5.56875 q 0.07031,1.2304688 0.696094,1.884375 0.625781,0.65390622 1.560937,0.65390622 0.696094,0 1.188282,-0.36562502 0.492187,-0.365625 0.780468,-1.1671874 z M 12.388669,-4.4507811 H 16.5582 q -0.08437,-0.9421875 -0.478125,-1.4132812 -0.604688,-0.73125 -1.567969,-0.73125 -0.871875,0 -1.469531,0.5835937 -0.590625,0.5835937 -0.653906,1.5609375 z" /><path
               id="path574"
               style=""
               d="M 24.08175,0 V -0.94218748 Q 23.371594,0.16875 21.993469,0.16875 q -0.892969,0 -1.645313,-0.49218749 -0.745312,-0.49218749 -1.160156,-1.37109371 -0.407812,-0.8859375 -0.407812,-2.0320312 0,-1.1179687 0.372656,-2.0249999 0.372656,-0.9140625 1.117969,-1.3992188 0.745312,-0.4851562 1.666406,-0.4851562 0.675,0 1.202343,0.2882812 0.527344,0.28125 0.857813,0.7382813 v -3.6984372 h 1.258594 V 0 Z m -4.000781,-3.7265624 q 0,1.434375 0.604687,2.1445312 0.604688,0.71015622 1.427344,0.71015622 0.829687,0 1.40625,-0.67500002 0.583594,-0.6820312 0.583594,-2.0742187 0,-1.5328124 -0.590625,-2.2499999 -0.590625,-0.7171875 -1.455469,-0.7171875 -0.84375,0 -1.413281,0.6890625 -0.5625,0.6890625 -0.5625,2.1726562 z" /><path
               id="path576"
               style=""
               d="m 31.251488,0 v -10.307812 h 3.867187 q 1.18125,0 1.891406,0.316406 0.717188,0.309375 1.117969,0.9632812 0.407813,0.646875 0.407813,1.3570313 0,0.6609374 -0.358594,1.2445312 -0.358594,0.5835937 -1.082813,0.9421874 0.935157,0.2742188 1.434375,0.9351563 0.50625,0.6609375 0.50625,1.5609374 0,0.7242188 -0.309375,1.35 -0.302343,0.61875 -0.752343,0.95624997 -0.45,0.33749999 -1.132032,0.51328123 Q 36.166331,0 35.181956,0 Z m 1.364062,-5.9765623 h 2.228906 q 0.907032,0 1.300782,-0.1195313 0.520312,-0.1546875 0.780468,-0.5132812 0.267188,-0.3585938 0.267188,-0.9 0,-0.5132812 -0.246094,-0.9 -0.246094,-0.39375 -0.703125,-0.534375 Q 35.786644,-9.091406 34.675706,-9.091406 H 32.61555 Z m 0,4.7601561 h 2.566406 q 0.660938,0 0.928125,-0.049219 0.471094,-0.084375 0.7875,-0.28125 0.316407,-0.196875 0.520313,-0.5695312 0.203906,-0.3796875 0.203906,-0.871875 0,-0.5765625 -0.295312,-0.9984374 -0.295313,-0.4289063 -0.822657,-0.5976563 -0.520312,-0.1757812 -1.504687,-0.1757812 H 32.61555 Z" /><path
               id="path578"
               style=""
               d="M 45.810675,-0.92109373 Q 45.10755,-0.32343749 44.453644,-0.07734375 43.806769,0.16875 43.061456,0.16875 q -1.230468,0 -1.891406,-0.59765624 -0.660937,-0.60468746 -0.660937,-1.53984366 0,-0.5484375 0.246093,-0.9984375 0.253125,-0.4570313 0.653907,-0.73125 0.407812,-0.2742187 0.914062,-0.4148437 0.372656,-0.098438 1.125,-0.1898438 1.532812,-0.1828125 2.257031,-0.4359375 0.007,-0.2601562 0.007,-0.3304687 0,-0.7734375 -0.358593,-1.0898437 -0.485157,-0.4289063 -1.441407,-0.4289063 -0.892968,0 -1.321875,0.3164063 -0.421875,0.309375 -0.625781,1.1039062 l -1.2375,-0.16875 q 0.16875,-0.7945312 0.555469,-1.2796875 0.386719,-0.4921875 1.117969,-0.7523437 0.73125,-0.2671875 1.694531,-0.2671875 0.95625,0 1.553906,0.225 0.597656,0.225 0.878906,0.5695312 0.28125,0.3375 0.39375,0.8578125 0.06328,0.3234375 0.06328,1.1671875 v 1.6874999 q 0,1.7648437 0.07734,2.23593747 Q 47.146612,-0.42890624 47.385675,0 H 46.0638 Q 45.866925,-0.39374999 45.810675,-0.92109373 Z M 45.705206,-3.7476562 q -0.689062,0.28125 -2.067187,0.478125 -0.780469,0.1125 -1.103907,0.253125 -0.323437,0.140625 -0.499218,0.4148438 -0.175782,0.2671875 -0.175782,0.5976562 0,0.50625 0.379688,0.84375 0.386719,0.33749997 1.125,0.33749997 0.73125,0 1.300781,-0.31640627 0.569531,-0.3234375 0.836719,-0.8789062 0.203906,-0.4289062 0.203906,-1.265625 z" /><path
               id="path580"
               style=""
               d="m 48.714692,0 v -10.307812 h 1.265625 V 0 Z" /><path
               id="path582"
               style=""
               d="M 51.321095,0 V -10.307812 H 52.58672 V 0 Z" /><path
               id="path584"
               style=""
               d="m 53.535769,-2.2289062 1.251562,-0.196875 q 0.105469,0.7523437 0.583594,1.153125 0.485156,0.40078122 1.35,0.40078122 0.871875,0 1.29375,-0.35156252 0.421875,-0.3585937 0.421875,-0.8367187 0,-0.4289062 -0.372656,-0.675 -0.260156,-0.16875 -1.29375,-0.4289062 -1.392188,-0.3515625 -1.933594,-0.6046875 -0.534375,-0.2601562 -0.815625,-0.7101562 -0.274219,-0.4570313 -0.274219,-1.0054688 0,-0.4992187 0.225,-0.9210937 0.232032,-0.4289062 0.625782,-0.7101562 0.295312,-0.2179688 0.801562,-0.365625 0.513281,-0.1546875 1.096875,-0.1546875 0.878906,0 1.539844,0.253125 0.667968,0.253125 0.984375,0.6890625 0.316406,0.4289062 0.435937,1.1531249 l -1.2375,0.16875 q -0.08438,-0.5765624 -0.492187,-0.8999999 -0.400781,-0.3234375 -1.139063,-0.3234375 -0.871875,0 -1.244531,0.2882812 -0.372656,0.2882813 -0.372656,0.675 0,0.2460937 0.154687,0.4429687 0.154688,0.2039063 0.485157,0.3375 0.189843,0.070312 1.117968,0.3234375 1.342969,0.3585938 1.870313,0.590625 0.534375,0.225 0.836718,0.6609375 0.302344,0.4359375 0.302344,1.0828125 0,0.6328124 -0.372656,1.19531243 -0.365625,0.55546873 -1.061719,0.86484372 -0.696093,0.30234375 -1.575,0.30234375 -1.455468,0 -2.221875,-0.60468749 Q 53.746706,-1.040625 53.535769,-2.2289062 Z" /></g></g></g></g></g></svg>