<?xml version="1.0" encoding="UTF-8" standalone="no"?>
<svg
   xmlns:dc="http://purl.org/dc/elements/1.1/"
   xmlns:cc="http://creativecommons.org/ns#"
   xmlns:rdf="http://www.w3.org/1999/02/22-rdf-syntax-ns#"
   xmlns:svg="http://www.w3.org/2000/svg"
   xmlns="http://www.w3.org/2000/svg"
   viewBox="0 0 960 720"
   height="720"
   width="960"
   xml:space="preserve"
   id="svg2"
   version="1.1"><metadata
     id="metadata8"><rdf:RDF><cc:Work
         rdf:about=""><dc:format>image/svg+xml</dc:format><dc:type
           rdf:resource="http://purl.org/dc/dcmitype/StillImage" /></cc:Work></rdf:RDF></metadata><defs
     id="defs6"><clipPath
       id="clipPath18"
       clipPathUnits="userSpaceOnUse"><path
         style="clip-rule:evenodd"
         id="path16"
         d="M 0,0 H 720 V 540 H 0 Z" /></clipPath><clipPath
       id="clipPath30"
       clipPathUnits="userSpaceOnUse"><path
         style="clip-rule:evenodd"
         id="path28"
         d="M 0,0 H 702 V 540 H 0 Z" /></clipPath><clipPath
       id="clipPath52"
       clipPathUnits="userSpaceOnUse"><path
         style="clip-rule:evenodd"
         id="path50"
         d="M 0,0 H 720 V 540 H 0 Z" /></clipPath><clipPath
       id="clipPath66"
       clipPathUnits="userSpaceOnUse"><path
         style="clip-rule:evenodd"
         id="path64"
         d="m 169.1,229.2 h 370.8 v 59 H 169.1 Z" /></clipPath><clipPath
       id="clipPath158"
       clipPathUnits="userSpaceOnUse"><path
         style="clip-rule:evenodd"
         id="path156"
         d="m 168,229.2 h 372 v 60.2 H 168 Z" /></clipPath></defs><g
     transform="matrix(1.3333333,0,0,-1.3333333,0,720)"
     id="g10"><g
       id="g12"><g
         clip-path="url(#clipPath18)"
         id="g14"><path
           id="path20"
           style="fill:#ffffff;fill-opacity:1;fill-rule:evenodd;stroke:none"
           d="M 0,540 H 720 V 0 H 0 Z" /><path
           id="path22"
           style="fill:#ffffff;fill-opacity:1;fill-rule:evenodd;stroke:none"
           d="M 0,540 H 720 V 0 H 0 Z" /></g></g><g
       id="g24"><g
         clip-path="url(#clipPath30)"
         id="g26"><path
           id="path32"
           style="fill:#99cc99;fill-opacity:1;fill-rule:evenodd;stroke:none"
           d="M 30,0 H 0 V 540 H 60 V 0 Z" /><path
           id="path34"
           style="fill:#99cc99;fill-opacity:1;fill-rule:evenodd;stroke:none"
           d="M 153,456 H 54 v 84 h 198 v -84 z" /><path
           id="path36"
           style="fill:#ffffff;fill-opacity:1;fill-rule:evenodd;stroke:none"
           d="M 84,480 C 72,480 60,468 60,456 v 0 c 0,-12 12,-24 24,-24 h 354 c 12,0 24,12 24,24 v 0 c 0,12 -12,24 -24,24 z m -24,0 z m 402,-48 z" /><g
           id="g38" /><g
           id="g40" /><path
           id="path42"
           style="fill:#003366;fill-opacity:1;fill-rule:evenodd;stroke:none"
           d="m 48,384 v 0 -25 0 h 552 v 0 25 0 z m 0,0 z m 552,-25 z" /><path
           id="path44"
           style="fill:#003366;fill-opacity:1;fill-rule:evenodd;stroke:none"
           d="M 33.5,384 C 25.7,384 18,377.7 18,371.5 c 0,-6.3 7.7,-12.6 15.5,-12.6 H 49 V 384 Z M 49,384 Z M 18,358.9 Z" /></g></g><g
       id="g46"><g
         clip-path="url(#clipPath52)"
         id="g48"><g
           id="g54"><g
             id="text58"
             style="font-variant:normal;font-weight:bold;font-size:36px;font-family:Arial;-inkscape-font-specification:Arial-BoldMT;writing-mode:lr-tb;fill:#009c98;fill-opacity:1;fill-rule:nonzero;stroke:none"
             transform="matrix(1,0,0,-1,79.1,400.9)"
             aria-label="Graphs - Bad"><path
               id="path240"
               style=""
               d="m 14.607422,-9.4746094 v -4.3417966 h 11.214844 v 10.2656247 q -1.634766,1.5820313 -4.746094,2.79492193 -3.09375,1.1953125 -6.275391,1.1953125 -4.042968,0 -7.0488279,-1.68750003 Q 4.7460937,-2.953125 3.234375,-6.0996094 1.7226562,-9.2636719 1.7226562,-12.972656 q 0,-4.025391 1.6875001,-7.154297 1.6874999,-3.128906 4.9394531,-4.798828 2.4785156,-1.283203 6.1699216,-1.283203 4.798828,0 7.488281,2.021484 2.707032,2.003906 3.480469,5.554688 l -5.167969,0.966796 q -0.544921,-1.898437 -2.05664,-2.988281 -1.494141,-1.107422 -3.744141,-1.107422 -3.410156,0 -5.4316404,2.16211 -2.0039062,2.162109 -2.0039062,6.416015 0,4.5878909 2.0390625,6.8906253 2.0390621,2.2851562 5.3437501,2.2851562 1.634765,0 3.269531,-0.6328125 1.652344,-0.6503906 2.830078,-1.5644531 v -3.2695313 z" /><path
               id="path242"
               style=""
               d="m 35.2125,0 h -4.939454 v -18.667969 h 4.587891 v 2.654297 q 1.177734,-1.880859 2.109375,-2.478515 0.949219,-0.597657 2.144531,-0.597657 1.6875,0 3.251953,0.931641 l -1.529296,4.30664 q -1.248047,-0.808593 -2.320313,-0.808593 -1.037109,0 -1.757812,0.580078 -0.720704,0.5625 -1.142579,2.05664 -0.404296,1.494141 -0.404296,6.257813 z" /><path
               id="path244"
               style=""
               d="M 48.251392,-12.972656 43.76897,-13.78125 q 0.75586,-2.707031 2.601563,-4.007812 1.845703,-1.300782 5.484375,-1.300782 3.304687,0 4.921875,0.791016 1.617187,0.773437 2.267578,1.986328 0.667969,1.195312 0.667969,4.412109 l -0.05273,5.7656254 q 0,2.4609375 0.228516,3.6386718 Q 60.134205,-1.3359375 60.784595,0 h -4.886718 q -0.19336,-0.4921875 -0.47461,-1.4589844 -0.123047,-0.4394531 -0.175781,-0.5800781 -1.265625,1.23046875 -2.707031,1.84570313 -1.441406,0.61523437 -3.076172,0.61523437 -2.882813,0 -4.552734,-1.5644531 -1.652344,-1.5644532 -1.652344,-3.9550781 0,-1.5820313 0.755859,-2.8125 0.75586,-1.2480469 2.109375,-1.8984376 1.371094,-0.6679692 3.9375,-1.1601562 3.462891,-0.650391 4.798828,-1.212891 v -0.492187 q 0,-1.423828 -0.703125,-2.021485 -0.703125,-0.615234 -2.654297,-0.615234 -1.318359,0 -2.05664,0.527344 -0.738281,0.509765 -1.195313,1.810547 z m 6.609375,4.0078122 q -0.949218,0.3164063 -3.005859,0.7558594 -2.056641,0.4394532 -2.689453,0.8613282 -0.966797,0.6855468 -0.966797,1.7402343 0,1.0371094 0.773437,1.7929688 0.773438,0.7558593 1.96875,0.7558593 1.335938,0 2.548829,-0.8789062 0.896484,-0.6679687 1.177734,-1.6347656 0.193359,-0.6328125 0.193359,-2.4082031 z" /><path
               id="path246"
               style=""
               d="m 64.43536,-18.667969 h 4.605469 v 2.742188 q 0.896484,-1.40625 2.425781,-2.285156 1.529297,-0.878907 3.392578,-0.878907 3.251953,0 5.519531,2.548828 2.267578,2.548828 2.267578,7.1015629 0,4.6757812 -2.285156,7.2773437 -2.285156,2.5839844 -5.537109,2.5839844 -1.546875,0 -2.8125,-0.61523437 -1.248047,-0.61523438 -2.636719,-2.10937503 V 7.1015625 H 64.43536 Z m 4.886719,9.0175784 q 0,3.1464844 1.248047,4.6582031 1.248046,1.4941406 3.041015,1.4941406 1.722656,0 2.865235,-1.3710937 1.142578,-1.3886719 1.142578,-4.5351563 0,-2.9355471 -1.177735,-4.3593751 -1.177734,-1.423828 -2.917968,-1.423828 -1.810547,0 -3.00586,1.40625 -1.195312,1.388672 -1.195312,4.1308594 z" /><path
               id="path248"
               style=""
               d="m 91.385857,-25.769531 v 9.474609 q 2.390625,-2.794922 5.71289,-2.794922 1.705078,0 3.076173,0.632813 1.37109,0.632812 2.05664,1.617187 0.70312,0.984375 0.94922,2.179688 0.26367,1.195312 0.26367,3.708984 V 0 h -4.939453 v -9.8613281 q 0,-2.9355469 -0.28125,-3.7265629 -0.28125,-0.791015 -1.001953,-1.248047 -0.703125,-0.474609 -1.77539,-0.474609 -1.230469,0 -2.197266,0.597656 -0.966797,0.597657 -1.423828,1.810547 -0.439453,1.195313 -0.439453,3.5507815 V 0 h -4.939453 v -25.769531 z" /><path
               id="path250"
               style=""
               d="m 106.68375,-5.3261719 4.95703,-0.7558593 q 0.3164,1.4414062 1.2832,2.1972656 0.9668,0.7382812 2.70703,0.7382812 1.91602,0 2.88281,-0.703125 0.6504,-0.4921875 0.6504,-1.3183593 0,-0.5625 -0.35157,-0.9316407 -0.36914,-0.3515625 -1.65234,-0.6503906 -5.97656,-1.3183594 -7.57617,-2.4082031 -2.21485,-1.5117189 -2.21485,-4.2011719 0,-2.425781 1.91602,-4.078125 1.91601,-1.652344 5.94141,-1.652344 3.83203,0 5.69531,1.248047 1.86328,1.248047 2.5664,3.691406 l -4.6582,0.861328 q -0.29883,-1.089843 -1.14258,-1.669921 -0.82617,-0.580079 -2.37304,-0.580079 -1.95118,0 -2.79493,0.544922 -0.5625,0.386719 -0.5625,1.001953 0,0.527344 0.49219,0.896485 0.66797,0.492187 4.60547,1.388672 3.95508,0.896484 5.51953,2.1972654 1.54688,1.3183593 1.54688,3.6738281 0,2.5664062 -2.14453,4.4121094 -2.14454,1.8457031 -6.34571,1.8457031 -3.81445,0 -6.04687,-1.546875 -2.21485,-1.546875 -2.90039,-4.2011719 z" /><path
               id="path252"
               style=""
               d="M 137.81349,-6.8730469 V -11.8125 h 9.70313 v 4.9394531 z" /><path
               id="path254"
               style=""
               d="m 160.38872,-25.769531 h 10.30078 q 3.05859,0 4.55273,0.263672 1.51172,0.246093 2.68946,1.054687 1.19531,0.808594 1.98632,2.16211 0.79102,1.335937 0.79102,3.005859 0,1.810547 -0.98437,3.322265 -0.9668,1.511719 -2.63672,2.267579 2.35547,0.685546 3.62109,2.33789 1.26563,1.652344 1.26563,3.8847659 0,1.7578125 -0.82618,3.4277344 -0.80859,1.6523437 -2.23242,2.6542968 -1.40625,0.98437502 -3.48047,1.21289065 Q 174.13481,-0.03515625 169.1602,0 h -8.77148 z m 5.20312,4.289062 v 5.958985 h 3.41016 q 3.04101,0 3.7793,-0.08789 1.33593,-0.158203 2.09179,-0.914062 0.77344,-0.773438 0.77344,-2.021485 0,-1.195312 -0.66797,-1.933594 -0.65039,-0.755859 -1.95117,-0.914062 -0.77344,-0.08789 -4.44727,-0.08789 z m 0,10.248047 v 6.8906251 h 4.81641 q 2.8125,0 3.56836,-0.1582031 1.16015,-0.2109375 1.88086,-1.0195312 0.73828,-0.8261719 0.73828,-2.1972657 0,-1.1601562 -0.5625,-1.96875 -0.5625,-0.8085941 -1.63477,-1.1777341 -1.05468,-0.369141 -4.60547,-0.369141 z" /><path
               id="path256"
               style=""
               d="m 190.01939,-12.972656 -4.48242,-0.808594 q 0.75586,-2.707031 2.60156,-4.007812 1.84571,-1.300782 5.48438,-1.300782 3.30469,0 4.92187,0.791016 1.61719,0.773437 2.26758,1.986328 0.66797,1.195312 0.66797,4.412109 l -0.0527,5.7656254 q 0,2.4609375 0.22851,3.6386718 Q 201.90221,-1.3359375 202.5526,0 h -4.88672 q -0.19336,-0.4921875 -0.47461,-1.4589844 -0.12305,-0.4394531 -0.17578,-0.5800781 -1.26563,1.23046875 -2.70703,1.84570313 -1.44141,0.61523437 -3.07618,0.61523437 -2.88281,0 -4.55273,-1.5644531 -1.65234,-1.5644532 -1.65234,-3.9550781 0,-1.5820313 0.75586,-2.8125 0.75586,-1.2480469 2.10937,-1.8984376 1.37109,-0.6679692 3.9375,-1.1601562 3.46289,-0.650391 4.79883,-1.212891 v -0.492187 q 0,-1.423828 -0.70313,-2.021485 -0.70312,-0.615234 -2.65429,-0.615234 -1.31836,0 -2.05664,0.527344 -0.73828,0.509765 -1.19532,1.810547 z m 6.60938,4.0078122 q -0.94922,0.3164063 -3.00586,0.7558594 -2.05664,0.4394532 -2.68945,0.8613282 -0.9668,0.6855468 -0.9668,1.7402343 0,1.0371094 0.77344,1.7929688 0.77343,0.7558593 1.96875,0.7558593 1.33593,0 2.54883,-0.8789062 0.89648,-0.6679687 1.17773,-1.6347656 0.19336,-0.6328125 0.19336,-2.4082031 z" /><path
               id="path258"
               style=""
               d="m 223.50108,0 h -4.58789 v -2.7421875 q -1.14258,1.5996094 -2.70703,2.390625 -1.54687,0.7734375 -3.1289,0.7734375 -3.2168,0 -5.51954,-2.5839844 -2.28515,-2.6015625 -2.28515,-7.2421875 0,-4.7460941 2.23242,-7.2070311 2.23242,-2.478516 5.64258,-2.478516 3.1289,0 5.41406,2.601563 v -9.28125 h 4.93945 z m -13.18359,-9.7382813 q 0,2.9882813 0.82617,4.3242188 1.19531,1.9335937 3.33985,1.9335937 1.70507,0 2.90039,-1.4414062 1.19531,-1.4589844 1.19531,-4.3417969 0,-3.2167971 -1.16016,-4.6230471 -1.16015,-1.423828 -2.9707,-1.423828 -1.75781,0 -2.95313,1.40625 -1.17773,1.388672 -1.17773,4.1660157 z" /></g></g></g></g><g
       id="g60"><g
         clip-path="url(#clipPath66)"
         id="g62"><g
           id="g68"><g
             id="text72"
             style="font-variant:normal;font-weight:normal;font-size:15.10000038px;font-family:Arial;-inkscape-font-specification:ArialMT;writing-mode:lr-tb;fill:#000000;fill-opacity:1;fill-rule:nonzero;stroke:none"
             transform="matrix(1,0,0,-1,253.8,274.7)"
             aria-label="January"><path
               id="path261"
               style=""
               d="M 0.43500978,-3.0671876 1.725293,-3.2441407 q 0.051611,1.2386719 0.464502,1.6958008 0.4128906,0.4571289 1.1428223,0.4571289 0.5382324,0 0.9290039,-0.2433105 0.3907715,-0.2506836 0.5382324,-0.6709473 0.147461,-0.4276367 0.147461,-1.3566407 v -7.4467775 h 1.4303711 v 7.365674 q 0,1.3566407 -0.3317871,2.1013184 -0.3244141,0.74467779 -1.0395996,1.13544928 -0.7078126,0.3907715 -1.6663087,0.3907715 -1.4229981,0 -2.1824219,-0.81840823 Q 0.40551759,-1.4524903 0.43500978,-3.0671876 Z" /><path
               id="path263"
               style=""
               d="m 13.005583,-0.96586917 q -0.737305,0.62670901 -1.422998,0.88476565 -0.67832,0.25805665 -1.459863,0.25805665 -1.2902836,0 -1.98335,-0.626709 -0.6930664,-0.63408203 -0.6930664,-1.61469733 0,-0.5750976 0.2580566,-1.0469727 0.2654297,-0.479248 0.6856934,-0.7667969 0.4276367,-0.2875488 0.9584961,-0.4350097 0.3907715,-0.1032227 1.1796873,-0.1990723 1.607325,-0.1916992 2.366748,-0.4571289 0.0074,-0.2728028 0.0074,-0.3465332 0,-0.8110352 -0.376025,-1.1428223 -0.50874,-0.4497559 -1.511475,-0.4497559 -0.936377,0 -1.3861325,0.3317871 -0.4423828,0.3244141 -0.6562012,1.1575684 L 7.67487,-5.5961427 q 0.1769532,-0.8331543 0.5824708,-1.3418946 0.4055175,-0.5161133 1.1723144,-0.788916 0.7667968,-0.2801758 1.7769048,-0.2801758 1.002734,0 1.629443,0.2359375 0.626709,0.2359375 0.921631,0.5972168 0.294922,0.3539063 0.41289,0.8995118 0.06636,0.3391601 0.06636,1.2239258 v 1.7695313 q 0,1.8506348 0.0811,2.34462892 Q 14.406462,-0.44975587 14.657146,0 h -1.386133 q -0.206446,-0.41289064 -0.26543,-0.96586917 z M 12.894987,-3.9298341 q -0.722558,0.2949219 -2.167675,0.5013672 -0.8184087,0.1179688 -1.1575689,0.2654297 -0.3391601,0.147461 -0.5234863,0.4350098 -0.1843262,0.2801758 -0.1843262,0.626709 0,0.5308594 0.3981446,0.8847656 0.4055175,0.35390629 1.1796878,0.35390629 0.766797,0 1.364013,-0.33178709 0.597217,-0.3391602 0.877393,-0.9216309 0.213818,-0.4497559 0.213818,-1.3271485 z" /><path
               id="path265"
               style=""
               d="m 15.989661,0 v -7.830176 h 1.194434 v 1.1133301 q 0.862646,-1.2902832 2.49209,-1.2902832 0.707812,0 1.297656,0.2580566 0.597217,0.2506836 0.892139,0.6635743 0.294922,0.4128906 0.41289,0.9806152 0.07373,0.3686524 0.07373,1.2902833 V 0 h -1.327149 v -4.7629884 q 0,-0.8110352 -0.154834,-1.2091797 -0.154834,-0.4055176 -0.552978,-0.6414551 -0.390772,-0.2433106 -0.921631,-0.2433106 -0.8479,0 -1.467236,0.5382325 -0.611963,0.5382324 -0.611963,2.042334 V 0 Z" /><path
               id="path267"
               style=""
               d="m 29.214902,0 v -1.1501953 q -0.914258,1.32714843 -2.484717,1.32714843 -0.693066,0 -1.297656,-0.26542969 -0.597217,-0.2654297 -0.892139,-0.66357424 -0.287548,-0.4055176 -0.405517,-0.9879883 -0.0811,-0.3907715 -0.0811,-1.2386719 v -4.851465 h 1.327149 v 4.3427247 q 0,1.0395997 0.0811,1.400879 0.125342,0.5234863 0.53086,0.8257813 0.405517,0.29492183 1.002734,0.29492183 0.597217,0 1.120703,-0.30229493 0.523487,-0.309668 0.737305,-0.8331543 0.221191,-0.5308594 0.221191,-1.5335938 V -7.830176 h 1.327149 V 0 Z" /><path
               id="path269"
               style=""
               d="m 37.392084,-0.96586917 q -0.737305,0.62670901 -1.422998,0.88476565 -0.678321,0.25805665 -1.459864,0.25805665 -1.290283,0 -1.983349,-0.626709 -0.693067,-0.63408203 -0.693067,-1.61469733 0,-0.5750976 0.258057,-1.0469727 0.26543,-0.479248 0.685693,-0.7667969 0.427637,-0.2875488 0.958497,-0.4350097 0.390771,-0.1032227 1.179687,-0.1990723 1.607324,-0.1916992 2.366748,-0.4571289 0.0074,-0.2728028 0.0074,-0.3465332 0,-0.8110352 -0.376025,-1.1428223 -0.50874,-0.4497559 -1.511475,-0.4497559 -0.936377,0 -1.386133,0.3317871 -0.442382,0.3244141 -0.656201,1.1575684 l -1.297656,-0.1769531 q 0.176953,-0.8331543 0.582471,-1.3418946 0.405517,-0.5161133 1.172314,-0.788916 0.766797,-0.2801758 1.776904,-0.2801758 1.002735,0 1.629444,0.2359375 0.626709,0.2359375 0.921631,0.5972168 0.294922,0.3539063 0.41289,0.8995118 0.06636,0.3391601 0.06636,1.2239258 v 1.7695313 q 0,1.8506348 0.0811,2.34462892 Q 38.792963,-0.44975587 39.043646,0 h -1.386132 q -0.206446,-0.41289064 -0.26543,-0.96586917 z M 37.281488,-3.9298341 q -0.722558,0.2949219 -2.167676,0.5013672 -0.818408,0.1179688 -1.157568,0.2654297 -0.33916,0.147461 -0.523486,0.4350098 -0.184327,0.2801758 -0.184327,0.626709 0,0.5308594 0.398145,0.8847656 0.405518,0.35390629 1.179688,0.35390629 0.766796,0 1.364013,-0.33178709 0.597217,-0.3391602 0.877393,-0.9216309 0.213818,-0.4497559 0.213818,-1.3271485 z" /><path
               id="path271"
               style=""
               d="m 40.270815,0 v -7.830176 h 1.194433 v 1.1870606 q 0.457129,-0.8331543 0.840528,-1.098584 0.390771,-0.2654297 0.855273,-0.2654297 0.670947,0 1.364014,0.4276367 l -0.457129,1.2312989 q -0.486621,-0.2875489 -0.973242,-0.2875489 -0.43501,0 -0.781543,0.2654297 -0.346534,0.2580567 -0.493995,0.7225587 -0.221191,0.7078125 -0.221191,1.5483398 V 0 Z" /><path
               id="path273"
               style=""
               d="M 44.922678,3.0155762 44.775217,1.7695313 Q 45.210227,1.8875 45.534641,1.8875 q 0.442383,0 0.707813,-0.1474609 0.26543,-0.1474609 0.43501,-0.4128906 0.125341,-0.1990723 0.405517,-0.98798834 0.03687,-0.1105957 0.117969,-0.32441407 L 44.229612,-7.830176 h 1.430371 l 1.629444,4.534424 q 0.317041,0.8626465 0.567724,1.8137695 0.228565,-0.9142578 0.545606,-1.7842773 l 1.673681,-4.5639162 h 1.327149 l -2.978711,7.96289085 q -0.479248,1.29028325 -0.744678,1.77690435 -0.353906,0.6562012 -0.811035,0.9584961 -0.457129,0.309668 -1.091211,0.309668 -0.383399,0 -0.855274,-0.1622071 z" /></g></g><g
           id="g74"><g
             id="text78"
             style="font-variant:normal;font-weight:normal;font-size:15.10000038px;font-family:Arial;-inkscape-font-specification:ArialMT;writing-mode:lr-tb;fill:#000000;fill-opacity:1;fill-rule:nonzero;stroke:none"
             transform="matrix(1,0,0,-1,324.5,274.7)"
             aria-label="February"><path
               id="path276"
               style=""
               d="m 1.2386719,0 v -10.808887 h 7.2919435 v 1.2755371 H 2.669043 v 3.3473634 h 5.0726564 v 1.2755372 H 2.669043 V 0 Z" /><path
               id="path278"
               style=""
               d="m 15.642067,-2.5215821 1.371386,0.1695801 q -0.324414,1.2018067 -1.201806,1.86538089 -0.877393,0.66357424 -2.241407,0.66357424 -1.71792,0 -2.728027,-1.05434573 -1.0027345,-1.0617188 -1.0027345,-2.971338 0,-1.9759766 1.0174805,-3.0671875 1.01748,-1.091211 2.639551,-1.091211 1.570459,0 2.56582,1.0690918 0.995362,1.0690918 0.995362,3.0082032 0,0.1179688 -0.0074,0.3539063 h -5.839454 q 0.07373,1.2902832 0.729932,1.9759766 0.656201,0.68569336 1.636816,0.68569336 0.729932,0 1.246045,-0.38339846 0.516114,-0.3833984 0.818409,-1.2239258 z m -4.357471,-2.1455567 h 4.372217 q -0.08848,-0.9879883 -0.501368,-1.4819824 -0.634082,-0.7667969 -1.644189,-0.7667969 -0.914258,0 -1.540967,0.6119629 -0.619336,0.6119629 -0.685693,1.6368164 z" /><path
               id="path280"
               style=""
               d="m 19.599387,0 h -1.231298 v -10.808887 h 1.327148 v 3.8561036 q 0.840527,-1.0543457 2.145557,-1.0543457 0.722558,0 1.364013,0.2949219 0.648829,0.2875488 1.061719,0.8184082 0.420264,0.5234863 0.656201,1.2681641 0.235938,0.7446777 0.235938,1.5925782 0,2.0128418 -0.995361,3.11142582 -0.995362,1.09858401 -2.388868,1.09858401 -1.386133,0 -2.175049,-1.15756839 z m -0.01475,-3.9740724 q 0,1.408252 0.383399,2.034961 0.626709,1.02485356 1.695801,1.02485356 0.870019,0 1.504101,-0.75205076 0.634082,-0.7594239 0.634082,-2.2561524 0,-1.5335938 -0.611963,-2.2635255 -0.60459,-0.7299316 -1.467236,-0.7299316 -0.87002,0 -1.504102,0.7594238 -0.634082,0.7520508 -0.634082,2.1824219 z" /><path
               id="path282"
               style=""
               d="m 26.454315,0 v -7.830176 h 1.194433 v 1.1870606 q 0.457129,-0.8331543 0.840528,-1.098584 0.390771,-0.2654297 0.855273,-0.2654297 0.670948,0 1.364014,0.4276367 l -0.457129,1.2312989 q -0.486621,-0.2875489 -0.973242,-0.2875489 -0.43501,0 -0.781543,0.2654297 -0.346533,0.2580567 -0.493994,0.7225587 -0.221192,0.7078125 -0.221192,1.5483398 V 0 Z" /><path
               id="path284"
               style=""
               d="m 36.206203,0 v -1.1501953 q -0.914258,1.32714843 -2.484717,1.32714843 -0.693066,0 -1.297656,-0.26542969 -0.597217,-0.2654297 -0.892139,-0.66357424 -0.287549,-0.4055176 -0.405518,-0.9879883 -0.0811,-0.3907715 -0.0811,-1.2386719 v -4.851465 h 1.327148 v 4.3427247 q 0,1.0395997 0.0811,1.400879 0.125342,0.5234863 0.530859,0.8257813 0.405518,0.29492183 1.002735,0.29492183 0.597216,0 1.120703,-0.30229493 0.523486,-0.309668 0.737305,-0.8331543 0.221191,-0.5308594 0.221191,-1.5335938 V -7.830176 h 1.327148 V 0 Z" /><path
               id="path286"
               style=""
               d="m 44.277681,-0.96586917 q -0.737305,0.62670901 -1.422998,0.88476565 -0.67832,0.25805665 -1.459863,0.25805665 -1.290284,0 -1.98335,-0.626709 -0.693066,-0.63408203 -0.693066,-1.61469733 0,-0.5750976 0.258056,-1.0469727 0.26543,-0.479248 0.685694,-0.7667969 0.427636,-0.2875488 0.958496,-0.4350097 0.390771,-0.1032227 1.179687,-0.1990723 1.607325,-0.1916992 2.366748,-0.4571289 0.0074,-0.2728028 0.0074,-0.3465332 0,-0.8110352 -0.376025,-1.1428223 -0.50874,-0.4497559 -1.511475,-0.4497559 -0.936377,0 -1.386132,0.3317871 -0.442383,0.3244141 -0.656202,1.1575684 l -1.297656,-0.1769531 q 0.176953,-0.8331543 0.582471,-1.3418946 0.405517,-0.5161133 1.172314,-0.788916 0.766797,-0.2801758 1.776905,-0.2801758 1.002734,0 1.629443,0.2359375 0.626709,0.2359375 0.921631,0.5972168 0.294922,0.3539063 0.412891,0.8995118 0.06636,0.3391601 0.06636,1.2239258 v 1.7695313 q 0,1.8506348 0.0811,2.34462892 Q 45.67856,-0.44975587 45.929244,0 h -1.386133 q -0.206446,-0.41289064 -0.26543,-0.96586917 z M 44.167085,-3.9298341 q -0.722558,0.2949219 -2.167675,0.5013672 -0.818409,0.1179688 -1.157569,0.2654297 -0.33916,0.147461 -0.523486,0.4350098 -0.184326,0.2801758 -0.184326,0.626709 0,0.5308594 0.398144,0.8847656 0.405518,0.35390629 1.179688,0.35390629 0.766797,0 1.364013,-0.33178709 0.597217,-0.3391602 0.877393,-0.9216309 0.213818,-0.4497559 0.213818,-1.3271485 z" /><path
               id="path288"
               style=""
               d="m 47.352716,0 v -7.830176 h 1.194434 v 1.1870606 q 0.457129,-0.8331543 0.840527,-1.098584 0.390772,-0.2654297 0.855274,-0.2654297 0.670947,0 1.364013,0.4276367 l -0.457129,1.2312989 q -0.486621,-0.2875489 -0.973242,-0.2875489 -0.43501,0 -0.781543,0.2654297 -0.346533,0.2580567 -0.493994,0.7225587 -0.221191,0.7078125 -0.221191,1.5483398 V 0 Z" /><path
               id="path290"
               style=""
               d="M 51.913977,3.0155762 51.766516,1.7695313 Q 52.201526,1.8875 52.52594,1.8875 q 0.442383,0 0.707812,-0.1474609 0.26543,-0.1474609 0.43501,-0.4128906 0.125342,-0.1990723 0.405518,-0.98798834 0.03686,-0.1105957 0.117969,-0.32441407 L 51.220911,-7.830176 h 1.430371 l 1.629443,4.534424 q 0.317041,0.8626465 0.567725,1.8137695 0.228564,-0.9142578 0.545605,-1.7842773 l 1.673682,-4.5639162 h 1.327148 L 55.416174,0.13271485 Q 54.936926,1.4229981 54.671497,1.9096192 54.31759,2.5658204 53.860461,2.8681153 q -0.457128,0.309668 -1.09121,0.309668 -0.383399,0 -0.855274,-0.1622071 z" /></g></g><g
           id="g80"><g
             id="text84"
             style="font-variant:normal;font-weight:normal;font-size:15.10000038px;font-family:Arial;-inkscape-font-specification:ArialMT;writing-mode:lr-tb;fill:#000000;fill-opacity:1;fill-rule:nonzero;stroke:none"
             transform="matrix(1,0,0,-1,405.6,274.7)"
             aria-label="March "><path
               id="path293"
               style=""
               d="m 1.1207032,0 v -10.808887 h 2.1529297 l 2.5584473,7.6532229 q 0.3539063,1.0690918 0.5161133,1.5999512 0.1843262,-0.5898438 0.5750977,-1.7326661 l 2.5879395,-7.520508 H 11.435596 V 0 h -1.37876 V -9.0467287 L 6.9159181,0 H 5.6256349 L 2.499463,-9.2015627 V 0 Z" /><path
               id="path295"
               style=""
               d="m 18.788883,-0.96586917 q -0.737305,0.62670901 -1.422998,0.88476565 -0.67832,0.25805665 -1.459863,0.25805665 -1.290284,0 -1.98335,-0.626709 -0.693067,-0.63408203 -0.693067,-1.61469733 0,-0.5750976 0.258057,-1.0469727 0.26543,-0.479248 0.685694,-0.7667969 0.427636,-0.2875488 0.958496,-0.4350097 0.390771,-0.1032227 1.179687,-0.1990723 1.607324,-0.1916992 2.366748,-0.4571289 0.0074,-0.2728028 0.0074,-0.3465332 0,-0.8110352 -0.376025,-1.1428223 -0.50874,-0.4497559 -1.511475,-0.4497559 -0.936377,0 -1.386133,0.3317871 -0.442382,0.3244141 -0.656201,1.1575684 L 13.45817,-5.5961427 q 0.176953,-0.8331543 0.582471,-1.3418946 0.405517,-0.5161133 1.172314,-0.788916 0.766797,-0.2801758 1.776904,-0.2801758 1.002735,0 1.629444,0.2359375 0.626709,0.2359375 0.921631,0.5972168 0.294922,0.3539063 0.41289,0.8995118 0.06636,0.3391601 0.06636,1.2239258 v 1.7695313 q 0,1.8506348 0.0811,2.34462892 Q 20.189762,-0.44975587 20.440446,0 h -1.386133 q -0.206446,-0.41289064 -0.26543,-0.96586917 z M 18.678287,-3.9298341 q -0.722558,0.2949219 -2.167676,0.5013672 -0.818408,0.1179688 -1.157568,0.2654297 -0.33916,0.147461 -0.523486,0.4350098 -0.184326,0.2801758 -0.184326,0.626709 0,0.5308594 0.398144,0.8847656 0.405518,0.35390629 1.179688,0.35390629 0.766796,0 1.364013,-0.33178709 0.597217,-0.3391602 0.877393,-0.9216309 0.213818,-0.4497559 0.213818,-1.3271485 z" /><path
               id="path297"
               style=""
               d="m 21.758215,0 v -7.830176 h 1.194433 v 1.1870606 q 0.457129,-0.8331543 0.840528,-1.098584 0.390771,-0.2654297 0.855273,-0.2654297 0.670947,0 1.364014,0.4276367 l -0.457129,1.2312989 q -0.486621,-0.2875489 -0.973242,-0.2875489 -0.43501,0 -0.781543,0.2654297 -0.346534,0.2580567 -0.493995,0.7225587 -0.221191,0.7078125 -0.221191,1.5483398 V 0 Z" /><path
               id="path299"
               style=""
               d="m 31.487983,-2.8681153 1.30503,0.1695801 q -0.213819,1.3492676 -1.098584,2.11606448 -0.877393,0.75942385 -2.160303,0.75942385 -1.607324,0 -2.58794,-1.04697268 -0.973242,-1.05434575 -0.973242,-3.01557625 0,-1.2681641 0.420264,-2.2192872 0.420264,-0.951123 1.275537,-1.422998 0.862647,-0.4792481 1.872754,-0.4792481 1.275537,0 2.086572,0.6488281 0.811036,0.6414551 1.0396,1.8285157 l -1.290283,0.1990723 q -0.184326,-0.7889161 -0.656201,-1.1870606 -0.464502,-0.3981445 -1.128077,-0.3981445 -1.002734,0 -1.629443,0.7225586 -0.626709,0.7151855 -0.626709,2.2708985 0,1.577832 0.60459,2.2930176 0.60459,0.71518556 1.577832,0.71518556 0.781543,0 1.305029,-0.47924806 0.523487,-0.4792481 0.663574,-1.4746094 z" /><path
               id="path301"
               style=""
               d="m 34.56266,0 v -10.808887 h 1.327149 v 3.8782228 q 0.929004,-1.0764649 2.344629,-1.0764649 0.870019,0 1.511474,0.3465332 0.641455,0.3391602 0.914258,0.94375 0.280176,0.6045899 0.280176,1.7547852 V 0 h -1.327149 v -4.9620607 q 0,-0.9953613 -0.435009,-1.4451172 -0.427637,-0.4571289 -1.216553,-0.4571289 -0.589844,0 -1.11333,0.309668 -0.516113,0.3022949 -0.737305,0.8257812 -0.221191,0.5234864 -0.221191,1.4451173 V 0 Z" /></g></g><g
           id="g86"><g
             id="text90"
             style="font-variant:normal;font-weight:normal;font-size:15.10000038px;font-family:Arial;-inkscape-font-specification:ArialMT;writing-mode:lr-tb;fill:#000000;fill-opacity:1;fill-rule:nonzero;stroke:none"
             transform="matrix(1,0,0,-1,487.8,274.7)"
             aria-label="April"><path
               id="path304"
               style=""
               d="M -0.02211914,0 4.1289064,-10.808887 H 5.6698732 L 10.093701,0 H 8.464258 L 7.203467,-3.2736329 H 2.6837891 L 1.4967286,0 Z M 3.0966798,-4.4385743 H 6.7610842 L 5.633008,-7.4320314 Q 5.1168947,-8.7960451 4.8662111,-9.6734377 4.6597657,-8.6338381 4.2837403,-7.6089846 Z" /><path
               id="path306"
               style=""
               d="M 11.384161,3.0008302 V -7.830176 h 1.20918 v 1.0174805 q 0.427636,-0.5972168 0.965869,-0.8921387 0.538232,-0.3022949 1.305029,-0.3022949 1.002735,0 1.769532,0.5161133 0.766796,0.5161133 1.157568,1.4598633 0.390771,0.936377 0.390771,2.0570801 0,1.2018067 -0.435009,2.1676759 -0.427637,0.95849609 -1.253418,1.47460938 -0.818409,0.50874025 -1.725293,0.50874025 -0.663575,0 -1.194434,-0.28017579 -0.523486,-0.28017579 -0.862647,-0.70781252 V 3.0008302 Z m 1.201807,-6.8716799 q 0,1.5114746 0.611963,2.2340333 0.611963,0.72255856 1.481982,0.72255856 0.884766,0 1.511475,-0.74467776 0.634082,-0.7520508 0.634082,-2.3225098 0,-1.4967286 -0.619336,-2.2414063 -0.611963,-0.7446778 -1.467237,-0.7446778 -0.8479,0 -1.504101,0.7962891 -0.648828,0.788916 -0.648828,2.3003907 z" /><path
               id="path308"
               style=""
               d="m 19.568716,0 v -7.830176 h 1.194433 v 1.1870606 q 0.457129,-0.8331543 0.840528,-1.098584 0.390771,-0.2654297 0.855273,-0.2654297 0.670947,0 1.364014,0.4276367 l -0.457129,1.2312989 q -0.486621,-0.2875489 -0.973242,-0.2875489 -0.43501,0 -0.781543,0.2654297 -0.346533,0.2580567 -0.493994,0.7225587 -0.221192,0.7078125 -0.221192,1.5483398 V 0 Z" /><path
               id="path310"
               style=""
               d="m 24.196334,-9.2826663 v -1.5262207 h 1.327149 v 1.5262207 z m 0,9.2826663 v -7.830176 h 1.327149 V 0 Z" /><path
               id="path312"
               style=""
               d="m 27.647569,0 v -10.808887 h 1.327148 V 0 Z" /></g></g><g
           id="g92"><g
             id="text96"
             style="font-variant:normal;font-weight:normal;font-size:15.10000038px;font-family:Arial;-inkscape-font-specification:ArialMT;writing-mode:lr-tb;fill:#000000;fill-opacity:1;fill-rule:nonzero;stroke:none"
             transform="matrix(1,0,0,-1,171.5,254.9)"
             aria-label="Blue Balls"><path
               id="path315"
               style=""
               d="m 1.1059571,0 v -10.808887 h 4.0551758 q 1.2386719,0 1.9833497,0.331787 0.7520508,0.324414 1.1723145,1.0101076 0.4276367,0.6783203 0.4276367,1.4229981 0,0.6930664 -0.3760254,1.3050293 -0.3760254,0.6119629 -1.1354492,0.9879883 0.9806152,0.2875488 1.5041016,0.9806153 0.5308594,0.6930664 0.5308594,1.6368164 0,0.7594238 -0.3244141,1.415625 Q 8.6264651,-1.0690918 8.15459,-0.71518556 7.682715,-0.36127931 6.9675295,-0.17695313 6.259717,0 5.2274904,0 Z m 1.4303711,-6.26709 h 2.3372559 q 0.9511231,0 1.3640137,-0.1253418 0.5456055,-0.162207 0.8184082,-0.5382324 0.2801758,-0.3760254 0.2801758,-0.9437501 0,-0.5382324 -0.2580566,-0.94375 Q 6.8200685,-9.2310549 6.3408205,-9.3785159 5.8615724,-9.5333499 4.696631,-9.5333499 H 2.5363282 Z m 0,4.9915529 h 2.6911622 q 0.6930664,0 0.9732422,-0.051611 0.4939941,-0.088476 0.8257812,-0.2949219 0.3317872,-0.2064453 0.5456055,-0.5972168 0.2138184,-0.3981445 0.2138184,-0.9142578 0,-0.6045899 -0.309668,-1.0469727 Q 7.1666017,-4.6302736 6.6136232,-4.8072267 6.0680177,-4.9915529 5.0357911,-4.9915529 H 2.5363282 Z" /><path
               id="path317"
               style=""
               d="m 11.354669,0 v -10.808887 h 1.327148 V 0 Z" /><path
               id="path319"
               style=""
               d="m 20.003902,0 v -1.1501953 q -0.914258,1.32714843 -2.484717,1.32714843 -0.693066,0 -1.297656,-0.26542969 -0.597217,-0.2654297 -0.892139,-0.66357424 -0.287549,-0.4055176 -0.405518,-0.9879883 -0.0811,-0.3907715 -0.0811,-1.2386719 v -4.851465 h 1.327148 v 4.3427247 q 0,1.0395997 0.0811,1.400879 0.125342,0.5234863 0.530859,0.8257813 0.405518,0.29492183 1.002735,0.29492183 0.597216,0 1.120703,-0.30229493 0.523486,-0.309668 0.737305,-0.8331543 0.221191,-0.5308594 0.221191,-1.5335938 V -7.830176 h 1.327148 V 0 Z" /><path
               id="path321"
               style=""
               d="m 28.326068,-2.5215821 1.371386,0.1695801 q -0.324414,1.2018067 -1.201806,1.86538089 -0.877393,0.66357424 -2.241407,0.66357424 -1.71792,0 -2.728027,-1.05434573 -1.002735,-1.0617188 -1.002735,-2.971338 0,-1.9759766 1.017481,-3.0671875 1.01748,-1.091211 2.639551,-1.091211 1.570459,0 2.56582,1.0690918 0.995362,1.0690918 0.995362,3.0082032 0,0.1179688 -0.0074,0.3539063 h -5.839454 q 0.07373,1.2902832 0.729932,1.9759766 0.656201,0.68569336 1.636816,0.68569336 0.729932,0 1.246045,-0.38339846 0.516114,-0.3833984 0.818409,-1.2239258 z m -4.357471,-2.1455567 h 4.372217 q -0.08848,-0.9879883 -0.501368,-1.4819824 -0.634082,-0.7667969 -1.644189,-0.7667969 -0.914258,0 -1.540967,0.6119629 -0.619336,0.6119629 -0.685693,1.6368164 z" /><path
               id="path323"
               style=""
               d="m 35.760456,0 v -10.808887 h 4.055176 q 1.238672,0 1.98335,0.331787 0.75205,0.324414 1.172314,1.0101076 0.427637,0.6783203 0.427637,1.4229981 0,0.6930664 -0.376026,1.3050293 -0.376025,0.6119629 -1.135449,0.9879883 0.980615,0.2875488 1.504102,0.9806153 0.530859,0.6930664 0.530859,1.6368164 0,0.7594238 -0.324414,1.415625 -0.317041,0.6488282 -0.788916,1.00273444 -0.471875,0.35390625 -1.18706,0.53823243 Q 40.914216,0 39.881989,0 Z m 1.430371,-6.26709 h 2.337256 q 0.951123,0 1.364014,-0.1253418 0.545605,-0.162207 0.818408,-0.5382324 0.280176,-0.3760254 0.280176,-0.9437501 0,-0.5382324 -0.258057,-0.94375 -0.258056,-0.4128906 -0.737304,-0.5603516 -0.479249,-0.154834 -1.64419,-0.154834 h -2.160303 z m 0,4.9915529 h 2.691162 q 0.693067,0 0.973243,-0.051611 0.493994,-0.088476 0.825781,-0.2949219 0.331787,-0.2064453 0.545605,-0.5972168 0.213819,-0.3981445 0.213819,-0.9142578 0,-0.6045899 -0.309668,-1.0469727 -0.309668,-0.4497559 -0.862647,-0.626709 -0.545605,-0.1843262 -1.577832,-0.1843262 h -2.499463 z" /><path
               id="path325"
               style=""
               d="m 51.238783,-0.96586917 q -0.737305,0.62670901 -1.422998,0.88476565 -0.678321,0.25805665 -1.459864,0.25805665 -1.290283,0 -1.983349,-0.626709 -0.693067,-0.63408203 -0.693067,-1.61469733 0,-0.5750976 0.258057,-1.0469727 0.26543,-0.479248 0.685693,-0.7667969 0.427637,-0.2875488 0.958496,-0.4350097 0.390772,-0.1032227 1.179688,-0.1990723 1.607324,-0.1916992 2.366748,-0.4571289 0.0074,-0.2728028 0.0074,-0.3465332 0,-0.8110352 -0.376025,-1.1428223 -0.508741,-0.4497559 -1.511475,-0.4497559 -0.936377,0 -1.386133,0.3317871 -0.442383,0.3244141 -0.656201,1.1575684 L 45.90807,-5.5961427 q 0.176953,-0.8331543 0.58247,-1.3418946 0.405518,-0.5161133 1.172315,-0.788916 0.766797,-0.2801758 1.776904,-0.2801758 1.002735,0 1.629444,0.2359375 0.626709,0.2359375 0.92163,0.5972168 0.294922,0.3539063 0.412891,0.8995118 0.06636,0.3391601 0.06636,1.2239258 v 1.7695313 q 0,1.8506348 0.0811,2.34462892 Q 52.639662,-0.44975587 52.890345,0 H 51.504212 Q 51.297767,-0.41289064 51.238783,-0.96586917 Z M 51.128187,-3.9298341 q -0.722559,0.2949219 -2.167676,0.5013672 -0.818408,0.1179688 -1.157568,0.2654297 -0.33916,0.147461 -0.523487,0.4350098 -0.184326,0.2801758 -0.184326,0.626709 0,0.5308594 0.398145,0.8847656 0.405517,0.35390629 1.179687,0.35390629 0.766797,0 1.364014,-0.33178709 0.597217,-0.3391602 0.877393,-0.9216309 0.213818,-0.4497559 0.213818,-1.3271485 z" /><path
               id="path327"
               style=""
               d="m 54.19337,0 v -10.808887 h 1.327149 V 0 Z" /><path
               id="path329"
               style=""
               d="m 57.575771,0 v -10.808887 h 1.327148 V 0 Z" /><path
               id="path331"
               style=""
               d="m 60.562502,-2.3372559 1.312402,-0.2064453 q 0.110596,0.788916 0.611963,1.2091797 0.50874,0.42026366 1.415625,0.42026366 0.914258,0 1.356641,-0.36865236 0.442382,-0.3760254 0.442382,-0.8773926 0,-0.4497559 -0.390771,-0.7078125 -0.272803,-0.1769531 -1.356641,-0.4497559 -1.459863,-0.3686523 -2.027588,-0.634082 -0.560351,-0.2728028 -0.855273,-0.7446778 -0.287549,-0.479248 -0.287549,-1.0543457 0,-0.5234863 0.235937,-0.9658692 0.243311,-0.4497558 0.656202,-0.7446777 0.309668,-0.2285645 0.840527,-0.3833985 0.538232,-0.162207 1.150195,-0.162207 0.921631,0 1.614698,0.2654297 0.700439,0.2654297 1.032226,0.7225586 0.331787,0.4497559 0.457129,1.2091797 l -1.297656,0.1769531 q -0.08848,-0.6045898 -0.516113,-0.94375 -0.420264,-0.3391601 -1.194434,-0.3391601 -0.914258,0 -1.305029,0.3022949 -0.390772,0.3022949 -0.390772,0.7078125 0,0.2580567 0.162207,0.464502 0.162207,0.2138183 0.50874,0.3539062 0.199073,0.07373 1.172315,0.3391602 1.408252,0.3760254 1.96123,0.6193359 0.560352,0.2359376 0.877393,0.6930665 0.317041,0.4571289 0.317041,1.1354492 0,0.6635743 -0.390771,1.253418 -0.383399,0.58247074 -1.113331,0.90688481 -0.729931,0.31704102 -1.651562,0.31704102 -1.526221,0 -2.329883,-0.63408205 -0.796289,-0.63408208 -1.01748,-1.88012698 z" /></g></g><g
           id="g98"><g
             id="text102"
             style="font-variant:normal;font-weight:normal;font-size:15.10000038px;font-family:Arial;-inkscape-font-specification:ArialMT;writing-mode:lr-tb;fill:#000000;fill-opacity:1;fill-rule:nonzero;stroke:none"
             transform="matrix(1,0,0,-1,285.1,254.9)"
             aria-label="20.4"><path
               id="path334"
               style=""
               d="M 7.6016115,-1.2755371 V 0 H 0.45712892 Q 0.44238282,-0.47924806 0.61196291,-0.92163088 0.88476565,-1.6515625 1.4819825,-2.3593751 q 0.6045898,-0.7078125 1.7400391,-1.6368164 1.7621582,-1.4451172 2.3814942,-2.2856446 0.6193359,-0.8479004 0.6193359,-1.5999512 0,-0.788916 -0.5677246,-1.3271485 -0.5603516,-0.5456055 -1.4672364,-0.5456055 -0.9584961,0 -1.5335938,0.5750977 -0.5750976,0.5750977 -0.5824707,1.5925782 L 0.70781252,-7.7269533 q 0.14008789,-1.5262208 1.05434568,-2.3225097 0.9142579,-0.803662 2.4552247,-0.803662 1.5557129,0 2.4625977,0.8626462 0.9068848,0.8626465 0.9068848,2.1381837 0,0.6488281 -0.2654297,1.2755371 Q 7.056006,-5.950049 6.4366701,-5.2569826 5.8247072,-4.5639161 4.394336,-3.3547364 3.1999024,-2.352002 2.8607423,-1.9907227 2.5215821,-1.6368164 2.3003907,-1.2755371 Z" /><path
               id="path336"
               style=""
               d="m 8.7203093,-5.330713 q 0,-1.9169923 0.3907715,-3.0819337 0.3981445,-1.1723145 1.1723142,-1.8063963 0.781543,-0.634082 1.961231,-0.634082 0.870019,0 1.526221,0.353906 0.656201,0.346533 1.083837,1.0101074 0.427637,0.6562012 0.670948,1.6073243 0.24331,0.94375 0.24331,2.5510743 0,1.9022461 -0.390771,3.0745606 -0.390772,1.1649414 -1.172315,1.80639653 -0.77417,0.63408205 -1.96123,0.63408205 -1.563086,0 -2.4552249,-1.12070316 Q 8.7203093,-2.2856446 8.7203093,-5.330713 Z m 1.3640137,0 q 0,2.66167 0.619336,3.5464356 0.626709,0.87739261 1.540967,0.87739261 0.914258,0 1.533594,-0.88476561 0.626709,-0.8847657 0.626709,-3.5390626 0,-2.6690431 -0.626709,-3.5464357 -0.619336,-0.8773926 -1.54834,-0.8773926 -0.914258,0 -1.459864,0.77417 -0.685693,0.9879883 -0.685693,3.6496583 z" /><path
               id="path338"
               style=""
               d="m 17.558587,0 v -1.5114746 h 1.511475 V 0 Z" /><path
               id="path340"
               style=""
               d="m 25.658556,0 v -2.5879395 h -4.689257 v -1.2165528 l 4.932568,-7.0043947 h 1.083838 v 7.0043947 h 1.459863 v 1.2165528 H 26.985705 V 0 Z m 0,-3.8044923 v -4.8735841 l -3.384228,4.8735841 z" /></g></g><g
           id="g104"><g
             id="text108"
             style="font-variant:normal;font-weight:normal;font-size:15.10000038px;font-family:Arial;-inkscape-font-specification:ArialMT;writing-mode:lr-tb;fill:#000000;fill-opacity:1;fill-rule:nonzero;stroke:none"
             transform="matrix(1,0,0,-1,359.2,254.9)"
             aria-label="27.4"><path
               id="path343"
               style=""
               d="M 7.6016115,-1.2755371 V 0 H 0.45712892 Q 0.44238282,-0.47924806 0.61196291,-0.92163088 0.88476565,-1.6515625 1.4819825,-2.3593751 q 0.6045898,-0.7078125 1.7400391,-1.6368164 1.7621582,-1.4451172 2.3814942,-2.2856446 0.6193359,-0.8479004 0.6193359,-1.5999512 0,-0.788916 -0.5677246,-1.3271485 -0.5603516,-0.5456055 -1.4672364,-0.5456055 -0.9584961,0 -1.5335938,0.5750977 -0.5750976,0.5750977 -0.5824707,1.5925782 L 0.70781252,-7.7269533 q 0.14008789,-1.5262208 1.05434568,-2.3225097 0.9142579,-0.803662 2.4552247,-0.803662 1.5557129,0 2.4625977,0.8626462 0.9068848,0.8626465 0.9068848,2.1381837 0,0.6488281 -0.2654297,1.2755371 Q 7.056006,-5.950049 6.4366701,-5.2569826 5.8247072,-4.5639161 4.394336,-3.3547364 3.1999024,-2.352002 2.8607423,-1.9907227 2.5215821,-1.6368164 2.3003907,-1.2755371 Z" /><path
               id="path345"
               style=""
               d="m 8.9144854,-9.393262 v -1.275537 h 6.9970216 v 1.0322265 Q 14.87928,-8.5379885 13.8618,-6.7168459 12.851693,-4.8957032 12.298714,-2.971338 11.900569,-1.6146973 11.789974,0 H 10.42596 q 0.02212,-1.2755371 0.501367,-3.0819337 0.479248,-1.8063965 1.371387,-3.4800782 0.899512,-1.6810547 1.909619,-2.8312501 z" /><path
               id="path347"
               style=""
               d="m 17.573686,0 v -1.5114746 h 1.511475 V 0 Z" /><path
               id="path349"
               style=""
               d="M 25.764258,0 V -2.5879395 H 21.075 v -1.2165528 l 4.932568,-7.0043947 h 1.083838 v 7.0043947 h 1.459864 v 1.2165528 H 27.091406 V 0 Z m 0,-3.8044923 v -4.8735841 l -3.384229,4.8735841 z" /></g></g><g
           id="g110"><g
             id="text114"
             style="font-variant:normal;font-weight:normal;font-size:15.10000038px;font-family:Arial;-inkscape-font-specification:ArialMT;writing-mode:lr-tb;fill:#000000;fill-opacity:1;fill-rule:nonzero;stroke:none"
             transform="matrix(1,0,0,-1,446.1,254.9)"
             aria-label="90"><path
               id="path352"
               style=""
               d="M 0.82578127,-2.499463 2.1013184,-2.6174317 q 0.162207,0.8995117 0.619336,1.3050293 0.4571289,0.40551761 1.1723144,0.40551761 0.611963,0 1.0690919,-0.28017581 0.4645019,-0.2801758 0.7594238,-0.7446777 0.2949219,-0.471875 0.4939942,-1.2681641 0.1990722,-0.7962891 0.1990722,-1.6220704 0,-0.088476 -0.00737,-0.2654297 -0.3981445,0.6340821 -1.091211,1.0322266 -0.6856933,0.3907715 -1.4893555,0.3907715 -1.3418945,0 -2.2708985,-0.9732422 Q 0.626709,-5.6108888 0.626709,-7.203467 q 0,-1.6441895 0.9658692,-2.6469239 0.9732422,-1.0027341 2.4331055,-1.0027341 1.0543457,0 1.9243653,0.567724 0.8773926,0.567725 1.3271484,1.6220707 0.457129,1.0469727 0.457129,3.0376954 0,2.0718262 -0.4497559,3.3031251 -0.4497559,1.2239258 -1.3418946,1.86538088 -0.8847656,0.6414551 -2.0791992,0.6414551 -1.2681641,0 -2.0718263,-0.70043947 Q 0.98798831,-1.2239258 0.82578127,-2.499463 Z M 6.259717,-7.2698244 q 0,-1.1428223 -0.611963,-1.8137696 -0.6045898,-0.6709473 -1.4598633,-0.6709473 -0.8847656,0 -1.5409668,0.7225586 -0.6562012,0.7225587 -0.6562012,1.872754 0,1.0322266 0.619336,1.6810547 0.626709,0.6414551 1.5409668,0.6414551 0.9216309,0 1.5114746,-0.6414551 0.5972169,-0.6488281 0.5972169,-1.7916504 z" /><path
               id="path354"
               style=""
               d="m 8.8260088,-5.330713 q 0,-1.9169923 0.3907715,-3.0819337 0.3981445,-1.1723145 1.1723147,-1.8063963 0.781543,-0.634082 1.96123,-0.634082 0.87002,0 1.526221,0.353906 0.656201,0.346533 1.083838,1.0101074 0.427637,0.6562012 0.670947,1.6073243 0.243311,0.94375 0.243311,2.5510743 0,1.9022461 -0.390772,3.0745606 -0.390771,1.1649414 -1.172314,1.80639653 -0.77417,0.63408205 -1.961231,0.63408205 -1.563086,0 -2.4552244,-1.12070316 Q 8.8260088,-2.2856446 8.8260088,-5.330713 Z m 1.3640142,0 q 0,2.66167 0.619335,3.5464356 0.626709,0.87739261 1.540967,0.87739261 0.914258,0 1.533594,-0.88476561 0.626709,-0.8847657 0.626709,-3.5390626 0,-2.6690431 -0.626709,-3.5464357 -0.619336,-0.8773926 -1.54834,-0.8773926 -0.914258,0 -1.459863,0.77417 -0.685693,0.9879883 -0.685693,3.6496583 z" /></g></g><g
           id="g116"><g
             id="text120"
             style="font-variant:normal;font-weight:normal;font-size:15.10000038px;font-family:Arial;-inkscape-font-specification:ArialMT;writing-mode:lr-tb;fill:#000000;fill-opacity:1;fill-rule:nonzero;stroke:none"
             transform="matrix(1,0,0,-1,507.6,254.9)"
             aria-label="20.4"><path
               id="path357"
               style=""
               d="M 7.6016115,-1.2755371 V 0 H 0.45712892 Q 0.44238282,-0.47924806 0.61196291,-0.92163088 0.88476565,-1.6515625 1.4819825,-2.3593751 q 0.6045898,-0.7078125 1.7400391,-1.6368164 1.7621582,-1.4451172 2.3814942,-2.2856446 0.6193359,-0.8479004 0.6193359,-1.5999512 0,-0.788916 -0.5677246,-1.3271485 -0.5603516,-0.5456055 -1.4672364,-0.5456055 -0.9584961,0 -1.5335938,0.5750977 -0.5750976,0.5750977 -0.5824707,1.5925782 L 0.70781252,-7.7269533 q 0.14008789,-1.5262208 1.05434568,-2.3225097 0.9142579,-0.803662 2.4552247,-0.803662 1.5557129,0 2.4625977,0.8626462 0.9068848,0.8626465 0.9068848,2.1381837 0,0.6488281 -0.2654297,1.2755371 Q 7.056006,-5.950049 6.4366701,-5.2569826 5.8247072,-4.5639161 4.394336,-3.3547364 3.1999024,-2.352002 2.8607423,-1.9907227 2.5215821,-1.6368164 2.3003907,-1.2755371 Z" /><path
               id="path359"
               style=""
               d="m 8.7203093,-5.330713 q 0,-1.9169923 0.3907715,-3.0819337 0.3981445,-1.1723145 1.1723142,-1.8063963 0.781543,-0.634082 1.961231,-0.634082 0.870019,0 1.526221,0.353906 0.656201,0.346533 1.083837,1.0101074 0.427637,0.6562012 0.670948,1.6073243 0.24331,0.94375 0.24331,2.5510743 0,1.9022461 -0.390771,3.0745606 -0.390772,1.1649414 -1.172315,1.80639653 -0.77417,0.63408205 -1.96123,0.63408205 -1.563086,0 -2.4552249,-1.12070316 Q 8.7203093,-2.2856446 8.7203093,-5.330713 Z m 1.3640137,0 q 0,2.66167 0.619336,3.5464356 0.626709,0.87739261 1.540967,0.87739261 0.914258,0 1.533594,-0.88476561 0.626709,-0.8847657 0.626709,-3.5390626 0,-2.6690431 -0.626709,-3.5464357 -0.619336,-0.8773926 -1.54834,-0.8773926 -0.914258,0 -1.459864,0.77417 -0.685693,0.9879883 -0.685693,3.6496583 z" /><path
               id="path361"
               style=""
               d="m 17.558587,0 v -1.5114746 h 1.511475 V 0 Z" /><path
               id="path363"
               style=""
               d="m 25.658556,0 v -2.5879395 h -4.689257 v -1.2165528 l 4.932568,-7.0043947 h 1.083838 v 7.0043947 h 1.459863 v 1.2165528 H 26.985705 V 0 Z m 0,-3.8044923 v -4.8735841 l -3.384228,4.8735841 z" /></g></g><g
           id="g122"><g
             id="text126"
             style="font-variant:normal;font-weight:normal;font-size:15.10000038px;font-family:Arial;-inkscape-font-specification:ArialMT;writing-mode:lr-tb;fill:#000000;fill-opacity:1;fill-rule:nonzero;stroke:none"
             transform="matrix(1,0,0,-1,171.5,235.2)"
             aria-label="Red Balls"><path
               id="path366"
               style=""
               d="m 1.1870606,0 v -10.808887 h 4.7924806 q 1.4451172,0 2.197168,0.294922 0.7520508,0.287549 1.2018067,1.0248534 0.4497558,0.7373047 0.4497558,1.6294434 0,1.1501954 -0.7446777,1.9391114 -0.7446778,0.788916 -2.3003907,1.0027344 0.5677246,0.2728028 0.8626465,0.5382324 0.626709,0.5750977 1.1870606,1.4377442 L 10.713037,0 H 8.9140139 L 7.4836428,-2.2487794 Q 6.8569338,-3.2220216 6.4514162,-3.7381349 6.0458986,-4.2542482 5.7214845,-4.4606935 5.4044435,-4.6671388 5.0726564,-4.7482423 4.8293458,-4.7998536 4.2763673,-4.7998536 H 2.6174317 V 0 Z m 1.4303711,-6.0385255 h 3.0745606 q 0.9806153,0 1.5335938,-0.1990723 0.5529785,-0.2064453 0.8405274,-0.6488282 0.2875488,-0.4497558 0.2875488,-0.9732422 0,-0.7667969 -0.5603516,-1.260791 Q 7.2403322,-9.6144534 6.0385255,-9.6144534 H 2.6174317 Z" /><path
               id="path368"
               style=""
               d="m 16.759467,-2.5215821 1.371386,0.1695801 q -0.324414,1.2018067 -1.201806,1.86538089 -0.877393,0.66357424 -2.241407,0.66357424 -1.717919,0 -2.728027,-1.05434573 -1.002734,-1.0617188 -1.002734,-2.971338 0,-1.9759766 1.01748,-3.0671875 1.017481,-1.091211 2.639551,-1.091211 1.570459,0 2.56582,1.0690918 0.995362,1.0690918 0.995362,3.0082032 0,0.1179688 -0.0074,0.3539063 h -5.839454 q 0.07373,1.2902832 0.729932,1.9759766 0.656201,0.68569336 1.636817,0.68569336 0.729931,0 1.246044,-0.38339846 0.516114,-0.3833984 0.818409,-1.2239258 z m -4.357471,-2.1455567 h 4.372217 q -0.08848,-0.9879883 -0.501367,-1.4819824 -0.634082,-0.7667969 -1.64419,-0.7667969 -0.914258,0 -1.540967,0.6119629 -0.619336,0.6119629 -0.685693,1.6368164 z" /><path
               id="path370"
               style=""
               d="m 24.57289,0 v -0.98798831 q -0.744678,1.16494144 -2.189795,1.16494144 -0.936377,0 -1.725293,-0.51611329 -0.781543,-0.5161133 -1.216553,-1.43774414 -0.427636,-0.929004 -0.427636,-2.1308106 0,-1.1723145 0.390771,-2.1234376 0.390772,-0.9584961 1.172315,-1.4672364 0.781543,-0.5087402 1.747412,-0.5087402 0.707812,0 1.260791,0.3022949 0.552978,0.2949219 0.899512,0.77417 v -3.8782228 h 1.319775 V 0 Z m -4.195264,-3.9077149 q 0,1.5041016 0.634083,2.2487793 0.634082,0.74467776 1.496728,0.74467776 0.87002,0 1.474609,-0.70781256 0.611963,-0.7151855 0.611963,-2.1750488 0,-1.6073243 -0.619336,-2.3593751 -0.619336,-0.7520508 -1.52622,-0.7520508 -0.884766,0 -1.481983,0.7225586 -0.589844,0.7225586 -0.589844,2.2782716 z" /><path
               id="path372"
               style=""
               d="m 32.378058,0 v -10.808887 h 4.055175 q 1.238672,0 1.98335,0.331787 0.752051,0.324414 1.172315,1.0101076 0.427636,0.6783203 0.427636,1.4229981 0,0.6930664 -0.376025,1.3050293 -0.376026,0.6119629 -1.135449,0.9879883 0.980615,0.2875488 1.504101,0.9806153 0.53086,0.6930664 0.53086,1.6368164 0,0.7594238 -0.324414,1.415625 -0.317041,0.6488282 -0.788917,1.00273444 -0.471875,0.35390625 -1.18706,0.53823243 Q 37.531817,0 36.499591,0 Z m 1.430371,-6.26709 h 2.337256 q 0.951123,0 1.364013,-0.1253418 0.545606,-0.162207 0.818408,-0.5382324 0.280176,-0.3760254 0.280176,-0.9437501 0,-0.5382324 -0.258056,-0.94375 -0.258057,-0.4128906 -0.737305,-0.5603516 -0.479248,-0.154834 -1.64419,-0.154834 h -2.160302 z m 0,4.9915529 h 2.691162 q 0.693066,0 0.973242,-0.051611 0.493994,-0.088476 0.825781,-0.2949219 0.331787,-0.2064453 0.545606,-0.5972168 0.213818,-0.3981445 0.213818,-0.9142578 0,-0.6045899 -0.309668,-1.0469727 -0.309668,-0.4497559 -0.862646,-0.626709 -0.545606,-0.1843262 -1.577832,-0.1843262 h -2.499463 z" /><path
               id="path374"
               style=""
               d="m 47.765783,-0.96586917 q -0.737305,0.62670901 -1.422998,0.88476565 -0.67832,0.25805665 -1.459863,0.25805665 -1.290284,0 -1.98335,-0.626709 -0.693066,-0.63408203 -0.693066,-1.61469733 0,-0.5750976 0.258056,-1.0469727 0.26543,-0.479248 0.685694,-0.7667969 0.427636,-0.2875488 0.958496,-0.4350097 0.390771,-0.1032227 1.179687,-0.1990723 1.607325,-0.1916992 2.366748,-0.4571289 0.0074,-0.2728028 0.0074,-0.3465332 0,-0.8110352 -0.376025,-1.1428223 -0.50874,-0.4497559 -1.511475,-0.4497559 -0.936377,0 -1.386132,0.3317871 -0.442383,0.3244141 -0.656202,1.1575684 L 42.43507,-5.5961427 q 0.176953,-0.8331543 0.582471,-1.3418946 0.405517,-0.5161133 1.172314,-0.788916 0.766797,-0.2801758 1.776905,-0.2801758 1.002734,0 1.629443,0.2359375 0.626709,0.2359375 0.921631,0.5972168 0.294922,0.3539063 0.412891,0.8995118 0.06636,0.3391601 0.06636,1.2239258 v 1.7695313 q 0,1.8506348 0.0811,2.34462892 Q 49.166662,-0.44975587 49.417346,0 h -1.386133 q -0.206446,-0.41289064 -0.26543,-0.96586917 z M 47.655187,-3.9298341 q -0.722558,0.2949219 -2.167675,0.5013672 -0.818409,0.1179688 -1.157569,0.2654297 -0.33916,0.147461 -0.523486,0.4350098 -0.184326,0.2801758 -0.184326,0.626709 0,0.5308594 0.398144,0.8847656 0.405518,0.35390629 1.179688,0.35390629 0.766797,0 1.364013,-0.33178709 0.597217,-0.3391602 0.877393,-0.9216309 0.213818,-0.4497559 0.213818,-1.3271485 z" /><path
               id="path376"
               style=""
               d="m 50.720371,0 v -10.808887 h 1.327148 V 0 Z" /><path
               id="path378"
               style=""
               d="m 54.208469,0 v -10.808887 h 1.327148 V 0 Z" /><path
               id="path380"
               style=""
               d="m 57.089502,-2.3372559 1.312402,-0.2064453 q 0.110596,0.788916 0.611963,1.2091797 0.50874,0.42026366 1.415625,0.42026366 0.914258,0 1.356641,-0.36865236 0.442383,-0.3760254 0.442383,-0.8773926 0,-0.4497559 -0.390772,-0.7078125 -0.272802,-0.1769531 -1.35664,-0.4497559 -1.459864,-0.3686523 -2.027588,-0.634082 -0.560352,-0.2728028 -0.855274,-0.7446778 -0.287549,-0.479248 -0.287549,-1.0543457 0,-0.5234863 0.235938,-0.9658692 0.24331,-0.4497558 0.656201,-0.7446777 0.309668,-0.2285645 0.840527,-0.3833985 0.538233,-0.162207 1.150196,-0.162207 0.921631,0 1.614697,0.2654297 0.70044,0.2654297 1.032227,0.7225586 0.331787,0.4497559 0.457129,1.2091797 l -1.297657,0.1769531 q -0.08848,-0.6045898 -0.516113,-0.94375 -0.420264,-0.3391601 -1.194434,-0.3391601 -0.914257,0 -1.305029,0.3022949 -0.390771,0.3022949 -0.390771,0.7078125 0,0.2580567 0.162207,0.464502 0.162207,0.2138183 0.50874,0.3539062 0.199072,0.07373 1.172314,0.3391602 1.408252,0.3760254 1.961231,0.6193359 0.560351,0.2359376 0.877392,0.6930665 0.317041,0.4571289 0.317041,1.1354492 0,0.6635743 -0.390771,1.253418 -0.383398,0.58247074 -1.11333,0.90688481 -0.729932,0.31704102 -1.651563,0.31704102 -1.52622,0 -2.329883,-0.63408205 -0.796289,-0.63408208 -1.01748,-1.88012698 z" /></g></g><g
           id="g128"><g
             id="text132"
             style="font-variant:normal;font-weight:normal;font-size:15.10000038px;font-family:Arial;-inkscape-font-specification:ArialMT;writing-mode:lr-tb;fill:#000000;fill-opacity:1;fill-rule:nonzero;stroke:none"
             transform="matrix(1,0,0,-1,285.1,235.2)"
             aria-label="30.6"><path
               id="path383"
               style=""
               d="M 0.63408205,-2.8533692 1.9612305,-3.0303223 q 0.2285645,1.1280762 0.77417,1.6294434 0.5529785,0.49399411 1.3418945,0.49399411 0.936377,0 1.5778321,-0.64882811 0.6488281,-0.6488282 0.6488281,-1.6073243 0,-0.9142578 -0.5972168,-1.5041016 -0.5972168,-0.5972168 -1.5188477,-0.5972168 -0.3760254,0 -0.9363769,0.1474609 l 0.1474609,-1.1649414 q 0.1327148,0.014746 0.2138184,0.014746 0.8479004,0 1.5262207,-0.4423828 0.6783203,-0.4423828 0.6783203,-1.3640137 0,-0.7299317 -0.4939941,-1.2091798 -0.4939942,-0.479248 -1.2755372,-0.479248 -0.7741699,0 -1.2902832,0.4866211 -0.5161133,0.4866211 -0.6635742,1.4598633 L 0.76679689,-8.0513674 Q 1.0101074,-9.3858889 1.872754,-10.115821 q 0.8626465,-0.737304 2.1455566,-0.737304 0.8847657,0 1.6294434,0.383398 0.7446778,0.376026 1.1354493,1.0322268 0.3981445,0.6562012 0.3981445,1.3935059 0,0.7004394 -0.3760254,1.2755371 -0.3760254,0.5750977 -1.1133301,0.9142578 0.9584961,0.2211914 1.4893555,0.9216309 0.5308594,0.6930664 0.5308594,1.7400391 0,1.4156251 -1.0322266,2.40361336 -1.0322266,0.98061526 -2.6100586,0.98061526 -1.4229981,0 -2.3667481,-0.84790041 Q 0.76679689,-1.5041016 0.63408205,-2.8533692 Z" /><path
               id="path385"
               style=""
               d="m 8.7203093,-5.330713 q 0,-1.9169923 0.3907715,-3.0819337 0.3981445,-1.1723145 1.1723142,-1.8063963 0.781543,-0.634082 1.961231,-0.634082 0.870019,0 1.526221,0.353906 0.656201,0.346533 1.083837,1.0101074 0.427637,0.6562012 0.670948,1.6073243 0.24331,0.94375 0.24331,2.5510743 0,1.9022461 -0.390771,3.0745606 -0.390772,1.1649414 -1.172315,1.80639653 -0.77417,0.63408205 -1.96123,0.63408205 -1.563086,0 -2.4552249,-1.12070316 Q 8.7203093,-2.2856446 8.7203093,-5.330713 Z m 1.3640137,0 q 0,2.66167 0.619336,3.5464356 0.626709,0.87739261 1.540967,0.87739261 0.914258,0 1.533594,-0.88476561 0.626709,-0.8847657 0.626709,-3.5390626 0,-2.6690431 -0.626709,-3.5464357 -0.619336,-0.8773926 -1.54834,-0.8773926 -0.914258,0 -1.459864,0.77417 -0.685693,0.9879883 -0.685693,3.6496583 z" /><path
               id="path387"
               style=""
               d="m 17.558587,0 v -1.5114746 h 1.511475 V 0 Z" /><path
               id="path389"
               style=""
               d="m 28.290734,-8.1619631 -1.319775,0.1032227 q -0.176953,-0.781543 -0.501367,-1.1354493 -0.538233,-0.5677246 -1.327149,-0.5677246 -0.634082,0 -1.11333,0.3539062 -0.626709,0.457129 -0.987988,1.3345216 -0.36128,0.8773926 -0.376026,2.4994629 0.479248,-0.7299316 1.172315,-1.0838379 0.693066,-0.3539063 1.45249,-0.3539063 1.327149,0 2.256153,0.9806153 0.936377,0.9732422 0.936377,2.5215821 0,1.0174805 -0.442383,1.8948731 -0.43501,0.87001955 -1.201807,1.33452151 -0.766797,0.46450197 -1.740039,0.46450197 -1.658936,0 -2.705908,-1.21655278 -1.046973,-1.2239258 -1.046973,-4.0256837 0,-3.133545 1.157568,-4.5565431 1.010108,-1.2386716 2.720655,-1.2386716 1.275537,0 2.086572,0.715185 0.818408,0.7151859 0.980615,1.9759769 z m -5.419189,4.6597657 q 0,0.6856934 0.287549,1.3124024 0.294921,0.626709 0.818408,0.9584961 0.523486,0.32441411 1.098584,0.32441411 0.840527,0 1.445117,-0.67832031 0.60459,-0.6783203 0.60459,-1.8432618 0,-1.1207031 -0.597217,-1.7621582 -0.597217,-0.6488282 -1.504102,-0.6488282 -0.899511,0 -1.52622,0.6488282 -0.626709,0.6414551 -0.626709,1.6884277 z" /></g></g><g
           id="g134"><g
             id="text138"
             style="font-variant:normal;font-weight:normal;font-size:15.10000038px;font-family:Arial;-inkscape-font-specification:ArialMT;writing-mode:lr-tb;fill:#000000;fill-opacity:1;fill-rule:nonzero;stroke:none"
             transform="matrix(1,0,0,-1,359.2,235.2)"
             aria-label="38.6"><path
               id="path392"
               style=""
               d="M 0.63408205,-2.8533692 1.9612305,-3.0303223 q 0.2285645,1.1280762 0.77417,1.6294434 0.5529785,0.49399411 1.3418945,0.49399411 0.936377,0 1.5778321,-0.64882811 0.6488281,-0.6488282 0.6488281,-1.6073243 0,-0.9142578 -0.5972168,-1.5041016 -0.5972168,-0.5972168 -1.5188477,-0.5972168 -0.3760254,0 -0.9363769,0.1474609 l 0.1474609,-1.1649414 q 0.1327148,0.014746 0.2138184,0.014746 0.8479004,0 1.5262207,-0.4423828 0.6783203,-0.4423828 0.6783203,-1.3640137 0,-0.7299317 -0.4939941,-1.2091798 -0.4939942,-0.479248 -1.2755372,-0.479248 -0.7741699,0 -1.2902832,0.4866211 -0.5161133,0.4866211 -0.6635742,1.4598633 L 0.76679689,-8.0513674 Q 1.0101074,-9.3858889 1.872754,-10.115821 q 0.8626465,-0.737304 2.1455566,-0.737304 0.8847657,0 1.6294434,0.383398 0.7446778,0.376026 1.1354493,1.0322268 0.3981445,0.6562012 0.3981445,1.3935059 0,0.7004394 -0.3760254,1.2755371 -0.3760254,0.5750977 -1.1133301,0.9142578 0.9584961,0.2211914 1.4893555,0.9216309 0.5308594,0.6930664 0.5308594,1.7400391 0,1.4156251 -1.0322266,2.40361336 -1.0322266,0.98061526 -2.6100586,0.98061526 -1.4229981,0 -2.3667481,-0.84790041 Q 0.76679689,-1.5041016 0.63408205,-2.8533692 Z" /><path
               id="path394"
               style=""
               d="M 10.868343,-5.8615724 Q 10.042562,-6.1638673 9.644417,-6.7242189 9.2462725,-7.2845705 9.2462725,-8.0661135 q 0,-1.1796875 0.8479005,-1.9833495 0.8479,-0.803662 2.256152,-0.803662 1.415625,0 2.278272,0.825781 0.862646,0.8184082 0.862646,1.9980958 0,0.7520508 -0.398144,1.3124023 -0.390772,0.5529786 -1.194434,0.8552735 0.995362,0.3244141 1.511475,1.0469727 0.523486,0.7225586 0.523486,1.725293 0,1.3861328 -0.980615,2.32988285 -0.980615,0.94375003 -2.580567,0.94375003 -1.599951,0 -2.580566,-0.94375003 Q 8.8112627,-1.7105469 8.8112627,-3.126172 q 0,-1.0543457 0.5308594,-1.7621582 0.5382324,-0.7151856 1.5262209,-0.9732422 z m -0.26543,-2.2487794 q 0,0.7667969 0.493994,1.253418 0.493994,0.4866211 1.28291,0.4866211 0.766797,0 1.253418,-0.479248 0.493995,-0.4866211 0.493995,-1.1870606 0,-0.7299317 -0.508741,-1.2239258 -0.501367,-0.5013672 -1.253418,-0.5013672 -0.759423,0 -1.260791,0.4866211 -0.501367,0.4866211 -0.501367,1.1649414 z m -0.427637,4.9915529 q 0,0.5677246 0.26543,1.098584 0.272803,0.5308594 0.803662,0.8257813 0.53086,0.28754881 1.142823,0.28754881 0.951123,0 1.570459,-0.61196291 0.619336,-0.6119629 0.619336,-1.5557129 0,-0.9584961 -0.641456,-1.5852051 -0.634082,-0.626709 -1.592578,-0.626709 -0.936377,0 -1.555713,0.6193359 -0.611963,0.619336 -0.611963,1.5483399 z" /><path
               id="path396"
               style=""
               d="m 17.573686,0 v -1.5114746 h 1.511475 V 0 Z" /><path
               id="path398"
               style=""
               d="m 28.396436,-8.1619631 -1.319776,0.1032227 q -0.176953,-0.781543 -0.501367,-1.1354493 -0.538232,-0.5677246 -1.327148,-0.5677246 -0.634082,0 -1.11333,0.3539062 -0.626709,0.457129 -0.987989,1.3345216 -0.361279,0.8773926 -0.376025,2.4994629 0.479248,-0.7299316 1.172314,-1.0838379 0.693067,-0.3539063 1.452491,-0.3539063 1.327148,0 2.256152,0.9806153 0.936377,0.9732422 0.936377,2.5215821 0,1.0174805 -0.442383,1.8948731 -0.43501,0.87001955 -1.201807,1.33452151 -0.766796,0.46450197 -1.740039,0.46450197 -1.658935,0 -2.705908,-1.21655278 -1.046973,-1.2239258 -1.046973,-4.0256837 0,-3.133545 1.157569,-4.5565431 1.010107,-1.2386716 2.720654,-1.2386716 1.275537,0 2.086572,0.715185 0.818409,0.7151859 0.980616,1.9759769 z m -5.41919,4.6597657 q 0,0.6856934 0.287549,1.3124024 0.294922,0.626709 0.818408,0.9584961 0.523487,0.32441411 1.098584,0.32441411 0.840528,0 1.445117,-0.67832031 0.60459,-0.6783203 0.60459,-1.8432618 0,-1.1207031 -0.597217,-1.7621582 -0.597216,-0.6488282 -1.504101,-0.6488282 -0.899512,0 -1.526221,0.6488282 -0.626709,0.6414551 -0.626709,1.6884277 z" /></g></g><g
           id="g140"><g
             id="text144"
             style="font-variant:normal;font-weight:normal;font-size:15.10000038px;font-family:Arial;-inkscape-font-specification:ArialMT;writing-mode:lr-tb;fill:#000000;fill-opacity:1;fill-rule:nonzero;stroke:none"
             transform="matrix(1,0,0,-1,433.4,235.2)"
             aria-label="34.6"><path
               id="path401"
               style=""
               d="M 0.63408205,-2.8533692 1.9612305,-3.0303223 q 0.2285645,1.1280762 0.77417,1.6294434 0.5529785,0.49399411 1.3418945,0.49399411 0.936377,0 1.5778321,-0.64882811 0.6488281,-0.6488282 0.6488281,-1.6073243 0,-0.9142578 -0.5972168,-1.5041016 -0.5972168,-0.5972168 -1.5188477,-0.5972168 -0.3760254,0 -0.9363769,0.1474609 l 0.1474609,-1.1649414 q 0.1327148,0.014746 0.2138184,0.014746 0.8479004,0 1.5262207,-0.4423828 0.6783203,-0.4423828 0.6783203,-1.3640137 0,-0.7299317 -0.4939941,-1.2091798 -0.4939942,-0.479248 -1.2755372,-0.479248 -0.7741699,0 -1.2902832,0.4866211 -0.5161133,0.4866211 -0.6635742,1.4598633 L 0.76679689,-8.0513674 Q 1.0101074,-9.3858889 1.872754,-10.115821 q 0.8626465,-0.737304 2.1455566,-0.737304 0.8847657,0 1.6294434,0.383398 0.7446778,0.376026 1.1354493,1.0322268 0.3981445,0.6562012 0.3981445,1.3935059 0,0.7004394 -0.3760254,1.2755371 -0.3760254,0.5750977 -1.1133301,0.9142578 0.9584961,0.2211914 1.4893555,0.9216309 0.5308594,0.6930664 0.5308594,1.7400391 0,1.4156251 -1.0322266,2.40361336 -1.0322266,0.98061526 -2.6100586,0.98061526 -1.4229981,0 -2.3667481,-0.84790041 Q 0.76679689,-1.5041016 0.63408205,-2.8533692 Z" /><path
               id="path403"
               style=""
               d="M 12.974557,0 V -2.5879395 H 8.2852995 v -1.2165528 l 4.9325685,-7.0043947 h 1.083838 v 7.0043947 h 1.459863 v 1.2165528 H 14.301706 V 0 Z m 0,-3.8044923 v -4.8735841 l -3.3842282,4.8735841 z" /><path
               id="path405"
               style=""
               d="m 17.558587,0 v -1.5114746 h 1.511475 V 0 Z" /><path
               id="path407"
               style=""
               d="m 28.381335,-8.1619631 -1.319775,0.1032227 q -0.176953,-0.781543 -0.501367,-1.1354493 -0.538233,-0.5677246 -1.327149,-0.5677246 -0.634082,0 -1.11333,0.3539062 -0.626709,0.457129 -0.987988,1.3345216 -0.36128,0.8773926 -0.376026,2.4994629 0.479248,-0.7299316 1.172315,-1.0838379 0.693066,-0.3539063 1.45249,-0.3539063 1.327149,0 2.256153,0.9806153 0.936376,0.9732422 0.936376,2.5215821 0,1.0174805 -0.442382,1.8948731 -0.43501,0.87001955 -1.201807,1.33452151 -0.766797,0.46450197 -1.740039,0.46450197 -1.658936,0 -2.705908,-1.21655278 -1.046973,-1.2239258 -1.046973,-4.0256837 0,-3.133545 1.157568,-4.5565431 1.010108,-1.2386716 2.720655,-1.2386716 1.275537,0 2.086572,0.715185 0.818408,0.7151859 0.980615,1.9759769 z m -5.419189,4.6597657 q 0,0.6856934 0.287549,1.3124024 0.294921,0.626709 0.818408,0.9584961 0.523486,0.32441411 1.098584,0.32441411 0.840527,0 1.445117,-0.67832031 0.60459,-0.6783203 0.60459,-1.8432618 0,-1.1207031 -0.597217,-1.7621582 -0.597217,-0.6488282 -1.504102,-0.6488282 -0.899511,0 -1.52622,0.6488282 -0.626709,0.6414551 -0.626709,1.6884277 z" /></g></g><g
           id="g146"><g
             id="text150"
             style="font-variant:normal;font-weight:normal;font-size:15.10000038px;font-family:Arial;-inkscape-font-specification:ArialMT;writing-mode:lr-tb;fill:#000000;fill-opacity:1;fill-rule:nonzero;stroke:none"
             transform="matrix(1,0,0,-1,507.6,235.2)"
             aria-label="31.6"><path
               id="path410"
               style=""
               d="M 0.63408205,-2.8533692 1.9612305,-3.0303223 q 0.2285645,1.1280762 0.77417,1.6294434 0.5529785,0.49399411 1.3418945,0.49399411 0.936377,0 1.5778321,-0.64882811 0.6488281,-0.6488282 0.6488281,-1.6073243 0,-0.9142578 -0.5972168,-1.5041016 -0.5972168,-0.5972168 -1.5188477,-0.5972168 -0.3760254,0 -0.9363769,0.1474609 l 0.1474609,-1.1649414 q 0.1327148,0.014746 0.2138184,0.014746 0.8479004,0 1.5262207,-0.4423828 0.6783203,-0.4423828 0.6783203,-1.3640137 0,-0.7299317 -0.4939941,-1.2091798 -0.4939942,-0.479248 -1.2755372,-0.479248 -0.7741699,0 -1.2902832,0.4866211 -0.5161133,0.4866211 -0.6635742,1.4598633 L 0.76679689,-8.0513674 Q 1.0101074,-9.3858889 1.872754,-10.115821 q 0.8626465,-0.737304 2.1455566,-0.737304 0.8847657,0 1.6294434,0.383398 0.7446778,0.376026 1.1354493,1.0322268 0.3981445,0.6562012 0.3981445,1.3935059 0,0.7004394 -0.3760254,1.2755371 -0.3760254,0.5750977 -1.1133301,0.9142578 0.9584961,0.2211914 1.4893555,0.9216309 0.5308594,0.6930664 0.5308594,1.7400391 0,1.4156251 -1.0322266,2.40361336 -1.0322266,0.98061526 -2.6100586,0.98061526 -1.4229981,0 -2.3667481,-0.84790041 Q 0.76679689,-1.5041016 0.63408205,-2.8533692 Z" /><path
               id="path412"
               style=""
               d="m 13.719235,0 h -1.327148 v -8.456885 q -0.479248,0.4571289 -1.260791,0.9142579 -0.77417,0.4571289 -1.3935062,0.6856933 V -8.139844 q 1.1133302,-0.5234863 1.9464842,-1.2681641 0.833155,-0.7446779 1.179688,-1.4451169 h 0.855273 z" /><path
               id="path414"
               style=""
               d="m 17.558587,0 v -1.5114746 h 1.511475 V 0 Z" /><path
               id="path416"
               style=""
               d="m 28.290734,-8.1619631 -1.319775,0.1032227 q -0.176953,-0.781543 -0.501367,-1.1354493 -0.538233,-0.5677246 -1.327149,-0.5677246 -0.634082,0 -1.11333,0.3539062 -0.626709,0.457129 -0.987988,1.3345216 -0.36128,0.8773926 -0.376026,2.4994629 0.479248,-0.7299316 1.172315,-1.0838379 0.693066,-0.3539063 1.45249,-0.3539063 1.327149,0 2.256153,0.9806153 0.936377,0.9732422 0.936377,2.5215821 0,1.0174805 -0.442383,1.8948731 -0.43501,0.87001955 -1.201807,1.33452151 -0.766797,0.46450197 -1.740039,0.46450197 -1.658936,0 -2.705908,-1.21655278 -1.046973,-1.2239258 -1.046973,-4.0256837 0,-3.133545 1.157568,-4.5565431 1.010108,-1.2386716 2.720655,-1.2386716 1.275537,0 2.086572,0.715185 0.818408,0.7151859 0.980615,1.9759769 z m -5.419189,4.6597657 q 0,0.6856934 0.287549,1.3124024 0.294921,0.626709 0.818408,0.9584961 0.523486,0.32441411 1.098584,0.32441411 0.840527,0 1.445117,-0.67832031 0.60459,-0.6783203 0.60459,-1.8432618 0,-1.1207031 -0.597217,-1.7621582 -0.597217,-0.6488282 -1.504102,-0.6488282 -0.899511,0 -1.52622,0.6488282 -0.626709,0.6414551 -0.626709,1.6884277 z" /></g></g></g></g><g
       id="g152"><g
         clip-path="url(#clipPath158)"
         id="g154"><path
           id="path160"
           style="fill:none;stroke:#000000;stroke-width:0.1;stroke-linecap:butt;stroke-linejoin:miter;stroke-miterlimit:10;stroke-dasharray:none;stroke-opacity:1"
           d="M 169.1,289.5 H 540" /><path
           id="path162"
           style="fill:#000000;fill-opacity:1;fill-rule:evenodd;stroke:none"
           d="m 169.1,289.5 h 370.8 v -1.1 H 169.1 Z" /><path
           id="path164"
           style="fill:none;stroke:#000000;stroke-width:0.1;stroke-linecap:butt;stroke-linejoin:miter;stroke-miterlimit:10;stroke-dasharray:none;stroke-opacity:1"
           d="M 169.1,269.8 H 540" /><path
           id="path166"
           style="fill:#000000;fill-opacity:1;fill-rule:evenodd;stroke:none"
           d="m 169.1,269.8 h 370.8 v -1.1 H 169.1 Z" /><path
           id="path168"
           style="fill:none;stroke:#000000;stroke-width:0.1;stroke-linecap:butt;stroke-linejoin:miter;stroke-miterlimit:10;stroke-dasharray:none;stroke-opacity:1"
           d="M 169.1,250.1 H 540" /><path
           id="path170"
           style="fill:#000000;fill-opacity:1;fill-rule:evenodd;stroke:none"
           d="M 169.1,250.1 H 539.9 V 249 H 169.1 Z" /><path
           id="path172"
           style="fill:none;stroke:#000000;stroke-width:0.1;stroke-linecap:butt;stroke-linejoin:miter;stroke-miterlimit:10;stroke-dasharray:none;stroke-opacity:1"
           d="M 168,289.5 V 229.2" /><path
           id="path174"
           style="fill:#000000;fill-opacity:1;fill-rule:evenodd;stroke:none"
           d="m 168,289.5 h 1.1 V 229.3 H 168 Z" /><path
           id="path176"
           style="fill:none;stroke:#000000;stroke-width:0.1;stroke-linecap:butt;stroke-linejoin:miter;stroke-miterlimit:10;stroke-dasharray:none;stroke-opacity:1"
           d="M 242.2,288.4 V 229.2" /><path
           id="path178"
           style="fill:#000000;fill-opacity:1;fill-rule:evenodd;stroke:none"
           d="m 242.2,288.4 h 1.1 v -59.1 h -1.1 z" /><path
           id="path180"
           style="fill:none;stroke:#000000;stroke-width:0.1;stroke-linecap:butt;stroke-linejoin:miter;stroke-miterlimit:10;stroke-dasharray:none;stroke-opacity:1"
           d="M 316.3,288.4 V 229.2" /><path
           id="path182"
           style="fill:#000000;fill-opacity:1;fill-rule:evenodd;stroke:none"
           d="m 316.3,288.4 h 1.2 v -59.1 h -1.2 z" /><path
           id="path184"
           style="fill:none;stroke:#000000;stroke-width:0.1;stroke-linecap:butt;stroke-linejoin:miter;stroke-miterlimit:10;stroke-dasharray:none;stroke-opacity:1"
           d="M 390.5,288.4 V 229.2" /><path
           id="path186"
           style="fill:#000000;fill-opacity:1;fill-rule:evenodd;stroke:none"
           d="m 390.5,288.4 h 1.1 v -59.1 h -1.1 z" /><path
           id="path188"
           style="fill:none;stroke:#000000;stroke-width:0.1;stroke-linecap:butt;stroke-linejoin:miter;stroke-miterlimit:10;stroke-dasharray:none;stroke-opacity:1"
           d="M 464.7,288.4 V 229.2" /><path
           id="path190"
           style="fill:#000000;fill-opacity:1;fill-rule:evenodd;stroke:none"
           d="m 464.7,288.4 h 1.1 v -59.1 h -1.1 z" /><path
           id="path192"
           style="fill:none;stroke:#000000;stroke-width:0.1;stroke-linecap:butt;stroke-linejoin:miter;stroke-miterlimit:10;stroke-dasharray:none;stroke-opacity:1"
           d="M 169.1,230.4 H 540" /><path
           id="path194"
           style="fill:#000000;fill-opacity:1;fill-rule:evenodd;stroke:none"
           d="m 169.1,230.4 h 370.8 v -1.1 H 169.1 Z" /><path
           id="path196"
           style="fill:none;stroke:#000000;stroke-width:0.1;stroke-linecap:butt;stroke-linejoin:miter;stroke-miterlimit:10;stroke-dasharray:none;stroke-opacity:1"
           d="M 538.9,288.4 V 229.2" /><path
           id="path198"
           style="fill:#000000;fill-opacity:1;fill-rule:evenodd;stroke:none"
           d="m 538.9,288.4 h 1 v -59.1 h -1 z" /><path
           id="path200"
           style="fill:none;stroke:#c0c0c0;stroke-width:0.1;stroke-linecap:butt;stroke-linejoin:miter;stroke-miterlimit:10;stroke-dasharray:none;stroke-opacity:1"
           d="M 168,229.2 V 228" /><path
           id="path202"
           style="fill:#c0c0c0;fill-opacity:1;fill-rule:evenodd;stroke:none"
           d="m 168,229.2 h 1.1 v -1.1 H 168 Z" /><path
           id="path204"
           style="fill:none;stroke:#c0c0c0;stroke-width:0.1;stroke-linecap:butt;stroke-linejoin:miter;stroke-miterlimit:10;stroke-dasharray:none;stroke-opacity:1"
           d="M 242.2,229.2 V 228" /><path
           id="path206"
           style="fill:#c0c0c0;fill-opacity:1;fill-rule:evenodd;stroke:none"
           d="m 242.2,229.2 h 1.1 v -1.1 h -1.1 z" /><path
           id="path208"
           style="fill:none;stroke:#c0c0c0;stroke-width:0.1;stroke-linecap:butt;stroke-linejoin:miter;stroke-miterlimit:10;stroke-dasharray:none;stroke-opacity:1"
           d="M 316.3,229.2 V 228" /><path
           id="path210"
           style="fill:#c0c0c0;fill-opacity:1;fill-rule:evenodd;stroke:none"
           d="m 316.3,229.2 h 1.2 v -1.1 h -1.2 z" /><path
           id="path212"
           style="fill:none;stroke:#c0c0c0;stroke-width:0.1;stroke-linecap:butt;stroke-linejoin:miter;stroke-miterlimit:10;stroke-dasharray:none;stroke-opacity:1"
           d="M 390.5,229.2 V 228" /><path
           id="path214"
           style="fill:#c0c0c0;fill-opacity:1;fill-rule:evenodd;stroke:none"
           d="m 390.5,229.2 h 1.1 v -1.1 h -1.1 z" /><path
           id="path216"
           style="fill:none;stroke:#c0c0c0;stroke-width:0.1;stroke-linecap:butt;stroke-linejoin:miter;stroke-miterlimit:10;stroke-dasharray:none;stroke-opacity:1"
           d="M 464.7,229.2 V 228" /><path
           id="path218"
           style="fill:#c0c0c0;fill-opacity:1;fill-rule:evenodd;stroke:none"
           d="m 464.7,229.2 h 1.1 v -1.1 h -1.1 z" /><path
           id="path220"
           style="fill:none;stroke:#c0c0c0;stroke-width:0.1;stroke-linecap:butt;stroke-linejoin:miter;stroke-miterlimit:10;stroke-dasharray:none;stroke-opacity:1"
           d="M 538.9,229.2 V 228" /><path
           id="path222"
           style="fill:#c0c0c0;fill-opacity:1;fill-rule:evenodd;stroke:none"
           d="m 538.9,229.2 h 1 v -1.1 h -1 z" /><path
           id="path224"
           style="fill:none;stroke:#c0c0c0;stroke-width:0.1;stroke-linecap:butt;stroke-linejoin:miter;stroke-miterlimit:10;stroke-dasharray:none;stroke-opacity:1"
           d="m 540,289.5 h 1.1" /><path
           id="path226"
           style="fill:#c0c0c0;fill-opacity:1;fill-rule:evenodd;stroke:none"
           d="m 540,289.5 h 1.1 v -1.1 H 540 Z" /><path
           id="path228"
           style="fill:none;stroke:#c0c0c0;stroke-width:0.1;stroke-linecap:butt;stroke-linejoin:miter;stroke-miterlimit:10;stroke-dasharray:none;stroke-opacity:1"
           d="m 540,269.8 h 1.1" /><path
           id="path230"
           style="fill:#c0c0c0;fill-opacity:1;fill-rule:evenodd;stroke:none"
           d="m 540,269.8 h 1.1 v -1.1 H 540 Z" /><path
           id="path232"
           style="fill:none;stroke:#c0c0c0;stroke-width:0.1;stroke-linecap:butt;stroke-linejoin:miter;stroke-miterlimit:10;stroke-dasharray:none;stroke-opacity:1"
           d="m 540,250.1 h 1.1" /><path
           id="path234"
           style="fill:#c0c0c0;fill-opacity:1;fill-rule:evenodd;stroke:none"
           d="m 540,250.1 h 1.1 V 249 H 540 Z" /><path
           id="path236"
           style="fill:none;stroke:#c0c0c0;stroke-width:0.1;stroke-linecap:butt;stroke-linejoin:miter;stroke-miterlimit:10;stroke-dasharray:none;stroke-opacity:1"
           d="m 540,230.4 h 1.1" /><path
           id="path238"
           style="fill:#c0c0c0;fill-opacity:1;fill-rule:evenodd;stroke:none"
           d="m 540,230.4 h 1.1 v -1.1 H 540 Z" /></g></g></g></svg>