<?xml version="1.0" encoding="UTF-8" standalone="no"?>
<svg
   xmlns:dc="http://purl.org/dc/elements/1.1/"
   xmlns:cc="http://creativecommons.org/ns#"
   xmlns:rdf="http://www.w3.org/1999/02/22-rdf-syntax-ns#"
   xmlns:svg="http://www.w3.org/2000/svg"
   xmlns="http://www.w3.org/2000/svg"
   viewBox="0 0 960 720"
   height="720"
   width="960"
   xml:space="preserve"
   id="svg2"
   version="1.1"><metadata
     id="metadata8"><rdf:RDF><cc:Work
         rdf:about=""><dc:format>image/svg+xml</dc:format><dc:type
           rdf:resource="http://purl.org/dc/dcmitype/StillImage" /></cc:Work></rdf:RDF></metadata><defs
     id="defs6"><clipPath
       id="clipPath18"
       clipPathUnits="userSpaceOnUse"><path
         style="clip-rule:evenodd"
         id="path16"
         d="M 0,0 H 720 V 540 H 0 Z" /></clipPath></defs><g
     transform="matrix(1.3333333,0,0,-1.3333333,0,720)"
     id="g10"><g
       id="g12"><g
         clip-path="url(#clipPath18)"
         id="g14"><path
           id="path20"
           style="fill:#ffffff;fill-opacity:1;fill-rule:evenodd;stroke:none"
           d="M 0,540 H 720 V 0 H 0 Z" /><path
           id="path22"
           style="fill:#ffffff;fill-opacity:1;fill-rule:evenodd;stroke:none"
           d="M 0,540 H 720 V 0 H 0 Z" /><path
           id="path24"
           style="fill:#99cc99;fill-opacity:1;fill-rule:evenodd;stroke:none"
           d="M 180,0 H 0 V 540 H 360 V 0 Z" /><path
           id="path26"
           style="fill:#ffffff;fill-opacity:1;fill-rule:evenodd;stroke:none"
           d="M 129,462 C 91.5,462 54,424.5 54,387 v 0 c 0,-37.5 37.5,-75 75,-75 h 258 c 37.5,0 75,37.5 75,75 v 0 c 0,37.5 -37.5,75 -75,75 z m -75,0 z M 462,312 Z" /><path
           id="path28"
           style="fill:#003366;fill-opacity:1;fill-rule:evenodd;stroke:none"
           d="m 650.2,155 v 0 -25 0 H 286 v 0 25 0 z m 0,0 z M 286,130 Z" /><path
           id="path30"
           style="fill:#003366;fill-opacity:1;fill-rule:evenodd;stroke:none"
           d="m 659.7,155 c 5.2,0 10.3,-6.3 10.3,-12.6 0,-6.3 -5.1,-12.5 -10.3,-12.5 H 649.5 V 155 Z m -10.2,0 z M 670,129.9 Z" /><g
           id="g32" /><g
           id="text36"
           style="font-variant:normal;font-weight:bold;font-size:36px;font-family:Arial;-inkscape-font-specification:Arial-BoldMT;writing-mode:lr-tb;fill:#003366;fill-opacity:1;fill-rule:nonzero;stroke:none"
           transform="matrix(1,0,0,-1,155.9,368.4)"
           aria-label="Making PowerPoint Slides"><path
             id="path50"
             style=""
             d="m 2.5488281,0 v -25.769531 h 7.7871099 l 4.675781,17.5781247 4.623047,-17.5781247 h 7.804687 V 0 H 22.605469 V -20.285156 L 17.490234,0 H 12.480469 L 7.3828125,-20.285156 V 0 Z" /><path
             id="path52"
             style=""
             d="M 36.263391,-12.972656 31.78097,-13.78125 q 0.755859,-2.707031 2.601562,-4.007812 1.845703,-1.300782 5.484375,-1.300782 3.304688,0 4.921875,0.791016 1.617188,0.773437 2.267578,1.986328 0.667969,1.195312 0.667969,4.412109 l -0.05273,5.7656254 q 0,2.4609375 0.228515,3.6386718 Q 48.146204,-1.3359375 48.796595,0 h -4.886719 q -0.19336,-0.4921875 -0.47461,-1.4589844 -0.123046,-0.4394531 -0.175781,-0.5800781 -1.265625,1.23046875 -2.707031,1.84570313 -1.441406,0.61523437 -3.076172,0.61523437 -2.882812,0 -4.552734,-1.5644531 -1.652344,-1.5644532 -1.652344,-3.9550781 0,-1.5820313 0.755859,-2.8125 0.75586,-1.2480469 2.109375,-1.8984376 1.371094,-0.6679692 3.9375,-1.1601562 3.462891,-0.650391 4.798828,-1.212891 v -0.492187 q 0,-1.423828 -0.703125,-2.021485 -0.703125,-0.615234 -2.654296,-0.615234 -1.31836,0 -2.056641,0.527344 -0.738281,0.509765 -1.195313,1.810547 z m 6.609375,4.0078122 q -0.949218,0.3164063 -3.005859,0.7558594 -2.056641,0.4394532 -2.689453,0.8613282 -0.966797,0.6855468 -0.966797,1.7402343 0,1.0371094 0.773438,1.7929688 0.773437,0.7558593 1.96875,0.7558593 1.335937,0 2.548828,-0.8789062 0.896484,-0.6679687 1.177734,-1.6347656 0.193359,-0.6328125 0.193359,-2.4082031 z" /><path
             id="path54"
             style=""
             d="m 52.412205,0 v -25.769531 h 4.939453 v 13.675781 l 5.783203,-6.574219 h 6.082031 L 62.836033,-11.847656 69.673923,0 h -5.326171 l -4.69336,-8.3847656 -2.302734,2.4082031 V 0 Z" /><path
             id="path56"
             style=""
             d="m 72.639984,-21.199219 v -4.570312 h 4.939453 v 4.570312 z m 0,21.199219 v -18.667969 h 4.939453 V 0 Z" /><path
             id="path58"
             style=""
             d="M 99.592453,0 H 94.653 v -9.5273438 q 0,-3.0234372 -0.316406,-3.9023442 -0.316407,-0.896484 -1.03711,-1.388671 -0.703125,-0.492188 -1.705078,-0.492188 -1.283203,0 -2.302734,0.703125 -1.019531,0.703125 -1.40625,1.863281 -0.369141,1.160157 -0.369141,4.2890629 V 0 h -4.939453 v -18.667969 h 4.587891 v 2.742188 q 2.443359,-3.164063 6.152343,-3.164063 1.634766,0 2.988282,0.597657 1.353515,0.580078 2.039062,1.49414 0.703125,0.914063 0.966797,2.074219 0.28125,1.160156 0.28125,3.322265 z" /><path
             id="path60"
             style=""
             d="m 104.04295,1.2304687 5.64258,0.6855469 q 0.14063,0.984375 0.65039,1.3535157 0.70313,0.5273437 2.21485,0.5273437 1.93359,0 2.90039,-0.5800781 0.65039,-0.3867188 0.98437,-1.2480469 0.22852,-0.6152344 0.22852,-2.26757813 V -3.0234375 Q 114.4492,0 111.0742,0 q -3.76172,0 -5.95898,-3.1816406 -1.72266,-2.5136719 -1.72266,-6.2578125 0,-4.6933599 2.25,-7.1718749 2.26758,-2.478516 5.625,-2.478516 3.46289,0 5.71289,3.041016 v -2.619141 h 4.62305 v 16.7519534 q 0,3.3046875 -0.54492,4.9394531 -0.54492,1.6347656 -1.5293,2.5664062 -0.98437,0.9316407 -2.63672,1.4589844 -1.63476,0.5273438 -4.14843,0.5273438 -4.7461,0 -6.73243,-1.6347657 -1.98632,-1.6171875 -1.98632,-4.1132812 0,-0.2460938 0.0176,-0.5976563 z m 4.41211,-10.9511718 q 0,2.9707031 1.14258,4.359375 1.16016,1.3710937 2.84766,1.3710937 1.81054,0 3.05859,-1.40625 1.24805,-1.4238281 1.24805,-4.2011719 0,-2.9003907 -1.19531,-4.3066407 -1.19532,-1.40625 -3.02344,-1.40625 -1.77539,0 -2.93555,1.388672 -1.14258,1.371094 -1.14258,4.2011719 z" /><path
             id="path62"
             style=""
             d="m 136.39514,0 v -25.769531 h 8.34961 q 4.74609,0 6.1875,0.386719 2.21484,0.580078 3.70899,2.53125 1.49414,1.933593 1.49414,5.009765 0,2.373047 -0.86133,3.990234 -0.86133,1.617188 -2.19727,2.548829 -1.31836,0.914062 -2.68945,1.21289 -1.86328,0.3691409 -5.39649,0.3691409 h -3.39257 V 0 Z m 5.20313,-21.410156 v 7.3125 h 2.84765 q 3.07617,0 4.11328,-0.404297 1.03711,-0.404297 1.61719,-1.265625 0.59766,-0.861328 0.59766,-2.003906 0,-1.40625 -0.82617,-2.320313 -0.82618,-0.914062 -2.0918,-1.142578 -0.93164,-0.175781 -3.74414,-0.175781 z" /><path
             id="path64"
             style=""
             d="m 159.19341,-9.5976563 q 0,-2.4609377 1.21289,-4.7636717 1.21289,-2.302734 3.42773,-3.515625 2.23242,-1.212891 4.97461,-1.212891 4.23633,0 6.94336,2.759766 2.70703,2.742187 2.70703,6.9433592 0,4.2363282 -2.74219,7.03125 -2.72461,2.7773438 -6.87304,2.7773438 -2.56641,0 -4.9043,-1.16015625 -2.32031,-1.16015625 -3.5332,-3.39257815 -1.21289,-2.25 -1.21289,-5.4667969 z m 5.0625,0.2636719 q 0,2.7773438 1.31835,4.2539063 1.31836,1.4765625 3.25196,1.4765625 1.93359,0 3.23437,-1.4765625 1.31836,-1.4765625 1.31836,-4.2890625 0,-2.7421874 -1.31836,-4.2187504 -1.30078,-1.476562 -3.23437,-1.476562 -1.9336,0 -3.25196,1.476562 -1.31835,1.476563 -1.31835,4.2539066 z" /><path
             id="path66"
             style=""
             d="m 185.77646,0 -5.90625,-18.667969 h 4.79883 l 3.49804,12.2343753 3.2168,-12.2343753 h 4.76367 l 3.11133,12.2343753 3.56836,-12.2343753 h 4.86914 L 201.70224,0 h -4.74609 L 193.73935,-12.005859 190.57529,0 Z" /><path
             id="path68"
             style=""
             d="m 221.00653,-5.9414062 4.92188,0.8261718 q -0.94922,2.7070313 -3.00586,4.1308594 -2.03907,1.40625 -5.11524,1.40625 -4.86914,0 -7.20703,-3.1816406 -1.8457,-2.5488281 -1.8457,-6.4335938 0,-4.6406246 2.42578,-7.2597656 2.42578,-2.636719 6.13476,-2.636719 4.16602,0 6.57422,2.759766 2.40821,2.742187 2.30274,8.4199218 h -12.375 q 0.0527,2.1972656 1.19531,3.4277343 1.14258,1.2128906 2.84766,1.2128906 1.16015,0 1.95117,-0.6328125 0.79101,-0.6328124 1.19531,-2.0390624 z m 0.28125,-4.9921878 q -0.0527,-2.144531 -1.10742,-3.251953 -1.05469,-1.125 -2.56641,-1.125 -1.61718,0 -2.67187,1.177734 -1.05469,1.177735 -1.03711,3.199219 z" /><path
             id="path70"
             style=""
             d="m 234.9765,0 h -4.93945 v -18.667969 h 4.58789 v 2.654297 q 1.17773,-1.880859 2.10937,-2.478515 0.94922,-0.597657 2.14454,-0.597657 1.6875,0 3.25195,0.931641 l -1.5293,4.30664 q -1.24805,-0.808593 -2.32031,-0.808593 -1.03711,0 -1.75781,0.580078 -0.72071,0.5625 -1.14258,2.05664 -0.4043,1.494141 -0.4043,6.257813 z" /><path
             id="path72"
             style=""
             d="m 244.28714,0 v -25.769531 h 8.34961 q 4.74609,0 6.1875,0.386719 2.21484,0.580078 3.70898,2.53125 1.49414,1.933593 1.49414,5.009765 0,2.373047 -0.86132,3.990234 -0.86133,1.617188 -2.19727,2.548829 -1.31836,0.914062 -2.68945,1.21289 -1.86328,0.3691409 -5.39649,0.3691409 h -3.39258 V 0 Z m 5.20312,-21.410156 v 7.3125 h 2.84766 q 3.07617,0 4.11328,-0.404297 1.03711,-0.404297 1.61719,-1.265625 0.59766,-0.861328 0.59766,-2.003906 0,-1.40625 -0.82618,-2.320313 -0.82617,-0.914062 -2.09179,-1.142578 -0.93164,-0.175781 -3.74414,-0.175781 z" /><path
             id="path74"
             style=""
             d="m 267.08542,-9.5976563 q 0,-2.4609377 1.21289,-4.7636717 1.21289,-2.302734 3.42773,-3.515625 2.23243,-1.212891 4.97461,-1.212891 4.23633,0 6.94336,2.759766 2.70703,2.742187 2.70703,6.9433592 0,4.2363282 -2.74218,7.03125 -2.72461,2.7773438 -6.87305,2.7773438 -2.56641,0 -4.9043,-1.16015625 -2.32031,-1.16015625 -3.5332,-3.39257815 -1.21289,-2.25 -1.21289,-5.4667969 z m 5.0625,0.2636719 q 0,2.7773438 1.31836,4.2539063 1.31836,1.4765625 3.25195,1.4765625 1.93359,0 3.23438,-1.4765625 1.31836,-1.4765625 1.31836,-4.2890625 0,-2.7421874 -1.31836,-4.2187504 -1.30079,-1.476562 -3.23438,-1.476562 -1.93359,0 -3.25195,1.476562 -1.31836,1.476563 -1.31836,4.2539066 z" /><path
             id="path76"
             style=""
             d="m 290.18799,-21.199219 v -4.570312 h 4.93945 v 4.570312 z m 0,21.199219 v -18.667969 h 4.93945 V 0 Z" /><path
             id="path78"
             style=""
             d="M 317.06845,0 H 312.129 v -9.5273438 q 0,-3.0234372 -0.31641,-3.9023442 -0.3164,-0.896484 -1.03711,-1.388671 -0.70312,-0.492188 -1.70508,-0.492188 -1.2832,0 -2.30273,0.703125 -1.01953,0.703125 -1.40625,1.863281 -0.36914,1.160157 -0.36914,4.2890629 V 0 h -4.93945 v -18.667969 h 4.58789 v 2.742188 q 2.44336,-3.164063 6.15234,-3.164063 1.63477,0 2.98828,0.597657 1.35352,0.580078 2.03906,1.49414 0.70313,0.914063 0.9668,2.074219 0.28125,1.160156 0.28125,3.322265 z" /><path
             id="path80"
             style=""
             d="m 330.60852,-18.667969 v 3.9375 h -3.375 v 7.5234378 q 0,2.2851562 0.0879,2.671875 0.10547,0.3691406 0.43945,0.6152343 0.35157,0.2460938 0.84375,0.2460938 0.68555,0 1.98633,-0.4746094 l 0.42188,3.83203125 q -1.72266,0.73828125 -3.90235,0.73828125 -1.33593,0 -2.4082,-0.43945313 -1.07227,-0.45703125 -1.58203,-1.16015627 -0.49219,-0.7207031 -0.68555,-1.9335937 -0.1582,-0.8613282 -0.1582,-3.4804688 v -8.1386721 h -2.26758 v -3.9375 h 2.26758 v -3.708984 l 4.95703,-2.882813 v 6.591797 z" /><path
             id="path82"
             style=""
             d="m 342.72479,-8.3847656 5.0625,-0.4921875 q 0.45703,2.5488281 1.84571,3.7441406 1.40625,1.1953125 3.77929,1.1953125 2.51367,0 3.7793,-1.0546875 1.2832,-1.0722656 1.2832,-2.4960937 0,-0.9140626 -0.54492,-1.5468751 -0.52734,-0.6503906 -1.86328,-1.1249997 -0.91406,-0.316407 -4.16602,-1.125 -4.18359,-1.03711 -5.87109,-2.548828 -2.37305,-2.126954 -2.37305,-5.185547 0,-1.96875 1.10742,-3.673828 1.125,-1.722657 3.2168,-2.619141 2.10938,-0.896484 5.08008,-0.896484 4.85156,0 7.29492,2.126953 2.46094,2.126953 2.58399,5.677734 l -5.20313,0.228516 q -0.33398,-1.986328 -1.44141,-2.847656 -1.08984,-0.878907 -3.2871,-0.878907 -2.26758,0 -3.55079,0.931641 -0.82617,0.597656 -0.82617,1.599609 0,0.914063 0.77344,1.564453 0.98437,0.826172 4.78125,1.722657 3.79687,0.896484 5.60742,1.863281 1.82813,0.949219 2.84766,2.61914 1.03711,1.6523442 1.03711,4.0957036 0,2.2148438 -1.23047,4.1484375 -1.23047,1.9335938 -3.48047,2.88281252 -2.25,0.93164063 -5.60742,0.93164063 -4.88672,0 -7.50586,-2.24999995 -2.61914,-2.2675782 -3.12891,-6.5917969 z" /><path
             id="path84"
             style=""
             d="m 367.98398,0 v -25.769531 h 4.93945 V 0 Z" /><path
             id="path86"
             style=""
             d="m 377.88397,-21.199219 v -4.570312 h 4.93946 v 4.570312 z m 0,21.199219 v -18.667969 h 4.93946 V 0 Z" /><path
             id="path88"
             style=""
             d="m 404.97708,0 h -4.58789 v -2.7421875 q -1.14258,1.5996094 -2.70703,2.390625 -1.54688,0.7734375 -3.12891,0.7734375 -3.21679,0 -5.51953,-2.5839844 -2.28515,-2.6015625 -2.28515,-7.2421875 0,-4.7460941 2.23242,-7.2070311 2.23242,-2.478516 5.64258,-2.478516 3.1289,0 5.41406,2.601563 v -9.28125 h 4.93945 z m -13.18359,-9.7382813 q 0,2.9882813 0.82617,4.3242188 1.19531,1.9335937 3.33984,1.9335937 1.70508,0 2.90039,-1.4414062 1.19532,-1.4589844 1.19532,-4.3417969 0,-3.2167971 -1.16016,-4.6230471 -1.16016,-1.423828 -2.9707,-1.423828 -1.75782,0 -2.95313,1.40625 -1.17773,1.388672 -1.17773,4.1660157 z" /><path
             id="path90"
             style=""
             d="m 420.62653,-5.9414062 4.92187,0.8261718 q -0.94922,2.7070313 -3.00586,4.1308594 -2.03906,1.40625 -5.11523,1.40625 -4.86914,0 -7.20703,-3.1816406 -1.84571,-2.5488281 -1.84571,-6.4335938 0,-4.6406246 2.42578,-7.2597656 2.42579,-2.636719 6.13477,-2.636719 4.16602,0 6.57422,2.759766 2.4082,2.742187 2.30273,8.4199218 h -12.375 q 0.0527,2.1972656 1.19532,3.4277343 1.14257,1.2128906 2.84765,1.2128906 1.16016,0 1.95117,-0.6328125 0.79102,-0.6328124 1.19532,-2.0390624 z m 0.28125,-4.9921878 q -0.0527,-2.144531 -1.10743,-3.251953 -1.05468,-1.125 -2.5664,-1.125 -1.61719,0 -2.67188,1.177734 -1.05468,1.177735 -1.03711,3.199219 z" /><path
             id="path92"
             style=""
             d="m 428.09174,-5.3261719 4.95703,-0.7558593 q 0.3164,1.4414062 1.2832,2.1972656 0.9668,0.7382812 2.70703,0.7382812 1.91602,0 2.88281,-0.703125 0.65039,-0.4921875 0.65039,-1.3183593 0,-0.5625 -0.35156,-0.9316407 Q 439.8515,-6.4511719 438.5683,-6.75 q -5.97656,-1.3183594 -7.57617,-2.4082031 -2.21485,-1.5117189 -2.21485,-4.2011719 0,-2.425781 1.91602,-4.078125 1.91601,-1.652344 5.9414,-1.652344 3.83204,0 5.69532,1.248047 1.86328,1.248047 2.5664,3.691406 l -4.6582,0.861328 q -0.29883,-1.089843 -1.14258,-1.669921 -0.82617,-0.580079 -2.37304,-0.580079 -1.95118,0 -2.79493,0.544922 -0.5625,0.386719 -0.5625,1.001953 0,0.527344 0.49219,0.896485 0.66797,0.492187 4.60547,1.388672 3.95508,0.896484 5.51953,2.1972654 1.54688,1.3183593 1.54688,3.6738281 0,2.5664062 -2.14454,4.4121094 -2.14453,1.8457031 -6.3457,1.8457031 -3.81445,0 -6.04687,-1.546875 -2.21485,-1.546875 -2.90039,-4.2011719 z" /></g><g
           id="g38"><g
             id="text42"
             style="font-variant:normal;font-weight:normal;font-size:28px;font-family:Arial;-inkscape-font-specification:ArialMT;writing-mode:lr-tb;fill:#009c98;fill-opacity:1;fill-rule:nonzero;stroke:none"
             transform="matrix(1,0,0,-1,375.1,208.9)"
             aria-label="Avoiding the Pitfalls "><path
               id="path95"
               style=""
               d="M -0.04101562,0 7.65625,-20.042969 h 2.857422 L 18.716797,0 H 15.695313 L 13.357422,-6.0703125 H 4.9765625 L 2.7753906,0 Z M 5.7421875,-8.2304688 H 12.537109 L 10.445313,-13.78125 q -0.9570317,-2.529297 -1.4218755,-4.15625 -0.3828125,1.927734 -1.0800781,3.828125 z" /><path
               id="path97"
               style=""
               d="m 24.190907,0 -5.523438,-14.519531 h 2.597656 l 3.117188,8.6953123 q 0.505859,1.4082031 0.929687,2.9257812 0.328125,-1.1484375 0.916016,-2.7617187 l 3.226562,-8.8593748 h 2.529297 L 26.487782,0 Z" /><path
               id="path99"
               style=""
               d="m 33.129688,-7.2597656 q 0,-4.0332034 2.242188,-5.9746094 1.873047,-1.613281 4.566406,-1.613281 2.994141,0 4.894531,1.96875 1.900391,1.955078 1.900391,5.4140623 0,2.8027343 -0.847656,4.4160156 -0.833985,1.5996094 -2.447266,2.48828123 -1.599609,0.88867187 -3.5,0.88867187 -3.048828,0 -4.935547,-1.9550781 -1.873047,-1.9550782 -1.873047,-5.6328125 z m 2.529297,0 q 0,2.7890625 1.216797,4.1835937 1.216797,1.3808594 3.0625,1.3808594 1.832031,0 3.048828,-1.3945313 1.216797,-1.3945312 1.216797,-4.2519531 0,-2.6933591 -1.230469,-4.0742191 -1.216797,-1.394531 -3.035156,-1.394531 -1.845703,0 -3.0625,1.380859 -1.216797,1.38086 -1.216797,4.1699224 z" /><path
               id="path101"
               style=""
               d="m 49.571377,-17.212891 v -2.830078 h 2.460937 v 2.830078 z m 0,17.212891 v -14.519531 h 2.460937 V 0 Z" /><path
               id="path103"
               style=""
               d="m 65.249626,0 v -1.8320312 q -1.380859,2.1601562 -4.060547,2.1601562 -1.736328,0 -3.199218,-0.95703125 -1.449219,-0.95703125 -2.25586,-2.66601565 -0.792969,-1.7226562 -0.792969,-3.9511718 0,-2.1738282 0.72461,-3.9375003 0.724609,-1.777344 2.173828,-2.720703 1.449219,-0.943359 3.240234,-0.943359 1.3125,0 2.337891,0.560547 1.025391,0.546875 1.667969,1.435546 v -7.191406 h 2.447265 V 0 Z m -7.779297,-7.2460937 q 0,2.7890625 1.175782,4.1699218 1.175781,1.3808594 2.77539,1.3808594 1.613281,0 2.734375,-1.3125 1.134766,-1.3261719 1.134766,-4.0332031 0,-2.9804684 -1.148438,-4.3750004 -1.148437,-1.394531 -2.830078,-1.394531 -1.640625,0 -2.748047,1.339844 -1.09375,1.339844 -1.09375,4.2246093 z" /><path
               id="path105"
               style=""
               d="m 71.411377,-17.212891 v -2.830078 h 2.460937 v 2.830078 z m 0,17.212891 v -14.519531 h 2.460937 V 0 Z" /><path
               id="path107"
               style=""
               d="m 77.585701,0 v -14.519531 h 2.214844 v 2.064453 q 1.599609,-2.392578 4.621093,-2.392578 1.3125,0 2.40625,0.478515 1.107422,0.464844 1.654297,1.230469 0.546875,0.765625 0.765625,1.818359 0.136719,0.683594 0.136719,2.3925786 V 0 h -2.460937 v -8.8320313 q 0,-1.5039067 -0.28711,-2.2421877 -0.287109,-0.751953 -1.02539,-1.189453 -0.72461,-0.451172 -1.708985,-0.451172 -1.572265,0 -2.720703,0.998047 -1.134766,0.998047 -1.134766,3.7871095 V 0 Z" /><path
               id="path109"
               style=""
               d="m 92.70253,1.203125 2.392578,0.3554687 q 0.150391,1.1074219 0.833984,1.6132813 0.916016,0.6835938 2.501954,0.6835938 1.708984,0 2.638674,-0.6835938 0.92968,-0.6835937 1.25781,-1.9140625 0.19141,-0.75195313 0.17773,-3.1582031 Q 100.89198,0 98.485733,0 q -2.994141,0 -4.634766,-2.1601563 -1.640625,-2.1601562 -1.640625,-5.1816406 0,-2.078125 0.751954,-3.8281251 0.751953,-1.763672 2.173828,-2.720703 1.435547,-0.957031 3.363281,-0.957031 2.570315,0 4.238285,2.078125 v -1.75 h 2.26953 V -1.96875 q 0,3.390625 -0.69727,4.7988281 -0.68359,1.421875 -2.1875,2.2421875 -1.49023,0.8203125 -3.677733,0.8203125 -2.597656,0 -4.197265,-1.1757812 Q 92.647842,3.5546875 92.70253,1.203125 Z m 2.037109,-8.7226562 q 0,2.8574218 1.134766,4.1699218 1.134766,1.3125 2.84375,1.3125 1.695315,0 2.843745,-1.2988281 1.14844,-1.3125 1.14844,-4.1015625 0,-2.666016 -1.18945,-4.019531 -1.17578,-1.353516 -2.843751,-1.353516 -1.640625,0 -2.789062,1.339844 -1.148438,1.326172 -1.148438,3.9511718 z" /><path
               id="path111"
               style=""
               d="m 121.87875,-2.2011719 0.35547,2.17382815 q -1.03906,0.21875 -1.85937,0.21875 -1.33985,0 -2.07813,-0.42382813 -0.73828,-0.42382812 -1.03906,-1.10742182 -0.30078,-0.6972657 -0.30078,-2.9121094 v -8.3535159 h -1.80469 v -1.914062 h 1.80469 v -3.595703 l 2.44726,-1.476563 v 5.072266 h 2.47461 v 1.914062 h -2.47461 v 8.4902346 q 0,1.0527344 0.12305,1.3535156 0.13672,0.3007813 0.42383,0.4785157 0.30078,0.1777343 0.84766,0.1777343 0.41015,0 1.08007,-0.095703 z" /><path
               id="path113"
               style=""
               d="m 124.2897,0 v -20.042969 h 2.46094 v 7.191406 q 1.72266,-1.996093 4.34766,-1.996093 1.61328,0 2.80273,0.642578 1.18945,0.628906 1.69531,1.75 0.51954,1.121094 0.51954,3.2539061 V 0 h -2.46094 v -9.2011719 q 0,-1.8457031 -0.80664,-2.6796871 -0.79297,-0.847657 -2.25586,-0.847657 -1.09375,0 -2.06446,0.574219 -0.95703,0.560547 -1.36718,1.53125 -0.41016,0.9707032 -0.41016,2.6796876 V 0 Z" /><path
               id="path115"
               style=""
               d="m 149.79715,-4.6757812 2.54297,0.3144531 q -0.60156,2.2285156 -2.22852,3.45898435 -1.62695,1.23046875 -4.15625,1.23046875 -3.18554,0 -5.05859,-1.9550781 -1.85938,-1.96875 -1.85938,-5.5097656 0,-3.6640623 1.88672,-5.6875003 1.88672,-2.023437 4.89453,-2.023437 2.91211,0 4.75782,1.982422 1.8457,1.982421 1.8457,5.5781246 0,0.21875 -0.0137,0.65625 h -10.82813 q 0.13672,2.3925782 1.35352,3.6640625 1.2168,1.2714844 3.03515,1.2714844 1.35352,0 2.31055,-0.7109375 0.95703,-0.7109375 1.51758,-2.2695312 z m -8.08008,-3.9785157 h 8.10742 q -0.16406,-1.8320311 -0.92968,-2.7480471 -1.17579,-1.421875 -3.04883,-1.421875 -1.69531,0 -2.85742,1.134766 -1.14844,1.134765 -1.27149,3.0351561 z" /><path
               id="path117"
               style=""
               d="m 163.52415,0 v -20.042969 h 7.56055 q 1.9961,0 3.04883,0.191407 1.47656,0.246093 2.47461,0.943359 0.99805,0.683594 1.59961,1.927734 0.61523,1.244141 0.61523,2.734375 0,2.556641 -1.62695,4.3339846 -1.62695,1.7636719 -5.87891,1.7636719 H 166.1765 V 0 Z m 2.65235,-10.513672 h 5.18164 q 2.57031,0 3.65039,-0.957031 1.08008,-0.957031 1.08008,-2.69336 0,-1.257812 -0.64258,-2.146484 -0.62891,-0.902344 -1.66797,-1.189453 -0.66992,-0.177734 -2.47461,-0.177734 h -5.12695 z" /><path
               id="path119"
               style=""
               d="m 181.81537,-17.212891 v -2.830078 h 2.46094 v 2.830078 z m 0,17.212891 v -14.519531 h 2.46094 V 0 Z" /><path
               id="path121"
               style=""
               d="m 193.44675,-2.2011719 0.35547,2.17382815 q -1.03907,0.21875 -1.85938,0.21875 -1.33984,0 -2.07812,-0.42382813 -0.73829,-0.42382812 -1.03907,-1.10742182 -0.30078,-0.6972657 -0.30078,-2.9121094 v -8.3535159 h -1.80469 v -1.914062 h 1.80469 v -3.595703 l 2.44727,-1.476563 v 5.072266 h 2.47461 v 1.914062 h -2.47461 v 8.4902346 q 0,1.0527344 0.12304,1.3535156 0.13672,0.3007813 0.42383,0.4785157 0.30078,0.1777343 0.84766,0.1777343 0.41015,0 1.08008,-0.095703 z" /><path
               id="path123"
               style=""
               d="m 196.44559,0 v -12.605469 h -2.17383 v -1.914062 h 2.17383 v -1.544922 q 0,-1.462891 0.25976,-2.173828 0.35547,-0.957031 1.24414,-1.544922 0.90235,-0.601563 2.51563,-0.601563 1.03906,0 2.29687,0.246094 l -0.36914,2.146485 q -0.76562,-0.136719 -1.44922,-0.136719 -1.12109,0 -1.58593,0.478515 -0.46485,0.478516 -0.46485,1.791016 v 1.339844 h 2.83008 v 1.914062 h -2.83008 V 0 Z" /><path
               id="path125"
               style=""
               d="m 213.11632,-1.7910156 q -1.36719,1.16210935 -2.63867,1.64062498 -1.25782,0.47851562 -2.70704,0.47851562 -2.39257,0 -3.67773,-1.16210938 -1.28516,-1.17578122 -1.28516,-2.99414062 0,-1.0664062 0.47852,-1.9414062 0.49219,-0.8886719 1.27148,-1.421875 0.79297,-0.5332032 1.77735,-0.8066407 0.72461,-0.1914062 2.1875,-0.3691406 2.98047,-0.3554688 4.38867,-0.8476563 0.0137,-0.5058593 0.0137,-0.6425781 0,-1.5039061 -0.69726,-2.1191411 -0.94336,-0.833984 -2.80274,-0.833984 -1.73633,0 -2.57031,0.615234 -0.82031,0.601563 -1.2168,2.146485 l -2.40625,-0.328125 q 0.32813,-1.544922 1.08008,-2.488281 0.75195,-0.957032 2.17383,-1.462891 1.42187,-0.519531 3.29492,-0.519531 1.85938,0 3.02148,0.4375 1.16211,0.4375 1.70899,1.107422 0.54687,0.65625 0.76562,1.667968 0.12305,0.628907 0.12305,2.2695316 v 3.28125 q 0,3.4316406 0.15039,4.3476563 Q 215.71397,-0.83398438 216.17882,0 h -2.57031 q -0.38282,-0.765625 -0.49219,-1.7910156 z m -0.20508,-5.4960938 q -1.33984,0.546875 -4.01953,0.9296875 -1.51758,0.21875 -2.14649,0.4921875 -0.6289,0.2734375 -0.9707,0.8066407 -0.3418,0.5195312 -0.3418,1.1621093 0,0.984375 0.73829,1.640625 0.75195,0.65625 2.1875,0.65625 1.42187,0 2.52929,-0.6152344 1.10742,-0.6289062 1.62696,-1.7089843 0.39648,-0.8339844 0.39648,-2.4609375 z" /><path
               id="path127"
               style=""
               d="m 219.15501,0 v -20.042969 h 2.46094 V 0 Z" /><path
               id="path129"
               style=""
               d="m 225.34302,0 v -20.042969 h 2.46094 V 0 Z" /><path
               id="path131"
               style=""
               d="m 230.68533,-4.3339844 2.4336,-0.3828125 q 0.20508,1.4628906 1.13476,2.2421875 0.94336,0.7792969 2.625,0.7792969 1.69532,0 2.51563,-0.6835938 0.82031,-0.6972656 0.82031,-1.6269531 0,-0.8339843 -0.72461,-1.3125 -0.50586,-0.328125 -2.51562,-0.8339843 -2.70704,-0.6835938 -3.75977,-1.1757813 -1.03906,-0.5058594 -1.58594,-1.3808594 -0.5332,-0.8886719 -0.5332,-1.9550786 0,-0.970703 0.4375,-1.791015 0.45117,-0.833985 1.2168,-1.38086 0.57422,-0.423828 1.55859,-0.710937 0.99805,-0.300781 2.13281,-0.300781 1.70899,0 2.99414,0.492187 1.29883,0.492188 1.91407,1.339844 0.61523,0.833984 0.84765,2.242187 l -2.40625,0.328125 q -0.16406,-1.121093 -0.95703,-1.75 -0.7793,-0.628906 -2.21484,-0.628906 -1.69532,0 -2.41992,0.560547 -0.72461,0.560547 -0.72461,1.3125 0,0.478516 0.30078,0.861328 0.30078,0.3964846 0.94336,0.6562502 0.36914,0.1367188 2.17382,0.6289063 2.61133,0.6972656 3.63672,1.1484375 1.03907,0.4375 1.62696,1.2851563 0.58789,0.8476562 0.58789,2.1054687 0,1.2304687 -0.72461,2.3242188 -0.71094,1.08007807 -2.06446,1.68164057 -1.35351,0.58789063 -3.0625,0.58789063 -2.83007,0 -4.32031,-1.17578125 -1.47656,-1.17578125 -1.88672,-3.48632815 z" /></g></g><g
           id="g44"><g
             id="text48"
             style="font-variant:normal;font-weight:normal;font-size:28px;font-family:Arial;-inkscape-font-specification:ArialMT;writing-mode:lr-tb;fill:#009c98;fill-opacity:1;fill-rule:nonzero;stroke:none"
             transform="matrix(1,0,0,-1,375.1,175.3)"
             aria-label="of Bad Slides"><path
               id="path134"
               style=""
               d="m 0.9296875,-7.2597656 q 0,-4.0332034 2.2421875,-5.9746094 1.8730469,-1.613281 4.5664062,-1.613281 2.9941408,0 4.8945318,1.96875 1.90039,1.955078 1.90039,5.4140623 0,2.8027343 -0.847656,4.4160156 -0.833984,1.5996094 -2.447266,2.48828123 Q 9.6386719,0.328125 7.7382812,0.328125 q -3.0488281,0 -4.9355468,-1.9550781 -1.8730469,-1.9550782 -1.8730469,-5.6328125 z m 2.5292969,0 q 0,2.7890625 1.2167968,4.1835937 1.2167969,1.3808594 3.0625,1.3808594 1.8320313,0 3.0488278,-1.3945313 1.216797,-1.3945312 1.216797,-4.2519531 0,-2.6933591 -1.230468,-4.0742191 -1.2167974,-1.394531 -3.0351568,-1.394531 -1.8457031,0 -3.0625,1.380859 -1.2167968,1.38086 -1.2167968,4.1699224 z" /><path
               id="path136"
               style=""
               d="m 18.001594,0 v -12.605469 h -2.173829 v -1.914062 h 2.173829 v -1.544922 q 0,-1.462891 0.259765,-2.173828 0.355469,-0.957031 1.244141,-1.544922 0.902344,-0.601563 2.515625,-0.601563 1.039062,0 2.296875,0.246094 l -0.369141,2.146485 q -0.765625,-0.136719 -1.449219,-0.136719 -1.121093,0 -1.585937,0.478515 -0.464844,0.478516 -0.464844,1.791016 v 1.339844 h 2.830078 v 1.914062 H 20.448859 V 0 Z" /><path
               id="path138"
               style=""
               d="m 33.186781,0 v -20.042969 h 7.519531 q 2.296875,0 3.677735,0.615235 1.394531,0.601562 2.173828,1.873047 0.792968,1.257812 0.792968,2.638671 0,1.285157 -0.697265,2.419922 -0.697266,1.134766 -2.105469,1.832031 1.818359,0.533204 2.789063,1.8183599 0.984375,1.2851562 0.984375,3.0351562 0,1.4082032 -0.601563,2.625 -0.587891,1.203125 -1.462891,1.859375 -0.875,0.65625003 -2.201171,0.9980469 Q 42.743422,0 40.829359,0 Z m 2.652344,-11.621094 h 4.333984 q 1.763672,0 2.529297,-0.232422 1.011719,-0.300781 1.517578,-0.998047 0.519531,-0.697265 0.519531,-1.75 0,-0.998046 -0.478515,-1.749999 -0.478516,-0.765625 -1.367188,-1.039063 -0.888672,-0.287109 -3.048828,-0.287109 h -4.005859 z m 0,9.2558596 h 4.990234 q 1.285156,0 1.804688,-0.095703 0.916015,-0.1640625 1.53125,-0.546875 0.615234,-0.3828125 1.011718,-1.1074219 0.396485,-0.7382812 0.396485,-1.6953125 0,-1.1210937 -0.574219,-1.9414062 -0.574219,-0.8339844 -1.599609,-1.1621094 -1.011719,-0.3417969 -2.925782,-0.3417969 h -4.634765 z" /><path
               id="path140"
               style=""
               d="M 61.048313,-1.7910156 Q 59.681126,-0.62890625 58.409641,-0.15039062 57.151829,0.328125 55.70261,0.328125 q -2.392578,0 -3.677734,-1.16210938 -1.285157,-1.17578122 -1.285157,-2.99414062 0,-1.0664062 0.478516,-1.9414062 0.492188,-0.8886719 1.271484,-1.421875 0.792969,-0.5332032 1.777344,-0.8066407 0.72461,-0.1914062 2.1875,-0.3691406 2.980469,-0.3554688 4.388672,-0.8476563 0.01367,-0.5058593 0.01367,-0.6425781 0,-1.5039061 -0.697266,-2.1191411 -0.943359,-0.833984 -2.802734,-0.833984 -1.736328,0 -2.570313,0.615234 -0.820312,0.601563 -1.216796,2.146485 l -2.40625,-0.328125 q 0.328125,-1.544922 1.080078,-2.488281 0.751953,-0.957032 2.173828,-1.462891 1.421875,-0.519531 3.294922,-0.519531 1.859375,0 3.021484,0.4375 1.162109,0.4375 1.708984,1.107422 0.546875,0.65625 0.765625,1.667968 0.123047,0.628907 0.123047,2.2695316 v 3.28125 q 0,3.4316406 0.150391,4.3476563 Q 63.645969,-0.83398438 64.110813,0 h -2.570312 q -0.382813,-0.765625 -0.492188,-1.7910156 z m -0.205078,-5.4960938 q -1.339844,0.546875 -4.019531,0.9296875 -1.517578,0.21875 -2.146485,0.4921875 -0.628906,0.2734375 -0.970703,0.8066407 -0.341797,0.5195312 -0.341797,1.1621093 0,0.984375 0.738282,1.640625 0.751953,0.65625 2.1875,0.65625 1.421875,0 2.529297,-0.6152344 1.107421,-0.6289062 1.626953,-1.7089843 0.396484,-0.8339844 0.396484,-2.4609375 z" /><path
               id="path142"
               style=""
               d="m 76.561623,0 v -1.8320312 q -1.38086,2.1601562 -4.060547,2.1601562 -1.736328,0 -3.199219,-0.95703125 -1.449219,-0.95703125 -2.255859,-2.66601565 -0.792969,-1.7226562 -0.792969,-3.9511718 0,-2.1738282 0.724609,-3.9375003 0.72461,-1.777344 2.173828,-2.720703 1.449219,-0.943359 3.240235,-0.943359 1.3125,0 2.33789,0.560547 1.025391,0.546875 1.667969,1.435546 v -7.191406 h 2.447266 V 0 Z m -7.779297,-7.2460937 q 0,2.7890625 1.175781,4.1699218 1.175781,1.3808594 2.775391,1.3808594 1.613281,0 2.734375,-1.3125 1.134765,-1.3261719 1.134765,-4.0332031 0,-2.9804684 -1.148437,-4.3750004 -1.148438,-1.394531 -2.830078,-1.394531 -1.640625,0 -2.748047,1.339844 -1.09375,1.339844 -1.09375,4.2246093 z" /><path
               id="path144"
               style=""
               d="m 89.905815,-6.4394531 2.501953,-0.21875 q 0.177735,1.5039062 0.820313,2.4746094 0.65625,0.9570312 2.023437,1.5585937 1.367188,0.5878906 3.076172,0.5878906 1.517578,0 2.67969,-0.4511719 1.16211,-0.4511718 1.72265,-1.2304687 0.57422,-0.7929687 0.57422,-1.7226562 0,-0.9433594 -0.54687,-1.640625 -0.54688,-0.7109375 -1.80469,-1.1894532 -0.80664,-0.3144531 -3.568359,-0.9707031 Q 94.622612,-9.9121094 93.51519,-10.5 q -1.435547,-0.751953 -2.146484,-1.859375 -0.697266,-1.121094 -0.697266,-2.501953 0,-1.517578 0.861328,-2.830078 0.861328,-1.326172 2.515625,-2.009766 1.654297,-0.683594 3.677735,-0.683594 2.228515,0 3.923832,0.72461 1.70898,0.710937 2.625,2.105469 0.91601,1.394531 0.98437,3.158203 l -2.54297,0.191406 q -0.20508,-1.900391 -1.39453,-2.871094 -1.17578,-0.970703 -3.486327,-0.970703 -2.40625,0 -3.513672,0.888672 -1.09375,0.875 -1.09375,2.11914 0,1.080079 0.779297,1.777344 0.765625,0.697266 3.992187,1.435547 3.240235,0.724609 4.443355,1.271484 1.75,0.8066411 2.58399,2.0507817 0.83398,1.2304688 0.83398,2.8437501 0,1.5996093 -0.91601,3.0214843 -0.91602,1.4082032 -2.63867,2.2011719 -1.70899,0.77929688 -3.855473,0.77929688 -2.720703,0 -4.566406,-0.79296876 -1.832032,-0.79296872 -2.884766,-2.37890622 -1.039062,-1.5996094 -1.09375,-3.609375 z" /><path
               id="path146"
               style=""
               d="m 109.03101,0 v -20.042969 h 2.46094 V 0 Z" /><path
               id="path148"
               style=""
               d="m 115.28738,-17.212891 v -2.830078 h 2.46093 v 2.830078 z m 0,17.212891 v -14.519531 h 2.46093 V 0 Z" /><path
               id="path150"
               style=""
               d="m 130.96562,0 v -1.8320312 q -1.38086,2.1601562 -4.06054,2.1601562 -1.73633,0 -3.19922,-0.95703125 -1.44922,-0.95703125 -2.25586,-2.66601565 -0.79297,-1.7226562 -0.79297,-3.9511718 0,-2.1738282 0.72461,-3.9375003 0.72461,-1.777344 2.17383,-2.720703 1.44921,-0.943359 3.24023,-0.943359 1.3125,0 2.33789,0.560547 1.02539,0.546875 1.66797,1.435546 v -7.191406 h 2.44727 V 0 Z m -7.77929,-7.2460937 q 0,2.7890625 1.17578,4.1699218 1.17578,1.3808594 2.77539,1.3808594 1.61328,0 2.73437,-1.3125 1.13477,-1.3261719 1.13477,-4.0332031 0,-2.9804684 -1.14844,-4.3750004 -1.14844,-1.394531 -2.83008,-1.394531 -1.64062,0 -2.74804,1.339844 -1.09375,1.339844 -1.09375,4.2246093 z" /><path
               id="path152"
               style=""
               d="m 146.99716,-4.6757812 2.54297,0.3144531 q -0.60156,2.2285156 -2.22852,3.45898435 -1.62695,1.23046875 -4.15625,1.23046875 -3.18554,0 -5.05859,-1.9550781 -1.85937,-1.96875 -1.85937,-5.5097656 0,-3.6640623 1.88671,-5.6875003 1.88672,-2.023437 4.89454,-2.023437 2.91211,0 4.75781,1.982422 1.8457,1.982421 1.8457,5.5781246 0,0.21875 -0.0137,0.65625 h -10.82813 q 0.13672,2.3925782 1.35352,3.6640625 1.2168,1.2714844 3.03516,1.2714844 1.35351,0 2.31054,-0.7109375 0.95703,-0.7109375 1.51758,-2.2695312 z m -8.08008,-3.9785157 h 8.10743 q -0.16407,-1.8320311 -0.92969,-2.7480471 -1.17578,-1.421875 -3.04883,-1.421875 -1.69531,0 -2.85742,1.134766 -1.14844,1.134765 -1.27149,3.0351561 z" /><path
               id="path154"
               style=""
               d="m 151.75333,-4.3339844 2.43359,-0.3828125 q 0.20508,1.4628906 1.13477,2.2421875 0.94336,0.7792969 2.625,0.7792969 1.69531,0 2.51562,-0.6835938 0.82031,-0.6972656 0.82031,-1.6269531 0,-0.8339843 -0.72461,-1.3125 -0.50586,-0.328125 -2.51562,-0.8339843 -2.70703,-0.6835938 -3.75977,-1.1757813 -1.03906,-0.5058594 -1.58593,-1.3808594 -0.53321,-0.8886719 -0.53321,-1.9550786 0,-0.970703 0.4375,-1.791015 0.45117,-0.833985 1.2168,-1.38086 0.57422,-0.423828 1.55859,-0.710937 0.99805,-0.300781 2.13282,-0.300781 1.70898,0 2.99414,0.492187 1.29882,0.492188 1.91406,1.339844 0.61523,0.833984 0.84766,2.242187 l -2.40625,0.328125 q -0.16407,-1.121093 -0.95704,-1.75 -0.77929,-0.628906 -2.21484,-0.628906 -1.69531,0 -2.41992,0.560547 -0.72461,0.560547 -0.72461,1.3125 0,0.478516 0.30078,0.861328 0.30078,0.3964846 0.94336,0.6562502 0.36914,0.1367188 2.17383,0.6289063 2.61133,0.6972656 3.63672,1.1484375 1.03906,0.4375 1.62695,1.2851563 0.58789,0.8476562 0.58789,2.1054687 0,1.2304687 -0.72461,2.3242188 -0.71094,1.08007807 -2.06445,1.68164057 -1.35352,0.58789063 -3.0625,0.58789063 -2.83008,0 -4.32031,-1.17578125 -1.47657,-1.17578125 -1.88672,-3.48632815 z" /></g></g></g></g></g></svg>