<?xml version="1.0" encoding="UTF-8" standalone="no"?>
<svg
   xmlns:dc="http://purl.org/dc/elements/1.1/"
   xmlns:cc="http://creativecommons.org/ns#"
   xmlns:rdf="http://www.w3.org/1999/02/22-rdf-syntax-ns#"
   xmlns:svg="http://www.w3.org/2000/svg"
   xmlns="http://www.w3.org/2000/svg"
   viewBox="0 0 960 720"
   height="720"
   width="960"
   xml:space="preserve"
   id="svg2"
   version="1.1"><metadata
     id="metadata8"><rdf:RDF><cc:Work
         rdf:about=""><dc:format>image/svg+xml</dc:format><dc:type
           rdf:resource="http://purl.org/dc/dcmitype/StillImage" /></cc:Work></rdf:RDF></metadata><defs
     id="defs6"><clipPath
       id="clipPath18"
       clipPathUnits="userSpaceOnUse"><path
         style="clip-rule:evenodd"
         id="path16"
         d="M 0,0 H 720 V 540 H 0 Z" /></clipPath><clipPath
       id="clipPath30"
       clipPathUnits="userSpaceOnUse"><path
         style="clip-rule:evenodd"
         id="path28"
         d="M 0,0 H 702 V 540 H 0 Z" /></clipPath><clipPath
       id="clipPath52"
       clipPathUnits="userSpaceOnUse"><path
         style="clip-rule:evenodd"
         id="path50"
         d="M 0,0 H 720 V 540 H 0 Z" /></clipPath></defs><g
     transform="matrix(1.3333333,0,0,-1.3333333,0,720)"
     id="g10"><g
       id="g12"><g
         clip-path="url(#clipPath18)"
         id="g14"><path
           id="path20"
           style="fill:#ffffff;fill-opacity:1;fill-rule:evenodd;stroke:none"
           d="M 0,540 H 720 V 0 H 0 Z" /><path
           id="path22"
           style="fill:#ffffff;fill-opacity:1;fill-rule:evenodd;stroke:none"
           d="M 0,540 H 720 V 0 H 0 Z" /></g></g><g
       id="g24"><g
         clip-path="url(#clipPath30)"
         id="g26"><path
           id="path32"
           style="fill:#99cc99;fill-opacity:1;fill-rule:evenodd;stroke:none"
           d="M 30,0 H 0 V 540 H 60 V 0 Z" /><path
           id="path34"
           style="fill:#99cc99;fill-opacity:1;fill-rule:evenodd;stroke:none"
           d="M 153,456 H 54 v 84 h 198 v -84 z" /><path
           id="path36"
           style="fill:#ffffff;fill-opacity:1;fill-rule:evenodd;stroke:none"
           d="M 84,480 C 72,480 60,468 60,456 v 0 c 0,-12 12,-24 24,-24 h 354 c 12,0 24,12 24,24 v 0 c 0,12 -12,24 -24,24 z m -24,0 z m 402,-48 z" /><g
           id="g38" /><g
           id="g40" /><path
           id="path42"
           style="fill:#003366;fill-opacity:1;fill-rule:evenodd;stroke:none"
           d="m 48,384 v 0 -25 0 h 552 v 0 25 0 z m 0,0 z m 552,-25 z" /><path
           id="path44"
           style="fill:#003366;fill-opacity:1;fill-rule:evenodd;stroke:none"
           d="M 33.5,384 C 25.7,384 18,377.7 18,371.5 c 0,-6.3 7.7,-12.6 15.5,-12.6 H 49 V 384 Z M 49,384 Z M 18,358.9 Z" /></g></g><g
       id="g46"><g
         clip-path="url(#clipPath52)"
         id="g48"><g
           id="g54"><g
             id="text58"
             style="font-variant:normal;font-weight:bold;font-size:36px;font-family:Arial;-inkscape-font-specification:Arial-BoldMT;writing-mode:lr-tb;fill:#009c98;fill-opacity:1;fill-rule:nonzero;stroke:none"
             transform="matrix(1,0,0,-1,79.1,400.9)"
             aria-label="Graphs - Bad"><path
               id="path100"
               style=""
               d="m 14.607422,-9.4746094 v -4.3417966 h 11.214844 v 10.2656247 q -1.634766,1.5820313 -4.746094,2.79492193 -3.09375,1.1953125 -6.275391,1.1953125 -4.042968,0 -7.0488279,-1.68750003 Q 4.7460937,-2.953125 3.234375,-6.0996094 1.7226562,-9.2636719 1.7226562,-12.972656 q 0,-4.025391 1.6875001,-7.154297 1.6874999,-3.128906 4.9394531,-4.798828 2.4785156,-1.283203 6.1699216,-1.283203 4.798828,0 7.488281,2.021484 2.707032,2.003906 3.480469,5.554688 l -5.167969,0.966796 q -0.544921,-1.898437 -2.05664,-2.988281 -1.494141,-1.107422 -3.744141,-1.107422 -3.410156,0 -5.4316404,2.16211 -2.0039062,2.162109 -2.0039062,6.416015 0,4.5878909 2.0390625,6.8906253 2.0390621,2.2851562 5.3437501,2.2851562 1.634765,0 3.269531,-0.6328125 1.652344,-0.6503906 2.830078,-1.5644531 v -3.2695313 z" /><path
               id="path102"
               style=""
               d="m 35.2125,0 h -4.939454 v -18.667969 h 4.587891 v 2.654297 q 1.177734,-1.880859 2.109375,-2.478515 0.949219,-0.597657 2.144531,-0.597657 1.6875,0 3.251953,0.931641 l -1.529296,4.30664 q -1.248047,-0.808593 -2.320313,-0.808593 -1.037109,0 -1.757812,0.580078 -0.720704,0.5625 -1.142579,2.05664 -0.404296,1.494141 -0.404296,6.257813 z" /><path
               id="path104"
               style=""
               d="M 48.251392,-12.972656 43.76897,-13.78125 q 0.75586,-2.707031 2.601563,-4.007812 1.845703,-1.300782 5.484375,-1.300782 3.304687,0 4.921875,0.791016 1.617187,0.773437 2.267578,1.986328 0.667969,1.195312 0.667969,4.412109 l -0.05273,5.7656254 q 0,2.4609375 0.228516,3.6386718 Q 60.134205,-1.3359375 60.784595,0 h -4.886718 q -0.19336,-0.4921875 -0.47461,-1.4589844 -0.123047,-0.4394531 -0.175781,-0.5800781 -1.265625,1.23046875 -2.707031,1.84570313 -1.441406,0.61523437 -3.076172,0.61523437 -2.882813,0 -4.552734,-1.5644531 -1.652344,-1.5644532 -1.652344,-3.9550781 0,-1.5820313 0.755859,-2.8125 0.75586,-1.2480469 2.109375,-1.8984376 1.371094,-0.6679692 3.9375,-1.1601562 3.462891,-0.650391 4.798828,-1.212891 v -0.492187 q 0,-1.423828 -0.703125,-2.021485 -0.703125,-0.615234 -2.654297,-0.615234 -1.318359,0 -2.05664,0.527344 -0.738281,0.509765 -1.195313,1.810547 z m 6.609375,4.0078122 q -0.949218,0.3164063 -3.005859,0.7558594 -2.056641,0.4394532 -2.689453,0.8613282 -0.966797,0.6855468 -0.966797,1.7402343 0,1.0371094 0.773437,1.7929688 0.773438,0.7558593 1.96875,0.7558593 1.335938,0 2.548829,-0.8789062 0.896484,-0.6679687 1.177734,-1.6347656 0.193359,-0.6328125 0.193359,-2.4082031 z" /><path
               id="path106"
               style=""
               d="m 64.43536,-18.667969 h 4.605469 v 2.742188 q 0.896484,-1.40625 2.425781,-2.285156 1.529297,-0.878907 3.392578,-0.878907 3.251953,0 5.519531,2.548828 2.267578,2.548828 2.267578,7.1015629 0,4.6757812 -2.285156,7.2773437 -2.285156,2.5839844 -5.537109,2.5839844 -1.546875,0 -2.8125,-0.61523437 -1.248047,-0.61523438 -2.636719,-2.10937503 V 7.1015625 H 64.43536 Z m 4.886719,9.0175784 q 0,3.1464844 1.248047,4.6582031 1.248046,1.4941406 3.041015,1.4941406 1.722656,0 2.865235,-1.3710937 1.142578,-1.3886719 1.142578,-4.5351563 0,-2.9355471 -1.177735,-4.3593751 -1.177734,-1.423828 -2.917968,-1.423828 -1.810547,0 -3.00586,1.40625 -1.195312,1.388672 -1.195312,4.1308594 z" /><path
               id="path108"
               style=""
               d="m 91.385857,-25.769531 v 9.474609 q 2.390625,-2.794922 5.71289,-2.794922 1.705078,0 3.076173,0.632813 1.37109,0.632812 2.05664,1.617187 0.70312,0.984375 0.94922,2.179688 0.26367,1.195312 0.26367,3.708984 V 0 h -4.939453 v -9.8613281 q 0,-2.9355469 -0.28125,-3.7265629 -0.28125,-0.791015 -1.001953,-1.248047 -0.703125,-0.474609 -1.77539,-0.474609 -1.230469,0 -2.197266,0.597656 -0.966797,0.597657 -1.423828,1.810547 -0.439453,1.195313 -0.439453,3.5507815 V 0 h -4.939453 v -25.769531 z" /><path
               id="path110"
               style=""
               d="m 106.68375,-5.3261719 4.95703,-0.7558593 q 0.3164,1.4414062 1.2832,2.1972656 0.9668,0.7382812 2.70703,0.7382812 1.91602,0 2.88281,-0.703125 0.6504,-0.4921875 0.6504,-1.3183593 0,-0.5625 -0.35157,-0.9316407 -0.36914,-0.3515625 -1.65234,-0.6503906 -5.97656,-1.3183594 -7.57617,-2.4082031 -2.21485,-1.5117189 -2.21485,-4.2011719 0,-2.425781 1.91602,-4.078125 1.91601,-1.652344 5.94141,-1.652344 3.83203,0 5.69531,1.248047 1.86328,1.248047 2.5664,3.691406 l -4.6582,0.861328 q -0.29883,-1.089843 -1.14258,-1.669921 -0.82617,-0.580079 -2.37304,-0.580079 -1.95118,0 -2.79493,0.544922 -0.5625,0.386719 -0.5625,1.001953 0,0.527344 0.49219,0.896485 0.66797,0.492187 4.60547,1.388672 3.95508,0.896484 5.51953,2.1972654 1.54688,1.3183593 1.54688,3.6738281 0,2.5664062 -2.14453,4.4121094 -2.14454,1.8457031 -6.34571,1.8457031 -3.81445,0 -6.04687,-1.546875 -2.21485,-1.546875 -2.90039,-4.2011719 z" /><path
               id="path112"
               style=""
               d="M 137.81349,-6.8730469 V -11.8125 h 9.70313 v 4.9394531 z" /><path
               id="path114"
               style=""
               d="m 160.38872,-25.769531 h 10.30078 q 3.05859,0 4.55273,0.263672 1.51172,0.246093 2.68946,1.054687 1.19531,0.808594 1.98632,2.16211 0.79102,1.335937 0.79102,3.005859 0,1.810547 -0.98437,3.322265 -0.9668,1.511719 -2.63672,2.267579 2.35547,0.685546 3.62109,2.33789 1.26563,1.652344 1.26563,3.8847659 0,1.7578125 -0.82618,3.4277344 -0.80859,1.6523437 -2.23242,2.6542968 -1.40625,0.98437502 -3.48047,1.21289065 Q 174.13481,-0.03515625 169.1602,0 h -8.77148 z m 5.20312,4.289062 v 5.958985 h 3.41016 q 3.04101,0 3.7793,-0.08789 1.33593,-0.158203 2.09179,-0.914062 0.77344,-0.773438 0.77344,-2.021485 0,-1.195312 -0.66797,-1.933594 -0.65039,-0.755859 -1.95117,-0.914062 -0.77344,-0.08789 -4.44727,-0.08789 z m 0,10.248047 v 6.8906251 h 4.81641 q 2.8125,0 3.56836,-0.1582031 1.16015,-0.2109375 1.88086,-1.0195312 0.73828,-0.8261719 0.73828,-2.1972657 0,-1.1601562 -0.5625,-1.96875 -0.5625,-0.8085941 -1.63477,-1.1777341 -1.05468,-0.369141 -4.60547,-0.369141 z" /><path
               id="path116"
               style=""
               d="m 190.01939,-12.972656 -4.48242,-0.808594 q 0.75586,-2.707031 2.60156,-4.007812 1.84571,-1.300782 5.48438,-1.300782 3.30469,0 4.92187,0.791016 1.61719,0.773437 2.26758,1.986328 0.66797,1.195312 0.66797,4.412109 l -0.0527,5.7656254 q 0,2.4609375 0.22851,3.6386718 Q 201.90221,-1.3359375 202.5526,0 h -4.88672 q -0.19336,-0.4921875 -0.47461,-1.4589844 -0.12305,-0.4394531 -0.17578,-0.5800781 -1.26563,1.23046875 -2.70703,1.84570313 -1.44141,0.61523437 -3.07618,0.61523437 -2.88281,0 -4.55273,-1.5644531 -1.65234,-1.5644532 -1.65234,-3.9550781 0,-1.5820313 0.75586,-2.8125 0.75586,-1.2480469 2.10937,-1.8984376 1.37109,-0.6679692 3.9375,-1.1601562 3.46289,-0.650391 4.79883,-1.212891 v -0.492187 q 0,-1.423828 -0.70313,-2.021485 -0.70312,-0.615234 -2.65429,-0.615234 -1.31836,0 -2.05664,0.527344 -0.73828,0.509765 -1.19532,1.810547 z m 6.60938,4.0078122 q -0.94922,0.3164063 -3.00586,0.7558594 -2.05664,0.4394532 -2.68945,0.8613282 -0.9668,0.6855468 -0.9668,1.7402343 0,1.0371094 0.77344,1.7929688 0.77343,0.7558593 1.96875,0.7558593 1.33593,0 2.54883,-0.8789062 0.89648,-0.6679687 1.17773,-1.6347656 0.19336,-0.6328125 0.19336,-2.4082031 z" /><path
               id="path118"
               style=""
               d="m 223.50108,0 h -4.58789 v -2.7421875 q -1.14258,1.5996094 -2.70703,2.390625 -1.54687,0.7734375 -3.1289,0.7734375 -3.2168,0 -5.51954,-2.5839844 -2.28515,-2.6015625 -2.28515,-7.2421875 0,-4.7460941 2.23242,-7.2070311 2.23242,-2.478516 5.64258,-2.478516 3.1289,0 5.41406,2.601563 v -9.28125 h 4.93945 z m -13.18359,-9.7382813 q 0,2.9882813 0.82617,4.3242188 1.19531,1.9335937 3.33985,1.9335937 1.70507,0 2.90039,-1.4414062 1.19531,-1.4589844 1.19531,-4.3417969 0,-3.2167971 -1.16016,-4.6230471 -1.16015,-1.423828 -2.9707,-1.423828 -1.75781,0 -2.95313,1.40625 -1.17773,1.388672 -1.17773,4.1660157 z" /></g></g><g
           id="text62"
           style="font-variant:normal;font-weight:normal;font-size:21px;font-family:OpenSymbol;-inkscape-font-specification:OpenSymbol;writing-mode:lr-tb;fill:#003366;fill-opacity:1;fill-rule:nonzero;stroke:none"
           transform="matrix(1,0,0,-1,79.1,327.1)"
           aria-label=""><path
             id="path121"
             style=""
             d="m 3.129,-14.364 h 10.479 q -0.315,3.696 -0.945,5.922 L 11.172,-8.61 q 0.714,-2.31 0.882,-4.368 H 3.129 Z" /></g><g
           id="text66"
           style="font-variant:normal;font-weight:normal;font-size:28px;font-family:Arial;-inkscape-font-specification:ArialMT;writing-mode:lr-tb;fill:#003366;fill-opacity:1;fill-rule:nonzero;stroke:none"
           transform="matrix(1,0,0,-1,106,322.2)"
           aria-label="Minor gridlines are unnecessary"><path
             id="path124"
             style=""
             d="m 2.078125,0 v -20.042969 h 3.9921875 l 4.7441405,14.1914065 q 0.65625,1.9824219 0.957031,2.9667969 0.341797,-1.09375 1.066407,-3.2128906 l 4.798828,-13.9453128 h 3.568359 V 0 H 18.648437 V -16.775391 L 12.824219,0 H 10.431641 L 4.6347656,-17.0625 V 0 Z" /><path
             id="path126"
             style=""
             d="m 25.155375,-17.212891 v -2.830078 h 2.460937 v 2.830078 z m 0,17.212891 v -14.519531 h 2.460937 V 0 Z" /><path
             id="path128"
             style=""
             d="m 31.413704,0 v -14.519531 h 2.214844 v 2.064453 q 1.599609,-2.392578 4.621093,-2.392578 1.3125,0 2.40625,0.478515 1.107422,0.464844 1.654297,1.230469 0.546875,0.765625 0.765625,1.818359 0.136719,0.683594 0.136719,2.3925786 V 0 h -2.460937 v -8.8320313 q 0,-1.5039067 -0.28711,-2.2421877 -0.287109,-0.751953 -1.02539,-1.189453 -0.72461,-0.451172 -1.708985,-0.451172 -1.572265,0 -2.720703,0.998047 -1.134766,0.998047 -1.134766,3.7871095 V 0 Z" /><path
             id="path130"
             style=""
             d="m 46.065689,-7.2597656 q 0,-4.0332034 2.242188,-5.9746094 1.873046,-1.613281 4.566406,-1.613281 2.99414,0 4.894531,1.96875 1.900391,1.955078 1.900391,5.4140623 0,2.8027343 -0.847657,4.4160156 -0.833984,1.5996094 -2.447265,2.48828123 -1.59961,0.88867187 -3.5,0.88867187 -3.048828,0 -4.935547,-1.9550781 -1.873047,-1.9550782 -1.873047,-5.6328125 z m 2.529297,0 q 0,2.7890625 1.216797,4.1835937 1.216797,1.3808594 3.0625,1.3808594 1.832031,0 3.048828,-1.3945313 1.216797,-1.3945312 1.216797,-4.2519531 0,-2.6933591 -1.230469,-4.0742191 -1.216797,-1.394531 -3.035156,-1.394531 -1.845703,0 -3.0625,1.380859 -1.216797,1.38086 -1.216797,4.1699224 z" /><path
             id="path132"
             style=""
             d="m 62.522358,0 v -14.519531 h 2.214844 v 2.201172 q 0.847656,-1.544922 1.558593,-2.03711 0.72461,-0.492187 1.585938,-0.492187 1.244141,0 2.529297,0.792968 l -0.847656,2.283204 q -0.902344,-0.533204 -1.804688,-0.533204 -0.806641,0 -1.449219,0.492188 -0.642578,0.478516 -0.916015,1.339844 -0.410157,1.3124997 -0.410157,2.8710935 V 0 Z" /><path
             id="path134"
             style=""
             d="m 79.178528,1.203125 2.392578,0.3554687 q 0.150391,1.1074219 0.833984,1.6132813 0.916016,0.6835938 2.501953,0.6835938 1.708985,0 2.638672,-0.6835938 0.929688,-0.6835937 1.257813,-1.9140625 0.191406,-0.75195313 0.177734,-3.1582031 Q 87.367981,0 84.961731,0 81.96759,0 80.326965,-2.1601563 78.68634,-4.3203125 78.68634,-7.3417969 q 0,-2.078125 0.751953,-3.8281251 0.751954,-1.763672 2.173829,-2.720703 1.435546,-0.957031 3.363281,-0.957031 2.570312,0 4.238281,2.078125 v -1.75 h 2.269531 V -1.96875 q 0,3.390625 -0.697265,4.7988281 -0.683594,1.421875 -2.1875,2.2421875 -1.490235,0.8203125 -3.677735,0.8203125 -2.597656,0 -4.197265,-1.1757812 Q 79.12384,3.5546875 79.178528,1.203125 Z m 2.037109,-8.7226562 q 0,2.8574218 1.134766,4.1699218 1.134765,1.3125 2.84375,1.3125 1.695312,0 2.84375,-1.2988281 1.148437,-1.3125 1.148437,-4.1015625 0,-2.666016 -1.189453,-4.019531 -1.175781,-1.353516 -2.84375,-1.353516 -1.640625,0 -2.789062,1.339844 -1.148438,1.326172 -1.148438,3.9511718 z" /><path
             id="path136"
             style=""
             d="m 95.170357,0 v -14.519531 h 2.214844 v 2.201172 q 0.847656,-1.544922 1.558593,-2.03711 0.72461,-0.492187 1.585936,-0.492187 1.24414,0 2.5293,0.792968 l -0.84766,2.283204 q -0.90234,-0.533204 -1.80469,-0.533204 -0.806636,0 -1.449214,0.492188 -0.642578,0.478516 -0.916015,1.339844 -0.410157,1.3124997 -0.410157,2.8710935 V 0 Z" /><path
             id="path138"
             style=""
             d="m 104.59138,-17.212891 v -2.830078 h 2.46093 v 2.830078 z m 0,17.212891 v -14.519531 h 2.46093 V 0 Z" /><path
             id="path140"
             style=""
             d="m 120.18562,0 v -1.8320312 q -1.38086,2.1601562 -4.06054,2.1601562 -1.73633,0 -3.19922,-0.95703125 -1.44922,-0.95703125 -2.25586,-2.66601565 -0.79297,-1.7226562 -0.79297,-3.9511718 0,-2.1738282 0.72461,-3.9375003 0.72461,-1.777344 2.17383,-2.720703 1.44922,-0.943359 3.24023,-0.943359 1.3125,0 2.33789,0.560547 1.02539,0.546875 1.66797,1.435546 v -7.191406 h 2.44727 V 0 Z m -7.77929,-7.2460937 q 0,2.7890625 1.17578,4.1699218 1.17578,1.3808594 2.77539,1.3808594 1.61328,0 2.73437,-1.3125 1.13477,-1.3261719 1.13477,-4.0332031 0,-2.9804684 -1.14844,-4.3750004 -1.14844,-1.394531 -2.83008,-1.394531 -1.64062,0 -2.74804,1.339844 -1.09375,1.339844 -1.09375,4.2246093 z" /><path
             id="path142"
             style=""
             d="m 126.27901,0 v -20.042969 h 2.46094 V 0 Z" /><path
             id="path144"
             style=""
             d="m 132.61937,-17.212891 v -2.830078 h 2.46094 v 2.830078 z m 0,17.212891 v -14.519531 h 2.46094 V 0 Z" /><path
             id="path146"
             style=""
             d="m 138.7937,0 v -14.519531 h 2.21484 v 2.064453 q 1.59961,-2.392578 4.6211,-2.392578 1.3125,0 2.40625,0.478515 1.10742,0.464844 1.6543,1.230469 0.54687,0.765625 0.76562,1.818359 0.13672,0.683594 0.13672,2.3925786 V 0 h -2.46094 v -8.8320313 q 0,-1.5039067 -0.28711,-2.2421877 -0.28711,-0.751953 -1.02539,-1.189453 -0.72461,-0.451172 -1.70898,-0.451172 -1.57227,0 -2.72071,0.998047 -1.13476,0.998047 -1.13476,3.7871095 V 0 Z" /><path
             id="path148"
             style=""
             d="m 164.30116,-4.6757812 2.54297,0.3144531 q -0.60156,2.2285156 -2.22851,3.45898435 -1.62696,1.23046875 -4.15625,1.23046875 -3.18555,0 -5.0586,-1.9550781 -1.85937,-1.96875 -1.85937,-5.5097656 0,-3.6640623 1.88672,-5.6875003 1.88671,-2.023437 4.89453,-2.023437 2.91211,0 4.75781,1.982422 1.8457,1.982421 1.8457,5.5781246 0,0.21875 -0.0137,0.65625 h -10.82812 q 0.13671,2.3925782 1.35351,3.6640625 1.2168,1.2714844 3.03516,1.2714844 1.35351,0 2.31054,-0.7109375 0.95704,-0.7109375 1.51758,-2.2695312 z m -8.08008,-3.9785157 h 8.10743 q -0.16407,-1.8320311 -0.92969,-2.7480471 -1.17578,-1.421875 -3.04883,-1.421875 -1.69531,0 -2.85742,1.134766 -1.14844,1.134765 -1.27149,3.0351561 z" /><path
             id="path150"
             style=""
             d="m 168.94533,-4.3339844 2.43359,-0.3828125 q 0.20508,1.4628906 1.13477,2.2421875 0.94336,0.7792969 2.625,0.7792969 1.69531,0 2.51562,-0.6835938 0.82031,-0.6972656 0.82031,-1.6269531 0,-0.8339843 -0.7246,-1.3125 -0.50586,-0.328125 -2.51563,-0.8339843 -2.70703,-0.6835938 -3.75977,-1.1757813 -1.03906,-0.5058594 -1.58593,-1.3808594 -0.53321,-0.8886719 -0.53321,-1.9550786 0,-0.970703 0.4375,-1.791015 0.45118,-0.833985 1.2168,-1.38086 0.57422,-0.423828 1.55859,-0.710937 0.99805,-0.300781 2.13282,-0.300781 1.70898,0 2.99414,0.492187 1.29883,0.492188 1.91406,1.339844 0.61523,0.833984 0.84766,2.242187 l -2.40625,0.328125 q -0.16407,-1.121093 -0.95703,-1.75 -0.7793,-0.628906 -2.21485,-0.628906 -1.69531,0 -2.41992,0.560547 -0.72461,0.560547 -0.72461,1.3125 0,0.478516 0.30078,0.861328 0.30078,0.3964846 0.94336,0.6562502 0.36914,0.1367188 2.17383,0.6289063 2.61133,0.6972656 3.63672,1.1484375 1.03906,0.4375 1.62695,1.2851563 0.58789,0.8476562 0.58789,2.1054687 0,1.2304687 -0.72461,2.3242188 -0.71094,1.08007807 -2.06445,1.68164057 -1.35352,0.58789063 -3.0625,0.58789063 -2.83008,0 -4.32031,-1.17578125 -1.47657,-1.17578125 -1.88672,-3.48632815 z" /><path
             id="path152"
             style=""
             d="m 201.18831,-1.7910156 q -1.36719,1.16210935 -2.63867,1.64062498 -1.25782,0.47851562 -2.70703,0.47851562 -2.39258,0 -3.67774,-1.16210938 -1.28516,-1.17578122 -1.28516,-2.99414062 0,-1.0664062 0.47852,-1.9414062 0.49219,-0.8886719 1.27148,-1.421875 0.79297,-0.5332032 1.77735,-0.8066407 0.72461,-0.1914062 2.1875,-0.3691406 2.98047,-0.3554688 4.38867,-0.8476563 0.0137,-0.5058593 0.0137,-0.6425781 0,-1.5039061 -0.69726,-2.1191411 -0.94336,-0.833984 -2.80274,-0.833984 -1.73633,0 -2.57031,0.615234 -0.82031,0.601563 -1.2168,2.146485 l -2.40625,-0.328125 q 0.32813,-1.544922 1.08008,-2.488281 0.75195,-0.957032 2.17383,-1.462891 1.42187,-0.519531 3.29492,-0.519531 1.85938,0 3.02149,0.4375 1.1621,0.4375 1.70898,1.107422 0.54687,0.65625 0.76562,1.667968 0.12305,0.628907 0.12305,2.2695316 v 3.28125 q 0,3.4316406 0.15039,4.3476563 Q 203.78596,-0.83398438 204.25081,0 h -2.57031 q -0.38282,-0.765625 -0.49219,-1.7910156 z m -0.20508,-5.4960938 q -1.33984,0.546875 -4.01953,0.9296875 -1.51758,0.21875 -2.14649,0.4921875 -0.6289,0.2734375 -0.9707,0.8066407 -0.3418,0.5195312 -0.3418,1.1621093 0,0.984375 0.73829,1.640625 0.75195,0.65625 2.1875,0.65625 1.42187,0 2.52929,-0.6152344 1.10742,-0.6289062 1.62696,-1.7089843 0.39648,-0.8339844 0.39648,-2.4609375 z" /><path
             id="path154"
             style=""
             d="m 207.25436,0 v -14.519531 h 2.21485 v 2.201172 q 0.84765,-1.544922 1.55859,-2.03711 0.72461,-0.492187 1.58594,-0.492187 1.24414,0 2.5293,0.792968 l -0.84766,2.283204 q -0.90234,-0.533204 -1.80469,-0.533204 -0.80664,0 -1.44922,0.492188 -0.64257,0.478516 -0.91601,1.339844 -0.41016,1.3124997 -0.41016,2.8710935 V 0 Z" /><path
             id="path156"
             style=""
             d="m 226.60115,-4.6757812 2.54297,0.3144531 q -0.60156,2.2285156 -2.22852,3.45898435 -1.62695,1.23046875 -4.15625,1.23046875 -3.18554,0 -5.05859,-1.9550781 -1.85938,-1.96875 -1.85938,-5.5097656 0,-3.6640623 1.88672,-5.6875003 1.88672,-2.023437 4.89453,-2.023437 2.91211,0 4.75782,1.982422 1.8457,1.982421 1.8457,5.5781246 0,0.21875 -0.0137,0.65625 h -10.82813 q 0.13672,2.3925782 1.35352,3.6640625 1.2168,1.2714844 3.03516,1.2714844 1.35351,0 2.31054,-0.7109375 0.95703,-0.7109375 1.51758,-2.2695312 z m -8.08008,-3.9785157 h 8.10742 q -0.16406,-1.8320311 -0.92968,-2.7480471 -1.17578,-1.421875 -3.04883,-1.421875 -1.69531,0 -2.85742,1.134766 -1.14844,1.134765 -1.27149,3.0351561 z" /><path
             id="path158"
             style=""
             d="m 249.52933,0 v -2.1328125 q -1.69532,2.4609375 -4.60742,2.4609375 -1.28516,0 -2.40625,-0.4921875 -1.10743,-0.4921875 -1.6543,-1.2304687 -0.5332,-0.7519532 -0.75195,-1.8320313 -0.1504,-0.7246094 -0.1504,-2.296875 v -8.9960935 h 2.46094 v 8.0527341 q 0,1.9277344 0.15039,2.5976563 0.23242,0.9707031 0.98438,1.53125 0.75195,0.546875 1.85937,0.546875 1.10742,0 2.07813,-0.5605469 0.9707,-0.5742188 1.36719,-1.5449219 0.41015,-0.984375 0.41015,-2.84375 v -7.7792966 h 2.46094 V 0 Z" /><path
             id="path160"
             style=""
             d="m 255.5817,0 v -14.519531 h 2.21484 v 2.064453 q 1.59961,-2.392578 4.62109,-2.392578 1.3125,0 2.40625,0.478515 1.10742,0.464844 1.6543,1.230469 0.54687,0.765625 0.76562,1.818359 0.13672,0.683594 0.13672,2.3925786 V 0 h -2.46093 v -8.8320313 q 0,-1.5039067 -0.28711,-2.2421877 -0.28711,-0.751953 -1.02539,-1.189453 -0.72461,-0.451172 -1.70899,-0.451172 -1.57226,0 -2.7207,0.998047 -1.13477,0.998047 -1.13477,3.7871095 V 0 Z" /><path
             id="path162"
             style=""
             d="m 271.14969,0 v -14.519531 h 2.21484 v 2.064453 q 1.59961,-2.392578 4.6211,-2.392578 1.3125,0 2.40625,0.478515 1.10742,0.464844 1.65429,1.230469 0.54688,0.765625 0.76563,1.818359 0.13672,0.683594 0.13672,2.3925786 V 0 h -2.46094 v -8.8320313 q 0,-1.5039067 -0.28711,-2.2421877 -0.28711,-0.751953 -1.02539,-1.189453 -0.72461,-0.451172 -1.70899,-0.451172 -1.57226,0 -2.7207,0.998047 -1.13476,0.998047 -1.13476,3.7871095 V 0 Z" /><path
             id="path164"
             style=""
             d="m 296.65717,-4.6757812 2.54296,0.3144531 q -0.60156,2.2285156 -2.22851,3.45898435 -1.62695,1.23046875 -4.15625,1.23046875 -3.18555,0 -5.0586,-1.9550781 -1.85937,-1.96875 -1.85937,-5.5097656 0,-3.6640623 1.88672,-5.6875003 1.88672,-2.023437 4.89453,-2.023437 2.91211,0 4.75781,1.982422 1.84571,1.982421 1.84571,5.5781246 0,0.21875 -0.0137,0.65625 h -10.82812 q 0.13672,2.3925782 1.35351,3.6640625 1.2168,1.2714844 3.03516,1.2714844 1.35352,0 2.31055,-0.7109375 0.95703,-0.7109375 1.51758,-2.2695312 z m -8.08008,-3.9785157 h 8.10742 q -0.16406,-1.8320311 -0.92969,-2.7480471 -1.17578,-1.421875 -3.04883,-1.421875 -1.69531,0 -2.85742,1.134766 -1.14844,1.134765 -1.27148,3.0351561 z" /><path
             id="path166"
             style=""
             d="m 311.76031,-5.3183594 2.41993,0.3144532 q -0.39649,2.5019531 -2.03711,3.9238281 -1.62696,1.4082031 -4.00586,1.4082031 -2.98047,0 -4.79883,-1.9414062 -1.80469,-1.9550782 -1.80469,-5.5917969 0,-2.3515625 0.7793,-4.1152349 0.7793,-1.763671 2.36523,-2.638671 1.59961,-0.888672 3.47266,-0.888672 2.36523,0 3.86914,1.203125 1.50391,1.189453 1.92773,3.390625 l -2.39257,0.3691404 q -0.3418,-1.4628904 -1.2168,-2.2011724 -0.86133,-0.738281 -2.0918,-0.738281 -1.85937,0 -3.02148,1.339844 -1.16211,1.326172 -1.16211,4.2109375 0,2.9257813 1.12109,4.2519531 1.1211,1.3261719 2.92578,1.3261719 1.44922,0 2.41993,-0.8886719 0.9707,-0.8886719 1.23046,-2.734375 z" /><path
             id="path168"
             style=""
             d="m 326.30914,-4.6757812 2.54297,0.3144531 q -0.60156,2.2285156 -2.22851,3.45898435 -1.62696,1.23046875 -4.15625,1.23046875 -3.18555,0 -5.0586,-1.9550781 -1.85937,-1.96875 -1.85937,-5.5097656 0,-3.6640623 1.88672,-5.6875003 1.88671,-2.023437 4.89453,-2.023437 2.91211,0 4.75781,1.982422 1.8457,1.982421 1.8457,5.5781246 0,0.21875 -0.0137,0.65625 h -10.82812 q 0.13671,2.3925782 1.35351,3.6640625 1.2168,1.2714844 3.03516,1.2714844 1.35351,0 2.31054,-0.7109375 0.95704,-0.7109375 1.51758,-2.2695312 z m -8.08008,-3.9785157 h 8.10743 q -0.16407,-1.8320311 -0.92969,-2.7480471 -1.17578,-1.421875 -3.04883,-1.421875 -1.69531,0 -2.85742,1.134766 -1.14844,1.134765 -1.27149,3.0351561 z" /><path
             id="path170"
             style=""
             d="m 330.89734,-4.3339844 2.43359,-0.3828125 q 0.20508,1.4628906 1.13477,2.2421875 0.94336,0.7792969 2.625,0.7792969 1.69531,0 2.51562,-0.6835938 0.82032,-0.6972656 0.82032,-1.6269531 0,-0.8339843 -0.72461,-1.3125 -0.50586,-0.328125 -2.51563,-0.8339843 -2.70703,-0.6835938 -3.75976,-1.1757813 -1.03907,-0.5058594 -1.58594,-1.3808594 -0.5332,-0.8886719 -0.5332,-1.9550786 0,-0.970703 0.4375,-1.791015 0.45117,-0.833985 1.21679,-1.38086 0.57422,-0.423828 1.5586,-0.710937 0.99804,-0.300781 2.13281,-0.300781 1.70898,0 2.99414,0.492187 1.29883,0.492188 1.91406,1.339844 0.61524,0.833984 0.84766,2.242187 l -2.40625,0.328125 q -0.16406,-1.121093 -0.95703,-1.75 -0.7793,-0.628906 -2.21485,-0.628906 -1.69531,0 -2.41992,0.560547 -0.72461,0.560547 -0.72461,1.3125 0,0.478516 0.30078,0.861328 0.30078,0.3964846 0.94336,0.6562502 0.36914,0.1367188 2.17383,0.6289063 2.61133,0.6972656 3.63672,1.1484375 1.03906,0.4375 1.62695,1.2851563 0.58789,0.8476562 0.58789,2.1054687 0,1.2304687 -0.72461,2.3242188 -0.71093,1.08007807 -2.06445,1.68164057 -1.35352,0.58789063 -3.0625,0.58789063 -2.83008,0 -4.32031,-1.17578125 -1.47656,-1.17578125 -1.88672,-3.48632815 z" /><path
             id="path172"
             style=""
             d="m 344.98132,-4.3339844 2.4336,-0.3828125 q 0.20508,1.4628906 1.13476,2.2421875 0.94336,0.7792969 2.625,0.7792969 1.69532,0 2.51563,-0.6835938 0.82031,-0.6972656 0.82031,-1.6269531 0,-0.8339843 -0.72461,-1.3125 -0.50586,-0.328125 -2.51562,-0.8339843 -2.70704,-0.6835938 -3.75977,-1.1757813 -1.03906,-0.5058594 -1.58594,-1.3808594 -0.5332,-0.8886719 -0.5332,-1.9550786 0,-0.970703 0.4375,-1.791015 0.45117,-0.833985 1.2168,-1.38086 0.57422,-0.423828 1.55859,-0.710937 0.99805,-0.300781 2.13281,-0.300781 1.70899,0 2.99414,0.492187 1.29883,0.492188 1.91407,1.339844 0.61523,0.833984 0.84765,2.242187 l -2.40625,0.328125 q -0.16406,-1.121093 -0.95703,-1.75 -0.7793,-0.628906 -2.21484,-0.628906 -1.69532,0 -2.41992,0.560547 -0.72461,0.560547 -0.72461,1.3125 0,0.478516 0.30078,0.861328 0.30078,0.3964846 0.94336,0.6562502 0.36914,0.1367188 2.17382,0.6289063 2.61133,0.6972656 3.63672,1.1484375 1.03907,0.4375 1.62696,1.2851563 0.58789,0.8476562 0.58789,2.1054687 0,1.2304687 -0.72461,2.3242188 -0.71094,1.08007807 -2.06446,1.68164057 -1.35351,0.58789063 -3.0625,0.58789063 -2.83007,0 -4.32031,-1.17578125 -1.47656,-1.17578125 -1.88672,-3.48632815 z" /><path
             id="path174"
             style=""
             d="m 369.44031,-1.7910156 q -1.36719,1.16210935 -2.63867,1.64062498 -1.25782,0.47851562 -2.70704,0.47851562 -2.39257,0 -3.67773,-1.16210938 -1.28516,-1.17578122 -1.28516,-2.99414062 0,-1.0664062 0.47852,-1.9414062 0.49219,-0.8886719 1.27148,-1.421875 0.79297,-0.5332032 1.77735,-0.8066407 0.72461,-0.1914062 2.1875,-0.3691406 2.98047,-0.3554688 4.38867,-0.8476563 0.0137,-0.5058593 0.0137,-0.6425781 0,-1.5039061 -0.69726,-2.1191411 -0.94336,-0.833984 -2.80274,-0.833984 -1.73633,0 -2.57031,0.615234 -0.82031,0.601563 -1.2168,2.146485 l -2.40625,-0.328125 q 0.32813,-1.544922 1.08008,-2.488281 0.75195,-0.957032 2.17383,-1.462891 1.42187,-0.519531 3.29492,-0.519531 1.85938,0 3.02148,0.4375 1.16211,0.4375 1.70899,1.107422 0.54687,0.65625 0.76562,1.667968 0.12305,0.628907 0.12305,2.2695316 v 3.28125 q 0,3.4316406 0.15039,4.3476563 Q 372.03796,-0.83398438 372.50281,0 h -2.57031 q -0.38282,-0.765625 -0.49219,-1.7910156 z m -0.20508,-5.4960938 q -1.33984,0.546875 -4.01953,0.9296875 -1.51758,0.21875 -2.14649,0.4921875 -0.6289,0.2734375 -0.9707,0.8066407 -0.3418,0.5195312 -0.3418,1.1621093 0,0.984375 0.73829,1.640625 0.75195,0.65625 2.1875,0.65625 1.42187,0 2.52929,-0.6152344 1.10742,-0.6289062 1.62696,-1.7089843 0.39648,-0.8339844 0.39648,-2.4609375 z" /><path
             id="path176"
             style=""
             d="m 375.50635,0 v -14.519531 h 2.21484 v 2.201172 q 0.84766,-1.544922 1.5586,-2.03711 0.7246,-0.492187 1.58593,-0.492187 1.24414,0 2.5293,0.792968 l -0.84766,2.283204 q -0.90234,-0.533204 -1.80468,-0.533204 -0.80664,0 -1.44922,0.492188 -0.64258,0.478516 -0.91602,1.339844 -0.41015,1.3124997 -0.41015,2.8710935 V 0 Z" /><path
             id="path178"
             style=""
             d="M 384.80432,5.5917969 384.53088,3.28125 Q 385.33752,3.5 385.93909,3.5 q 0.82031,0 1.3125,-0.2734375 0.49218,-0.2734375 0.80664,-0.765625 0.23242,-0.3691406 0.75195,-1.83203125 0.0684,-0.20507812 0.21875,-0.6015625 L 383.51917,-14.519531 h 2.65234 l 3.02148,8.4082029 q 0.58789,1.5996094 1.05274,3.3632812 0.42383,-1.6953125 1.01172,-3.3085937 l 3.10351,-8.4628904 h 2.46094 l -5.52344,14.76562475 q -0.88867,2.39257815 -1.38086,3.29492185 -0.65625,1.2167969 -1.5039,1.7773438 -0.84766,0.5742187 -2.02344,0.5742187 -0.71094,0 -1.58594,-0.3007812 z" /></g><g
           id="text70"
           style="font-variant:normal;font-weight:normal;font-size:21px;font-family:OpenSymbol;-inkscape-font-specification:OpenSymbol;writing-mode:lr-tb;fill:#003366;fill-opacity:1;fill-rule:nonzero;stroke:none"
           transform="matrix(1,0,0,-1,79.1,286.5)"
           aria-label=""><path
             id="path181"
             style=""
             d="m 3.129,-14.364 h 10.479 q -0.315,3.696 -0.945,5.922 L 11.172,-8.61 q 0.714,-2.31 0.882,-4.368 H 3.129 Z" /></g><g
           id="text74"
           style="font-variant:normal;font-weight:normal;font-size:28px;font-family:Arial;-inkscape-font-specification:ArialMT;writing-mode:lr-tb;fill:#003366;fill-opacity:1;fill-rule:nonzero;stroke:none"
           transform="matrix(1,0,0,-1,106,281.6)"
           aria-label="Font is too small"><path
             id="path184"
             style=""
             d="m 2.296875,0 v -20.042969 h 13.521484 v 2.365235 H 4.9492187 v 6.207031 h 9.4062503 v 2.3652342 H 4.9492187 V 0 Z" /><path
             id="path186"
             style=""
             d="m 18.009687,-7.2597656 q 0,-4.0332034 2.242188,-5.9746094 1.873047,-1.613281 4.566406,-1.613281 2.994141,0 4.894531,1.96875 1.900391,1.955078 1.900391,5.4140623 0,2.8027343 -0.847656,4.4160156 -0.833985,1.5996094 -2.447266,2.48828123 -1.599609,0.88867187 -3.5,0.88867187 -3.048828,0 -4.935547,-1.9550781 -1.873047,-1.9550782 -1.873047,-5.6328125 z m 2.529297,0 q 0,2.7890625 1.216797,4.1835937 1.216797,1.3808594 3.0625,1.3808594 1.832031,0 3.048828,-1.3945313 1.216797,-1.3945312 1.216797,-4.2519531 0,-2.6933591 -1.230469,-4.0742191 -1.216796,-1.394531 -3.035156,-1.394531 -1.845703,0 -3.0625,1.380859 -1.216797,1.38086 -1.216797,4.1699224 z" /><path
             id="path188"
             style=""
             d="m 34.493702,0 v -14.519531 h 2.214844 v 2.064453 q 1.599609,-2.392578 4.621093,-2.392578 1.3125,0 2.40625,0.478515 1.107422,0.464844 1.654297,1.230469 0.546875,0.765625 0.765625,1.818359 0.136719,0.683594 0.136719,2.3925786 V 0 h -2.460937 v -8.8320313 q 0,-1.5039067 -0.28711,-2.2421877 -0.287109,-0.751953 -1.02539,-1.189453 -0.72461,-0.451172 -1.708985,-0.451172 -1.572265,0 -2.720703,0.998047 -1.134766,0.998047 -1.134766,3.7871095 V 0 Z" /><path
             id="path190"
             style=""
             d="m 55.43475,-2.2011719 0.355468,2.17382815 q -1.039062,0.21875 -1.859375,0.21875 -1.339843,0 -2.078125,-0.42382813 Q 51.114437,-0.65625 50.813656,-1.3398437 50.512875,-2.0371094 50.512875,-4.2519531 v -8.3535159 h -1.804688 v -1.914062 h 1.804688 v -3.595703 l 2.447265,-1.476563 v 5.072266 h 2.47461 v 1.914062 h -2.47461 v 8.4902346 q 0,1.0527344 0.123047,1.3535156 0.136719,0.3007813 0.423828,0.4785157 0.300781,0.1777343 0.847656,0.1777343 0.410157,0 1.080079,-0.095703 z" /><path
             id="path192"
             style=""
             d="m 65.643375,-17.212891 v -2.830078 h 2.460938 v 2.830078 z m 0,17.212891 v -14.519531 h 2.460938 V 0 Z" /><path
             id="path194"
             style=""
             d="m 70.833328,-4.3339844 2.433594,-0.3828125 q 0.205078,1.4628906 1.134766,2.2421875 0.943359,0.7792969 2.625,0.7792969 1.695312,0 2.515625,-0.6835938 0.820312,-0.6972656 0.820312,-1.6269531 0,-0.8339843 -0.724609,-1.3125 -0.50586,-0.328125 -2.515625,-0.8339843 -2.707032,-0.6835938 -3.759766,-1.1757813 -1.039062,-0.5058594 -1.585937,-1.3808594 -0.533204,-0.8886719 -0.533204,-1.9550786 0,-0.970703 0.4375,-1.791015 0.451172,-0.833985 1.216797,-1.38086 0.574219,-0.423828 1.558594,-0.710937 0.998047,-0.300781 2.132813,-0.300781 1.708984,0 2.99414,0.492187 1.298828,0.492188 1.914063,1.339844 0.615234,0.833984 0.847656,2.242187 l -2.40625,0.328125 q -0.164063,-1.121093 -0.957031,-1.75 -0.779297,-0.628906 -2.214844,-0.628906 -1.695313,0 -2.419922,0.560547 -0.724609,0.560547 -0.724609,1.3125 0,0.478516 0.300781,0.861328 0.300781,0.3964846 0.943359,0.6562502 0.369141,0.1367188 2.173828,0.6289063 2.611329,0.6972656 3.636719,1.1484375 1.039063,0.4375 1.626953,1.2851563 0.587891,0.8476562 0.587891,2.1054687 0,1.2304687 -0.724609,2.3242188 -0.710938,1.08007807 -2.064454,1.68164057 -1.353515,0.58789063 -3.0625,0.58789063 -2.830078,0 -4.320312,-1.17578125 -1.476563,-1.17578125 -1.886719,-3.48632815 z" /><path
             id="path196"
             style=""
             d="m 99.058746,-2.2011719 0.355469,2.17382815 q -1.039062,0.21875 -1.859375,0.21875 -1.339844,0 -2.078125,-0.42382813 Q 94.738434,-0.65625 94.437653,-1.3398437 94.136871,-2.0371094 94.136871,-4.2519531 v -8.3535159 h -1.804687 v -1.914062 h 1.804687 v -3.595703 l 2.447266,-1.476563 v 5.072266 h 2.474609 v 1.914062 h -2.474609 v 8.4902346 q 0,1.0527344 0.123047,1.3535156 0.136719,0.3007813 0.423828,0.4785157 0.300781,0.1777343 0.847656,0.1777343 0.410156,0 1.080078,-0.095703 z" /><path
             id="path198"
             style=""
             d="m 100.55369,-7.2597656 q 0,-4.0332034 2.24219,-5.9746094 1.87304,-1.613281 4.5664,-1.613281 2.99414,0 4.89453,1.96875 1.90039,1.955078 1.90039,5.4140623 0,2.8027343 -0.84765,4.4160156 -0.83399,1.5996094 -2.44727,2.48828123 -1.59961,0.88867187 -3.5,0.88867187 -3.04883,0 -4.93555,-1.9550781 -1.87304,-1.9550782 -1.87304,-5.6328125 z m 2.52929,0 q 0,2.7890625 1.2168,4.1835937 1.2168,1.3808594 3.0625,1.3808594 1.83203,0 3.04883,-1.3945313 1.2168,-1.3945312 1.2168,-4.2519531 0,-2.6933591 -1.23047,-4.0742191 -1.2168,-1.394531 -3.03516,-1.394531 -1.8457,0 -3.0625,1.380859 -1.2168,1.38086 -1.2168,4.1699224 z" /><path
             id="path200"
             style=""
             d="m 116.12169,-7.2597656 q 0,-4.0332034 2.24219,-5.9746094 1.87304,-1.613281 4.5664,-1.613281 2.99414,0 4.89453,1.96875 1.90039,1.955078 1.90039,5.4140623 0,2.8027343 -0.84765,4.4160156 -0.83399,1.5996094 -2.44727,2.48828123 -1.59961,0.88867187 -3.5,0.88867187 -3.04883,0 -4.93554,-1.9550781 -1.87305,-1.9550782 -1.87305,-5.6328125 z m 2.5293,0 q 0,2.7890625 1.21679,4.1835937 1.2168,1.3808594 3.0625,1.3808594 1.83203,0 3.04883,-1.3945313 1.2168,-1.3945312 1.2168,-4.2519531 0,-2.6933591 -1.23047,-4.0742191 -1.2168,-1.394531 -3.03516,-1.394531 -1.8457,0 -3.0625,1.380859 -1.21679,1.38086 -1.21679,4.1699224 z" /><path
             id="path202"
             style=""
             d="m 139.40533,-4.3339844 2.4336,-0.3828125 q 0.20508,1.4628906 1.13476,2.2421875 0.94336,0.7792969 2.625,0.7792969 1.69532,0 2.51563,-0.6835938 0.82031,-0.6972656 0.82031,-1.6269531 0,-0.8339843 -0.72461,-1.3125 -0.50586,-0.328125 -2.51562,-0.8339843 -2.70703,-0.6835938 -3.75977,-1.1757813 -1.03906,-0.5058594 -1.58594,-1.3808594 -0.5332,-0.8886719 -0.5332,-1.9550786 0,-0.970703 0.4375,-1.791015 0.45117,-0.833985 1.2168,-1.38086 0.57422,-0.423828 1.55859,-0.710937 0.99805,-0.300781 2.13281,-0.300781 1.70899,0 2.99414,0.492187 1.29883,0.492188 1.91407,1.339844 0.61523,0.833984 0.84765,2.242187 l -2.40625,0.328125 q -0.16406,-1.121093 -0.95703,-1.75 -0.77929,-0.628906 -2.21484,-0.628906 -1.69531,0 -2.41992,0.560547 -0.72461,0.560547 -0.72461,1.3125 0,0.478516 0.30078,0.861328 0.30078,0.3964846 0.94336,0.6562502 0.36914,0.1367188 2.17383,0.6289063 2.61132,0.6972656 3.63671,1.1484375 1.03907,0.4375 1.62696,1.2851563 0.58789,0.8476562 0.58789,2.1054687 0,1.2304687 -0.72461,2.3242188 -0.71094,1.08007807 -2.06445,1.68164057 -1.35352,0.58789063 -3.0625,0.58789063 -2.83008,0 -4.32032,-1.17578125 -1.47656,-1.17578125 -1.88672,-3.48632815 z" /><path
             id="path204"
             style=""
             d="m 154.38971,0 v -14.519531 h 2.20117 v 2.037109 q 0.6836,-1.066406 1.81836,-1.708984 1.13477,-0.65625 2.58399,-0.65625 1.61328,0 2.63867,0.669922 1.03906,0.669921 1.46289,1.873046 1.72265,-2.542968 4.48437,-2.542968 2.16016,0 3.32227,1.203125 1.16211,1.189453 1.16211,3.6777341 V 0 h -2.44727 v -9.1464844 q 0,-1.4765626 -0.24609,-2.1191406 -0.23242,-0.65625 -0.86133,-1.052734 -0.62891,-0.396485 -1.47656,-0.396485 -1.53125,0 -2.54297,1.025391 -1.01172,1.011719 -1.01172,3.2539061 V 0 h -2.46094 v -9.4335938 q 0,-1.6406252 -0.60156,-2.4609372 -0.60156,-0.820313 -1.96875,-0.820313 -1.03906,0 -1.92773,0.546875 -0.875,0.546875 -1.27149,1.59961 -0.39648,1.052734 -0.39648,3.0351559 V 0 Z" /><path
             id="path206"
             style=""
             d="m 187.16031,-1.7910156 q -1.36719,1.16210935 -2.63867,1.64062498 -1.25782,0.47851562 -2.70703,0.47851562 -2.39258,0 -3.67774,-1.16210938 -1.28515,-1.17578122 -1.28515,-2.99414062 0,-1.0664062 0.47851,-1.9414062 0.49219,-0.8886719 1.27149,-1.421875 0.79296,-0.5332032 1.77734,-0.8066407 0.72461,-0.1914062 2.1875,-0.3691406 2.98047,-0.3554688 4.38867,-0.8476563 0.0137,-0.5058593 0.0137,-0.6425781 0,-1.5039061 -0.69726,-2.1191411 -0.94336,-0.833984 -2.80274,-0.833984 -1.73633,0 -2.57031,0.615234 -0.82031,0.601563 -1.2168,2.146485 l -2.40625,-0.328125 q 0.32813,-1.544922 1.08008,-2.488281 0.75195,-0.957032 2.17383,-1.462891 1.42187,-0.519531 3.29492,-0.519531 1.85938,0 3.02149,0.4375 1.16211,0.4375 1.70898,1.107422 0.54688,0.65625 0.76563,1.667968 0.12304,0.628907 0.12304,2.2695316 v 3.28125 q 0,3.4316406 0.15039,4.3476563 Q 189.75797,-0.83398438 190.22281,0 h -2.57031 q -0.38282,-0.765625 -0.49219,-1.7910156 z m -0.20508,-5.4960938 q -1.33984,0.546875 -4.01953,0.9296875 -1.51758,0.21875 -2.14648,0.4921875 -0.62891,0.2734375 -0.97071,0.8066407 -0.34179,0.5195312 -0.34179,1.1621093 0,0.984375 0.73828,1.640625 0.75195,0.65625 2.1875,0.65625 1.42187,0 2.52929,-0.6152344 1.10743,-0.6289062 1.62696,-1.7089843 0.39648,-0.8339844 0.39648,-2.4609375 z" /><path
             id="path208"
             style=""
             d="m 193.19902,0 v -20.042969 h 2.46094 V 0 Z" /><path
             id="path210"
             style=""
             d="m 199.38701,0 v -20.042969 h 2.46094 V 0 Z" /></g><g
           id="text78"
           style="font-variant:normal;font-weight:normal;font-size:21px;font-family:OpenSymbol;-inkscape-font-specification:OpenSymbol;writing-mode:lr-tb;fill:#003366;fill-opacity:1;fill-rule:nonzero;stroke:none"
           transform="matrix(1,0,0,-1,79.1,245.8)"
           aria-label=""><path
             id="path213"
             style=""
             d="m 3.129,-14.364 h 10.479 q -0.315,3.696 -0.945,5.922 L 11.172,-8.61 q 0.714,-2.31 0.882,-4.368 H 3.129 Z" /></g><g
           id="text82"
           style="font-variant:normal;font-weight:normal;font-size:28px;font-family:Arial;-inkscape-font-specification:ArialMT;writing-mode:lr-tb;fill:#003366;fill-opacity:1;fill-rule:nonzero;stroke:none"
           transform="matrix(1,0,0,-1,106,240.9)"
           aria-label="Colours are illogical"><path
             id="path216"
             style=""
             d="m 16.460937,-7.0273437 2.652344,0.6699218 q -0.833984,3.2675781 -3.007812,4.9902344 -2.160156,1.70898438 -5.291016,1.70898438 -3.2402343,0 -5.2773436,-1.31250001 Q 3.5136719,-2.296875 2.4472656,-4.7988281 1.3945312,-7.3007812 1.3945312,-10.171875 q 0,-3.130859 1.1894532,-5.455078 1.203125,-2.337891 3.4042968,-3.541016 2.2148438,-1.216797 4.8671878,-1.216797 3.007812,0 5.058594,1.53125 2.050781,1.53125 2.857421,4.306641 l -2.611328,0.615234 q -0.697265,-2.1875 -2.023437,-3.185546 -1.326172,-0.998047 -3.335938,-0.998047 -2.3105466,0 -3.8691404,1.107422 -1.5449219,1.107421 -2.1738281,2.980468 -0.6289063,1.859375 -0.6289063,3.841797 0,2.5566408 0.7382813,4.4707033 0.7519531,1.9003906 2.3242187,2.8437499 1.5722657,0.9433594 3.4042968,0.9433594 2.228516,0 3.773438,-1.2851562 1.544922,-1.2851563 2.091796,-3.8144531 z" /><path
             id="path218"
             style=""
             d="m 21.117687,-7.2597656 q 0,-4.0332034 2.242188,-5.9746094 1.873047,-1.613281 4.566406,-1.613281 2.994141,0 4.894531,1.96875 1.900391,1.955078 1.900391,5.4140623 0,2.8027343 -0.847656,4.4160156 -0.833985,1.5996094 -2.447266,2.48828123 -1.599609,0.88867187 -3.5,0.88867187 -3.048828,0 -4.935547,-1.9550781 -1.873047,-1.9550782 -1.873047,-5.6328125 z m 2.529297,0 q 0,2.7890625 1.216797,4.1835937 1.216797,1.3808594 3.0625,1.3808594 1.832031,0 3.048828,-1.3945313 1.216797,-1.3945312 1.216797,-4.2519531 0,-2.6933591 -1.230469,-4.0742191 -1.216797,-1.394531 -3.035156,-1.394531 -1.845703,0 -3.0625,1.380859 -1.216797,1.38086 -1.216797,4.1699224 z" /><path
             id="path220"
             style=""
             d="m 37.547016,0 v -20.042969 h 2.460938 V 0 Z" /><path
             id="path222"
             style=""
             d="m 42.957687,-7.2597656 q 0,-4.0332034 2.242188,-5.9746094 1.873047,-1.613281 4.566406,-1.613281 2.994141,0 4.894531,1.96875 1.900391,1.955078 1.900391,5.4140623 0,2.8027343 -0.847656,4.4160156 -0.833985,1.5996094 -2.447266,2.48828123 -1.599609,0.88867187 -3.5,0.88867187 -3.048828,0 -4.935547,-1.9550781 -1.873047,-1.9550782 -1.873047,-5.6328125 z m 2.529297,0 q 0,2.7890625 1.216797,4.1835937 1.216797,1.3808594 3.0625,1.3808594 1.832031,0 3.048828,-1.3945313 1.216797,-1.3945312 1.216797,-4.2519531 0,-2.6933591 -1.230469,-4.0742191 -1.216796,-1.394531 -3.035156,-1.394531 -1.845703,0 -3.0625,1.380859 -1.216797,1.38086 -1.216797,4.1699224 z" /><path
             id="path224"
             style=""
             d="m 68.901329,0 v -2.1328125 q -1.695312,2.4609375 -4.607422,2.4609375 -1.285156,0 -2.40625,-0.4921875 -1.107422,-0.4921875 -1.654297,-1.2304687 -0.533203,-0.7519532 -0.751953,-1.8320313 -0.15039,-0.7246094 -0.15039,-2.296875 v -8.9960935 h 2.460937 v 8.0527341 q 0,1.9277344 0.150391,2.5976563 0.232422,0.9707031 0.984375,1.53125 0.751953,0.546875 1.859375,0.546875 1.107422,0 2.078125,-0.5605469 0.970703,-0.5742188 1.367187,-1.5449219 0.410156,-0.984375 0.410156,-2.84375 v -7.7792966 h 2.460938 V 0 Z" /><path
             id="path226"
             style=""
             d="m 74.926361,0 v -14.519531 h 2.214844 v 2.201172 q 0.847656,-1.544922 1.558594,-2.03711 0.724609,-0.492187 1.585937,-0.492187 1.244141,0 2.529297,0.792968 l -0.847656,2.283204 q -0.902344,-0.533204 -1.804688,-0.533204 -0.80664,0 -1.449219,0.492188 -0.642578,0.478516 -0.916015,1.339844 -0.410156,1.3124997 -0.410156,2.8710935 V 0 Z" /><path
             id="path228"
             style=""
             d="m 83.349327,-4.3339844 2.433594,-0.3828125 q 0.205078,1.4628906 1.134765,2.2421875 0.94336,0.7792969 2.625,0.7792969 1.695313,0 2.515625,-0.6835938 0.820313,-0.6972656 0.820313,-1.6269531 0,-0.8339843 -0.724609,-1.3125 -0.50586,-0.328125 -2.515625,-0.8339843 -2.707032,-0.6835938 -3.759766,-1.1757813 -1.039063,-0.5058594 -1.585938,-1.3808594 -0.533203,-0.8886719 -0.533203,-1.9550786 0,-0.970703 0.4375,-1.791015 0.451172,-0.833985 1.216797,-1.38086 0.574219,-0.423828 1.558594,-0.710937 0.998047,-0.300781 2.132812,-0.300781 1.708985,0 2.994141,0.492187 1.298828,0.492188 1.914063,1.339844 0.615234,0.833984 0.847656,2.242187 l -2.40625,0.328125 q -0.164063,-1.121093 -0.957031,-1.75 -0.779297,-0.628906 -2.214844,-0.628906 -1.695313,0 -2.419922,0.560547 -0.724609,0.560547 -0.724609,1.3125 0,0.478516 0.300781,0.861328 0.300781,0.3964846 0.943359,0.6562502 0.369141,0.1367188 2.173828,0.6289063 2.611328,0.6972656 3.636719,1.1484375 1.039063,0.4375 1.626953,1.2851563 0.587891,0.8476562 0.587891,2.1054687 0,1.2304687 -0.72461,2.3242188 -0.710937,1.08007807 -2.064453,1.68164057 -1.353515,0.58789063 -3.0625,0.58789063 -2.830078,0 -4.320312,-1.17578125 -1.476563,-1.17578125 -1.886719,-3.48632815 z" /><path
             id="path230"
             style=""
             d="m 115.59232,-1.7910156 q -1.36719,1.16210935 -2.63868,1.64062498 -1.25781,0.47851562 -2.70703,0.47851562 -2.39258,0 -3.67773,-1.16210938 -1.28516,-1.17578122 -1.28516,-2.99414062 0,-1.0664062 0.47852,-1.9414062 0.49219,-0.8886719 1.27148,-1.421875 0.79297,-0.5332032 1.77735,-0.8066407 0.72461,-0.1914062 2.1875,-0.3691406 2.98046,-0.3554688 4.38867,-0.8476563 0.0137,-0.5058593 0.0137,-0.6425781 0,-1.5039061 -0.69727,-2.1191411 -0.94336,-0.833984 -2.80273,-0.833984 -1.73633,0 -2.57031,0.615234 -0.82032,0.601563 -1.2168,2.146485 l -2.40625,-0.328125 q 0.32813,-1.544922 1.08008,-2.488281 0.75195,-0.957032 2.17383,-1.462891 1.42187,-0.519531 3.29492,-0.519531 1.85937,0 3.02148,0.4375 1.16211,0.4375 1.70899,1.107422 0.54687,0.65625 0.76562,1.667968 0.12305,0.628907 0.12305,2.2695316 v 3.28125 q 0,3.4316406 0.15039,4.3476563 Q 118.18997,-0.83398438 118.65482,0 h -2.57032 q -0.38281,-0.765625 -0.49218,-1.7910156 z m -0.20508,-5.4960938 q -1.33985,0.546875 -4.01953,0.9296875 -1.51758,0.21875 -2.14649,0.4921875 -0.6289,0.2734375 -0.9707,0.8066407 -0.3418,0.5195312 -0.3418,1.1621093 0,0.984375 0.73828,1.640625 0.75196,0.65625 2.1875,0.65625 1.42188,0 2.5293,-0.6152344 1.10742,-0.6289062 1.62695,-1.7089843 0.39649,-0.8339844 0.39649,-2.4609375 z" /><path
             id="path232"
             style=""
             d="m 121.65836,0 v -14.519531 h 2.21484 v 2.201172 q 0.84766,-1.544922 1.55859,-2.03711 0.72461,-0.492187 1.58594,-0.492187 1.24414,0 2.5293,0.792968 l -0.84766,2.283204 q -0.90234,-0.533204 -1.80469,-0.533204 -0.80664,0 -1.44921,0.492188 -0.64258,0.478516 -0.91602,1.339844 -0.41016,1.3124997 -0.41016,2.8710935 V 0 Z" /><path
             id="path234"
             style=""
             d="m 141.00516,-4.6757812 2.54297,0.3144531 q -0.60157,2.2285156 -2.22852,3.45898435 -1.62695,1.23046875 -4.15625,1.23046875 -3.18555,0 -5.05859,-1.9550781 -1.85938,-1.96875 -1.85938,-5.5097656 0,-3.6640623 1.88672,-5.6875003 1.88672,-2.023437 4.89453,-2.023437 2.91211,0 4.75781,1.982422 1.84571,1.982421 1.84571,5.5781246 0,0.21875 -0.0137,0.65625 h -10.82813 q 0.13672,2.3925782 1.35352,3.6640625 1.21679,1.2714844 3.03515,1.2714844 1.35352,0 2.31055,-0.7109375 0.95703,-0.7109375 1.51758,-2.2695312 z m -8.08008,-3.9785157 h 8.10742 q -0.16406,-1.8320311 -0.92969,-2.7480471 -1.17578,-1.421875 -3.04882,-1.421875 -1.69532,0 -2.85743,1.134766 -1.14843,1.134765 -1.27148,3.0351561 z" /><path
             id="path236"
             style=""
             d="m 154.43138,-17.212891 v -2.830078 h 2.46094 v 2.830078 z m 0,17.212891 v -14.519531 h 2.46094 V 0 Z" /><path
             id="path238"
             style=""
             d="m 160.55101,0 v -20.042969 h 2.46094 V 0 Z" /><path
             id="path240"
             style=""
             d="m 166.82301,0 v -20.042969 h 2.46094 V 0 Z" /><path
             id="path242"
             style=""
             d="m 172.14969,-7.2597656 q 0,-4.0332034 2.24219,-5.9746094 1.87304,-1.613281 4.5664,-1.613281 2.99414,0 4.89453,1.96875 1.90039,1.955078 1.90039,5.4140623 0,2.8027343 -0.84765,4.4160156 -0.83399,1.5996094 -2.44727,2.48828123 -1.59961,0.88867187 -3.5,0.88867187 -3.04883,0 -4.93554,-1.9550781 -1.87305,-1.9550782 -1.87305,-5.6328125 z m 2.5293,0 q 0,2.7890625 1.21679,4.1835937 1.2168,1.3808594 3.0625,1.3808594 1.83203,0 3.04883,-1.3945313 1.2168,-1.3945312 1.2168,-4.2519531 0,-2.6933591 -1.23047,-4.0742191 -1.2168,-1.394531 -3.03516,-1.394531 -1.8457,0 -3.0625,1.380859 -1.21679,1.38086 -1.21679,4.1699224 z" /><path
             id="path244"
             style=""
             d="m 188.18253,1.203125 2.39257,0.3554687 q 0.15039,1.1074219 0.83399,1.6132813 0.91601,0.6835938 2.50195,0.6835938 1.70899,0 2.63867,-0.6835938 0.92969,-0.6835937 1.25782,-1.9140625 0.1914,-0.75195313 0.17773,-3.1582031 Q 196.37198,0 193.96573,0 q -2.99414,0 -4.63477,-2.1601563 -1.64062,-2.1601562 -1.64062,-5.1816406 0,-2.078125 0.75195,-3.8281251 0.75195,-1.763672 2.17383,-2.720703 1.43555,-0.957031 3.36328,-0.957031 2.57031,0 4.23828,2.078125 v -1.75 h 2.26953 V -1.96875 q 0,3.390625 -0.69726,4.7988281 -0.6836,1.421875 -2.1875,2.2421875 -1.49024,0.8203125 -3.67774,0.8203125 -2.59765,0 -4.19726,-1.1757812 -1.59961,-1.1621094 -1.54492,-3.5136719 z m 2.03711,-8.7226562 q 0,2.8574218 1.13476,4.1699218 1.13477,1.3125 2.84375,1.3125 1.69531,0 2.84375,-1.2988281 1.14844,-1.3125 1.14844,-4.1015625 0,-2.666016 -1.18945,-4.019531 -1.17579,-1.353516 -2.84375,-1.353516 -1.64063,0 -2.78907,1.339844 -1.14843,1.326172 -1.14843,3.9511718 z" /><path
             id="path246"
             style=""
             d="m 204.21538,-17.212891 v -2.830078 h 2.46094 v 2.830078 z m 0,17.212891 v -14.519531 h 2.46094 V 0 Z" /><path
             id="path248"
             style=""
             d="m 219.94832,-5.3183594 2.41992,0.3144532 q -0.39648,2.5019531 -2.03711,3.9238281 -1.62695,1.4082031 -4.00586,1.4082031 -2.98047,0 -4.79883,-1.9414062 -1.80468,-1.9550782 -1.80468,-5.5917969 0,-2.3515625 0.77929,-4.1152349 0.7793,-1.763671 2.36524,-2.638671 1.59961,-0.888672 3.47265,-0.888672 2.36524,0 3.86914,1.203125 1.50391,1.189453 1.92774,3.390625 l -2.39258,0.3691404 q -0.3418,-1.4628904 -1.2168,-2.2011724 -0.86132,-0.738281 -2.09179,-0.738281 -1.85938,0 -3.02149,1.339844 -1.16211,1.326172 -1.16211,4.2109375 0,2.9257813 1.1211,4.2519531 1.12109,1.3261719 2.92578,1.3261719 1.44922,0 2.41992,-0.8886719 0.9707,-0.8886719 1.23047,-2.734375 z" /><path
             id="path250"
             style=""
             d="m 233.94832,-1.7910156 q -1.36719,1.16210935 -2.63867,1.64062498 -1.25782,0.47851562 -2.70703,0.47851562 -2.39258,0 -3.67774,-1.16210938 -1.28516,-1.17578122 -1.28516,-2.99414062 0,-1.0664062 0.47852,-1.9414062 0.49219,-0.8886719 1.27148,-1.421875 0.79297,-0.5332032 1.77735,-0.8066407 0.72461,-0.1914062 2.1875,-0.3691406 2.98047,-0.3554688 4.38867,-0.8476563 0.0137,-0.5058593 0.0137,-0.6425781 0,-1.5039061 -0.69726,-2.1191411 -0.94336,-0.833984 -2.80274,-0.833984 -1.73633,0 -2.57031,0.615234 -0.82031,0.601563 -1.2168,2.146485 l -2.40625,-0.328125 q 0.32813,-1.544922 1.08008,-2.488281 0.75195,-0.957032 2.17383,-1.462891 1.42187,-0.519531 3.29492,-0.519531 1.85938,0 3.02149,0.4375 1.1621,0.4375 1.70898,1.107422 0.54687,0.65625 0.76562,1.667968 0.12305,0.628907 0.12305,2.2695316 v 3.28125 q 0,3.4316406 0.15039,4.3476563 Q 236.54597,-0.83398438 237.01082,0 h -2.57031 q -0.38282,-0.765625 -0.49219,-1.7910156 z m -0.20508,-5.4960938 q -1.33984,0.546875 -4.01953,0.9296875 -1.51758,0.21875 -2.14649,0.4921875 -0.6289,0.2734375 -0.9707,0.8066407 -0.3418,0.5195312 -0.3418,1.1621093 0,0.984375 0.73829,1.640625 0.75195,0.65625 2.1875,0.65625 1.42187,0 2.52929,-0.6152344 1.10742,-0.6289062 1.62696,-1.7089843 0.39648,-0.8339844 0.39648,-2.4609375 z" /><path
             id="path252"
             style=""
             d="m 239.98701,0 v -20.042969 h 2.46094 V 0 Z" /></g><g
           id="text86"
           style="font-variant:normal;font-weight:normal;font-size:21px;font-family:OpenSymbol;-inkscape-font-specification:OpenSymbol;writing-mode:lr-tb;fill:#003366;fill-opacity:1;fill-rule:nonzero;stroke:none"
           transform="matrix(1,0,0,-1,79.1,205.1)"
           aria-label=""><path
             id="path255"
             style=""
             d="m 3.129,-14.364 h 10.479 q -0.315,3.696 -0.945,5.922 L 11.172,-8.61 q 0.714,-2.31 0.882,-4.368 H 3.129 Z" /></g><g
           id="text90"
           style="font-variant:normal;font-weight:normal;font-size:28px;font-family:Arial;-inkscape-font-specification:ArialMT;writing-mode:lr-tb;fill:#003366;fill-opacity:1;fill-rule:nonzero;stroke:none"
           transform="matrix(1,0,0,-1,106,200.2)"
           aria-label="Title is missing"><path
             id="path258"
             style=""
             d="M 7.2597656,0 V -17.677734 H 0.65625 v -2.365235 h 15.886719 v 2.365235 H 9.9121094 V 0 Z" /><path
             id="path260"
             style=""
             d="m 18.351376,-17.212891 v -2.830078 h 2.460937 v 2.830078 z m 0,17.212891 v -14.519531 h 2.460937 V 0 Z" /><path
             id="path262"
             style=""
             d="m 29.310749,-2.2011719 0.355469,2.17382815 q -1.039063,0.21875 -1.859375,0.21875 -1.339844,0 -2.078125,-0.42382813 Q 24.990437,-0.65625 24.689655,-1.3398437 24.388874,-2.0371094 24.388874,-4.2519531 v -8.3535159 h -1.804687 v -1.914062 h 1.804687 v -3.595703 l 2.447266,-1.476563 v 5.072266 h 2.474609 v 1.914062 H 26.83614 v 8.4902346 q 0,1.0527344 0.123047,1.3535156 0.136718,0.3007813 0.423828,0.4785157 0.300781,0.1777343 0.847656,0.1777343 0.410156,0 1.080078,-0.095703 z" /><path
             id="path264"
             style=""
             d="m 31.667015,0 v -20.042969 h 2.460938 V 0 Z" /><path
             id="path266"
             style=""
             d="m 47.933155,-4.6757812 2.542969,0.3144531 q -0.601563,2.2285156 -2.228516,3.45898435 -1.626953,1.23046875 -4.15625,1.23046875 -3.185547,0 -5.058594,-1.9550781 -1.859375,-1.96875 -1.859375,-5.5097656 0,-3.6640623 1.886719,-5.6875003 1.886719,-2.023437 4.894531,-2.023437 2.91211,0 4.757813,1.982422 1.845703,1.982421 1.845703,5.5781246 0,0.21875 -0.01367,0.65625 H 39.716358 q 0.136719,2.3925782 1.353516,3.6640625 1.216797,1.2714844 3.035156,1.2714844 1.353516,0 2.310547,-0.7109375 0.957031,-0.7109375 1.517578,-2.2695312 z m -8.080078,-3.9785157 h 8.107422 q -0.164063,-1.8320311 -0.929688,-2.7480471 -1.175781,-1.421875 -3.048828,-1.421875 -1.695312,0 -2.857422,1.134766 -1.148437,1.134765 -1.271484,3.0351561 z" /><path
             id="path268"
             style=""
             d="m 61.359375,-17.212891 v -2.830078 h 2.460937 v 2.830078 z m 0,17.212891 v -14.519531 h 2.460937 V 0 Z" /><path
             id="path270"
             style=""
             d="m 66.549332,-4.3339844 2.433593,-0.3828125 q 0.205079,1.4628906 1.134766,2.2421875 0.943359,0.7792969 2.625,0.7792969 1.695313,0 2.515625,-0.6835938 0.820313,-0.6972656 0.820313,-1.6269531 0,-0.8339843 -0.72461,-1.3125 -0.505859,-0.328125 -2.515625,-0.8339843 -2.707031,-0.6835938 -3.759765,-1.1757813 -1.039063,-0.5058594 -1.585938,-1.3808594 -0.533203,-0.8886719 -0.533203,-1.9550786 0,-0.970703 0.4375,-1.791015 0.451172,-0.833985 1.216797,-1.38086 0.574219,-0.423828 1.558594,-0.710937 0.998046,-0.300781 2.132812,-0.300781 1.708984,0 2.994141,0.492187 1.298828,0.492188 1.914062,1.339844 0.615235,0.833984 0.847656,2.242187 l -2.40625,0.328125 q -0.164062,-1.121093 -0.957031,-1.75 -0.779297,-0.628906 -2.214844,-0.628906 -1.695312,0 -2.419921,0.560547 -0.72461,0.560547 -0.72461,1.3125 0,0.478516 0.300781,0.861328 0.300782,0.3964846 0.94336,0.6562502 0.36914,0.1367188 2.173828,0.6289063 2.611328,0.6972656 3.636719,1.1484375 1.039062,0.4375 1.626953,1.2851563 0.58789,0.8476562 0.58789,2.1054687 0,1.2304687 -0.724609,2.3242188 -0.710937,1.08007807 -2.064453,1.68164057 -1.353516,0.58789063 -3.0625,0.58789063 -2.830078,0 -4.320313,-1.17578125 -1.476562,-1.17578125 -1.886718,-3.48632815 z" /><path
             id="path272"
             style=""
             d="m 89.317703,0 v -14.519531 h 2.201172 v 2.037109 q 0.683594,-1.066406 1.818359,-1.708984 1.134766,-0.65625 2.583985,-0.65625 1.613281,0 2.638672,0.669922 1.039062,0.669921 1.462889,1.873046 1.72266,-2.542968 4.48438,-2.542968 2.16015,0 3.32226,1.203125 1.16211,1.189453 1.16211,3.6777341 V 0 h -2.44726 v -9.1464844 q 0,-1.4765626 -0.2461,-2.1191406 -0.23242,-0.65625 -0.86133,-1.052734 -0.6289,-0.396485 -1.47656,-0.396485 -1.53125,0 -2.54297,1.025391 -1.01172,1.011719 -1.01172,3.2539061 V 0 h -2.460934 v -9.4335938 q 0,-1.6406252 -0.601562,-2.4609372 -0.601563,-0.820313 -1.96875,-0.820313 -1.039063,0 -1.927735,0.546875 -0.875,0.546875 -1.271484,1.59961 -0.396484,1.052734 -0.396484,3.0351559 V 0 Z" /><path
             id="path274"
             style=""
             d="m 112.62737,-17.212891 v -2.830078 h 2.46094 v 2.830078 z m 0,17.212891 v -14.519531 h 2.46094 V 0 Z" /><path
             id="path276"
             style=""
             d="m 117.90133,-4.3339844 2.43359,-0.3828125 q 0.20508,1.4628906 1.13477,2.2421875 0.94336,0.7792969 2.625,0.7792969 1.69531,0 2.51562,-0.6835938 0.82032,-0.6972656 0.82032,-1.6269531 0,-0.8339843 -0.72461,-1.3125 -0.50586,-0.328125 -2.51563,-0.8339843 -2.70703,-0.6835938 -3.75976,-1.1757813 -1.03907,-0.5058594 -1.58594,-1.3808594 -0.5332,-0.8886719 -0.5332,-1.9550786 0,-0.970703 0.4375,-1.791015 0.45117,-0.833985 1.21679,-1.38086 0.57422,-0.423828 1.5586,-0.710937 0.99804,-0.300781 2.13281,-0.300781 1.70898,0 2.99414,0.492187 1.29883,0.492188 1.91406,1.339844 0.61524,0.833984 0.84766,2.242187 l -2.40625,0.328125 q -0.16406,-1.121093 -0.95703,-1.75 -0.7793,-0.628906 -2.21485,-0.628906 -1.69531,0 -2.41992,0.560547 -0.72461,0.560547 -0.72461,1.3125 0,0.478516 0.30078,0.861328 0.30078,0.3964846 0.94336,0.6562502 0.36914,0.1367188 2.17383,0.6289063 2.61133,0.6972656 3.63672,1.1484375 1.03906,0.4375 1.62695,1.2851563 0.58789,0.8476562 0.58789,2.1054687 0,1.2304687 -0.72461,2.3242188 -0.71093,1.08007807 -2.06445,1.68164057 -1.35352,0.58789063 -3.0625,0.58789063 -2.83008,0 -4.32031,-1.17578125 -1.47656,-1.17578125 -1.88672,-3.48632815 z" /><path
             id="path278"
             style=""
             d="m 131.90132,-4.3339844 2.4336,-0.3828125 q 0.20507,1.4628906 1.13476,2.2421875 0.94336,0.7792969 2.625,0.7792969 1.69531,0 2.51563,-0.6835938 0.82031,-0.6972656 0.82031,-1.6269531 0,-0.8339843 -0.72461,-1.3125 -0.50586,-0.328125 -2.51563,-0.8339843 -2.70703,-0.6835938 -3.75976,-1.1757813 -1.03906,-0.5058594 -1.58594,-1.3808594 -0.5332,-0.8886719 -0.5332,-1.9550786 0,-0.970703 0.4375,-1.791015 0.45117,-0.833985 1.21679,-1.38086 0.57422,-0.423828 1.5586,-0.710937 0.99805,-0.300781 2.13281,-0.300781 1.70899,0 2.99414,0.492187 1.29883,0.492188 1.91406,1.339844 0.61524,0.833984 0.84766,2.242187 l -2.40625,0.328125 q -0.16406,-1.121093 -0.95703,-1.75 -0.7793,-0.628906 -2.21484,-0.628906 -1.69532,0 -2.41993,0.560547 -0.72461,0.560547 -0.72461,1.3125 0,0.478516 0.30079,0.861328 0.30078,0.3964846 0.94335,0.6562502 0.36915,0.1367188 2.17383,0.6289063 2.61133,0.6972656 3.63672,1.1484375 1.03906,0.4375 1.62695,1.2851563 0.5879,0.8476562 0.5879,2.1054687 0,1.2304687 -0.72461,2.3242188 -0.71094,1.08007807 -2.06446,1.68164057 -1.35351,0.58789063 -3.0625,0.58789063 -2.83008,0 -4.32031,-1.17578125 -1.47656,-1.17578125 -1.88672,-3.48632815 z" /><path
             id="path280"
             style=""
             d="m 146.89937,-17.212891 v -2.830078 h 2.46094 v 2.830078 z m 0,17.212891 v -14.519531 h 2.46094 V 0 Z" /><path
             id="path282"
             style=""
             d="m 153.1577,0 v -14.519531 h 2.21484 v 2.064453 q 1.59961,-2.392578 4.6211,-2.392578 1.3125,0 2.40625,0.478515 1.10742,0.464844 1.65429,1.230469 0.54688,0.765625 0.76563,1.818359 0.13672,0.683594 0.13672,2.3925786 V 0 h -2.46094 v -8.8320313 q 0,-1.5039067 -0.28711,-2.2421877 -0.28711,-0.751953 -1.02539,-1.189453 -0.72461,-0.451172 -1.70898,-0.451172 -1.57227,0 -2.72071,0.998047 -1.13476,0.998047 -1.13476,3.7871095 V 0 Z" /><path
             id="path284"
             style=""
             d="m 168.27454,1.203125 2.39257,0.3554687 q 0.15039,1.1074219 0.83399,1.6132813 0.91601,0.6835938 2.50195,0.6835938 1.70899,0 2.63867,-0.6835938 0.92969,-0.6835937 1.25782,-1.9140625 0.1914,-0.75195313 0.17773,-3.1582031 Q 176.46399,0 174.05774,0 q -2.99414,0 -4.63477,-2.1601563 -1.64062,-2.1601562 -1.64062,-5.1816406 0,-2.078125 0.75195,-3.8281251 0.75195,-1.763672 2.17383,-2.720703 1.43555,-0.957031 3.36328,-0.957031 2.57031,0 4.23828,2.078125 v -1.75 h 2.26953 V -1.96875 q 0,3.390625 -0.69726,4.7988281 -0.6836,1.421875 -2.1875,2.2421875 -1.49024,0.8203125 -3.67774,0.8203125 -2.59765,0 -4.19726,-1.1757812 -1.59961,-1.1621094 -1.54492,-3.5136719 z m 2.03711,-8.7226562 q 0,2.8574218 1.13476,4.1699218 1.13477,1.3125 2.84375,1.3125 1.69531,0 2.84375,-1.2988281 1.14844,-1.3125 1.14844,-4.1015625 0,-2.666016 -1.18945,-4.019531 -1.17579,-1.353516 -2.84375,-1.353516 -1.64063,0 -2.78907,1.339844 -1.14843,1.326172 -1.14843,3.9511718 z" /></g><g
           id="text94"
           style="font-variant:normal;font-weight:normal;font-size:21px;font-family:OpenSymbol;-inkscape-font-specification:OpenSymbol;writing-mode:lr-tb;fill:#003366;fill-opacity:1;fill-rule:nonzero;stroke:none"
           transform="matrix(1,0,0,-1,79.1,164.4)"
           aria-label=""><path
             id="path287"
             style=""
             d="m 3.129,-14.364 h 10.479 q -0.315,3.696 -0.945,5.922 L 11.172,-8.61 q 0.714,-2.31 0.882,-4.368 H 3.129 Z" /></g><g
           id="text98"
           style="font-variant:normal;font-weight:normal;font-size:28px;font-family:Arial;-inkscape-font-specification:ArialMT;writing-mode:lr-tb;fill:#003366;fill-opacity:1;fill-rule:nonzero;stroke:none"
           transform="matrix(1,0,0,-1,106,159.5)"
           aria-label="Shading is distracting"><path
             id="path290"
             style=""
             d="m 1.2578125,-6.4394531 2.5019531,-0.21875 q 0.1777344,1.5039062 0.8203125,2.4746094 0.65625,0.9570312 2.0234375,1.5585937 1.3671875,0.5878906 3.0761719,0.5878906 1.5175785,0 2.6796875,-0.4511719 1.162109,-0.4511718 1.722656,-1.2304687 0.574219,-0.7929687 0.574219,-1.7226562 0,-0.9433594 -0.546875,-1.640625 Q 13.5625,-7.7929687 12.304688,-8.2714844 11.498047,-8.5859375 8.7363281,-9.2421875 5.9746094,-9.9121094 4.8671875,-10.5 q -1.4355469,-0.751953 -2.1464844,-1.859375 -0.6972656,-1.121094 -0.6972656,-2.501953 0,-1.517578 0.8613281,-2.830078 0.8613282,-1.326172 2.515625,-2.009766 1.6542969,-0.683594 3.6777344,-0.683594 2.228516,0 3.923828,0.72461 1.708985,0.710937 2.625,2.105469 0.916016,1.394531 0.984375,3.158203 l -2.542969,0.191406 q -0.205078,-1.900391 -1.394531,-2.871094 -1.175781,-0.970703 -3.486328,-0.970703 -2.40625,0 -3.5136719,0.888672 -1.09375,0.875 -1.09375,2.11914 0,1.080079 0.7792969,1.777344 0.765625,0.697266 3.9921875,1.435547 3.2402345,0.724609 4.4433595,1.271484 1.75,0.8066411 2.583984,2.0507817 0.833985,1.2304688 0.833985,2.8437501 0,1.5996093 -0.916016,3.0214843 -0.916016,1.4082032 -2.638672,2.2011719 -1.708984,0.77929688 -3.8554686,0.77929688 -2.7207032,0 -4.5664063,-0.79296876 Q 3.4042969,-1.2441406 2.3515625,-2.8300781 1.3125,-4.4296875 1.2578125,-6.4394531 Z" /><path
             id="path292"
             style=""
             d="m 20.437702,0 v -20.042969 h 2.460938 v 7.191406 q 1.722656,-1.996093 4.347656,-1.996093 1.613281,0 2.802734,0.642578 1.189453,0.628906 1.695313,1.75 0.519531,1.121094 0.519531,3.2539061 V 0 h -2.460937 v -9.2011719 q 0,-1.8457031 -0.806641,-2.6796871 -0.792969,-0.847657 -2.255859,-0.847657 -1.09375,0 -2.064454,0.574219 -0.957031,0.560547 -1.367187,1.53125 -0.410156,0.9707032 -0.410156,2.6796876 V 0 Z" /><path
             id="path294"
             style=""
             d="M 45.592312,-1.7910156 Q 44.225124,-0.62890625 42.95364,-0.15039062 41.695827,0.328125 40.246609,0.328125 q -2.392578,0 -3.677735,-1.16210938 -1.285156,-1.17578122 -1.285156,-2.99414062 0,-1.0664062 0.478516,-1.9414062 0.492187,-0.8886719 1.271484,-1.421875 0.792969,-0.5332032 1.777344,-0.8066407 0.724609,-0.1914062 2.1875,-0.3691406 2.980469,-0.3554688 4.388672,-0.8476563 0.01367,-0.5058593 0.01367,-0.6425781 0,-1.5039061 -0.697266,-2.1191411 -0.943359,-0.833984 -2.802734,-0.833984 -1.736329,0 -2.570313,0.615234 -0.820312,0.601563 -1.216797,2.146485 l -2.40625,-0.328125 q 0.328125,-1.544922 1.080078,-2.488281 0.751953,-0.957032 2.173828,-1.462891 1.421875,-0.519531 3.294922,-0.519531 1.859375,0 3.021485,0.4375 1.162109,0.4375 1.708984,1.107422 0.546875,0.65625 0.765625,1.667968 0.123047,0.628907 0.123047,2.2695316 v 3.28125 q 0,3.4316406 0.150391,4.3476563 Q 48.189968,-0.83398438 48.654812,0 h -2.570313 q -0.382812,-0.765625 -0.492187,-1.7910156 z m -0.205078,-5.4960938 q -1.339844,0.546875 -4.019532,0.9296875 -1.517578,0.21875 -2.146484,0.4921875 -0.628906,0.2734375 -0.970703,0.8066407 -0.341797,0.5195312 -0.341797,1.1621093 0,0.984375 0.738281,1.640625 0.751953,0.65625 2.1875,0.65625 1.421875,0 2.529297,-0.6152344 1.107422,-0.6289062 1.626953,-1.7089843 0.396485,-0.8339844 0.396485,-2.4609375 z" /><path
             id="path296"
             style=""
             d="m 61.049625,0 v -1.8320312 q -1.380859,2.1601562 -4.060546,2.1601562 -1.736329,0 -3.199219,-0.95703125 -1.449219,-0.95703125 -2.25586,-2.66601565 -0.792968,-1.7226562 -0.792968,-3.9511718 0,-2.1738282 0.724609,-3.9375003 0.724609,-1.777344 2.173828,-2.720703 1.449219,-0.943359 3.240235,-0.943359 1.3125,0 2.33789,0.560547 1.025391,0.546875 1.667969,1.435546 v -7.191406 h 2.447266 V 0 Z m -7.779296,-7.2460937 q 0,2.7890625 1.175781,4.1699218 1.175781,1.3808594 2.77539,1.3808594 1.613282,0 2.734375,-1.3125 1.134766,-1.3261719 1.134766,-4.0332031 0,-2.9804684 -1.148437,-4.3750004 -1.148438,-1.394531 -2.830079,-1.394531 -1.640625,0 -2.748046,1.339844 -1.09375,1.339844 -1.09375,4.2246093 z" /><path
             id="path298"
             style=""
             d="m 67.211372,-17.212891 v -2.830078 h 2.460938 v 2.830078 z M 67.211372,0 V -14.519531 H 69.67231 V 0 Z" /><path
             id="path300"
             style=""
             d="m 73.469704,0 v -14.519531 h 2.214843 v 2.064453 q 1.59961,-2.392578 4.621094,-2.392578 1.3125,0 2.40625,0.478515 1.107422,0.464844 1.654297,1.230469 0.546875,0.765625 0.765625,1.818359 0.136719,0.683594 0.136719,2.3925786 V 0 h -2.460938 v -8.8320313 q 0,-1.5039067 -0.287109,-2.2421877 -0.287109,-0.751953 -1.025391,-1.189453 -0.724609,-0.451172 -1.708984,-0.451172 -1.572266,0 -2.720703,0.998047 -1.134766,0.998047 -1.134766,3.7871095 V 0 Z" /><path
             id="path302"
             style=""
             d="m 88.586533,1.203125 2.392578,0.3554687 q 0.15039,1.1074219 0.833984,1.6132813 0.916016,0.6835938 2.501953,0.6835938 1.708985,0 2.638672,-0.6835938 0.929688,-0.6835937 1.257813,-1.9140625 0.191406,-0.75195313 0.177734,-3.1582031 Q 96.775986,0 94.369736,0 91.375595,0 89.73497,-2.1601563 q -1.640625,-2.1601562 -1.640625,-5.1816406 0,-2.078125 0.751953,-3.8281251 0.751953,-1.763672 2.173828,-2.720703 1.435547,-0.957031 3.363282,-0.957031 2.570312,0 4.238281,2.078125 v -1.75 h 2.269531 V -1.96875 q 0,3.390625 -0.69727,4.7988281 -0.683589,1.421875 -2.187496,2.2421875 -1.490234,0.8203125 -3.677734,0.8203125 -2.597656,0 -4.197266,-1.1757812 Q 88.531845,3.5546875 88.586533,1.203125 Z m 2.037109,-8.7226562 q 0,2.8574218 1.134766,4.1699218 1.134765,1.3125 2.84375,1.3125 1.695312,0 2.84375,-1.2988281 1.148437,-1.3125 1.148437,-4.1015625 0,-2.666016 -1.189453,-4.019531 -1.175781,-1.353516 -2.84375,-1.353516 -1.640625,0 -2.789063,1.339844 -1.148437,1.326172 -1.148437,3.9511718 z" /><path
             id="path304"
             style=""
             d="m 112.40337,-17.212891 v -2.830078 h 2.46094 v 2.830078 z m 0,17.212891 v -14.519531 h 2.46094 V 0 Z" /><path
             id="path306"
             style=""
             d="m 117.59333,-4.3339844 2.43359,-0.3828125 q 0.20508,1.4628906 1.13477,2.2421875 0.94336,0.7792969 2.625,0.7792969 1.69531,0 2.51562,-0.6835938 0.82032,-0.6972656 0.82032,-1.6269531 0,-0.8339843 -0.72461,-1.3125 -0.50586,-0.328125 -2.51563,-0.8339843 -2.70703,-0.6835938 -3.75976,-1.1757813 -1.03907,-0.5058594 -1.58594,-1.3808594 -0.5332,-0.8886719 -0.5332,-1.9550786 0,-0.970703 0.4375,-1.791015 0.45117,-0.833985 1.21679,-1.38086 0.57422,-0.423828 1.5586,-0.710937 0.99804,-0.300781 2.13281,-0.300781 1.70898,0 2.99414,0.492187 1.29883,0.492188 1.91406,1.339844 0.61524,0.833984 0.84766,2.242187 l -2.40625,0.328125 q -0.16406,-1.121093 -0.95703,-1.75 -0.7793,-0.628906 -2.21485,-0.628906 -1.69531,0 -2.41992,0.560547 -0.72461,0.560547 -0.72461,1.3125 0,0.478516 0.30078,0.861328 0.30079,0.3964846 0.94336,0.6562502 0.36914,0.1367188 2.17383,0.6289063 2.61133,0.6972656 3.63672,1.1484375 1.03906,0.4375 1.62695,1.2851563 0.58789,0.8476562 0.58789,2.1054687 0,1.2304687 -0.72461,2.3242188 -0.71093,1.08007807 -2.06445,1.68164057 -1.35351,0.58789063 -3.0625,0.58789063 -2.83008,0 -4.32031,-1.17578125 -1.47656,-1.17578125 -1.88672,-3.48632815 z" /><path
             id="path308"
             style=""
             d="m 149.86563,0 v -1.8320312 q -1.38086,2.1601562 -4.06055,2.1601562 -1.73632,0 -3.19921,-0.95703125 -1.44922,-0.95703125 -2.25586,-2.66601565 -0.79297,-1.7226562 -0.79297,-3.9511718 0,-2.1738282 0.72461,-3.9375003 0.72461,-1.777344 2.17382,-2.720703 1.44922,-0.943359 3.24024,-0.943359 1.3125,0 2.33789,0.560547 1.02539,0.546875 1.66797,1.435546 v -7.191406 h 2.44726 V 0 Z m -7.7793,-7.2460937 q 0,2.7890625 1.17579,4.1699218 1.17578,1.3808594 2.77539,1.3808594 1.61328,0 2.73437,-1.3125 1.13477,-1.3261719 1.13477,-4.0332031 0,-2.9804684 -1.14844,-4.3750004 -1.14844,-1.394531 -2.83008,-1.394531 -1.64062,0 -2.74805,1.339844 -1.09375,1.339844 -1.09375,4.2246093 z" /><path
             id="path310"
             style=""
             d="m 156.02737,-17.212891 v -2.830078 h 2.46094 v 2.830078 z m 0,17.212891 v -14.519531 h 2.46094 V 0 Z" /><path
             id="path312"
             style=""
             d="m 161.21733,-4.3339844 2.43359,-0.3828125 q 0.20508,1.4628906 1.13477,2.2421875 0.94336,0.7792969 2.625,0.7792969 1.69531,0 2.51563,-0.6835938 0.82031,-0.6972656 0.82031,-1.6269531 0,-0.8339843 -0.72461,-1.3125 -0.50586,-0.328125 -2.51563,-0.8339843 -2.70703,-0.6835938 -3.75976,-1.1757813 -1.03906,-0.5058594 -1.58594,-1.3808594 -0.5332,-0.8886719 -0.5332,-1.9550786 0,-0.970703 0.4375,-1.791015 0.45117,-0.833985 1.21679,-1.38086 0.57422,-0.423828 1.5586,-0.710937 0.99804,-0.300781 2.13281,-0.300781 1.70898,0 2.99414,0.492187 1.29883,0.492188 1.91406,1.339844 0.61524,0.833984 0.84766,2.242187 l -2.40625,0.328125 q -0.16406,-1.121093 -0.95703,-1.75 -0.7793,-0.628906 -2.21485,-0.628906 -1.69531,0 -2.41992,0.560547 -0.72461,0.560547 -0.72461,1.3125 0,0.478516 0.30078,0.861328 0.30079,0.3964846 0.94336,0.6562502 0.36914,0.1367188 2.17383,0.6289063 2.61133,0.6972656 3.63672,1.1484375 1.03906,0.4375 1.62695,1.2851563 0.58789,0.8476562 0.58789,2.1054687 0,1.2304687 -0.7246,2.3242188 -0.71094,1.08007807 -2.06446,1.68164057 -1.35351,0.58789063 -3.0625,0.58789063 -2.83008,0 -4.32031,-1.17578125 -1.47656,-1.17578125 -1.88672,-3.48632815 z" /><path
             id="path314"
             style=""
             d="m 181.65875,-2.2011719 0.35547,2.17382815 q -1.03906,0.21875 -1.85937,0.21875 -1.33985,0 -2.07813,-0.42382813 -0.73828,-0.42382812 -1.03906,-1.10742182 -0.30078,-0.6972657 -0.30078,-2.9121094 v -8.3535159 h -1.80469 v -1.914062 h 1.80469 v -3.595703 l 2.44726,-1.476563 v 5.072266 h 2.47461 v 1.914062 h -2.47461 v 8.4902346 q 0,1.0527344 0.12305,1.3535156 0.13672,0.3007813 0.42383,0.4785157 0.30078,0.1777343 0.84765,0.1777343 0.41016,0 1.08008,-0.095703 z" /><path
             id="path316"
             style=""
             d="m 184.04236,0 v -14.519531 h 2.21484 v 2.201172 q 0.84766,-1.544922 1.5586,-2.03711 0.72461,-0.492187 1.58593,-0.492187 1.24414,0 2.5293,0.792968 l -0.84766,2.283204 q -0.90234,-0.533204 -1.80468,-0.533204 -0.80664,0 -1.44922,0.492188 -0.64258,0.478516 -0.91602,1.339844 -0.41015,1.3124997 -0.41015,2.8710935 V 0 Z" /><path
             id="path318"
             style=""
             d="m 202.84032,-1.7910156 q -1.36719,1.16210935 -2.63868,1.64062498 -1.25781,0.47851562 -2.70703,0.47851562 -2.39257,0 -3.67773,-1.16210938 -1.28516,-1.17578122 -1.28516,-2.99414062 0,-1.0664062 0.47852,-1.9414062 0.49219,-0.8886719 1.27148,-1.421875 0.79297,-0.5332032 1.77735,-0.8066407 0.72461,-0.1914062 2.1875,-0.3691406 2.98047,-0.3554688 4.38867,-0.8476563 0.0137,-0.5058593 0.0137,-0.6425781 0,-1.5039061 -0.69727,-2.1191411 -0.94335,-0.833984 -2.80273,-0.833984 -1.73633,0 -2.57031,0.615234 -0.82031,0.601563 -1.2168,2.146485 l -2.40625,-0.328125 q 0.32813,-1.544922 1.08008,-2.488281 0.75195,-0.957032 2.17383,-1.462891 1.42187,-0.519531 3.29492,-0.519531 1.85937,0 3.02148,0.4375 1.16211,0.4375 1.70899,1.107422 0.54687,0.65625 0.76562,1.667968 0.12305,0.628907 0.12305,2.2695316 v 3.28125 q 0,3.4316406 0.15039,4.3476563 Q 205.43797,-0.83398438 205.90282,0 h -2.57032 q -0.38281,-0.765625 -0.49218,-1.7910156 z m -0.20508,-5.4960938 q -1.33985,0.546875 -4.01953,0.9296875 -1.51758,0.21875 -2.14649,0.4921875 -0.6289,0.2734375 -0.9707,0.8066407 -0.3418,0.5195312 -0.3418,1.1621093 0,0.984375 0.73828,1.640625 0.75196,0.65625 2.1875,0.65625 1.42188,0 2.5293,-0.6152344 1.10742,-0.6289062 1.62695,-1.7089843 0.39649,-0.8339844 0.39649,-2.4609375 z" /><path
             id="path320"
             style=""
             d="m 218.40831,-5.3183594 2.41992,0.3144532 q -0.39648,2.5019531 -2.03711,3.9238281 -1.62695,1.4082031 -4.00586,1.4082031 -2.98047,0 -4.79883,-1.9414062 -1.80468,-1.9550782 -1.80468,-5.5917969 0,-2.3515625 0.77929,-4.1152349 0.7793,-1.763671 2.36524,-2.638671 1.59961,-0.888672 3.47265,-0.888672 2.36524,0 3.86915,1.203125 1.5039,1.189453 1.92773,3.390625 l -2.39258,0.3691404 q -0.3418,-1.4628904 -1.2168,-2.2011724 -0.86132,-0.738281 -2.09179,-0.738281 -1.85938,0 -3.02149,1.339844 -1.16211,1.326172 -1.16211,4.2109375 0,2.9257813 1.1211,4.2519531 1.12109,1.3261719 2.92578,1.3261719 1.44922,0 2.41992,-0.8886719 0.9707,-0.8886719 1.23047,-2.734375 z" /><path
             id="path322"
             style=""
             d="m 228.39075,-2.2011719 0.35547,2.17382815 q -1.03907,0.21875 -1.85938,0.21875 -1.33984,0 -2.07812,-0.42382813 -0.73829,-0.42382812 -1.03907,-1.10742182 -0.30078,-0.6972657 -0.30078,-2.9121094 v -8.3535159 h -1.80469 v -1.914062 h 1.80469 v -3.595703 l 2.44727,-1.476563 v 5.072266 h 2.47461 v 1.914062 h -2.47461 v 8.4902346 q 0,1.0527344 0.12304,1.3535156 0.13672,0.3007813 0.42383,0.4785157 0.30078,0.1777343 0.84766,0.1777343 0.41016,0 1.08008,-0.095703 z" /><path
             id="path324"
             style=""
             d="m 230.81537,-17.212891 v -2.830078 h 2.46094 v 2.830078 z m 0,17.212891 v -14.519531 h 2.46094 V 0 Z" /><path
             id="path326"
             style=""
             d="m 236.9897,0 v -14.519531 h 2.21484 v 2.064453 q 1.59961,-2.392578 4.6211,-2.392578 1.3125,0 2.40625,0.478515 1.10742,0.464844 1.65429,1.230469 0.54688,0.765625 0.76563,1.818359 0.13672,0.683594 0.13672,2.3925786 V 0 h -2.46094 v -8.8320313 q 0,-1.5039067 -0.28711,-2.2421877 -0.28711,-0.751953 -1.02539,-1.189453 -0.72461,-0.451172 -1.70898,-0.451172 -1.57227,0 -2.72071,0.998047 -1.13476,0.998047 -1.13476,3.7871095 V 0 Z" /><path
             id="path328"
             style=""
             d="m 252.10654,1.203125 2.39257,0.3554687 q 0.1504,1.1074219 0.83399,1.6132813 0.91601,0.6835938 2.50195,0.6835938 1.70899,0 2.63867,-0.6835938 0.92969,-0.6835937 1.25782,-1.9140625 0.1914,-0.75195313 0.17773,-3.1582031 Q 260.29599,0 257.88974,0 q -2.99414,0 -4.63477,-2.1601563 -1.64062,-2.1601562 -1.64062,-5.1816406 0,-2.078125 0.75195,-3.8281251 0.75196,-1.763672 2.17383,-2.720703 1.43555,-0.957031 3.36328,-0.957031 2.57031,0 4.23828,2.078125 v -1.75 h 2.26953 V -1.96875 q 0,3.390625 -0.69726,4.7988281 -0.6836,1.421875 -2.1875,2.2421875 -1.49024,0.8203125 -3.67774,0.8203125 -2.59765,0 -4.19726,-1.1757812 -1.59961,-1.1621094 -1.54492,-3.5136719 z m 2.03711,-8.7226562 q 0,2.8574218 1.13476,4.1699218 1.13477,1.3125 2.84375,1.3125 1.69531,0 2.84375,-1.2988281 1.14844,-1.3125 1.14844,-4.1015625 0,-2.666016 -1.18945,-4.019531 -1.17579,-1.353516 -2.84375,-1.353516 -1.64063,0 -2.78907,1.339844 -1.14843,1.326172 -1.14843,3.9511718 z" /></g></g></g></g></svg>