<?xml version="1.0" encoding="UTF-8" standalone="no"?>
<svg
   xmlns:dc="http://purl.org/dc/elements/1.1/"
   xmlns:cc="http://creativecommons.org/ns#"
   xmlns:rdf="http://www.w3.org/1999/02/22-rdf-syntax-ns#"
   xmlns:svg="http://www.w3.org/2000/svg"
   xmlns="http://www.w3.org/2000/svg"
   viewBox="0 0 960 720"
   height="720"
   width="960"
   xml:space="preserve"
   id="svg2"
   version="1.1"><metadata
     id="metadata8"><rdf:RDF><cc:Work
         rdf:about=""><dc:format>image/svg+xml</dc:format><dc:type
           rdf:resource="http://purl.org/dc/dcmitype/StillImage" /></cc:Work></rdf:RDF></metadata><defs
     id="defs6"><clipPath
       id="clipPath18"
       clipPathUnits="userSpaceOnUse"><path
         style="clip-rule:evenodd"
         id="path16"
         d="M 0,0 H 720 V 540 H 0 Z" /></clipPath><clipPath
       id="clipPath30"
       clipPathUnits="userSpaceOnUse"><path
         style="clip-rule:evenodd"
         id="path28"
         d="M 0,0 H 702 V 540 H 0 Z" /></clipPath><clipPath
       id="clipPath52"
       clipPathUnits="userSpaceOnUse"><path
         style="clip-rule:evenodd"
         id="path50"
         d="M 0,0 H 720 V 540 H 0 Z" /></clipPath></defs><g
     transform="matrix(1.3333333,0,0,-1.3333333,0,720)"
     id="g10"><g
       id="g12"><g
         clip-path="url(#clipPath18)"
         id="g14"><path
           id="path20"
           style="fill:#ffffff;fill-opacity:1;fill-rule:evenodd;stroke:none"
           d="M 0,540 H 720 V 0 H 0 Z" /><path
           id="path22"
           style="fill:#ffffff;fill-opacity:1;fill-rule:evenodd;stroke:none"
           d="M 0,540 H 720 V 0 H 0 Z" /></g></g><g
       id="g24"><g
         clip-path="url(#clipPath30)"
         id="g26"><path
           id="path32"
           style="fill:#99cc99;fill-opacity:1;fill-rule:evenodd;stroke:none"
           d="M 30,0 H 0 V 540 H 60 V 0 Z" /><path
           id="path34"
           style="fill:#99cc99;fill-opacity:1;fill-rule:evenodd;stroke:none"
           d="M 153,456 H 54 v 84 h 198 v -84 z" /><path
           id="path36"
           style="fill:#ffffff;fill-opacity:1;fill-rule:evenodd;stroke:none"
           d="M 84,480 C 72,480 60,468 60,456 v 0 c 0,-12 12,-24 24,-24 h 354 c 12,0 24,12 24,24 v 0 c 0,12 -12,24 -24,24 z m -24,0 z m 402,-48 z" /><g
           id="g38" /><g
           id="g40" /><path
           id="path42"
           style="fill:#003366;fill-opacity:1;fill-rule:evenodd;stroke:none"
           d="m 48,384 v 0 -25 0 h 552 v 0 25 0 z m 0,0 z m 552,-25 z" /><path
           id="path44"
           style="fill:#003366;fill-opacity:1;fill-rule:evenodd;stroke:none"
           d="M 33.5,384 C 25.7,384 18,377.7 18,371.5 c 0,-6.3 7.7,-12.6 15.5,-12.6 H 49 V 384 Z M 49,384 Z M 18,358.9 Z" /></g></g><g
       id="g46"><g
         clip-path="url(#clipPath52)"
         id="g48"><g
           id="g54"><g
             id="text58"
             style="font-variant:normal;font-weight:bold;font-size:36px;font-family:Arial;-inkscape-font-specification:Arial-BoldMT;writing-mode:lr-tb;fill:#009c98;fill-opacity:1;fill-rule:nonzero;stroke:none"
             transform="matrix(1,0,0,-1,79.1,400.9)"
             aria-label="Slide Structure - Bad"><path
               id="path84"
               style=""
               d="m 1.3007812,-8.3847656 5.0625,-0.4921875 q 0.4570313,2.5488281 1.8457032,3.7441406 1.40625,1.1953125 3.7792966,1.1953125 2.513672,0 3.779297,-1.0546875 1.283203,-1.0722656 1.283203,-2.4960937 0,-0.9140626 -0.544922,-1.5468751 -0.527343,-0.6503906 -1.863281,-1.1249997 -0.914062,-0.316407 -4.166015,-1.125 -4.1835943,-1.03711 -5.8710943,-2.548828 -2.3730468,-2.126954 -2.3730468,-5.185547 0,-1.96875 1.1074219,-3.673828 1.1249999,-1.722657 3.2167968,-2.619141 2.109375,-0.896484 5.0800784,-0.896484 4.851562,0 7.294922,2.126953 2.460937,2.126953 2.583984,5.677734 l -5.203125,0.228516 q -0.333984,-1.986328 -1.441406,-2.847656 -1.089844,-0.878907 -3.28711,-0.878907 -2.2675777,0 -3.5507809,0.931641 -0.8261719,0.597656 -0.8261719,1.599609 0,0.914063 0.7734375,1.564453 0.9843751,0.826172 4.7812503,1.722657 3.796875,0.896484 5.607422,1.863281 1.828125,0.949219 2.847656,2.61914 1.037109,1.6523442 1.037109,4.0957036 0,2.2148438 -1.230469,4.1484375 -1.230468,1.9335938 -3.480468,2.88281252 -2.25,0.93164063 -5.607422,0.93164063 -4.8867189,0 -7.5058595,-2.24999995 -2.6191406,-2.2675782 -3.1289063,-6.5917969 z" /><path
               id="path86"
               style=""
               d="m 26.559984,0 v -25.769531 h 4.939453 V 0 Z" /><path
               id="path88"
               style=""
               d="m 36.459984,-21.199219 v -4.570312 h 4.939453 v 4.570312 z m 0,21.199219 v -18.667969 h 4.939453 V 0 Z" /><path
               id="path90"
               style=""
               d="m 63.553078,0 h -4.587891 v -2.7421875 q -1.142578,1.5996094 -2.707031,2.390625 -1.546875,0.7734375 -3.128906,0.7734375 -3.216797,0 -5.519532,-2.5839844 -2.285156,-2.6015625 -2.285156,-7.2421875 0,-4.7460941 2.232422,-7.2070311 2.232422,-2.478516 5.642578,-2.478516 3.128906,0 5.414063,2.601563 v -9.28125 h 4.939453 z M 50.369484,-9.7382813 q 0,2.9882813 0.826172,4.3242188 1.195312,1.9335937 3.339844,1.9335937 1.705078,0 2.90039,-1.4414062 1.195313,-1.4589844 1.195313,-4.3417969 0,-3.2167971 -1.160157,-4.6230471 -1.160156,-1.423828 -2.970703,-1.423828 -1.757812,0 -2.953125,1.40625 -1.177734,1.388672 -1.177734,4.1660157 z" /><path
               id="path92"
               style=""
               d="m 79.130531,-5.9414062 4.921875,0.8261718 q -0.949218,2.7070313 -3.005859,4.1308594 -2.039063,1.40625 -5.115234,1.40625 -4.869141,0 -7.207032,-3.1816406 -1.845703,-2.5488281 -1.845703,-6.4335938 0,-4.6406246 2.425781,-7.2597656 2.425782,-2.636719 6.134766,-2.636719 4.166016,0 6.574219,2.759766 2.408203,2.742187 2.302734,8.4199218 h -12.375 q 0.05273,2.1972656 1.195313,3.4277343 1.142578,1.2128906 2.847656,1.2128906 1.160156,0 1.951172,-0.6328125 0.791015,-0.6328124 1.195312,-2.0390624 z m 0.28125,-4.9921878 q -0.05273,-2.144531 -1.107422,-3.251953 -1.054687,-1.125 -2.566406,-1.125 -1.617187,0 -2.671875,1.177734 -1.054687,1.177735 -1.037109,3.199219 z" /><path
               id="path94"
               style=""
               d="m 96.988785,-8.3847656 5.062495,-0.4921875 q 0.45704,2.5488281 1.84571,3.7441406 1.40625,1.1953125 3.77929,1.1953125 2.51368,0 3.7793,-1.0546875 1.2832,-1.0722656 1.2832,-2.4960937 0,-0.9140626 -0.54492,-1.5468751 -0.52734,-0.6503906 -1.86328,-1.1249997 -0.91406,-0.316407 -4.16601,-1.125 -4.1836,-1.03711 -5.8711,-2.548828 -2.373045,-2.126954 -2.373045,-5.185547 0,-1.96875 1.107422,-3.673828 1.125003,-1.722657 3.216793,-2.619141 2.10938,-0.896484 5.08008,-0.896484 4.85156,0 7.29492,2.126953 2.46094,2.126953 2.58399,5.677734 l -5.20313,0.228516 q -0.33398,-1.986328 -1.4414,-2.847656 -1.08985,-0.878907 -3.28711,-0.878907 -2.26758,0 -3.55078,0.931641 -0.82618,0.597656 -0.82618,1.599609 0,0.914063 0.77344,1.564453 0.98438,0.826172 4.78125,1.722657 3.79688,0.896484 5.60742,1.863281 1.82813,0.949219 2.84766,2.61914 1.03711,1.6523442 1.03711,4.0957036 0,2.2148438 -1.23047,4.1484375 -1.23047,1.9335938 -3.48047,2.88281252 -2.25,0.93164063 -5.60742,0.93164063 -4.88672,0 -7.50586,-2.24999995 -2.61914,-2.2675782 -3.128905,-6.5917969 z" /><path
               id="path96"
               style=""
               d="m 130.80853,-18.667969 v 3.9375 h -3.375 v 7.5234378 q 0,2.2851562 0.0879,2.671875 0.10547,0.3691406 0.43946,0.6152343 0.35156,0.2460938 0.84375,0.2460938 0.68554,0 1.98632,-0.4746094 l 0.42188,3.83203125 q -1.72266,0.73828125 -3.90234,0.73828125 -1.33594,0 -2.40821,-0.43945313 -1.07226,-0.45703125 -1.58203,-1.16015627 -0.49219,-0.7207031 -0.68555,-1.9335937 -0.1582,-0.8613282 -0.1582,-3.4804688 v -8.1386721 h -2.26758 v -3.9375 h 2.26758 v -3.708984 l 4.95703,-2.882813 v 6.591797 z" /><path
               id="path98"
               style=""
               d="m 138.96449,0 h -4.93945 v -18.667969 h 4.58789 v 2.654297 q 1.17773,-1.880859 2.10938,-2.478515 0.94921,-0.597657 2.14453,-0.597657 1.6875,0 3.25195,0.931641 l -1.5293,4.30664 q -1.24804,-0.808593 -2.32031,-0.808593 -1.03711,0 -1.75781,0.580078 -0.72071,0.5625 -1.14258,2.05664 -0.4043,1.494141 -0.4043,6.257813 z" /><path
               id="path100"
               style=""
               d="m 160.59909,0 v -2.7949219 q -1.01953,1.4941407 -2.68945,2.35546877 -1.65235,0.86132813 -3.49805,0.86132813 -1.88086,0 -3.375,-0.82617188 -1.49414,-0.82617182 -2.16211,-2.32031252 -0.66797,-1.4941406 -0.66797,-4.1308593 V -18.667969 h 4.93946 v 8.578125 q 0,3.9375003 0.26367,4.8339846 0.28125,0.8789063 1.00195,1.40625 0.7207,0.5097656 1.82813,0.5097656 1.26562,0 2.26757,-0.6855468 1.00196,-0.703125 1.3711,-1.7226563 0.36914,-1.0371093 0.36914,-5.0449221 v -7.875 h 4.93945 V 0 Z" /><path
               id="path102"
               style=""
               d="m 186.47733,-13.148438 -4.86915,0.878907 q -0.24609,-1.458985 -1.125,-2.197266 -0.86132,-0.738281 -2.25,-0.738281 -1.8457,0 -2.95312,1.283203 -1.08984,1.265625 -1.08984,4.2539062 0,3.3222657 1.10742,4.6933594 1.125,1.3710938 3.00586,1.3710938 1.40625,0 2.30273,-0.7910156 0.89649,-0.8085938 1.26563,-2.7597657 l 4.85156,0.8261719 q -0.75586,3.3398437 -2.90039,5.0449219 -2.14453,1.7050781 -5.74805,1.7050781 -4.0957,0 -6.53906,-2.5839844 -2.42578,-2.5839843 -2.42578,-7.1542969 0,-4.6230467 2.44336,-7.1894527 2.44336,-2.583985 6.60937,-2.583985 3.41016,0 5.41406,1.476563 2.02149,1.458984 2.9004,4.464843 z" /><path
               id="path104"
               style=""
               d="m 198.81253,-18.667969 v 3.9375 h -3.375 v 7.5234378 q 0,2.2851562 0.0879,2.671875 0.10547,0.3691406 0.43945,0.6152343 0.35157,0.2460938 0.84375,0.2460938 0.68555,0 1.98633,-0.4746094 l 0.42188,3.83203125 q -1.72266,0.73828125 -3.90235,0.73828125 -1.33593,0 -2.4082,-0.43945313 -1.07227,-0.45703125 -1.58203,-1.16015627 -0.49219,-0.7207031 -0.68555,-1.9335937 -0.1582,-0.8613282 -0.1582,-3.4804688 v -8.1386721 h -2.26758 v -3.9375 h 2.26758 v -3.708984 l 4.95703,-2.882813 v 6.591797 z" /><path
               id="path106"
               style=""
               d="m 214.5271,0 v -2.7949219 q -1.01953,1.4941407 -2.68945,2.35546877 -1.65235,0.86132813 -3.49805,0.86132813 -1.88086,0 -3.375,-0.82617188 -1.49414,-0.82617182 -2.16211,-2.32031252 -0.66797,-1.4941406 -0.66797,-4.1308593 V -18.667969 h 4.93945 v 8.578125 q 0,3.9375003 0.26368,4.8339846 0.28125,0.8789063 1.00195,1.40625 0.7207,0.5097656 1.82812,0.5097656 1.26563,0 2.26758,-0.6855468 1.00196,-0.703125 1.3711,-1.7226563 0.36914,-1.0371093 0.36914,-5.0449221 v -7.875 h 4.93945 V 0 Z" /><path
               id="path108"
               style=""
               d="m 228.85651,0 h -4.93946 v -18.667969 h 4.58789 v 2.654297 q 1.17774,-1.880859 2.10938,-2.478515 0.94922,-0.597657 2.14453,-0.597657 1.6875,0 3.25195,0.931641 l -1.52929,4.30664 q -1.24805,-0.808593 -2.32032,-0.808593 -1.03711,0 -1.75781,0.580078 -0.7207,0.5625 -1.14258,2.05664 -0.40429,1.494141 -0.40429,6.257813 z" /><path
               id="path110"
               style=""
               d="m 249.01453,-5.9414062 4.92187,0.8261718 q -0.94922,2.7070313 -3.00586,4.1308594 -2.03906,1.40625 -5.11523,1.40625 -4.86914,0 -7.20703,-3.1816406 -1.84571,-2.5488281 -1.84571,-6.4335938 0,-4.6406246 2.42578,-7.2597656 2.42579,-2.636719 6.13477,-2.636719 4.16602,0 6.57422,2.759766 2.4082,2.742187 2.30273,8.4199218 h -12.375 q 0.0527,2.1972656 1.19532,3.4277343 1.14257,1.2128906 2.84765,1.2128906 1.16016,0 1.95117,-0.6328125 0.79102,-0.6328124 1.19532,-2.0390624 z m 0.28125,-4.9921878 q -0.0527,-2.144531 -1.10743,-3.251953 -1.05468,-1.125 -2.5664,-1.125 -1.61719,0 -2.67188,1.177734 -1.05468,1.177735 -1.03711,3.199219 z" /><path
               id="path112"
               style=""
               d="M 267.62949,-6.8730469 V -11.8125 h 9.70312 v 4.9394531 z" /><path
               id="path114"
               style=""
               d="m 290.13272,-25.769531 h 10.30078 q 3.0586,0 4.55274,0.263672 1.51172,0.246093 2.68945,1.054687 1.19531,0.808594 1.98633,2.16211 0.79101,1.335937 0.79101,3.005859 0,1.810547 -0.98437,3.322265 -0.9668,1.511719 -2.63672,2.267579 2.35547,0.685546 3.62109,2.33789 1.26563,1.652344 1.26563,3.8847659 0,1.7578125 -0.82617,3.4277344 -0.8086,1.6523437 -2.23243,2.6542968 -1.40625,0.98437502 -3.48046,1.21289065 Q 303.87881,-0.03515625 298.90421,0 h -8.77149 z m 5.20313,4.289062 v 5.958985 h 3.41015 q 3.04102,0 3.7793,-0.08789 1.33594,-0.158203 2.0918,-0.914062 0.77343,-0.773438 0.77343,-2.021485 0,-1.195312 -0.66797,-1.933594 -0.65039,-0.755859 -1.95117,-0.914062 -0.77343,-0.08789 -4.44726,-0.08789 z m 0,10.248047 v 6.8906251 h 4.8164 q 2.8125,0 3.56836,-0.1582031 1.16016,-0.2109375 1.88086,-1.0195312 0.73828,-0.8261719 0.73828,-2.1972657 0,-1.1601562 -0.5625,-1.96875 -0.5625,-0.8085941 -1.63476,-1.1777341 -1.05469,-0.369141 -4.60547,-0.369141 z" /><path
               id="path116"
               style=""
               d="m 319.83539,-12.972656 -4.48242,-0.808594 q 0.75586,-2.707031 2.60156,-4.007812 1.8457,-1.300782 5.48437,-1.300782 3.30469,0 4.92188,0.791016 1.61719,0.773437 2.26758,1.986328 0.66797,1.195312 0.66797,4.412109 l -0.0527,5.7656254 q 0,2.4609375 0.22852,3.6386718 Q 331.7182,-1.3359375 332.36859,0 h -4.88672 q -0.19336,-0.4921875 -0.47461,-1.4589844 -0.12304,-0.4394531 -0.17578,-0.5800781 -1.26562,1.23046875 -2.70703,1.84570313 -1.44141,0.61523437 -3.07617,0.61523437 -2.88281,0 -4.55274,-1.5644531 -1.65234,-1.5644532 -1.65234,-3.9550781 0,-1.5820313 0.75586,-2.8125 0.75586,-1.2480469 2.10938,-1.8984376 1.37109,-0.6679692 3.9375,-1.1601562 3.46289,-0.650391 4.79882,-1.212891 v -0.492187 q 0,-1.423828 -0.70312,-2.021485 -0.70313,-0.615234 -2.6543,-0.615234 -1.31836,0 -2.05664,0.527344 -0.73828,0.509765 -1.19531,1.810547 z m 6.60937,4.0078122 q -0.94922,0.3164063 -3.00586,0.7558594 -2.05664,0.4394532 -2.68945,0.8613282 -0.9668,0.6855468 -0.9668,1.7402343 0,1.0371094 0.77344,1.7929688 0.77344,0.7558593 1.96875,0.7558593 1.33594,0 2.54883,-0.8789062 0.89648,-0.6679687 1.17773,-1.6347656 0.19336,-0.6328125 0.19336,-2.4082031 z" /><path
               id="path118"
               style=""
               d="m 353.28107,0 h -4.58789 v -2.7421875 q -1.14258,1.5996094 -2.70703,2.390625 -1.54688,0.7734375 -3.12891,0.7734375 -3.2168,0 -5.51953,-2.5839844 -2.28516,-2.6015625 -2.28516,-7.2421875 0,-4.7460941 2.23242,-7.2070311 2.23243,-2.478516 5.64258,-2.478516 3.12891,0 5.41406,2.601563 v -9.28125 h 4.93946 z m -13.1836,-9.7382813 q 0,2.9882813 0.82618,4.3242188 1.19531,1.9335937 3.33984,1.9335937 1.70508,0 2.90039,-1.4414062 1.19531,-1.4589844 1.19531,-4.3417969 0,-3.2167971 -1.16015,-4.6230471 -1.16016,-1.423828 -2.97071,-1.423828 -1.75781,0 -2.95312,1.40625 -1.17774,1.388672 -1.17774,4.1660157 z" /></g></g><g
           id="text62"
           style="font-variant:normal;font-weight:normal;font-size:21px;font-family:OpenSymbol;-inkscape-font-specification:OpenSymbol;writing-mode:lr-tb;fill:#003366;fill-opacity:1;fill-rule:nonzero;stroke:none"
           transform="matrix(1,0,0,-1,79.1,327.1)"
           aria-label=""><path
             id="path121"
             style=""
             d="m 3.129,-14.364 h 10.479 q -0.315,3.696 -0.945,5.922 L 11.172,-8.61 q 0.714,-2.31 0.882,-4.368 H 3.129 Z" /></g><g
           id="text66"
           style="font-variant:normal;font-weight:normal;font-size:28px;font-family:Arial;-inkscape-font-specification:ArialMT;writing-mode:lr-tb;fill:#003366;fill-opacity:1;fill-rule:nonzero;stroke:none"
           transform="matrix(1,0,0,-1,106,322.2)"
           aria-label="Do not use distracting animation"><path
             id="path124"
             style=""
             d="m 2.1601563,0 v -20.042969 h 6.9042968 q 2.3378909,0 3.5683599,0.28711 1.722656,0.396484 2.939453,1.435547 1.585937,1.339843 2.365234,3.43164 0.792969,2.078125 0.792969,4.757813 0,2.2832028 -0.533203,4.0468746 -0.533204,1.7636719 -1.367188,2.9257813 -0.833984,1.1484375 -1.832031,1.8183594 -0.984375,0.65624995 -2.392578,0.99804682 Q 11.210938,0 9.3925781,0 Z M 4.8125,-2.3652344 h 4.2792969 q 1.9824221,0 3.1035161,-0.3691406 Q 13.330078,-3.1035156 14,-3.7734375 q 0.943359,-0.9433594 1.462891,-2.5292969 0.533203,-1.5996093 0.533203,-3.8691406 0,-3.144531 -1.039063,-4.826172 -1.02539,-1.695312 -2.501953,-2.269531 -1.066406,-0.410156 -3.4316405,-0.410156 H 4.8125 Z" /><path
             id="path126"
             style=""
             d="m 21.117687,-7.2597656 q 0,-4.0332034 2.242188,-5.9746094 1.873047,-1.613281 4.566406,-1.613281 2.994141,0 4.894531,1.96875 1.900391,1.955078 1.900391,5.4140623 0,2.8027343 -0.847656,4.4160156 -0.833985,1.5996094 -2.447266,2.48828123 -1.599609,0.88867187 -3.5,0.88867187 -3.048828,0 -4.935547,-1.9550781 -1.873047,-1.9550782 -1.873047,-5.6328125 z m 2.529297,0 q 0,2.7890625 1.216797,4.1835937 1.216797,1.3808594 3.0625,1.3808594 1.832031,0 3.048828,-1.3945313 1.216797,-1.3945312 1.216797,-4.2519531 0,-2.6933591 -1.230469,-4.0742191 -1.216797,-1.394531 -3.035156,-1.394531 -1.845703,0 -3.0625,1.380859 -1.216797,1.38086 -1.216797,4.1699224 z" /><path
             id="path128"
             style=""
             d="m 45.385704,0 v -14.519531 h 2.214844 v 2.064453 q 1.599609,-2.392578 4.621094,-2.392578 1.3125,0 2.40625,0.478515 1.107421,0.464844 1.654296,1.230469 0.546875,0.765625 0.765625,1.818359 0.136719,0.683594 0.136719,2.3925786 V 0 h -2.460937 v -8.8320313 q 0,-1.5039067 -0.28711,-2.2421877 -0.287109,-0.751953 -1.02539,-1.189453 -0.72461,-0.451172 -1.708985,-0.451172 -1.572265,0 -2.720703,0.998047 -1.134765,0.998047 -1.134765,3.7871095 V 0 Z" /><path
             id="path130"
             style=""
             d="m 60.037689,-7.2597656 q 0,-4.0332034 2.242188,-5.9746094 1.873047,-1.613281 4.566406,-1.613281 2.994141,0 4.894531,1.96875 1.900391,1.955078 1.900391,5.4140623 0,2.8027343 -0.847656,4.4160156 -0.833985,1.5996094 -2.447266,2.48828123 -1.599609,0.88867187 -3.5,0.88867187 -3.048828,0 -4.935547,-1.9550781 -1.873047,-1.9550782 -1.873047,-5.6328125 z m 2.529297,0 q 0,2.7890625 1.216797,4.1835937 1.216797,1.3808594 3.0625,1.3808594 1.832031,0 3.048828,-1.3945313 1.216797,-1.3945312 1.216797,-4.2519531 0,-2.6933591 -1.230469,-4.0742191 -1.216797,-1.394531 -3.035156,-1.394531 -1.845703,0 -3.0625,1.380859 -1.216797,1.38086 -1.216797,4.1699224 z" /><path
             id="path132"
             style=""
             d="m 81.894753,-2.2011719 0.355468,2.17382815 q -1.039062,0.21875 -1.859375,0.21875 -1.339843,0 -2.078125,-0.42382813 Q 77.57444,-0.65625 77.273659,-1.3398437 76.972878,-2.0371094 76.972878,-4.2519531 V -12.605469 H 75.16819 v -1.914062 h 1.804688 v -3.595703 l 2.447265,-1.476563 v 5.072266 h 2.47461 v 1.914062 h -2.47461 v 8.4902346 q 0,1.0527344 0.123047,1.3535156 0.136719,0.3007813 0.423828,0.4785157 0.300781,0.1777343 0.847656,0.1777343 0.410157,0 1.080079,-0.095703 z" /><path
             id="path134"
             style=""
             d="m 101.60533,0 v -2.1328125 q -1.695311,2.4609375 -4.60742,2.4609375 -1.285157,0 -2.40625,-0.4921875 Q 93.484238,-0.65625 92.937363,-1.3945312 92.40416,-2.1464844 92.18541,-3.2265625 92.035019,-3.9511719 92.035019,-5.5234375 v -8.9960935 h 2.460937 v 8.0527341 q 0,1.9277344 0.150391,2.5976563 0.232422,0.9707031 0.984375,1.53125 0.751953,0.546875 1.859375,0.546875 1.107422,0 2.078125,-0.5605469 0.970708,-0.5742188 1.367188,-1.5449219 0.41016,-0.984375 0.41016,-2.84375 v -7.7792966 h 2.46093 V 0 Z" /><path
             id="path136"
             style=""
             d="m 106.67332,-4.3339844 2.4336,-0.3828125 q 0.20508,1.4628906 1.13476,2.2421875 0.94336,0.7792969 2.625,0.7792969 1.69532,0 2.51563,-0.6835938 0.82031,-0.6972656 0.82031,-1.6269531 0,-0.8339843 -0.72461,-1.3125 -0.50586,-0.328125 -2.51562,-0.8339843 -2.70703,-0.6835938 -3.75977,-1.1757813 -1.03906,-0.5058594 -1.58594,-1.3808594 -0.5332,-0.8886719 -0.5332,-1.9550786 0,-0.970703 0.4375,-1.791015 0.45117,-0.833985 1.2168,-1.38086 0.57422,-0.423828 1.55859,-0.710937 0.99805,-0.300781 2.13281,-0.300781 1.70899,0 2.99414,0.492187 1.29883,0.492188 1.91407,1.339844 0.61523,0.833984 0.84765,2.242187 l -2.40625,0.328125 q -0.16406,-1.121093 -0.95703,-1.75 -0.77929,-0.628906 -2.21484,-0.628906 -1.69531,0 -2.41992,0.560547 -0.72461,0.560547 -0.72461,1.3125 0,0.478516 0.30078,0.861328 0.30078,0.3964846 0.94336,0.6562502 0.36914,0.1367188 2.17383,0.6289063 2.61132,0.6972656 3.63671,1.1484375 1.03907,0.4375 1.62696,1.2851563 0.58789,0.8476562 0.58789,2.1054687 0,1.2304687 -0.72461,2.3242188 -0.71094,1.08007807 -2.06445,1.68164057 -1.35352,0.58789063 -3.0625,0.58789063 -2.83008,0 -4.32032,-1.17578125 -1.47656,-1.17578125 -1.88672,-3.48632815 z" /><path
             id="path138"
             style=""
             d="m 131.59715,-4.6757812 2.54297,0.3144531 q -0.60156,2.2285156 -2.22851,3.45898435 -1.62696,1.23046875 -4.15625,1.23046875 -3.18555,0 -5.0586,-1.9550781 -1.85937,-1.96875 -1.85937,-5.5097656 0,-3.6640623 1.88672,-5.6875003 1.88671,-2.023437 4.89453,-2.023437 2.91211,0 4.75781,1.982422 1.8457,1.982421 1.8457,5.5781246 0,0.21875 -0.0137,0.65625 h -10.82812 q 0.13671,2.3925782 1.35351,3.6640625 1.2168,1.2714844 3.03516,1.2714844 1.35351,0 2.31054,-0.7109375 0.95704,-0.7109375 1.51758,-2.2695312 z m -8.08008,-3.9785157 h 8.10743 q -0.16407,-1.8320311 -0.92969,-2.7480471 -1.17578,-1.421875 -3.04883,-1.421875 -1.69531,0 -2.85742,1.134766 -1.14844,1.134765 -1.27149,3.0351561 z" /><path
             id="path140"
             style=""
             d="m 154.45763,0 v -1.8320312 q -1.38086,2.1601562 -4.06055,2.1601562 -1.73633,0 -3.19922,-0.95703125 -1.44922,-0.95703125 -2.25586,-2.66601565 -0.79297,-1.7226562 -0.79297,-3.9511718 0,-2.1738282 0.72461,-3.9375003 0.72461,-1.777344 2.17383,-2.720703 1.44922,-0.943359 3.24023,-0.943359 1.3125,0 2.3379,0.560547 1.02539,0.546875 1.66796,1.435546 v -7.191406 h 2.44727 V 0 Z m -7.7793,-7.2460937 q 0,2.7890625 1.17578,4.1699218 1.17578,1.3808594 2.77539,1.3808594 1.61328,0 2.73438,-1.3125 1.13476,-1.3261719 1.13476,-4.0332031 0,-2.9804684 -1.14844,-4.3750004 -1.14843,-1.394531 -2.83007,-1.394531 -1.64063,0 -2.74805,1.339844 -1.09375,1.339844 -1.09375,4.2246093 z" /><path
             id="path142"
             style=""
             d="m 160.61937,-17.212891 v -2.830078 h 2.46094 v 2.830078 z m 0,17.212891 v -14.519531 h 2.46094 V 0 Z" /><path
             id="path144"
             style=""
             d="m 165.89333,-4.3339844 2.43359,-0.3828125 q 0.20508,1.4628906 1.13477,2.2421875 0.94335,0.7792969 2.625,0.7792969 1.69531,0 2.51562,-0.6835938 0.82031,-0.6972656 0.82031,-1.6269531 0,-0.8339843 -0.72461,-1.3125 -0.50586,-0.328125 -2.51562,-0.8339843 -2.70703,-0.6835938 -3.75977,-1.1757813 -1.03906,-0.5058594 -1.58593,-1.3808594 -0.53321,-0.8886719 -0.53321,-1.9550786 0,-0.970703 0.4375,-1.791015 0.45117,-0.833985 1.2168,-1.38086 0.57422,-0.423828 1.55859,-0.710937 0.99805,-0.300781 2.13282,-0.300781 1.70898,0 2.99414,0.492187 1.29882,0.492188 1.91406,1.339844 0.61523,0.833984 0.84765,2.242187 l -2.40625,0.328125 q -0.16406,-1.121093 -0.95703,-1.75 -0.77929,-0.628906 -2.21484,-0.628906 -1.69531,0 -2.41992,0.560547 -0.72461,0.560547 -0.72461,1.3125 0,0.478516 0.30078,0.861328 0.30078,0.3964846 0.94336,0.6562502 0.36914,0.1367188 2.17383,0.6289063 2.61133,0.6972656 3.63672,1.1484375 1.03906,0.4375 1.62695,1.2851563 0.58789,0.8476562 0.58789,2.1054687 0,1.2304687 -0.72461,2.3242188 -0.71094,1.08007807 -2.06445,1.68164057 -1.35352,0.58789063 -3.0625,0.58789063 -2.83008,0 -4.32032,-1.17578125 -1.47656,-1.17578125 -1.88671,-3.48632815 z" /><path
             id="path146"
             style=""
             d="m 186.25075,-2.2011719 0.35547,2.17382815 q -1.03907,0.21875 -1.85938,0.21875 -1.33984,0 -2.07812,-0.42382813 -0.73828,-0.42382812 -1.03907,-1.10742182 -0.30078,-0.6972657 -0.30078,-2.9121094 v -8.3535159 h -1.80468 v -1.914062 h 1.80468 v -3.595703 l 2.44727,-1.476563 v 5.072266 h 2.47461 v 1.914062 h -2.47461 v 8.4902346 q 0,1.0527344 0.12305,1.3535156 0.13671,0.3007813 0.42382,0.4785157 0.30078,0.1777343 0.84766,0.1777343 0.41016,0 1.08008,-0.095703 z" /><path
             id="path148"
             style=""
             d="m 188.63435,0 v -14.519531 h 2.21485 v 2.201172 q 0.84765,-1.544922 1.55859,-2.03711 0.72461,-0.492187 1.58594,-0.492187 1.24414,0 2.5293,0.792968 l -0.84766,2.283204 q -0.90234,-0.533204 -1.80469,-0.533204 -0.80664,0 -1.44922,0.492188 -0.64258,0.478516 -0.91601,1.339844 -0.41016,1.3124997 -0.41016,2.8710935 V 0 Z" /><path
             id="path150"
             style=""
             d="m 207.51631,-1.7910156 q -1.36719,1.16210935 -2.63867,1.64062498 -1.25781,0.47851562 -2.70703,0.47851562 -2.39258,0 -3.67774,-1.16210938 -1.28515,-1.17578122 -1.28515,-2.99414062 0,-1.0664062 0.47851,-1.9414062 0.49219,-0.8886719 1.27149,-1.421875 0.79297,-0.5332032 1.77734,-0.8066407 0.72461,-0.1914062 2.1875,-0.3691406 2.98047,-0.3554688 4.38867,-0.8476563 0.0137,-0.5058593 0.0137,-0.6425781 0,-1.5039061 -0.69727,-2.1191411 -0.94336,-0.833984 -2.80273,-0.833984 -1.73633,0 -2.57032,0.615234 -0.82031,0.601563 -1.21679,2.146485 l -2.40625,-0.328125 q 0.32812,-1.544922 1.08007,-2.488281 0.75196,-0.957032 2.17383,-1.462891 1.42188,-0.519531 3.29492,-0.519531 1.85938,0 3.02149,0.4375 1.16211,0.4375 1.70898,1.107422 0.54688,0.65625 0.76563,1.667968 0.12304,0.628907 0.12304,2.2695316 v 3.28125 q 0,3.4316406 0.1504,4.3476563 0.16406,0.90234372 0.6289,1.7363281 h -2.57031 q -0.38281,-0.765625 -0.49219,-1.7910156 z m -0.20508,-5.4960938 q -1.33984,0.546875 -4.01953,0.9296875 -1.51758,0.21875 -2.14648,0.4921875 -0.62891,0.2734375 -0.97071,0.8066407 -0.34179,0.5195312 -0.34179,1.1621093 0,0.984375 0.73828,1.640625 0.75195,0.65625 2.1875,0.65625 1.42187,0 2.5293,-0.6152344 1.10742,-0.6289062 1.62695,-1.7089843 0.39648,-0.8339844 0.39648,-2.4609375 z" /><path
             id="path152"
             style=""
             d="m 223.08432,-5.3183594 2.41992,0.3144532 q -0.39648,2.5019531 -2.03711,3.9238281 -1.62695,1.4082031 -4.00586,1.4082031 -2.98047,0 -4.79882,-1.9414062 -1.80469,-1.9550782 -1.80469,-5.5917969 0,-2.3515625 0.77929,-4.1152349 0.7793,-1.763671 2.36524,-2.638671 1.59961,-0.888672 3.47266,-0.888672 2.36523,0 3.86914,1.203125 1.5039,1.189453 1.92773,3.390625 l -2.39258,0.3691404 q -0.34179,-1.4628904 -1.21679,-2.2011724 -0.86133,-0.738281 -2.0918,-0.738281 -1.85938,0 -3.02149,1.339844 -1.16211,1.326172 -1.16211,4.2109375 0,2.9257813 1.1211,4.2519531 1.12109,1.3261719 2.92578,1.3261719 1.44922,0 2.41992,-0.8886719 0.9707,-0.8886719 1.23047,-2.734375 z" /><path
             id="path154"
             style=""
             d="m 232.98276,-2.2011719 0.35547,2.17382815 q -1.03907,0.21875 -1.85938,0.21875 -1.33984,0 -2.07812,-0.42382813 -0.73828,-0.42382812 -1.03907,-1.10742182 -0.30078,-0.6972657 -0.30078,-2.9121094 v -8.3535159 h -1.80468 v -1.914062 h 1.80468 v -3.595703 l 2.44727,-1.476563 v 5.072266 h 2.47461 v 1.914062 h -2.47461 v 8.4902346 q 0,1.0527344 0.12305,1.3535156 0.13671,0.3007813 0.42382,0.4785157 0.30078,0.1777343 0.84766,0.1777343 0.41016,0 1.08008,-0.095703 z" /><path
             id="path156"
             style=""
             d="m 235.40738,-17.212891 v -2.830078 h 2.46094 v 2.830078 z m 0,17.212891 v -14.519531 h 2.46094 V 0 Z" /><path
             id="path158"
             style=""
             d="m 241.66571,0 v -14.519531 h 2.21484 v 2.064453 q 1.59961,-2.392578 4.6211,-2.392578 1.3125,0 2.40625,0.478515 1.10742,0.464844 1.65429,1.230469 0.54688,0.765625 0.76563,1.818359 0.13672,0.683594 0.13672,2.3925786 V 0 h -2.46094 v -8.8320313 q 0,-1.5039067 -0.28711,-2.2421877 -0.28711,-0.751953 -1.02539,-1.189453 -0.72461,-0.451172 -1.70898,-0.451172 -1.57227,0 -2.72071,0.998047 -1.13476,0.998047 -1.13476,3.7871095 V 0 Z" /><path
             id="path160"
             style=""
             d="m 256.78253,1.203125 2.39258,0.3554687 q 0.15039,1.1074219 0.83398,1.6132813 0.91602,0.6835938 2.50196,0.6835938 1.70898,0 2.63867,-0.6835938 0.92969,-0.6835937 1.25781,-1.9140625 0.19141,-0.75195313 0.17774,-3.1582031 Q 264.97198,0 262.56573,0 q -2.99414,0 -4.63476,-2.1601563 -1.64063,-2.1601562 -1.64063,-5.1816406 0,-2.078125 0.75196,-3.8281251 0.75195,-1.763672 2.17383,-2.720703 1.43554,-0.957031 3.36328,-0.957031 2.57031,0 4.23828,2.078125 v -1.75 h 2.26953 V -1.96875 q 0,3.390625 -0.69727,4.7988281 -0.68359,1.421875 -2.1875,2.2421875 -1.49023,0.8203125 -3.67773,0.8203125 -2.59766,0 -4.19727,-1.1757812 -1.59961,-1.1621094 -1.54492,-3.5136719 z m 2.03711,-8.7226562 q 0,2.8574218 1.13477,4.1699218 1.13476,1.3125 2.84375,1.3125 1.69531,0 2.84375,-1.2988281 1.14843,-1.3125 1.14843,-4.1015625 0,-2.666016 -1.18945,-4.019531 -1.17578,-1.353516 -2.84375,-1.353516 -1.64062,0 -2.78906,1.339844 -1.14844,1.326172 -1.14844,3.9511718 z" /><path
             id="path162"
             style=""
             d="m 290.0603,-1.7910156 q -1.36718,1.16210935 -2.63867,1.64062498 -1.25781,0.47851562 -2.70703,0.47851562 -2.39258,0 -3.67773,-1.16210938 -1.28516,-1.17578122 -1.28516,-2.99414062 0,-1.0664062 0.47851,-1.9414062 0.49219,-0.8886719 1.27149,-1.421875 0.79297,-0.5332032 1.77734,-0.8066407 0.72461,-0.1914062 2.1875,-0.3691406 2.98047,-0.3554688 4.38867,-0.8476563 0.0137,-0.5058593 0.0137,-0.6425781 0,-1.5039061 -0.69727,-2.1191411 -0.94336,-0.833984 -2.80273,-0.833984 -1.73633,0 -2.57032,0.615234 -0.82031,0.601563 -1.21679,2.146485 l -2.40625,-0.328125 q 0.32812,-1.544922 1.08008,-2.488281 0.75195,-0.957032 2.17382,-1.462891 1.42188,-0.519531 3.29493,-0.519531 1.85937,0 3.02148,0.4375 1.16211,0.4375 1.70898,1.107422 0.54688,0.65625 0.76563,1.667968 0.12305,0.628907 0.12305,2.2695316 v 3.28125 q 0,3.4316406 0.15039,4.3476563 Q 292.65796,-0.83398438 293.1228,0 h -2.57031 q -0.38281,-0.765625 -0.49219,-1.7910156 z m -0.20508,-5.4960938 q -1.33984,0.546875 -4.01953,0.9296875 -1.51757,0.21875 -2.14648,0.4921875 -0.62891,0.2734375 -0.9707,0.8066407 -0.3418,0.5195312 -0.3418,1.1621093 0,0.984375 0.73828,1.640625 0.75195,0.65625 2.1875,0.65625 1.42188,0 2.5293,-0.6152344 1.10742,-0.6289062 1.62695,-1.7089843 0.39648,-0.8339844 0.39648,-2.4609375 z" /><path
             id="path164"
             style=""
             d="m 296.15372,0 v -14.519531 h 2.21484 v 2.064453 q 1.59961,-2.392578 4.62109,-2.392578 1.3125,0 2.40625,0.478515 1.10743,0.464844 1.6543,1.230469 0.54688,0.765625 0.76563,1.818359 0.13672,0.683594 0.13672,2.3925786 V 0 h -2.46094 v -8.8320313 q 0,-1.5039067 -0.28711,-2.2421877 -0.28711,-0.751953 -1.02539,-1.189453 -0.72461,-0.451172 -1.70899,-0.451172 -1.57226,0 -2.7207,0.998047 -1.13477,0.998047 -1.13477,3.7871095 V 0 Z" /><path
             id="path166"
             style=""
             d="m 311.73538,-17.212891 v -2.830078 h 2.46094 v 2.830078 z m 0,17.212891 v -14.519531 h 2.46094 V 0 Z" /><path
             id="path168"
             style=""
             d="m 317.9097,0 v -14.519531 h 2.20117 v 2.037109 q 0.68359,-1.066406 1.81836,-1.708984 1.13477,-0.65625 2.58398,-0.65625 1.61329,0 2.63868,0.669922 1.03906,0.669921 1.46289,1.873046 1.72265,-2.542968 4.48437,-2.542968 2.16016,0 3.32227,1.203125 1.16211,1.189453 1.16211,3.6777341 V 0 h -2.44727 v -9.1464844 q 0,-1.4765626 -0.24609,-2.1191406 -0.23242,-0.65625 -0.86133,-1.052734 -0.62891,-0.396485 -1.47656,-0.396485 -1.53125,0 -2.54297,1.025391 -1.01172,1.011719 -1.01172,3.2539061 V 0 h -2.46094 v -9.4335938 q 0,-1.6406252 -0.60156,-2.4609372 -0.60156,-0.820313 -1.96875,-0.820313 -1.03906,0 -1.92774,0.546875 -0.875,0.546875 -1.27148,1.59961 -0.39648,1.052734 -0.39648,3.0351559 V 0 Z" /><path
             id="path170"
             style=""
             d="m 350.6803,-1.7910156 q -1.36719,1.16210935 -2.63867,1.64062498 -1.25782,0.47851562 -2.70704,0.47851562 -2.39257,0 -3.67773,-1.16210938 -1.28516,-1.17578122 -1.28516,-2.99414062 0,-1.0664062 0.47852,-1.9414062 0.49219,-0.8886719 1.27148,-1.421875 0.79297,-0.5332032 1.77735,-0.8066407 0.72461,-0.1914062 2.1875,-0.3691406 2.98047,-0.3554688 4.38867,-0.8476563 0.0137,-0.5058593 0.0137,-0.6425781 0,-1.5039061 -0.69726,-2.1191411 -0.94336,-0.833984 -2.80274,-0.833984 -1.73633,0 -2.57031,0.615234 -0.82031,0.601563 -1.2168,2.146485 l -2.40625,-0.328125 q 0.32813,-1.544922 1.08008,-2.488281 0.75195,-0.957032 2.17383,-1.462891 1.42187,-0.519531 3.29492,-0.519531 1.85938,0 3.02148,0.4375 1.16211,0.4375 1.70899,1.107422 0.54687,0.65625 0.76562,1.667968 0.12305,0.628907 0.12305,2.2695316 v 3.28125 q 0,3.4316406 0.15039,4.3476563 Q 353.27795,-0.83398438 353.7428,0 h -2.57031 q -0.38282,-0.765625 -0.49219,-1.7910156 z m -0.20508,-5.4960938 q -1.33984,0.546875 -4.01953,0.9296875 -1.51758,0.21875 -2.14649,0.4921875 -0.6289,0.2734375 -0.9707,0.8066407 -0.3418,0.5195312 -0.3418,1.1621093 0,0.984375 0.73829,1.640625 0.75195,0.65625 2.1875,0.65625 1.42187,0 2.52929,-0.6152344 1.10742,-0.6289062 1.62696,-1.7089843 0.39648,-0.8339844 0.39648,-2.4609375 z" /><path
             id="path172"
             style=""
             d="m 362.14676,-2.2011719 0.35547,2.17382815 q -1.03906,0.21875 -1.85938,0.21875 -1.33984,0 -2.07812,-0.42382813 -0.73828,-0.42382812 -1.03906,-1.10742182 -0.30079,-0.6972657 -0.30079,-2.9121094 v -8.3535159 h -1.80468 v -1.914062 h 1.80468 v -3.595703 l 2.44727,-1.476563 v 5.072266 h 2.47461 v 1.914062 h -2.47461 v 8.4902346 q 0,1.0527344 0.12305,1.3535156 0.13672,0.3007813 0.42382,0.4785157 0.30079,0.1777343 0.84766,0.1777343 0.41016,0 1.08008,-0.095703 z" /><path
             id="path174"
             style=""
             d="m 364.57138,-17.212891 v -2.830078 h 2.46094 v 2.830078 z m 0,17.212891 v -14.519531 h 2.46094 V 0 Z" /><path
             id="path176"
             style=""
             d="m 369.82968,-7.2597656 q 0,-4.0332034 2.24219,-5.9746094 1.87305,-1.613281 4.56641,-1.613281 2.99414,0 4.89453,1.96875 1.90039,1.955078 1.90039,5.4140623 0,2.8027343 -0.84766,4.4160156 -0.83398,1.5996094 -2.44726,2.48828123 -1.59961,0.88867187 -3.5,0.88867187 -3.04883,0 -4.93555,-1.9550781 -1.87305,-1.9550782 -1.87305,-5.6328125 z m 2.5293,0 q 0,2.7890625 1.2168,4.1835937 1.21679,1.3808594 3.0625,1.3808594 1.83203,0 3.04882,-1.3945313 1.2168,-1.3945312 1.2168,-4.2519531 0,-2.6933591 -1.23047,-4.0742191 -1.2168,-1.394531 -3.03515,-1.394531 -1.84571,0 -3.0625,1.380859 -1.2168,1.38086 -1.2168,4.1699224 z" /><path
             id="path178"
             style=""
             d="m 386.31369,0 v -14.519531 h 2.21484 v 2.064453 q 1.59961,-2.392578 4.6211,-2.392578 1.3125,0 2.40625,0.478515 1.10742,0.464844 1.65429,1.230469 0.54688,0.765625 0.76563,1.818359 0.13672,0.683594 0.13672,2.3925786 V 0 h -2.46094 v -8.8320313 q 0,-1.5039067 -0.28711,-2.2421877 -0.28711,-0.751953 -1.02539,-1.189453 -0.72461,-0.451172 -1.70898,-0.451172 -1.57227,0 -2.72071,0.998047 -1.13476,0.998047 -1.13476,3.7871095 V 0 Z" /></g><g
           id="text70"
           style="font-variant:normal;font-weight:normal;font-size:21px;font-family:OpenSymbol;-inkscape-font-specification:OpenSymbol;writing-mode:lr-tb;fill:#003366;fill-opacity:1;fill-rule:nonzero;stroke:none"
           transform="matrix(1,0,0,-1,79.1,245.8)"
           aria-label=""><path
             id="path181"
             style=""
             d="m 3.129,-14.364 h 10.479 q -0.315,3.696 -0.945,5.922 L 11.172,-8.61 q 0.714,-2.31 0.882,-4.368 H 3.129 Z" /></g><g
           id="text74"
           style="font-variant:normal;font-weight:normal;font-size:28px;font-family:Arial;-inkscape-font-specification:ArialMT;writing-mode:lr-tb;fill:#003366;fill-opacity:1;fill-rule:nonzero;stroke:none"
           transform="matrix(1,0,0,-1,106,240.9)"
           aria-label="Do not go overboard with the animation"><path
             id="path184"
             style=""
             d="m 2.1601563,0 v -20.042969 h 6.9042968 q 2.3378909,0 3.5683599,0.28711 1.722656,0.396484 2.939453,1.435547 1.585937,1.339843 2.365234,3.43164 0.792969,2.078125 0.792969,4.757813 0,2.2832028 -0.533203,4.0468746 -0.533204,1.7636719 -1.367188,2.9257813 -0.833984,1.1484375 -1.832031,1.8183594 -0.984375,0.65624995 -2.392578,0.99804682 Q 11.210938,0 9.3925781,0 Z M 4.8125,-2.3652344 h 4.2792969 q 1.9824221,0 3.1035161,-0.3691406 Q 13.330078,-3.1035156 14,-3.7734375 q 0.943359,-0.9433594 1.462891,-2.5292969 0.533203,-1.5996093 0.533203,-3.8691406 0,-3.144531 -1.039063,-4.826172 -1.02539,-1.695312 -2.501953,-2.269531 -1.066406,-0.410156 -3.4316405,-0.410156 H 4.8125 Z" /><path
             id="path186"
             style=""
             d="m 21.117687,-7.2597656 q 0,-4.0332034 2.242188,-5.9746094 1.873047,-1.613281 4.566406,-1.613281 2.994141,0 4.894531,1.96875 1.900391,1.955078 1.900391,5.4140623 0,2.8027343 -0.847656,4.4160156 -0.833985,1.5996094 -2.447266,2.48828123 -1.599609,0.88867187 -3.5,0.88867187 -3.048828,0 -4.935547,-1.9550781 -1.873047,-1.9550782 -1.873047,-5.6328125 z m 2.529297,0 q 0,2.7890625 1.216797,4.1835937 1.216797,1.3808594 3.0625,1.3808594 1.832031,0 3.048828,-1.3945313 1.216797,-1.3945312 1.216797,-4.2519531 0,-2.6933591 -1.230469,-4.0742191 -1.216797,-1.394531 -3.035156,-1.394531 -1.845703,0 -3.0625,1.380859 -1.216797,1.38086 -1.216797,4.1699224 z" /><path
             id="path188"
             style=""
             d="m 45.385704,0 v -14.519531 h 2.214844 v 2.064453 q 1.599609,-2.392578 4.621094,-2.392578 1.3125,0 2.40625,0.478515 1.107421,0.464844 1.654296,1.230469 0.546875,0.765625 0.765625,1.818359 0.136719,0.683594 0.136719,2.3925786 V 0 h -2.460937 v -8.8320313 q 0,-1.5039067 -0.28711,-2.2421877 -0.287109,-0.751953 -1.02539,-1.189453 -0.72461,-0.451172 -1.708985,-0.451172 -1.572265,0 -2.720703,0.998047 -1.134765,0.998047 -1.134765,3.7871095 V 0 Z" /><path
             id="path190"
             style=""
             d="m 60.037689,-7.2597656 q 0,-4.0332034 2.242188,-5.9746094 1.873047,-1.613281 4.566406,-1.613281 2.994141,0 4.894531,1.96875 1.900391,1.955078 1.900391,5.4140623 0,2.8027343 -0.847656,4.4160156 -0.833985,1.5996094 -2.447266,2.48828123 -1.599609,0.88867187 -3.5,0.88867187 -3.048828,0 -4.935547,-1.9550781 -1.873047,-1.9550782 -1.873047,-5.6328125 z m 2.529297,0 q 0,2.7890625 1.216797,4.1835937 1.216797,1.3808594 3.0625,1.3808594 1.832031,0 3.048828,-1.3945313 1.216797,-1.3945312 1.216797,-4.2519531 0,-2.6933591 -1.230469,-4.0742191 -1.216797,-1.394531 -3.035156,-1.394531 -1.845703,0 -3.0625,1.380859 -1.216797,1.38086 -1.216797,4.1699224 z" /><path
             id="path192"
             style=""
             d="m 81.894753,-2.2011719 0.355468,2.17382815 q -1.039062,0.21875 -1.859375,0.21875 -1.339843,0 -2.078125,-0.42382813 Q 77.57444,-0.65625 77.273659,-1.3398437 76.972878,-2.0371094 76.972878,-4.2519531 V -12.605469 H 75.16819 v -1.914062 h 1.804688 v -3.595703 l 2.447265,-1.476563 v 5.072266 h 2.47461 v 1.914062 h -2.47461 v 8.4902346 q 0,1.0527344 0.123047,1.3535156 0.136719,0.3007813 0.423828,0.4785157 0.300781,0.1777343 0.847656,0.1777343 0.410157,0 1.080079,-0.095703 z" /><path
             id="path194"
             style=""
             d="m 91.638535,1.203125 2.392578,0.3554687 q 0.15039,1.1074219 0.833984,1.6132813 0.916016,0.6835938 2.501953,0.6835938 1.708985,0 2.63867,-0.6835938 0.92969,-0.6835937 1.25781,-1.9140625 0.19141,-0.75195313 0.17774,-3.1582031 Q 99.827988,0 97.421738,0 q -2.994141,0 -4.634766,-2.1601563 -1.640625,-2.1601562 -1.640625,-5.1816406 0,-2.078125 0.751953,-3.8281251 0.751953,-1.763672 2.173828,-2.720703 1.435547,-0.957031 3.363282,-0.957031 2.57031,0 4.23828,2.078125 v -1.75 h 2.26953 V -1.96875 q 0,3.390625 -0.69726,4.7988281 -0.6836,1.421875 -2.1875,2.2421875 -1.490238,0.8203125 -3.677738,0.8203125 -2.597656,0 -4.197266,-1.1757812 Q 91.583847,3.5546875 91.638535,1.203125 Z m 2.037109,-8.7226562 q 0,2.8574218 1.134766,4.1699218 1.134765,1.3125 2.84375,1.3125 1.695312,0 2.84375,-1.2988281 1.14844,-1.3125 1.14844,-4.1015625 0,-2.666016 -1.18946,-4.019531 -1.175777,-1.353516 -2.843746,-1.353516 -1.640625,0 -2.789063,1.339844 -1.148437,1.326172 -1.148437,3.9511718 z" /><path
             id="path196"
             style=""
             d="m 106.74168,-7.2597656 q 0,-4.0332034 2.24219,-5.9746094 1.87305,-1.613281 4.56641,-1.613281 2.99414,0 4.89453,1.96875 1.90039,1.955078 1.90039,5.4140623 0,2.8027343 -0.84766,4.4160156 -0.83398,1.5996094 -2.44726,2.48828123 -1.59961,0.88867187 -3.5,0.88867187 -3.04883,0 -4.93555,-1.9550781 -1.87305,-1.9550782 -1.87305,-5.6328125 z m 2.5293,0 q 0,2.7890625 1.2168,4.1835937 1.21679,1.3808594 3.0625,1.3808594 1.83203,0 3.04883,-1.3945313 1.21679,-1.3945312 1.21679,-4.2519531 0,-2.6933591 -1.23047,-4.0742191 -1.21679,-1.394531 -3.03515,-1.394531 -1.84571,0 -3.0625,1.380859 -1.2168,1.38086 -1.2168,4.1699224 z" /><path
             id="path198"
             style=""
             d="m 130.09369,-7.2597656 q 0,-4.0332034 2.24219,-5.9746094 1.87304,-1.613281 4.5664,-1.613281 2.99414,0 4.89453,1.96875 1.90039,1.955078 1.90039,5.4140623 0,2.8027343 -0.84765,4.4160156 -0.83399,1.5996094 -2.44727,2.48828123 -1.59961,0.88867187 -3.5,0.88867187 -3.04883,0 -4.93554,-1.9550781 -1.87305,-1.9550782 -1.87305,-5.6328125 z m 2.5293,0 q 0,2.7890625 1.21679,4.1835937 1.2168,1.3808594 3.0625,1.3808594 1.83203,0 3.04883,-1.3945313 1.2168,-1.3945312 1.2168,-4.2519531 0,-2.6933591 -1.23047,-4.0742191 -1.2168,-1.394531 -3.03516,-1.394531 -1.8457,0 -3.0625,1.380859 -1.21679,1.38086 -1.21679,4.1699224 z" /><path
             id="path200"
             style=""
             d="m 150.6109,0 -5.52344,-14.519531 h 2.59766 l 3.11719,8.6953123 q 0.50586,1.4082031 0.92968,2.9257812 0.32813,-1.1484375 0.91602,-2.7617187 l 3.22656,-8.8593748 h 2.5293 L 152.90778,0 Z" /><path
             id="path202"
             style=""
             d="m 170.51715,-4.6757812 2.54297,0.3144531 q -0.60156,2.2285156 -2.22852,3.45898435 -1.62695,1.23046875 -4.15625,1.23046875 -3.18554,0 -5.05859,-1.9550781 -1.85937,-1.96875 -1.85937,-5.5097656 0,-3.6640623 1.88671,-5.6875003 1.88672,-2.023437 4.89454,-2.023437 2.9121,0 4.75781,1.982422 1.8457,1.982421 1.8457,5.5781246 0,0.21875 -0.0137,0.65625 h -10.82813 q 0.13672,2.3925782 1.35352,3.6640625 1.2168,1.2714844 3.03516,1.2714844 1.35351,0 2.31054,-0.7109375 0.95703,-0.7109375 1.51758,-2.2695312 z m -8.08008,-3.9785157 h 8.10742 q -0.16406,-1.8320311 -0.92968,-2.7480471 -1.17578,-1.421875 -3.04883,-1.421875 -1.69531,0 -2.85742,1.134766 -1.14844,1.134765 -1.27149,3.0351561 z" /><path
             id="path204"
             style=""
             d="m 176.23036,0 v -14.519531 h 2.21485 v 2.201172 q 0.84765,-1.544922 1.55859,-2.03711 0.72461,-0.492187 1.58594,-0.492187 1.24414,0 2.52929,0.792968 l -0.84765,2.283204 q -0.90235,-0.533204 -1.80469,-0.533204 -0.80664,0 -1.44922,0.492188 -0.64258,0.478516 -0.91601,1.339844 -0.41016,1.3124997 -0.41016,2.8710935 V 0 Z" /><path
             id="path206"
             style=""
             d="m 187.82323,0 h -2.28321 v -20.042969 h 2.46094 v 7.150391 q 1.5586,-1.955078 3.97852,-1.955078 1.33984,0 2.52929,0.546875 1.20313,0.533203 1.96875,1.517578 0.7793,0.970703 1.2168,2.351562 0.4375,1.3808597 0.4375,2.9531254 0,3.7324218 -1.8457,5.7695312 -1.84571,2.0371094 -4.42969,2.0371094 -2.57031,0 -4.0332,-2.1464844 z m -0.0273,-7.3691406 q 0,2.6113281 0.71094,3.7734375 1.16211,1.9003906 3.14453,1.9003906 1.61328,0 2.78906,-1.3945313 1.17579,-1.4082031 1.17579,-4.1835937 0,-2.8437505 -1.13477,-4.1972655 -1.12109,-1.353516 -2.7207,-1.353516 -1.61328,0 -2.78907,1.408203 -1.17578,1.394532 -1.17578,4.0468754 z" /><path
             id="path208"
             style=""
             d="m 200.20569,-7.2597656 q 0,-4.0332034 2.24219,-5.9746094 1.87304,-1.613281 4.5664,-1.613281 2.99414,0 4.89453,1.96875 1.90039,1.955078 1.90039,5.4140623 0,2.8027343 -0.84765,4.4160156 -0.83399,1.5996094 -2.44727,2.48828123 -1.59961,0.88867187 -3.5,0.88867187 -3.04883,0 -4.93554,-1.9550781 -1.87305,-1.9550782 -1.87305,-5.6328125 z m 2.5293,0 q 0,2.7890625 1.21679,4.1835937 1.2168,1.3808594 3.0625,1.3808594 1.83203,0 3.04883,-1.3945313 1.2168,-1.3945312 1.2168,-4.2519531 0,-2.6933591 -1.23047,-4.0742191 -1.2168,-1.394531 -3.03516,-1.394531 -1.8457,0 -3.0625,1.380859 -1.21679,1.38086 -1.21679,4.1699224 z" /><path
             id="path210"
             style=""
             d="m 226.16431,-1.7910156 q -1.36719,1.16210935 -2.63868,1.64062498 -1.25781,0.47851562 -2.70703,0.47851562 -2.39257,0 -3.67773,-1.16210938 -1.28516,-1.17578122 -1.28516,-2.99414062 0,-1.0664062 0.47852,-1.9414062 0.49219,-0.8886719 1.27148,-1.421875 0.79297,-0.5332032 1.77735,-0.8066407 0.72461,-0.1914062 2.1875,-0.3691406 2.98047,-0.3554688 4.38867,-0.8476563 0.0137,-0.5058593 0.0137,-0.6425781 0,-1.5039061 -0.69727,-2.1191411 -0.94335,-0.833984 -2.80273,-0.833984 -1.73633,0 -2.57031,0.615234 -0.82031,0.601563 -1.2168,2.146485 l -2.40625,-0.328125 q 0.32813,-1.544922 1.08008,-2.488281 0.75195,-0.957032 2.17383,-1.462891 1.42187,-0.519531 3.29492,-0.519531 1.85937,0 3.02148,0.4375 1.16211,0.4375 1.70899,1.107422 0.54687,0.65625 0.76562,1.667968 0.12305,0.628907 0.12305,2.2695316 v 3.28125 q 0,3.4316406 0.15039,4.3476563 Q 228.76196,-0.83398438 229.22681,0 h -2.57032 q -0.38281,-0.765625 -0.49218,-1.7910156 z m -0.20508,-5.4960938 q -1.33985,0.546875 -4.01953,0.9296875 -1.51758,0.21875 -2.14649,0.4921875 -0.6289,0.2734375 -0.9707,0.8066407 -0.3418,0.5195312 -0.3418,1.1621093 0,0.984375 0.73828,1.640625 0.75196,0.65625 2.1875,0.65625 1.42188,0 2.5293,-0.6152344 1.10742,-0.6289062 1.62695,-1.7089843 0.39649,-0.8339844 0.39649,-2.4609375 z" /><path
             id="path212"
             style=""
             d="m 232.23036,0 v -14.519531 h 2.21485 v 2.201172 q 0.84765,-1.544922 1.55859,-2.03711 0.72461,-0.492187 1.58594,-0.492187 1.24414,0 2.52929,0.792968 l -0.84765,2.283204 q -0.90235,-0.533204 -1.80469,-0.533204 -0.80664,0 -1.44922,0.492188 -0.64258,0.478516 -0.91601,1.339844 -0.41016,1.3124997 -0.41016,2.8710935 V 0 Z" /><path
             id="path214"
             style=""
             d="m 251.05763,0 v -1.8320312 q -1.38086,2.1601562 -4.06054,2.1601562 -1.73633,0 -3.19922,-0.95703125 -1.44922,-0.95703125 -2.25586,-2.66601565 -0.79297,-1.7226562 -0.79297,-3.9511718 0,-2.1738282 0.72461,-3.9375003 0.72461,-1.777344 2.17383,-2.720703 1.44921,-0.943359 3.24023,-0.943359 1.3125,0 2.33789,0.560547 1.02539,0.546875 1.66797,1.435546 v -7.191406 h 2.44727 V 0 Z m -7.77929,-7.2460937 q 0,2.7890625 1.17578,4.1699218 1.17578,1.3808594 2.77539,1.3808594 1.61328,0 2.73437,-1.3125 1.13477,-1.3261719 1.13477,-4.0332031 0,-2.9804684 -1.14844,-4.3750004 -1.14844,-1.394531 -2.83008,-1.394531 -1.64062,0 -2.74804,1.339844 -1.09375,1.339844 -1.09375,4.2246093 z" /><path
             id="path216"
             style=""
             d="m 267.6694,0 -4.44336,-14.519531 h 2.54297 l 2.31055,8.3808591 0.86133,3.1171875 q 0.0547,-0.2324219 0.75195,-2.9941406 l 2.31055,-8.503906 h 2.52929 l 2.17383,8.4218748 0.72461,2.7753906 0.83399,-2.8027344 2.48828,-8.394531 h 2.39258 L 278.6069,0 h -2.55664 L 273.73972,-8.6953125 273.17917,-11.169922 270.23972,0 Z" /><path
             id="path218"
             style=""
             d="m 285.10736,-17.212891 v -2.830078 h 2.46094 v 2.830078 z m 0,17.212891 v -14.519531 h 2.46094 V 0 Z" /><path
             id="path220"
             style=""
             d="m 296.73874,-2.2011719 0.35547,2.17382815 q -1.03906,0.21875 -1.85938,0.21875 -1.33984,0 -2.07812,-0.42382813 -0.73828,-0.42382812 -1.03906,-1.10742182 -0.30079,-0.6972657 -0.30079,-2.9121094 v -8.3535159 h -1.80468 v -1.914062 h 1.80468 v -3.595703 l 2.44727,-1.476563 v 5.072266 h 2.47461 v 1.914062 h -2.47461 v 8.4902346 q 0,1.0527344 0.12305,1.3535156 0.13672,0.3007813 0.42382,0.4785157 0.30079,0.1777343 0.84766,0.1777343 0.41016,0 1.08008,-0.095703 z" /><path
             id="path222"
             style=""
             d="m 299.14969,0 v -20.042969 h 2.46094 v 7.191406 q 1.72265,-1.996093 4.34765,-1.996093 1.61328,0 2.80274,0.642578 1.18945,0.628906 1.69531,1.75 0.51953,1.121094 0.51953,3.2539061 V 0 h -2.46094 v -9.2011719 q 0,-1.8457031 -0.80664,-2.6796871 -0.79297,-0.847657 -2.25586,-0.847657 -1.09375,0 -2.06445,0.574219 -0.95703,0.560547 -1.36719,1.53125 -0.41015,0.9707032 -0.41015,2.6796876 V 0 Z" /><path
             id="path224"
             style=""
             d="m 327.87476,-2.2011719 0.35546,2.17382815 q -1.03906,0.21875 -1.85937,0.21875 -1.33984,0 -2.07813,-0.42382813 -0.73828,-0.42382812 -1.03906,-1.10742182 -0.30078,-0.6972657 -0.30078,-2.9121094 v -8.3535159 h -1.80469 v -1.914062 h 1.80469 v -3.595703 l 2.44727,-1.476563 v 5.072266 h 2.47461 v 1.914062 h -2.47461 v 8.4902346 q 0,1.0527344 0.12304,1.3535156 0.13672,0.3007813 0.42383,0.4785157 0.30078,0.1777343 0.84766,0.1777343 0.41015,0 1.08008,-0.095703 z" /><path
             id="path226"
             style=""
             d="m 330.28571,0 v -20.042969 h 2.46093 v 7.191406 q 1.72266,-1.996093 4.34766,-1.996093 1.61328,0 2.80273,0.642578 1.18946,0.628906 1.69532,1.75 0.51953,1.121094 0.51953,3.2539061 V 0 h -2.46094 v -9.2011719 q 0,-1.8457031 -0.80664,-2.6796871 -0.79297,-0.847657 -2.25586,-0.847657 -1.09375,0 -2.06445,0.574219 -0.95703,0.560547 -1.36719,1.53125 -0.41016,0.9707032 -0.41016,2.6796876 V 0 Z" /><path
             id="path228"
             style=""
             d="m 355.79315,-4.6757812 2.54297,0.3144531 q -0.60156,2.2285156 -2.22852,3.45898435 -1.62695,1.23046875 -4.15625,1.23046875 -3.18554,0 -5.05859,-1.9550781 -1.85937,-1.96875 -1.85937,-5.5097656 0,-3.6640623 1.88671,-5.6875003 1.88672,-2.023437 4.89454,-2.023437 2.91211,0 4.75781,1.982422 1.8457,1.982421 1.8457,5.5781246 0,0.21875 -0.0137,0.65625 h -10.82813 q 0.13672,2.3925782 1.35352,3.6640625 1.2168,1.2714844 3.03516,1.2714844 1.35351,0 2.31054,-0.7109375 0.95703,-0.7109375 1.51758,-2.2695312 z m -8.08008,-3.9785157 h 8.10743 q -0.16407,-1.8320311 -0.92969,-2.7480471 -1.17578,-1.421875 -3.04883,-1.421875 -1.69531,0 -2.85742,1.134766 -1.14844,1.134765 -1.27149,3.0351561 z" /><path
             id="path230"
             style=""
             d="m 378.6803,-1.7910156 q -1.36719,1.16210935 -2.63867,1.64062498 -1.25782,0.47851562 -2.70704,0.47851562 -2.39257,0 -3.67773,-1.16210938 -1.28516,-1.17578122 -1.28516,-2.99414062 0,-1.0664062 0.47852,-1.9414062 0.49219,-0.8886719 1.27148,-1.421875 0.79297,-0.5332032 1.77735,-0.8066407 0.72461,-0.1914062 2.1875,-0.3691406 2.98047,-0.3554688 4.38867,-0.8476563 0.0137,-0.5058593 0.0137,-0.6425781 0,-1.5039061 -0.69726,-2.1191411 -0.94336,-0.833984 -2.80274,-0.833984 -1.73633,0 -2.57031,0.615234 -0.82031,0.601563 -1.2168,2.146485 l -2.40625,-0.328125 q 0.32813,-1.544922 1.08008,-2.488281 0.75195,-0.957032 2.17383,-1.462891 1.42187,-0.519531 3.29492,-0.519531 1.85938,0 3.02148,0.4375 1.16211,0.4375 1.70899,1.107422 0.54687,0.65625 0.76562,1.667968 0.12305,0.628907 0.12305,2.2695316 v 3.28125 q 0,3.4316406 0.15039,4.3476563 Q 381.27795,-0.83398438 381.7428,0 h -2.57031 q -0.38282,-0.765625 -0.49219,-1.7910156 z m -0.20508,-5.4960938 q -1.33984,0.546875 -4.01953,0.9296875 -1.51758,0.21875 -2.14649,0.4921875 -0.6289,0.2734375 -0.9707,0.8066407 -0.3418,0.5195312 -0.3418,1.1621093 0,0.984375 0.73829,1.640625 0.75195,0.65625 2.1875,0.65625 1.42187,0 2.52929,-0.6152344 1.10742,-0.6289062 1.62696,-1.7089843 0.39648,-0.8339844 0.39648,-2.4609375 z" /><path
             id="path232"
             style=""
             d="m 384.77371,0 v -14.519531 h 2.21485 v 2.064453 q 1.59961,-2.392578 4.62109,-2.392578 1.3125,0 2.40625,0.478515 1.10742,0.464844 1.6543,1.230469 0.54687,0.765625 0.76562,1.818359 0.13672,0.683594 0.13672,2.3925786 V 0 h -2.46094 v -8.8320313 q 0,-1.5039067 -0.28711,-2.2421877 -0.28711,-0.751953 -1.02539,-1.189453 -0.72461,-0.451172 -1.70898,-0.451172 -1.57227,0 -2.7207,0.998047 -1.13477,0.998047 -1.13477,3.7871095 V 0 Z" /><path
             id="path234"
             style=""
             d="m 400.35538,-17.212891 v -2.830078 h 2.46093 v 2.830078 z m 0,17.212891 v -14.519531 h 2.46093 V 0 Z" /><path
             id="path236"
             style=""
             d="m 406.52969,0 v -14.519531 h 2.20118 v 2.037109 q 0.68359,-1.066406 1.81835,-1.708984 1.13477,-0.65625 2.58399,-0.65625 1.61328,0 2.63867,0.669922 1.03906,0.669921 1.46289,1.873046 1.72266,-2.542968 4.48438,-2.542968 2.16015,0 3.32226,1.203125 1.16211,1.189453 1.16211,3.6777341 V 0 h -2.44726 v -9.1464844 q 0,-1.4765626 -0.2461,-2.1191406 -0.23242,-0.65625 -0.86133,-1.052734 -0.6289,-0.396485 -1.47656,-0.396485 -1.53125,0 -2.54297,1.025391 -1.01172,1.011719 -1.01172,3.2539061 V 0 h -2.46093 v -9.4335938 q 0,-1.6406252 -0.60157,-2.4609372 -0.60156,-0.820313 -1.96875,-0.820313 -1.03906,0 -1.92773,0.546875 -0.875,0.546875 -1.27148,1.59961 -0.39649,1.052734 -0.39649,3.0351559 V 0 Z" /><path
             id="path238"
             style=""
             d="m 439.30032,-1.7910156 q -1.36718,1.16210935 -2.63867,1.64062498 -1.25781,0.47851562 -2.70703,0.47851562 -2.39258,0 -3.67773,-1.16210938 -1.28516,-1.17578122 -1.28516,-2.99414062 0,-1.0664062 0.47852,-1.9414062 0.49218,-0.8886719 1.27148,-1.421875 0.79297,-0.5332032 1.77734,-0.8066407 0.72461,-0.1914062 2.1875,-0.3691406 2.98047,-0.3554688 4.38868,-0.8476563 0.0137,-0.5058593 0.0137,-0.6425781 0,-1.5039061 -0.69727,-2.1191411 -0.94336,-0.833984 -2.80273,-0.833984 -1.73633,0 -2.57032,0.615234 -0.82031,0.601563 -1.21679,2.146485 l -2.40625,-0.328125 q 0.32812,-1.544922 1.08008,-2.488281 0.75195,-0.957032 2.17382,-1.462891 1.42188,-0.519531 3.29493,-0.519531 1.85937,0 3.02148,0.4375 1.16211,0.4375 1.70898,1.107422 0.54688,0.65625 0.76563,1.667968 0.12305,0.628907 0.12305,2.2695316 v 3.28125 q 0,3.4316406 0.15039,4.3476563 0.16406,0.90234372 0.6289,1.7363281 h -2.57031 q -0.38281,-0.765625 -0.49219,-1.7910156 z m -0.20507,-5.4960938 q -1.33985,0.546875 -4.01954,0.9296875 -1.51757,0.21875 -2.14648,0.4921875 -0.62891,0.2734375 -0.9707,0.8066407 -0.3418,0.5195312 -0.3418,1.1621093 0,0.984375 0.73828,1.640625 0.75195,0.65625 2.1875,0.65625 1.42188,0 2.5293,-0.6152344 1.10742,-0.6289062 1.62695,-1.7089843 0.39649,-0.8339844 0.39649,-2.4609375 z" /><path
             id="path240"
             style=""
             d="m 450.76675,-2.2011719 0.35547,2.17382815 q -1.03906,0.21875 -1.85937,0.21875 -1.33985,0 -2.07813,-0.42382813 -0.73828,-0.42382812 -1.03906,-1.10742182 -0.30078,-0.6972657 -0.30078,-2.9121094 v -8.3535159 h -1.80469 v -1.914062 h 1.80469 v -3.595703 l 2.44726,-1.476563 v 5.072266 h 2.47461 v 1.914062 h -2.47461 v 8.4902346 q 0,1.0527344 0.12305,1.3535156 0.13672,0.3007813 0.42383,0.4785157 0.30078,0.1777343 0.84766,0.1777343 0.41015,0 1.08007,-0.095703 z" /><path
             id="path242"
             style=""
             d="m 453.19138,-17.212891 v -2.830078 h 2.46093 v 2.830078 z m 0,17.212891 v -14.519531 h 2.46093 V 0 Z" /><path
             id="path244"
             style=""
             d="m 458.44968,-7.2597656 q 0,-4.0332034 2.24218,-5.9746094 1.87305,-1.613281 4.56641,-1.613281 2.99414,0 4.89453,1.96875 1.90039,1.955078 1.90039,5.4140623 0,2.8027343 -0.84765,4.4160156 -0.83399,1.5996094 -2.44727,2.48828123 -1.59961,0.88867187 -3.5,0.88867187 -3.04883,0 -4.93555,-1.9550781 -1.87304,-1.9550782 -1.87304,-5.6328125 z m 2.52929,0 q 0,2.7890625 1.2168,4.1835937 1.2168,1.3808594 3.0625,1.3808594 1.83203,0 3.04883,-1.3945313 1.2168,-1.3945312 1.2168,-4.2519531 0,-2.6933591 -1.23047,-4.0742191 -1.2168,-1.394531 -3.03516,-1.394531 -1.8457,0 -3.0625,1.380859 -1.2168,1.38086 -1.2168,4.1699224 z" /><path
             id="path246"
             style=""
             d="m 474.93372,0 v -14.519531 h 2.21484 v 2.064453 q 1.59961,-2.392578 4.62109,-2.392578 1.3125,0 2.40625,0.478515 1.10743,0.464844 1.6543,1.230469 0.54688,0.765625 0.76563,1.818359 0.13671,0.683594 0.13671,2.3925786 V 0 h -2.46093 v -8.8320313 q 0,-1.5039067 -0.28711,-2.2421877 -0.28711,-0.751953 -1.02539,-1.189453 -0.72461,-0.451172 -1.70899,-0.451172 -1.57226,0 -2.7207,0.998047 -1.13477,0.998047 -1.13477,3.7871095 V 0 Z" /></g><g
           id="text78"
           style="font-variant:normal;font-weight:normal;font-size:21px;font-family:OpenSymbol;-inkscape-font-specification:OpenSymbol;writing-mode:lr-tb;fill:#003366;fill-opacity:1;fill-rule:nonzero;stroke:none"
           transform="matrix(1,0,0,-1,79.1,164.4)"
           aria-label=""><path
             id="path249"
             style=""
             d="m 3.129,-14.364 h 10.479 q -0.315,3.696 -0.945,5.922 L 11.172,-8.61 q 0.714,-2.31 0.882,-4.368 H 3.129 Z" /></g><g
           id="text82"
           style="font-variant:normal;font-weight:normal;font-size:28px;font-family:Arial;-inkscape-font-specification:ArialMT;writing-mode:lr-tb;fill:#003366;fill-opacity:1;fill-rule:nonzero;stroke:none"
           transform="matrix(1,0,0,-1,106,159.5)"
           aria-label="Be consistent with the animation that you use"><path
             id="path252"
             style=""
             d="m 2.0507813,0 v -20.042969 h 7.5195312 q 2.2968755,0 3.6777345,0.615235 1.394531,0.601562 2.173828,1.873047 0.792969,1.257812 0.792969,2.638671 0,1.285157 -0.697266,2.419922 -0.697265,1.134766 -2.105469,1.832031 1.81836,0.533204 2.789063,1.8183599 0.984375,1.2851562 0.984375,3.0351562 0,1.4082032 -0.601563,2.625 -0.58789,1.203125 -1.46289,1.859375 -0.875,0.65625003 -2.201172,0.9980469 Q 11.607422,0 9.6933594,0 Z M 4.703125,-11.621094 h 4.3339844 q 1.7636716,0 2.5292966,-0.232422 1.011719,-0.300781 1.517578,-0.998047 0.519532,-0.697265 0.519532,-1.75 0,-0.998046 -0.478516,-1.749999 -0.478516,-0.765625 -1.367187,-1.039063 -0.888672,-0.287109 -3.0488286,-0.287109 H 4.703125 Z m 0,9.2558596 h 4.9902344 q 1.2851566,0 1.8046876,-0.095703 0.916016,-0.1640625 1.53125,-0.546875 0.615234,-0.3828125 1.011719,-1.1074219 0.396484,-0.7382812 0.396484,-1.6953125 0,-1.1210937 -0.574219,-1.9414062 -0.574218,-0.8339844 -1.599609,-1.1621094 -1.011719,-0.3417969 -2.9257814,-0.3417969 H 4.703125 Z" /><path
             id="path254"
             style=""
             d="m 30.377155,-4.6757812 2.542969,0.3144531 q -0.601562,2.2285156 -2.228516,3.45898435 -1.626953,1.23046875 -4.15625,1.23046875 -3.185546,0 -5.058593,-1.9550781 -1.859375,-1.96875 -1.859375,-5.5097656 0,-3.6640623 1.886718,-5.6875003 1.886719,-2.023437 4.894532,-2.023437 2.912109,0 4.757812,1.982422 1.845703,1.982421 1.845703,5.5781246 0,0.21875 -0.01367,0.65625 H 22.160358 q 0.136719,2.3925782 1.353516,3.6640625 1.216797,1.2714844 3.035156,1.2714844 1.353516,0 2.310547,-0.7109375 0.957031,-0.7109375 1.517578,-2.2695312 z m -8.080078,-3.9785157 h 8.107422 q -0.164062,-1.8320311 -0.929687,-2.7480471 -1.175782,-1.421875 -3.048829,-1.421875 -1.695312,0 -2.857421,1.134766 -1.148438,1.134765 -1.271485,3.0351561 z" /><path
             id="path256"
             style=""
             d="m 53.376312,-5.3183594 2.419922,0.3144532 q -0.396484,2.5019531 -2.037109,3.9238281 -1.626953,1.4082031 -4.00586,1.4082031 -2.980468,0 -4.798828,-1.9414062 -1.804687,-1.9550782 -1.804687,-5.5917969 0,-2.3515625 0.779297,-4.1152349 0.779297,-1.763671 2.365234,-2.638671 1.599609,-0.888672 3.472656,-0.888672 2.365235,0 3.869141,1.203125 1.503906,1.189453 1.927734,3.390625 l -2.392578,0.3691404 q -0.341797,-1.4628904 -1.216797,-2.2011724 -0.861328,-0.738281 -2.091797,-0.738281 -1.859375,0 -3.021484,1.339844 -1.162109,1.326172 -1.162109,4.2109375 0,2.9257813 1.121093,4.2519531 1.121094,1.3261719 2.925782,1.3261719 1.449218,0 2.419922,-0.8886719 0.970703,-0.8886719 1.230468,-2.734375 z" /><path
             id="path258"
             style=""
             d="m 56.985687,-7.2597656 q 0,-4.0332034 2.242188,-5.9746094 1.873047,-1.613281 4.566406,-1.613281 2.994141,0 4.894531,1.96875 1.900391,1.955078 1.900391,5.4140623 0,2.8027343 -0.847656,4.4160156 -0.833985,1.5996094 -2.447266,2.48828123 -1.599609,0.88867187 -3.5,0.88867187 -3.048828,0 -4.935547,-1.9550781 -1.873047,-1.9550782 -1.873047,-5.6328125 z m 2.529297,0 q 0,2.7890625 1.216797,4.1835937 1.216797,1.3808594 3.0625,1.3808594 1.832031,0 3.048828,-1.3945313 1.216797,-1.3945312 1.216797,-4.2519531 0,-2.6933591 -1.230469,-4.0742191 -1.216797,-1.394531 -3.035156,-1.394531 -1.845703,0 -3.0625,1.380859 -1.216797,1.38086 -1.216797,4.1699224 z" /><path
             id="path260"
             style=""
             d="m 73.469704,0 v -14.519531 h 2.214843 v 2.064453 q 1.59961,-2.392578 4.621094,-2.392578 1.3125,0 2.40625,0.478515 1.107422,0.464844 1.654297,1.230469 0.546875,0.765625 0.765625,1.818359 0.136719,0.683594 0.136719,2.3925786 V 0 h -2.460938 v -8.8320313 q 0,-1.5039067 -0.287109,-2.2421877 -0.287109,-0.751953 -1.025391,-1.189453 -0.724609,-0.451172 -1.708984,-0.451172 -1.572266,0 -2.720703,0.998047 -1.134766,0.998047 -1.134766,3.7871095 V 0 Z" /><path
             id="path262"
             style=""
             d="m 88.053329,-4.3339844 2.433594,-0.3828125 q 0.205078,1.4628906 1.134766,2.2421875 0.943359,0.7792969 2.625,0.7792969 1.695312,0 2.515625,-0.6835938 0.820312,-0.6972656 0.820312,-1.6269531 0,-0.8339843 -0.724609,-1.3125 -0.505859,-0.328125 -2.515625,-0.8339843 -2.707031,-0.6835938 -3.759766,-1.1757813 -1.039062,-0.5058594 -1.585937,-1.3808594 -0.533203,-0.8886719 -0.533203,-1.9550786 0,-0.970703 0.4375,-1.791015 0.451172,-0.833985 1.216797,-1.38086 0.574218,-0.423828 1.558593,-0.710937 0.998047,-0.300781 2.132813,-0.300781 1.708984,0 2.99414,0.492187 1.298829,0.492188 1.914063,1.339844 0.615234,0.833984 0.847656,2.242187 l -2.40625,0.328125 q -0.164062,-1.121093 -0.957031,-1.75 -0.779297,-0.628906 -2.214844,-0.628906 -1.695312,0 -2.419922,0.560547 -0.724609,0.560547 -0.724609,1.3125 0,0.478516 0.300781,0.861328 0.300781,0.3964846 0.94336,0.6562502 0.36914,0.1367188 2.173828,0.6289063 2.611328,0.6972656 3.636718,1.1484375 1.039063,0.4375 1.626954,1.2851563 0.587887,0.8476562 0.587887,2.1054687 0,1.2304687 -0.724606,2.3242188 -0.710938,1.08007807 -2.064453,1.68164057 -1.353516,0.58789063 -3.0625,0.58789063 -2.830078,0 -4.320313,-1.17578125 -1.476562,-1.17578125 -1.886719,-3.48632815 z" /><path
             id="path264"
             style=""
             d="m 103.05138,-17.212891 v -2.830078 h 2.46093 v 2.830078 z m 0,17.212891 v -14.519531 h 2.46093 V 0 Z" /><path
             id="path266"
             style=""
             d="m 108.32533,-4.3339844 2.43359,-0.3828125 q 0.20508,1.4628906 1.13476,2.2421875 0.94336,0.7792969 2.625,0.7792969 1.69532,0 2.51563,-0.6835938 0.82031,-0.6972656 0.82031,-1.6269531 0,-0.8339843 -0.72461,-1.3125 -0.50586,-0.328125 -2.51562,-0.8339843 -2.70703,-0.6835938 -3.75977,-1.1757813 -1.03906,-0.5058594 -1.58594,-1.3808594 -0.5332,-0.8886719 -0.5332,-1.9550786 0,-0.970703 0.4375,-1.791015 0.45117,-0.833985 1.2168,-1.38086 0.57422,-0.423828 1.55859,-0.710937 0.99805,-0.300781 2.13281,-0.300781 1.70899,0 2.99415,0.492187 1.29882,0.492188 1.91406,1.339844 0.61523,0.833984 0.84765,2.242187 l -2.40625,0.328125 q -0.16406,-1.121093 -0.95703,-1.75 -0.77929,-0.628906 -2.21484,-0.628906 -1.69531,0 -2.41992,0.560547 -0.72461,0.560547 -0.72461,1.3125 0,0.478516 0.30078,0.861328 0.30078,0.3964846 0.94336,0.6562502 0.36914,0.1367188 2.17383,0.6289063 2.61132,0.6972656 3.63672,1.1484375 1.03906,0.4375 1.62695,1.2851563 0.58789,0.8476562 0.58789,2.1054687 0,1.2304687 -0.72461,2.3242188 -0.71094,1.08007807 -2.06445,1.68164057 -1.35352,0.58789063 -3.0625,0.58789063 -2.83008,0 -4.32032,-1.17578125 -1.47656,-1.17578125 -1.88671,-3.48632815 z" /><path
             id="path268"
             style=""
             d="m 128.68275,-2.2011719 0.35547,2.17382815 q -1.03907,0.21875 -1.85938,0.21875 -1.33984,0 -2.07812,-0.42382813 -0.73829,-0.42382812 -1.03907,-1.10742182 -0.30078,-0.6972657 -0.30078,-2.9121094 v -8.3535159 h -1.80469 v -1.914062 h 1.80469 v -3.595703 l 2.44727,-1.476563 v 5.072266 h 2.47461 v 1.914062 h -2.47461 v 8.4902346 q 0,1.0527344 0.12304,1.3535156 0.13672,0.3007813 0.42383,0.4785157 0.30078,0.1777343 0.84766,0.1777343 0.41016,0 1.08008,-0.095703 z" /><path
             id="path270"
             style=""
             d="m 141.03316,-4.6757812 2.54297,0.3144531 q -0.60157,2.2285156 -2.22852,3.45898435 -1.62695,1.23046875 -4.15625,1.23046875 -3.18555,0 -5.05859,-1.9550781 -1.85938,-1.96875 -1.85938,-5.5097656 0,-3.6640623 1.88672,-5.6875003 1.88672,-2.023437 4.89453,-2.023437 2.91211,0 4.75781,1.982422 1.84571,1.982421 1.84571,5.5781246 0,0.21875 -0.0137,0.65625 h -10.82813 q 0.13672,2.3925782 1.35352,3.6640625 1.21679,1.2714844 3.03515,1.2714844 1.35352,0 2.31055,-0.7109375 0.95703,-0.7109375 1.51758,-2.2695312 z m -8.08008,-3.9785157 h 8.10742 q -0.16406,-1.8320311 -0.92969,-2.7480471 -1.17578,-1.421875 -3.04882,-1.421875 -1.69532,0 -2.85743,1.134766 -1.14843,1.134765 -1.27148,3.0351561 z" /><path
             id="path272"
             style=""
             d="m 146.6617,0 v -14.519531 h 2.21484 v 2.064453 q 1.59961,-2.392578 4.62109,-2.392578 1.3125,0 2.40625,0.478515 1.10743,0.464844 1.6543,1.230469 0.54688,0.765625 0.76563,1.818359 0.13672,0.683594 0.13672,2.3925786 V 0 h -2.46094 v -8.8320313 q 0,-1.5039067 -0.28711,-2.2421877 -0.28711,-0.751953 -1.02539,-1.189453 -0.72461,-0.451172 -1.70899,-0.451172 -1.57226,0 -2.7207,0.998047 -1.13477,0.998047 -1.13477,3.7871095 V 0 Z" /><path
             id="path274"
             style=""
             d="m 167.60275,-2.2011719 0.35547,2.17382815 q -1.03906,0.21875 -1.85937,0.21875 -1.33985,0 -2.07813,-0.42382813 -0.73828,-0.42382812 -1.03906,-1.10742182 -0.30078,-0.6972657 -0.30078,-2.9121094 v -8.3535159 h -1.80469 v -1.914062 h 1.80469 v -3.595703 l 2.44726,-1.476563 v 5.072266 h 2.47461 v 1.914062 h -2.47461 v 8.4902346 q 0,1.0527344 0.12305,1.3535156 0.13672,0.3007813 0.42383,0.4785157 0.30078,0.1777343 0.84765,0.1777343 0.41016,0 1.08008,-0.095703 z" /><path
             id="path276"
             style=""
             d="m 180.47739,0 -4.44336,-14.519531 h 2.54297 l 2.31054,8.3808591 0.86133,3.1171875 q 0.0547,-0.2324219 0.75195,-2.9941406 l 2.31055,-8.503906 h 2.5293 l 2.17383,8.4218748 0.72461,2.7753906 0.83398,-2.8027344 2.48828,-8.394531 h 2.39258 L 191.41489,0 h -2.55664 L 186.5477,-8.6953125 185.98715,-11.169922 183.0477,0 Z" /><path
             id="path278"
             style=""
             d="m 197.99937,-17.212891 v -2.830078 h 2.46094 v 2.830078 z m 0,17.212891 v -14.519531 h 2.46094 V 0 Z" /><path
             id="path280"
             style=""
             d="m 209.54675,-2.2011719 0.35547,2.17382815 q -1.03906,0.21875 -1.85937,0.21875 -1.33985,0 -2.07813,-0.42382813 -0.73828,-0.42382812 -1.03906,-1.10742182 -0.30078,-0.6972657 -0.30078,-2.9121094 v -8.3535159 h -1.80469 v -1.914062 h 1.80469 v -3.595703 l 2.44726,-1.476563 v 5.072266 h 2.47461 v 1.914062 h -2.47461 v 8.4902346 q 0,1.0527344 0.12305,1.3535156 0.13672,0.3007813 0.42383,0.4785157 0.30078,0.1777343 0.84765,0.1777343 0.41016,0 1.08008,-0.095703 z" /><path
             id="path282"
             style=""
             d="m 211.9577,0 v -20.042969 h 2.46094 v 7.191406 q 1.72266,-1.996093 4.34766,-1.996093 1.61328,0 2.80273,0.642578 1.18945,0.628906 1.69531,1.75 0.51953,1.121094 0.51953,3.2539061 V 0 h -2.46093 v -9.2011719 q 0,-1.8457031 -0.80664,-2.6796871 -0.79297,-0.847657 -2.25586,-0.847657 -1.09375,0 -2.06446,0.574219 -0.95703,0.560547 -1.36718,1.53125 -0.41016,0.9707032 -0.41016,2.6796876 V 0 Z" /><path
             id="path284"
             style=""
             d="m 240.68275,-2.2011719 0.35547,2.17382815 q -1.03906,0.21875 -1.85937,0.21875 -1.33985,0 -2.07813,-0.42382813 -0.73828,-0.42382812 -1.03906,-1.10742182 -0.30078,-0.6972657 -0.30078,-2.9121094 v -8.3535159 h -1.80469 v -1.914062 h 1.80469 v -3.595703 l 2.44727,-1.476563 v 5.072266 h 2.4746 v 1.914062 h -2.4746 v 8.4902346 q 0,1.0527344 0.12304,1.3535156 0.13672,0.3007813 0.42383,0.4785157 0.30078,0.1777343 0.84766,0.1777343 0.41015,0 1.08007,-0.095703 z" /><path
             id="path286"
             style=""
             d="m 243.0937,0 v -20.042969 h 2.46094 v 7.191406 q 1.72266,-1.996093 4.34766,-1.996093 1.61328,0 2.80273,0.642578 1.18946,0.628906 1.69531,1.75 0.51954,1.121094 0.51954,3.2539061 V 0 h -2.46094 v -9.2011719 q 0,-1.8457031 -0.80664,-2.6796871 -0.79297,-0.847657 -2.25586,-0.847657 -1.09375,0 -2.06445,0.574219 -0.95704,0.560547 -1.36719,1.53125 -0.41016,0.9707032 -0.41016,2.6796876 V 0 Z" /><path
             id="path288"
             style=""
             d="m 268.60117,-4.6757812 2.54296,0.3144531 q -0.60156,2.2285156 -2.22851,3.45898435 -1.62695,1.23046875 -4.15625,1.23046875 -3.18555,0 -5.05859,-1.9550781 -1.85938,-1.96875 -1.85938,-5.5097656 0,-3.6640623 1.88672,-5.6875003 1.88672,-2.023437 4.89453,-2.023437 2.91211,0 4.75781,1.982422 1.84571,1.982421 1.84571,5.5781246 0,0.21875 -0.0137,0.65625 h -10.82812 q 0.13672,2.3925782 1.35351,3.6640625 1.2168,1.2714844 3.03516,1.2714844 1.35352,0 2.31055,-0.7109375 0.95703,-0.7109375 1.51758,-2.2695312 z m -8.08008,-3.9785157 h 8.10742 q -0.16406,-1.8320311 -0.92969,-2.7480471 -1.17578,-1.421875 -3.04883,-1.421875 -1.69531,0 -2.85742,1.134766 -1.14844,1.134765 -1.27148,3.0351561 z" /><path
             id="path290"
             style=""
             d="m 291.48831,-1.7910156 q -1.36719,1.16210935 -2.63867,1.64062498 -1.25781,0.47851562 -2.70703,0.47851562 -2.39258,0 -3.67774,-1.16210938 -1.28515,-1.17578122 -1.28515,-2.99414062 0,-1.0664062 0.47851,-1.9414062 0.49219,-0.8886719 1.27149,-1.421875 0.79297,-0.5332032 1.77734,-0.8066407 0.72461,-0.1914062 2.1875,-0.3691406 2.98047,-0.3554688 4.38867,-0.8476563 0.0137,-0.5058593 0.0137,-0.6425781 0,-1.5039061 -0.69727,-2.1191411 -0.94336,-0.833984 -2.80273,-0.833984 -1.73633,0 -2.57032,0.615234 -0.82031,0.601563 -1.21679,2.146485 l -2.40625,-0.328125 q 0.32812,-1.544922 1.08007,-2.488281 0.75196,-0.957032 2.17383,-1.462891 1.42188,-0.519531 3.29492,-0.519531 1.85938,0 3.02149,0.4375 1.16211,0.4375 1.70898,1.107422 0.54688,0.65625 0.76563,1.667968 0.12304,0.628907 0.12304,2.2695316 v 3.28125 q 0,3.4316406 0.1504,4.3476563 0.16406,0.90234372 0.6289,1.7363281 h -2.57031 q -0.38281,-0.765625 -0.49219,-1.7910156 z m -0.20508,-5.4960938 q -1.33984,0.546875 -4.01953,0.9296875 -1.51758,0.21875 -2.14648,0.4921875 -0.62891,0.2734375 -0.97071,0.8066407 -0.34179,0.5195312 -0.34179,1.1621093 0,0.984375 0.73828,1.640625 0.75195,0.65625 2.1875,0.65625 1.42187,0 2.5293,-0.6152344 1.10742,-0.6289062 1.62695,-1.7089843 0.39648,-0.8339844 0.39648,-2.4609375 z" /><path
             id="path292"
             style=""
             d="m 297.5817,0 v -14.519531 h 2.21484 v 2.064453 q 1.59961,-2.392578 4.62109,-2.392578 1.3125,0 2.40625,0.478515 1.10742,0.464844 1.6543,1.230469 0.54687,0.765625 0.76562,1.818359 0.13672,0.683594 0.13672,2.3925786 V 0 h -2.46093 v -8.8320313 q 0,-1.5039067 -0.28711,-2.2421877 -0.28711,-0.751953 -1.02539,-1.189453 -0.72461,-0.451172 -1.70899,-0.451172 -1.57226,0 -2.7207,0.998047 -1.13477,0.998047 -1.13477,3.7871095 V 0 Z" /><path
             id="path294"
             style=""
             d="m 313.16336,-17.212891 v -2.830078 h 2.46094 v 2.830078 z m 0,17.212891 v -14.519531 h 2.46094 V 0 Z" /><path
             id="path296"
             style=""
             d="m 319.33771,0 v -14.519531 h 2.20117 v 2.037109 q 0.68359,-1.066406 1.81836,-1.708984 1.13476,-0.65625 2.58398,-0.65625 1.61328,0 2.63868,0.669922 1.03906,0.669921 1.46289,1.873046 1.72265,-2.542968 4.48437,-2.542968 2.16016,0 3.32227,1.203125 1.16211,1.189453 1.16211,3.6777341 V 0 h -2.44727 v -9.1464844 q 0,-1.4765626 -0.24609,-2.1191406 -0.23243,-0.65625 -0.86133,-1.052734 -0.62891,-0.396485 -1.47656,-0.396485 -1.53125,0 -2.54297,1.025391 -1.01172,1.011719 -1.01172,3.2539061 V 0 h -2.46094 v -9.4335938 q 0,-1.6406252 -0.60156,-2.4609372 -0.60156,-0.820313 -1.96875,-0.820313 -1.03906,0 -1.92774,0.546875 -0.875,0.546875 -1.27148,1.59961 -0.39648,1.052734 -0.39648,3.0351559 V 0 Z" /><path
             id="path298"
             style=""
             d="m 352.10831,-1.7910156 q -1.36719,1.16210935 -2.63867,1.64062498 -1.25782,0.47851562 -2.70704,0.47851562 -2.39257,0 -3.67773,-1.16210938 -1.28516,-1.17578122 -1.28516,-2.99414062 0,-1.0664062 0.47852,-1.9414062 0.49219,-0.8886719 1.27148,-1.421875 0.79297,-0.5332032 1.77735,-0.8066407 0.72461,-0.1914062 2.1875,-0.3691406 2.98047,-0.3554688 4.38867,-0.8476563 0.0137,-0.5058593 0.0137,-0.6425781 0,-1.5039061 -0.69726,-2.1191411 -0.94336,-0.833984 -2.80274,-0.833984 -1.73633,0 -2.57031,0.615234 -0.82031,0.601563 -1.2168,2.146485 l -2.40625,-0.328125 q 0.32813,-1.544922 1.08008,-2.488281 0.75195,-0.957032 2.17383,-1.462891 1.42187,-0.519531 3.29492,-0.519531 1.85937,0 3.02148,0.4375 1.16211,0.4375 1.70899,1.107422 0.54687,0.65625 0.76562,1.667968 0.12305,0.628907 0.12305,2.2695316 v 3.28125 q 0,3.4316406 0.15039,4.3476563 Q 354.70596,-0.83398438 355.17081,0 h -2.57032 q -0.38281,-0.765625 -0.49218,-1.7910156 z m -0.20508,-5.4960938 q -1.33984,0.546875 -4.01953,0.9296875 -1.51758,0.21875 -2.14649,0.4921875 -0.6289,0.2734375 -0.9707,0.8066407 -0.3418,0.5195312 -0.3418,1.1621093 0,0.984375 0.73828,1.640625 0.75196,0.65625 2.1875,0.65625 1.42188,0 2.5293,-0.6152344 1.10742,-0.6289062 1.62695,-1.7089843 0.39649,-0.8339844 0.39649,-2.4609375 z" /><path
             id="path300"
             style=""
             d="m 363.57474,-2.2011719 0.35547,2.17382815 q -1.03907,0.21875 -1.85938,0.21875 -1.33984,0 -2.07812,-0.42382813 -0.73828,-0.42382812 -1.03907,-1.10742182 -0.30078,-0.6972657 -0.30078,-2.9121094 v -8.3535159 h -1.80468 v -1.914062 h 1.80468 v -3.595703 l 2.44727,-1.476563 v 5.072266 h 2.47461 v 1.914062 h -2.47461 v 8.4902346 q 0,1.0527344 0.12305,1.3535156 0.13671,0.3007813 0.42382,0.4785157 0.30078,0.1777343 0.84766,0.1777343 0.41016,0 1.08008,-0.095703 z" /><path
             id="path302"
             style=""
             d="m 365.99939,-17.212891 v -2.830078 h 2.46094 v 2.830078 z m 0,17.212891 v -14.519531 h 2.46094 V 0 Z" /><path
             id="path304"
             style=""
             d="m 371.34167,-7.2597656 q 0,-4.0332034 2.24219,-5.9746094 1.87305,-1.613281 4.56641,-1.613281 2.99414,0 4.89453,1.96875 1.90039,1.955078 1.90039,5.4140623 0,2.8027343 -0.84766,4.4160156 -0.83398,1.5996094 -2.44726,2.48828123 -1.59961,0.88867187 -3.5,0.88867187 -3.04883,0 -4.93555,-1.9550781 -1.87305,-1.9550782 -1.87305,-5.6328125 z m 2.5293,0 q 0,2.7890625 1.2168,4.1835937 1.2168,1.3808594 3.0625,1.3808594 1.83203,0 3.04883,-1.3945313 1.21679,-1.3945312 1.21679,-4.2519531 0,-2.6933591 -1.23047,-4.0742191 -1.21679,-1.394531 -3.03515,-1.394531 -1.8457,0 -3.0625,1.380859 -1.2168,1.38086 -1.2168,4.1699224 z" /><path
             id="path306"
             style=""
             d="m 387.82571,0 v -14.519531 h 2.21485 v 2.064453 q 1.59961,-2.392578 4.62109,-2.392578 1.3125,0 2.40625,0.478515 1.10742,0.464844 1.6543,1.230469 0.54687,0.765625 0.76562,1.818359 0.13672,0.683594 0.13672,2.3925786 V 0 h -2.46094 v -8.8320313 q 0,-1.5039067 -0.2871,-2.2421877 -0.28711,-0.751953 -1.0254,-1.189453 -0.7246,-0.451172 -1.70898,-0.451172 -1.57227,0 -2.7207,0.998047 -1.13477,0.998047 -1.13477,3.7871095 V 0 Z" /><path
             id="path308"
             style=""
             d="m 416.55075,-2.2011719 0.35547,2.17382815 q -1.03906,0.21875 -1.85938,0.21875 -1.33984,0 -2.07812,-0.42382813 -0.73828,-0.42382812 -1.03906,-1.10742182 -0.30078,-0.6972657 -0.30078,-2.9121094 v -8.3535159 h -1.80469 v -1.914062 h 1.80469 v -3.595703 l 2.44726,-1.476563 v 5.072266 h 2.47461 v 1.914062 h -2.47461 v 8.4902346 q 0,1.0527344 0.12305,1.3535156 0.13672,0.3007813 0.42383,0.4785157 0.30078,0.1777343 0.84765,0.1777343 0.41016,0 1.08008,-0.095703 z" /><path
             id="path310"
             style=""
             d="m 418.9617,0 v -20.042969 h 2.46094 v 7.191406 q 1.72265,-1.996093 4.34765,-1.996093 1.61329,0 2.80274,0.642578 1.18945,0.628906 1.69531,1.75 0.51953,1.121094 0.51953,3.2539061 V 0 h -2.46094 v -9.2011719 q 0,-1.8457031 -0.80664,-2.6796871 -0.79296,-0.847657 -2.25586,-0.847657 -1.09375,0 -2.06445,0.574219 -0.95703,0.560547 -1.36719,1.53125 -0.41015,0.9707032 -0.41015,2.6796876 V 0 Z" /><path
             id="path312"
             style=""
             d="m 444.0043,-1.7910156 q -1.36718,1.16210935 -2.63867,1.64062498 -1.25781,0.47851562 -2.70703,0.47851562 -2.39258,0 -3.67773,-1.16210938 -1.28516,-1.17578122 -1.28516,-2.99414062 0,-1.0664062 0.47851,-1.9414062 0.49219,-0.8886719 1.27149,-1.421875 0.79297,-0.5332032 1.77734,-0.8066407 0.72461,-0.1914062 2.1875,-0.3691406 2.98047,-0.3554688 4.38867,-0.8476563 0.0137,-0.5058593 0.0137,-0.6425781 0,-1.5039061 -0.69727,-2.1191411 -0.94336,-0.833984 -2.80273,-0.833984 -1.73633,0 -2.57032,0.615234 -0.82031,0.601563 -1.21679,2.146485 l -2.40625,-0.328125 q 0.32812,-1.544922 1.08008,-2.488281 0.75195,-0.957032 2.17382,-1.462891 1.42188,-0.519531 3.29493,-0.519531 1.85937,0 3.02148,0.4375 1.16211,0.4375 1.70898,1.107422 0.54688,0.65625 0.76563,1.667968 0.12305,0.628907 0.12305,2.2695316 v 3.28125 q 0,3.4316406 0.15039,4.3476563 Q 446.60196,-0.83398438 447.0668,0 h -2.57031 q -0.38281,-0.765625 -0.49219,-1.7910156 z m -0.20508,-5.4960938 q -1.33984,0.546875 -4.01953,0.9296875 -1.51757,0.21875 -2.14648,0.4921875 -0.62891,0.2734375 -0.9707,0.8066407 -0.3418,0.5195312 -0.3418,1.1621093 0,0.984375 0.73828,1.640625 0.75195,0.65625 2.1875,0.65625 1.42188,0 2.5293,-0.6152344 1.10742,-0.6289062 1.62695,-1.7089843 0.39648,-0.8339844 0.39648,-2.4609375 z" /><path
             id="path314"
             style=""
             d="m 455.47076,-2.2011719 0.35547,2.17382815 q -1.03906,0.21875 -1.85937,0.21875 -1.33985,0 -2.07813,-0.42382813 -0.73828,-0.42382812 -1.03906,-1.10742182 -0.30078,-0.6972657 -0.30078,-2.9121094 v -8.3535159 h -1.80469 v -1.914062 h 1.80469 v -3.595703 l 2.44726,-1.476563 v 5.072266 h 2.47461 v 1.914062 h -2.47461 v 8.4902346 q 0,1.0527344 0.12305,1.3535156 0.13672,0.3007813 0.42383,0.4785157 0.30078,0.1777343 0.84766,0.1777343 0.41015,0 1.08007,-0.095703 z" /><path
             id="path316"
             style=""
             d="M 465.55634,5.5917969 465.2829,3.28125 Q 466.08954,3.5 466.6911,3.5 q 0.82031,0 1.3125,-0.2734375 0.49219,-0.2734375 0.80664,-0.765625 0.23242,-0.3691406 0.75195,-1.83203125 0.0684,-0.20507812 0.21875,-0.6015625 L 464.27118,-14.519531 h 2.65234 l 3.02149,8.4082029 q 0.58789,1.5996094 1.05273,3.3632812 0.42383,-1.6953125 1.01172,-3.3085937 l 3.10352,-8.4628904 h 2.46093 l -5.52343,14.76562475 q -0.88868,2.39257815 -1.38086,3.29492185 -0.65625,1.2167969 -1.50391,1.7773438 -0.84766,0.5742187 -2.02344,0.5742187 -0.71093,0 -1.58593,-0.3007812 z" /><path
             id="path318"
             style=""
             d="m 478.74969,-7.2597656 q 0,-4.0332034 2.24219,-5.9746094 1.87305,-1.613281 4.56641,-1.613281 2.99414,0 4.89453,1.96875 1.90039,1.955078 1.90039,5.4140623 0,2.8027343 -0.84766,4.4160156 -0.83398,1.5996094 -2.44726,2.48828123 -1.59961,0.88867187 -3.5,0.88867187 -3.04883,0 -4.93555,-1.9550781 -1.87305,-1.9550782 -1.87305,-5.6328125 z m 2.5293,0 q 0,2.7890625 1.2168,4.1835937 1.2168,1.3808594 3.0625,1.3808594 1.83203,0 3.04883,-1.3945313 1.21679,-1.3945312 1.21679,-4.2519531 0,-2.6933591 -1.23047,-4.0742191 -1.21679,-1.394531 -3.03515,-1.394531 -1.8457,0 -3.0625,1.380859 -1.2168,1.38086 -1.2168,4.1699224 z" /><path
             id="path320"
             style=""
             d="m 504.74933,0 v -2.1328125 q -1.69531,2.4609375 -4.60742,2.4609375 -1.28516,0 -2.40625,-0.4921875 -1.10743,-0.4921875 -1.6543,-1.2304687 -0.5332,-0.7519532 -0.75195,-1.8320313 -0.15039,-0.7246094 -0.15039,-2.296875 v -8.9960935 h 2.46093 v 8.0527341 q 0,1.9277344 0.15039,2.5976563 0.23243,0.9707031 0.98438,1.53125 0.75195,0.546875 1.85937,0.546875 1.10743,0 2.07813,-0.5605469 0.9707,-0.5742188 1.36719,-1.5449219 0.41015,-0.984375 0.41015,-2.84375 v -7.7792966 h 2.46094 V 0 Z" /><path
             id="path322"
             style=""
             d="m 528.10132,0 v -2.1328125 q -1.69531,2.4609375 -4.60742,2.4609375 -1.28516,0 -2.40625,-0.4921875 -1.10743,-0.4921875 -1.6543,-1.2304687 -0.5332,-0.7519532 -0.75195,-1.8320313 -0.15039,-0.7246094 -0.15039,-2.296875 v -8.9960935 h 2.46093 v 8.0527341 q 0,1.9277344 0.15039,2.5976563 0.23243,0.9707031 0.98438,1.53125 0.75195,0.546875 1.85937,0.546875 1.10743,0 2.07813,-0.5605469 0.9707,-0.5742188 1.36719,-1.5449219 0.41015,-0.984375 0.41015,-2.84375 v -7.7792966 h 2.46094 V 0 Z" /><path
             id="path324"
             style=""
             d="m 533.16931,-4.3339844 2.4336,-0.3828125 q 0.20507,1.4628906 1.13476,2.2421875 0.94336,0.7792969 2.625,0.7792969 1.69531,0 2.51563,-0.6835938 0.82031,-0.6972656 0.82031,-1.6269531 0,-0.8339843 -0.72461,-1.3125 -0.50586,-0.328125 -2.51563,-0.8339843 -2.70703,-0.6835938 -3.75976,-1.1757813 -1.03906,-0.5058594 -1.58594,-1.3808594 -0.5332,-0.8886719 -0.5332,-1.9550786 0,-0.970703 0.4375,-1.791015 0.45117,-0.833985 1.21679,-1.38086 0.57422,-0.423828 1.5586,-0.710937 0.99805,-0.300781 2.13281,-0.300781 1.70899,0 2.99414,0.492187 1.29883,0.492188 1.91406,1.339844 0.61524,0.833984 0.84766,2.242187 l -2.40625,0.328125 q -0.16406,-1.121093 -0.95703,-1.75 -0.7793,-0.628906 -2.21484,-0.628906 -1.69532,0 -2.41993,0.560547 -0.72461,0.560547 -0.72461,1.3125 0,0.478516 0.30079,0.861328 0.30078,0.3964846 0.94335,0.6562502 0.36915,0.1367188 2.17383,0.6289063 2.61133,0.6972656 3.63672,1.1484375 1.03906,0.4375 1.62695,1.2851563 0.5879,0.8476562 0.5879,2.1054687 0,1.2304687 -0.72461,2.3242188 -0.71094,1.08007807 -2.06446,1.68164057 -1.35351,0.58789063 -3.0625,0.58789063 -2.83008,0 -4.32031,-1.17578125 -1.47656,-1.17578125 -1.88672,-3.48632815 z" /><path
             id="path326"
             style=""
             d="m 558.09314,-4.6757812 2.54297,0.3144531 q -0.60156,2.2285156 -2.22852,3.45898435 -1.62695,1.23046875 -4.15625,1.23046875 -3.18554,0 -5.05859,-1.9550781 -1.85938,-1.96875 -1.85938,-5.5097656 0,-3.6640623 1.88672,-5.6875003 1.88672,-2.023437 4.89453,-2.023437 2.91211,0 4.75782,1.982422 1.8457,1.982421 1.8457,5.5781246 0,0.21875 -0.0137,0.65625 h -10.82813 q 0.13672,2.3925782 1.35352,3.6640625 1.2168,1.2714844 3.03515,1.2714844 1.35352,0 2.31055,-0.7109375 0.95703,-0.7109375 1.51758,-2.2695312 z m -8.08008,-3.9785157 h 8.10742 q -0.16406,-1.8320311 -0.92968,-2.7480471 -1.17579,-1.421875 -3.04883,-1.421875 -1.69531,0 -2.85742,1.134766 -1.14844,1.134765 -1.27149,3.0351561 z" /></g></g></g></g></svg>