<?xml version="1.0" encoding="UTF-8" standalone="no"?>
<svg
   xmlns:dc="http://purl.org/dc/elements/1.1/"
   xmlns:cc="http://creativecommons.org/ns#"
   xmlns:rdf="http://www.w3.org/1999/02/22-rdf-syntax-ns#"
   xmlns:svg="http://www.w3.org/2000/svg"
   xmlns="http://www.w3.org/2000/svg"
   viewBox="0 0 960 720"
   height="720"
   width="960"
   xml:space="preserve"
   id="svg2"
   version="1.1"><metadata
     id="metadata8"><rdf:RDF><cc:Work
         rdf:about=""><dc:format>image/svg+xml</dc:format><dc:type
           rdf:resource="http://purl.org/dc/dcmitype/StillImage" /></cc:Work></rdf:RDF></metadata><defs
     id="defs6"><clipPath
       id="clipPath18"
       clipPathUnits="userSpaceOnUse"><path
         style="clip-rule:evenodd"
         id="path16"
         d="M 0,0 H 720 V 540 H 0 Z" /></clipPath><clipPath
       id="clipPath30"
       clipPathUnits="userSpaceOnUse"><path
         style="clip-rule:evenodd"
         id="path28"
         d="M 0,0 H 702 V 540 H 0 Z" /></clipPath><clipPath
       id="clipPath52"
       clipPathUnits="userSpaceOnUse"><path
         style="clip-rule:evenodd"
         id="path50"
         d="M 0,0 H 720 V 540 H 0 Z" /></clipPath></defs><g
     transform="matrix(1.3333333,0,0,-1.3333333,0,720)"
     id="g10"><g
       id="g12"><g
         clip-path="url(#clipPath18)"
         id="g14"><path
           id="path20"
           style="fill:#ffffff;fill-opacity:1;fill-rule:evenodd;stroke:none"
           d="M 0,540 H 720 V 0 H 0 Z" /><path
           id="path22"
           style="fill:#ffffff;fill-opacity:1;fill-rule:evenodd;stroke:none"
           d="M 0,540 H 720 V 0 H 0 Z" /></g></g><g
       id="g24"><g
         clip-path="url(#clipPath30)"
         id="g26"><path
           id="path32"
           style="fill:#99cc99;fill-opacity:1;fill-rule:evenodd;stroke:none"
           d="M 30,0 H 0 V 540 H 60 V 0 Z" /><path
           id="path34"
           style="fill:#99cc99;fill-opacity:1;fill-rule:evenodd;stroke:none"
           d="M 153,456 H 54 v 84 h 198 v -84 z" /><path
           id="path36"
           style="fill:#ffffff;fill-opacity:1;fill-rule:evenodd;stroke:none"
           d="M 84,480 C 72,480 60,468 60,456 v 0 c 0,-12 12,-24 24,-24 h 354 c 12,0 24,12 24,24 v 0 c 0,12 -12,24 -24,24 z m -24,0 z m 402,-48 z" /><g
           id="g38" /><g
           id="g40" /><path
           id="path42"
           style="fill:#003366;fill-opacity:1;fill-rule:evenodd;stroke:none"
           d="m 48,384 v 0 -25 0 h 552 v 0 25 0 z m 0,0 z m 552,-25 z" /><path
           id="path44"
           style="fill:#003366;fill-opacity:1;fill-rule:evenodd;stroke:none"
           d="M 33.5,384 C 25.7,384 18,377.7 18,371.5 c 0,-6.3 7.7,-12.6 15.5,-12.6 H 49 V 384 Z M 49,384 Z M 18,358.9 Z" /></g></g><g
       id="g46"><g
         clip-path="url(#clipPath52)"
         id="g48"><g
           id="g54"><g
             id="text58"
             style="font-variant:normal;font-weight:bold;font-size:36px;font-family:Arial;-inkscape-font-specification:Arial-BoldMT;writing-mode:lr-tb;fill:#009c98;fill-opacity:1;fill-rule:nonzero;stroke:none"
             transform="matrix(1,0,0,-1,79.1,400.9)"
             aria-label="Tips to be Covered"><path
               id="path132"
               style=""
               d="M 8.4199219,0 V -21.410156 H 0.7734375 v -4.359375 H 21.251953 v 4.359375 H 13.623047 V 0 Z" /><path
               id="path134"
               style=""
               d="m 24.183985,-21.199219 v -4.570312 h 4.939453 v 4.570312 z m 0,21.199219 v -18.667969 h 4.939453 V 0 Z" /><path
               id="path136"
               style=""
               d="m 33.655359,-18.667969 h 4.605469 v 2.742188 q 0.896484,-1.40625 2.425781,-2.285156 1.529297,-0.878907 3.392578,-0.878907 3.251954,0 5.519532,2.548828 2.267578,2.548828 2.267578,7.1015629 0,4.6757812 -2.285156,7.2773437 -2.285157,2.5839844 -5.53711,2.5839844 -1.546875,0 -2.8125,-0.61523437 -1.248047,-0.61523438 -2.636719,-2.10937503 v 9.4042969 h -4.939453 z m 4.886719,9.0175784 q 0,3.1464844 1.248047,4.6582031 1.248047,1.4941406 3.041016,1.4941406 1.722656,0 2.865234,-1.3710937 1.142578,-1.3886719 1.142578,-4.5351563 0,-2.9355471 -1.177734,-4.3593751 -1.177735,-1.423828 -2.917969,-1.423828 -1.810547,0 -3.005859,1.40625 -1.195313,1.388672 -1.195313,4.1308594 z" /><path
               id="path138"
               style=""
               d="m 53.943748,-5.3261719 4.957032,-0.7558593 q 0.316406,1.4414062 1.283203,2.1972656 0.966797,0.7382812 2.707031,0.7382812 1.916016,0 2.882813,-0.703125 0.65039,-0.4921875 0.65039,-1.3183593 0,-0.5625 -0.351562,-0.9316407 Q 65.703514,-6.4511719 64.420311,-6.75 q -5.976563,-1.3183594 -7.576172,-2.4082031 -2.214844,-1.5117189 -2.214844,-4.2011719 0,-2.425781 1.916016,-4.078125 1.916016,-1.652344 5.941406,-1.652344 3.832031,0 5.695313,1.248047 1.863281,1.248047 2.566406,3.691406 l -4.658203,0.861328 q -0.298828,-1.089843 -1.142578,-1.669921 -0.826172,-0.580079 -2.373047,-0.580079 -1.951172,0 -2.794922,0.544922 -0.5625,0.386719 -0.5625,1.001953 0,0.527344 0.492187,0.896485 0.667969,0.492187 4.605469,1.388672 3.955078,0.896484 5.519531,2.1972654 1.546875,1.3183593 1.546875,3.6738281 0,2.5664062 -2.144531,4.4121094 -2.144531,1.8457031 -6.345703,1.8457031 -3.814453,0 -6.046875,-1.546875 -2.214844,-1.546875 -2.900391,-4.2011719 z" /><path
               id="path140"
               style=""
               d="m 94.232529,-18.667969 v 3.9375 h -3.375 v 7.5234378 q 0,2.2851562 0.08789,2.671875 0.105469,0.3691406 0.439453,0.6152343 0.351563,0.2460938 0.84375,0.2460938 0.685547,0 1.986329,-0.4746094 l 0.421875,3.83203125 Q 92.914169,0.421875 90.734482,0.421875 q -1.335938,0 -2.408203,-0.43945313 -1.072266,-0.45703125 -1.582032,-1.16015627 -0.492187,-0.7207031 -0.685546,-1.9335937 -0.158204,-0.8613282 -0.158204,-3.4804688 v -8.1386721 h -2.267578 v -3.9375 h 2.267578 v -3.708984 l 4.957032,-2.882813 v 6.591797 z" /><path
               id="path142"
               style=""
               d="m 96.517403,-9.5976563 q 0,-2.4609377 1.21289,-4.7636717 1.212891,-2.302734 3.427737,-3.515625 2.23242,-1.212891 4.97461,-1.212891 4.23633,0 6.94336,2.759766 2.70703,2.742187 2.70703,6.9433592 0,4.2363282 -2.74219,7.03125 -2.72461,2.7773438 -6.87305,2.7773438 -2.5664,0 -4.90429,-1.16015625 -2.320316,-1.16015625 -3.533207,-3.39257815 -1.21289,-2.25 -1.21289,-5.4667969 z m 5.062497,0.2636719 q 0,2.7773438 1.31836,4.2539063 1.31836,1.4765625 3.25196,1.4765625 1.93359,0 3.23437,-1.4765625 1.31836,-1.4765625 1.31836,-4.2890625 0,-2.7421874 -1.31836,-4.2187504 -1.30078,-1.476562 -3.23437,-1.476562 -1.9336,0 -3.25196,1.476562 -1.31836,1.476563 -1.31836,4.2539066 z" /><path
               id="path144"
               style=""
               d="m 129.30904,0 v -25.769531 h 4.93946 v 9.28125 q 2.28515,-2.601563 5.41406,-2.601563 3.41016,0 5.64258,2.478516 2.23242,2.460937 2.23242,7.0839842 0,4.7812501 -2.28516,7.3652344 -2.26757,2.5839844 -5.51953,2.5839844 -1.59961,0 -3.16406,-0.79101563 -1.54688,-0.80859377 -2.67188,-2.37304687 V 0 Z m 4.9043,-9.7382813 q 0,2.9003907 0.91406,4.2890626 1.28321,1.9687499 3.41016,1.9687499 1.63477,0 2.77734,-1.3886718 1.16016,-1.40625 1.16016,-4.4121094 0,-3.199219 -1.16016,-4.605469 -1.16015,-1.423828 -2.9707,-1.423828 -1.77539,0 -2.95312,1.388672 -1.17774,1.371094 -1.17774,4.1835937 z" /><path
               id="path146"
               style=""
               d="m 162.29053,-5.9414062 4.92187,0.8261718 q -0.94922,2.7070313 -3.00586,4.1308594 -2.03906,1.40625 -5.11523,1.40625 -4.86914,0 -7.20703,-3.1816406 -1.84571,-2.5488281 -1.84571,-6.4335938 0,-4.6406246 2.42579,-7.2597656 2.42578,-2.636719 6.13476,-2.636719 4.16602,0 6.57422,2.759766 2.4082,2.742187 2.30273,8.4199218 h -12.375 q 0.0527,2.1972656 1.19532,3.4277343 1.14257,1.2128906 2.84765,1.2128906 1.16016,0 1.95117,-0.6328125 0.79102,-0.6328124 1.19532,-2.0390624 z m 0.28125,-4.9921878 q -0.0527,-2.144531 -1.10742,-3.251953 -1.05469,-1.125 -2.56641,-1.125 -1.61719,0 -2.67188,1.177734 -1.05468,1.177735 -1.03711,3.199219 z" /><path
               id="path148"
               style=""
               d="M 197.99142,-9.4746094 203.03635,-7.875 q -1.16016,4.21875 -3.86719,6.2753906 -2.68945,2.03906253 -6.83789,2.03906253 -5.13281,0 -8.4375,-3.49804693 -3.30469,-3.5156249 -3.30469,-9.5976562 0,-6.433594 3.32227,-9.984375 3.32226,-3.568359 8.73632,-3.568359 4.72852,0 7.68165,2.794922 1.75781,1.652343 2.63671,4.746093 l -5.15039,1.230469 q -0.45703,-2.003906 -1.91601,-3.164062 -1.44141,-1.160157 -3.51563,-1.160157 -2.86523,0 -4.6582,2.056641 -1.77539,2.056641 -1.77539,6.662109 0,4.886719 1.75781,6.9609378 1.75781,2.0742187 4.57031,2.0742187 2.07422,0 3.56836,-1.3183594 1.49414,-1.3183593 2.14453,-4.1484375 z" /><path
               id="path150"
               style=""
               d="m 206.31741,-9.5976563 q 0,-2.4609377 1.21289,-4.7636717 1.21289,-2.302734 3.42774,-3.515625 2.23242,-1.212891 4.97461,-1.212891 4.23633,0 6.94336,2.759766 2.70703,2.742187 2.70703,6.9433592 0,4.2363282 -2.74219,7.03125 -2.72461,2.7773438 -6.87305,2.7773438 -2.5664,0 -4.90429,-1.16015625 -2.32032,-1.16015625 -3.53321,-3.39257815 -1.21289,-2.25 -1.21289,-5.4667969 z m 5.0625,0.2636719 q 0,2.7773438 1.31836,4.2539063 1.31836,1.4765625 3.25196,1.4765625 1.93359,0 3.23437,-1.4765625 1.31836,-1.4765625 1.31836,-4.2890625 0,-2.7421874 -1.31836,-4.2187504 -1.30078,-1.476562 -3.23437,-1.476562 -1.9336,0 -3.25196,1.476562 -1.31836,1.476563 -1.31836,4.2539066 z" /><path
               id="path152"
               style=""
               d="m 234.5528,0 -7.52344,-18.667969 h 5.18554 l 3.51563,9.527344 1.01953,3.1816406 q 0.4043,-1.2128906 0.50977,-1.5996093 0.24609,-0.7910157 0.52734,-1.5820313 l 3.55078,-9.527344 h 5.08008 L 239.00006,0 Z" /><path
               id="path154"
               style=""
               d="m 260.24654,-5.9414062 4.92187,0.8261718 q -0.94922,2.7070313 -3.00586,4.1308594 -2.03906,1.40625 -5.11523,1.40625 -4.86914,0 -7.20703,-3.1816406 -1.84571,-2.5488281 -1.84571,-6.4335938 0,-4.6406246 2.42578,-7.2597656 2.42579,-2.636719 6.13477,-2.636719 4.16602,0 6.57422,2.759766 2.4082,2.742187 2.30273,8.4199218 h -12.375 q 0.0527,2.1972656 1.19532,3.4277343 1.14257,1.2128906 2.84765,1.2128906 1.16016,0 1.95117,-0.6328125 0.79102,-0.6328124 1.19532,-2.0390624 z m 0.28125,-4.9921878 q -0.0527,-2.144531 -1.10743,-3.251953 -1.05468,-1.125 -2.5664,-1.125 -1.61719,0 -2.67188,1.177734 -1.05468,1.177735 -1.03711,3.199219 z" /><path
               id="path156"
               style=""
               d="m 274.21649,0 h -4.93945 v -18.667969 h 4.58789 v 2.654297 q 1.17773,-1.880859 2.10937,-2.478515 0.94922,-0.597657 2.14454,-0.597657 1.6875,0 3.25195,0.931641 l -1.5293,4.30664 q -1.24805,-0.808593 -2.32031,-0.808593 -1.03711,0 -1.75781,0.580078 -0.72071,0.5625 -1.14258,2.05664 -0.4043,1.494141 -0.4043,6.257813 z" /><path
               id="path158"
               style=""
               d="m 294.30252,-5.9414062 4.92188,0.8261718 q -0.94922,2.7070313 -3.00586,4.1308594 -2.03907,1.40625 -5.11524,1.40625 -4.86914,0 -7.20703,-3.1816406 -1.8457,-2.5488281 -1.8457,-6.4335938 0,-4.6406246 2.42578,-7.2597656 2.42578,-2.636719 6.13476,-2.636719 4.16602,0 6.57422,2.759766 2.40821,2.742187 2.30274,8.4199218 h -12.375 q 0.0527,2.1972656 1.19531,3.4277343 1.14258,1.2128906 2.84766,1.2128906 1.16015,0 1.95117,-0.6328125 0.79101,-0.6328124 1.19531,-2.0390624 z m 0.28125,-4.9921878 q -0.0527,-2.144531 -1.10742,-3.251953 -1.05469,-1.125 -2.56641,-1.125 -1.61718,0 -2.67187,1.177734 -1.05469,1.177735 -1.03711,3.199219 z" /><path
               id="path160"
               style=""
               d="m 320.66507,0 h -4.58789 v -2.7421875 q -1.14258,1.5996094 -2.70703,2.390625 -1.54688,0.7734375 -3.12891,0.7734375 -3.2168,0 -5.51953,-2.5839844 -2.28516,-2.6015625 -2.28516,-7.2421875 0,-4.7460941 2.23243,-7.2070311 2.23242,-2.478516 5.64257,-2.478516 3.12891,0 5.41407,2.601563 v -9.28125 h 4.93945 z m -13.18359,-9.7382813 q 0,2.9882813 0.82617,4.3242188 1.19531,1.9335937 3.33984,1.9335937 1.70508,0 2.90039,-1.4414062 1.19531,-1.4589844 1.19531,-4.3417969 0,-3.2167971 -1.16015,-4.6230471 -1.16016,-1.423828 -2.9707,-1.423828 -1.75782,0 -2.95313,1.40625 -1.17773,1.388672 -1.17773,4.1660157 z" /></g></g><g
           id="text62"
           style="font-variant:normal;font-weight:normal;font-size:16.60000038px;font-family:OpenSymbol;-inkscape-font-specification:OpenSymbol;writing-mode:lr-tb;fill:#003366;fill-opacity:1;fill-rule:nonzero;stroke:none"
           transform="matrix(1,0,0,-1,79.1,308)"
           aria-label=""><path
             id="path163"
             style=""
             d="M 2.4734001,-11.3544 H 10.7568 q -0.249,2.9215998 -0.747,4.6811998 l -1.1785998,-0.1328 q 0.5644,-1.826 0.6972,-3.4527998 H 2.4734001 Z" /></g><g
           id="text66"
           style="font-variant:normal;font-weight:normal;font-size:22.10000038px;font-family:Arial;-inkscape-font-specification:ArialMT;writing-mode:lr-tb;fill:#003366;fill-opacity:1;fill-rule:nonzero;stroke:none"
           transform="matrix(1,0,0,-1,103.9,304.2)"
           aria-label="Outlines"><path
             id="path166"
             style=""
             d="m 1.0683106,-7.7047853 q 0,-3.9387207 2.1150391,-6.1616697 2.1150391,-2.233741 5.460254,-2.233741 2.1905763,0 3.9495113,1.046729 1.758936,1.046728 2.676172,2.924365 0.928028,1.866846 0.928028,4.2408694 0,2.4063966 -0.971192,4.3056154 -0.971191,1.8992187 -2.751709,2.88120117 -1.780517,0.97119143 -3.8416014,0.97119143 -2.2337402,0 -3.9926758,-1.07910159 Q 2.8812012,-1.8884278 1.9747559,-3.7552735 1.0683106,-5.6221192 1.0683106,-7.7047853 Z m 2.1582031,0.032373 q 0,2.8596191 1.5323243,4.5106446 1.5431152,1.6402344 3.8631836,1.6402344 2.3632324,0 3.8847654,-1.6618165 1.532325,-1.6618164 1.532325,-4.7156739 0,-1.9315918 -0.658252,-3.3667974 -0.647461,-1.445996 -1.91001,-2.23374 -1.251758,-0.798535 -2.8164553,-0.798535 -2.2229493,0 -3.8308106,1.532324 -1.5970704,1.521534 -1.5970704,5.0933598 z" /><path
             id="path168"
             style=""
             d="m 26.249534,0 v -1.6833985 q -1.338086,1.94238288 -3.636572,1.94238288 -1.014356,0 -1.899219,-0.38847657 -0.874072,-0.38847657 -1.305713,-0.97119141 -0.42085,-0.5935059 -0.593506,-1.4459961 -0.118701,-0.5719239 -0.118701,-1.8128907 v -7.1004886 h 1.942383 v 6.3559085 q 0,1.5215333 0.118701,2.050293 0.183447,0.7661621 0.776953,1.2085938 0.593506,0.4316406 1.467578,0.4316406 0.874073,0 1.640235,-0.4424316 0.766162,-0.4532227 1.079101,-1.2193848 0.323731,-0.7769531 0.323731,-2.2445313 v -6.1400882 h 1.942383 V 0 Z" /><path
             id="path170"
             style=""
             d="m 35.267456,-1.7373535 0.280566,1.71577147 q -0.820117,0.17265625 -1.467578,0.17265625 -1.05752,0 -1.640234,-0.33452149 Q 31.857495,-0.51796876 31.620092,-1.0575195 31.38269,-1.6078614 31.38269,-3.3560059 v -6.5933107 h -1.424414 v -1.5107424 h 1.424414 v -2.838037 l 1.931592,-1.16543 v 4.003467 h 1.953174 v 1.5107424 h -1.953174 v 6.7012208 q 0,0.8309083 0.09712,1.0683106 0.10791,0.2374024 0.334522,0.3776856 0.237402,0.1402832 0.669043,0.1402832 0.32373,0 0.85249,-0.075537 z" /><path
             id="path172"
             style=""
             d="m 37.083022,0 v -15.819629 h 1.942383 V 0 Z" /><path
             id="path174"
             style=""
             d="m 42.043178,-13.585889 v -2.23374 h 1.942383 v 2.23374 z m 0,13.585889 v -11.460059 h 1.942383 V 0 Z" /><path
             id="path176"
             style=""
             d="m 47.004887,0 v -11.460059 h 1.748144 v 1.6294436 q 1.262549,-1.8884276 3.647364,-1.8884276 1.035937,0 1.899218,0.377685 0.874073,0.366895 1.305713,0.971192 0.431641,0.6042967 0.604297,1.4352049 0.10791,0.5395508 0.10791,1.8884278 V 0 H 54.37515 v -6.9709962 q 0,-1.1870118 -0.226611,-1.7697266 -0.226611,-0.5935059 -0.809326,-0.9388184 -0.571924,-0.3561038 -1.348877,-0.3561038 -1.240967,0 -2.147412,0.7877444 -0.895655,0.7877442 -0.895655,2.9891114 V 0 Z" /><path
             id="path178"
             style=""
             d="m 67.137557,-3.6905274 2.007129,0.2481934 q -0.474805,1.7589355 -1.758936,2.73012696 -1.284131,0.97119142 -3.280469,0.97119142 -2.514307,0 -3.992676,-1.54311528 -1.467578,-1.5539063 -1.467578,-4.3487794 0,-2.8919922 1.48916,-4.4890627 1.489161,-1.59707 3.863184,-1.59707 2.298486,0 3.755274,1.564697 1.456787,1.5646974 1.456787,4.4027346 0,0.1726562 -0.01079,0.5179687 h -8.546485 q 0.10791,1.8884278 1.068311,2.8919923 0.9604,1.0035644 2.395605,1.0035644 1.068311,0 1.823682,-0.5611328 0.755371,-0.5611328 1.197803,-1.7913086 z M 60.760066,-6.830713 h 6.399073 q -0.129493,-1.4459961 -0.733789,-2.1689942 -0.928028,-1.1222658 -2.406397,-1.1222658 -1.338086,0 -2.255322,0.8956545 -0.906446,0.8956543 -1.003565,2.3956055 z" /><path
             id="path180"
             style=""
             d="m 70.891534,-3.420752 1.920801,-0.3021485 q 0.161865,1.1546387 0.895655,1.7697266 0.74458,0.6150879 2.071875,0.6150879 1.338086,0 1.985547,-0.5395508 0.64746,-0.5503418 0.64746,-1.2841308 0,-0.658252 -0.571923,-1.0359376 -0.399268,-0.2589843 -1.985547,-0.6582519 -2.136621,-0.5395508 -2.96753,-0.9280274 -0.820117,-0.3992676 -1.251757,-1.0898926 -0.42085,-0.701416 -0.42085,-1.5431152 0,-0.7661622 0.345312,-1.4136231 0.356104,-0.6582516 0.960401,-1.0898926 0.453222,-0.334521 1.230176,-0.561133 0.787744,-0.237402 1.683398,-0.237402 1.348877,0 2.363233,0.388476 1.025146,0.388477 1.510742,1.05752 0.485595,0.6582519 0.669043,1.7697265 l -1.899219,0.2589844 q -0.129492,-0.8848633 -0.755371,-1.38125 -0.615088,-0.4963869 -1.748145,-0.4963869 -1.338086,0 -1.91001,0.4424318 -0.571923,0.4424317 -0.571923,1.0359375 0,0.3776856 0.237402,0.679834 0.237402,0.3129395 0.74458,0.5179688 0.291358,0.1079101 1.715772,0.4963867 2.061084,0.5503418 2.87041,0.9064453 0.820117,0.3453126 1.284131,1.0143555 0.464013,0.669043 0.464013,1.6618165 0,0.9711914 -0.571923,1.8344727 -0.561133,0.8524902 -1.629444,1.3272949 -1.06831,0.46401368 -2.417187,0.46401368 -2.233741,0 -3.409961,-0.92802736 -1.16543,-0.92802732 -1.489161,-2.75170902 z" /></g><g
           id="text70"
           style="font-variant:normal;font-weight:normal;font-size:16.60000038px;font-family:OpenSymbol;-inkscape-font-specification:OpenSymbol;writing-mode:lr-tb;fill:#003366;fill-opacity:1;fill-rule:nonzero;stroke:none"
           transform="matrix(1,0,0,-1,79.1,278.6)"
           aria-label=""><path
             id="path183"
             style=""
             d="M 2.4734001,-11.3544 H 10.7568 q -0.249,2.9215998 -0.747,4.6811998 l -1.1785998,-0.1328 q 0.5644,-1.826 0.6972,-3.4527998 H 2.4734001 Z" /></g><g
           id="text74"
           style="font-variant:normal;font-weight:normal;font-size:22.10000038px;font-family:Arial;-inkscape-font-specification:ArialMT;writing-mode:lr-tb;fill:#003366;fill-opacity:1;fill-rule:nonzero;stroke:none"
           transform="matrix(1,0,0,-1,103.9,274.8)"
           aria-label="Slide Structure"><path
             id="path186"
             style=""
             d="M 0.99277345,-5.0825684 2.9675293,-5.2552247 q 0.1402833,1.1870117 0.647461,1.9531739 0.5179688,0.7553711 1.5970703,1.2301758 1.0791016,0.4640136 2.4279786,0.4640136 1.1978027,0 2.1150391,-0.3561035 0.9172367,-0.3561035 1.3596677,-0.9711914 0.453223,-0.6258789 0.453223,-1.359668 0,-0.7445801 -0.431641,-1.2949219 Q 10.704688,-6.150879 9.7119142,-6.5285646 9.0752443,-6.7767579 6.8954591,-7.2947267 4.7156739,-7.8234865 3.8416016,-8.2875001 2.708545,-8.881006 2.1474121,-9.7550783 1.5970703,-10.639942 1.5970703,-11.729834 q 0,-1.197803 0.679834,-2.23374 0.679834,-1.046729 1.9855469,-1.58628 1.305713,-0.539551 2.9027833,-0.539551 1.7589356,0 3.0970215,0.571924 1.348877,0.561133 2.071875,1.661817 0.722998,1.100683 0.776953,2.492724 l -2.007129,0.151075 q -0.161865,-1.499952 -1.100683,-2.266114 -0.9280277,-0.766162 -2.7517094,-0.766162 -1.8992188,0 -2.773291,0.701416 -0.8632813,0.690625 -0.8632813,1.672608 0,0.85249 0.6150879,1.402832 0.6042969,0.5503415 3.1509766,1.1330563 2.5574708,0.5719239 3.5070802,1.0035645 1.38125,0.6366699 2.039502,1.6186524 0.658252,0.9711914 0.658252,2.2445313 0,1.2625488 -0.722998,2.3848144 -0.722998,1.11147468 -2.082666,1.73735359 -1.3488772,0.61508791 -3.0430667,0.61508791 -2.1474121,0 -3.6041992,-0.62587892 Q 2.6869629,-0.98198244 1.8560547,-2.2337403 1.0359375,-3.4962891 0.99277345,-5.0825684 Z" /><path
             id="path188"
             style=""
             d="m 16.110123,0 v -15.819629 h 1.942383 V 0 Z" /><path
             id="path190"
             style=""
             d="m 21.070277,-13.585889 v -2.23374 h 1.942383 v 2.23374 z M 21.070277,0 V -11.460059 H 23.01266 V 0 Z" /><path
             id="path192"
             style=""
             d="m 33.466996,0 v -1.4459961 q -1.089892,1.70498048 -3.204932,1.70498048 -1.370459,0 -2.525097,-0.75537111 -1.143848,-0.75537107 -1.780518,-2.10424807 -0.625879,-1.359668 -0.625879,-3.1186036 0,-1.7157715 0.571924,-3.1078125 0.571924,-1.4028321 1.715772,-2.1474121 1.143847,-0.74458 2.55747,-0.74458 1.035938,0 1.845264,0.442431 0.809326,0.431641 1.316504,1.133057 v -5.676074 h 1.931592 V 0 Z m -6.140088,-5.7192384 q 0,2.2013672 0.928028,3.2912598 0.928027,1.0898926 2.190576,1.0898926 1.27334,0 2.158203,-1.0359375 0.895654,-1.0467285 0.895654,-3.1833496 0,-2.3524415 -0.906445,-3.4531251 -0.906445,-1.1006838 -2.23374,-1.1006838 -1.294922,0 -2.168995,1.0575197 -0.863281,1.0575196 -0.863281,3.3344239 z" /><path
             id="path194"
             style=""
             d="m 46.164656,-3.6905274 2.007129,0.2481934 q -0.474805,1.7589355 -1.758935,2.73012696 -1.284131,0.97119142 -3.280469,0.97119142 -2.514307,0 -3.992676,-1.54311528 -1.467578,-1.5539063 -1.467578,-4.3487794 0,-2.8919922 1.48916,-4.4890627 1.48916,-1.59707 3.863184,-1.59707 2.298486,0 3.755273,1.564697 1.456787,1.5646974 1.456787,4.4027346 0,0.1726562 -0.01079,0.5179687 h -8.546484 q 0.10791,1.8884278 1.06831,2.8919923 0.960401,1.0035644 2.395606,1.0035644 1.06831,0 1.823681,-0.5611328 0.755372,-0.5611328 1.197803,-1.7913086 z m -6.37749,-3.1401856 h 6.399072 q -0.129492,-1.4459961 -0.733789,-2.1689942 -0.928027,-1.1222658 -2.406396,-1.1222658 -1.338086,0 -2.255323,0.8956545 -0.906445,0.8956543 -1.003564,2.3956055 z" /><path
             id="path196"
             style=""
             d="m 56.331175,-5.0825684 1.974756,-0.1726563 q 0.140283,1.1870117 0.647461,1.9531739 0.517969,0.7553711 1.59707,1.2301758 1.079102,0.4640136 2.427979,0.4640136 1.197803,0 2.115039,-0.3561035 0.917236,-0.3561035 1.359668,-0.9711914 0.453223,-0.6258789 0.453223,-1.359668 0,-0.7445801 -0.431641,-1.2949219 -0.431641,-0.5611328 -1.424414,-0.9388184 -0.63667,-0.2481933 -2.816455,-0.7661621 -2.179785,-0.5287598 -3.053858,-0.9927734 -1.133056,-0.5935059 -1.694189,-1.4675782 -0.550342,-0.8848637 -0.550342,-1.9747557 0,-1.197803 0.679834,-2.23374 0.679834,-1.046729 1.985547,-1.58628 1.305713,-0.539551 2.902783,-0.539551 1.758936,0 3.097022,0.571924 1.348877,0.561133 2.071875,1.661817 0.722998,1.100683 0.776953,2.492724 l -2.007129,0.151075 q -0.161865,-1.499952 -1.100684,-2.266114 -0.928027,-0.766162 -2.751709,-0.766162 -1.899218,0 -2.773291,0.701416 -0.863281,0.690625 -0.863281,1.672608 0,0.85249 0.615088,1.402832 0.604297,0.5503415 3.150977,1.1330563 2.55747,0.5719239 3.50708,1.0035645 1.38125,0.6366699 2.039502,1.6186524 0.658252,0.9711914 0.658252,2.2445313 0,1.2625488 -0.722998,2.3848144 -0.722998,1.11147468 -2.082666,1.73735359 -1.348877,0.61508791 -3.043067,0.61508791 -2.147412,0 -3.604199,-0.62587892 -1.445996,-0.62587892 -2.276904,-1.87763678 -0.820118,-1.2625488 -0.863282,-2.8488281 z" /><path
             id="path198"
             style=""
             d="m 75.820955,-1.7373535 0.280566,1.71577147 q -0.820117,0.17265625 -1.467578,0.17265625 -1.057519,0 -1.640234,-0.33452149 -0.582715,-0.33452149 -0.820117,-0.87407223 -0.237403,-0.5503419 -0.237403,-2.2984864 v -6.5933107 h -1.424414 v -1.5107424 h 1.424414 v -2.838037 l 1.931592,-1.16543 v 4.003467 h 1.953174 v 1.5107424 h -1.953174 v 6.7012208 q 0,0.8309083 0.09712,1.0683106 0.10791,0.2374024 0.334522,0.3776856 0.237402,0.1402832 0.669043,0.1402832 0.32373,0 0.85249,-0.075537 z" /><path
             id="path200"
             style=""
             d="m 77.658105,0 v -11.460059 h 1.748145 v 1.7373538 q 0.669043,-1.2193848 1.230176,-1.6078618 0.571924,-0.388476 1.251758,-0.388476 0.981982,0 1.996338,0.625879 l -0.669043,1.8020994 q -0.712207,-0.4208496 -1.424414,-0.4208496 -0.63667,0 -1.143848,0.3884765 -0.507178,0.3776856 -0.722998,1.0575196 -0.323731,1.0359375 -0.323731,2.2661133 V 0 Z" /><path
             id="path202"
             style=""
             d="m 92.571636,0 v -1.6833985 q -1.338086,1.94238288 -3.636573,1.94238288 -1.014355,0 -1.899219,-0.38847657 -0.874072,-0.38847657 -1.305712,-0.97119141 -0.42085,-0.5935059 -0.593506,-1.4459961 -0.118701,-0.5719239 -0.118701,-1.8128907 v -7.1004886 h 1.942382 v 6.3559085 q 0,1.5215333 0.118702,2.050293 0.183447,0.7661621 0.776953,1.2085938 0.593506,0.4316406 1.467578,0.4316406 0.874072,0 1.640234,-0.4424316 0.766162,-0.4532227 1.079102,-1.2193848 0.32373,-0.7769531 0.32373,-2.2445313 v -6.1400882 h 1.942383 V 0 Z" /><path
             id="path204"
             style=""
             d="m 104.91526,-4.1977052 1.91001,0.2481934 q -0.31294,1.9747559 -1.60786,3.09702155 -1.28413,1.11147463 -3.16177,1.11147463 -2.352439,0 -3.787644,-1.53232428 -1.424414,-1.5431152 -1.424414,-4.4135254 0,-1.8560548 0.615088,-3.2480958 0.615088,-1.3920409 1.866846,-2.0826659 1.262544,-0.701416 2.740914,-0.701416 1.86685,0 3.05386,0.949609 1.18701,0.9388186 1.52153,2.6761721 l -1.88842,0.2913575 q -0.26978,-1.1546387 -0.9604,-1.7373536 -0.67984,-0.582715 -1.65103,-0.582715 -1.46758,0 -2.384814,1.0575197 -0.917236,1.0467286 -0.917236,3.3236329 0,2.3092774 0.884863,3.3560059 0.884867,1.0467285 2.309277,1.0467285 1.14385,0 1.91001,-0.701416 0.76616,-0.701416 0.97119,-2.1582032 z" /><path
             id="path206"
             style=""
             d="m 112.86056,-1.7373535 0.28057,1.71577147 q -0.82012,0.17265625 -1.46758,0.17265625 -1.05752,0 -1.64024,-0.33452149 -0.58271,-0.33452149 -0.82011,-0.87407223 -0.23741,-0.5503419 -0.23741,-2.2984864 v -6.5933107 h -1.42441 v -1.5107424 h 1.42441 v -2.838037 l 1.9316,-1.16543 v 4.003467 h 1.95317 v 1.5107424 h -1.95317 v 6.7012208 q 0,0.8309083 0.0971,1.0683106 0.10791,0.2374024 0.33453,0.3776856 0.2374,0.1402832 0.66904,0.1402832 0.32373,0 0.85249,-0.075537 z" /><path
             id="path208"
             style=""
             d="m 122.22983,0 v -1.6833985 q -1.33808,1.94238288 -3.63657,1.94238288 -1.01436,0 -1.89922,-0.38847657 -0.87407,-0.38847657 -1.30571,-0.97119141 -0.42085,-0.5935059 -0.59351,-1.4459961 -0.1187,-0.5719239 -0.1187,-1.8128907 v -7.1004886 h 1.94238 v 6.3559085 q 0,1.5215333 0.1187,2.050293 0.18345,0.7661621 0.77696,1.2085938 0.5935,0.4316406 1.46758,0.4316406 0.87407,0 1.64023,-0.4424316 0.76616,-0.4532227 1.0791,-1.2193848 0.32373,-0.7769531 0.32373,-2.2445313 v -6.1400882 h 1.94238 V 0 Z" /><path
             id="path210"
             style=""
             d="m 126.98531,0 v -11.460059 h 1.74814 v 1.7373538 q 0.66904,-1.2193848 1.23018,-1.6078618 0.57192,-0.388476 1.25176,-0.388476 0.98198,0 1.99633,0.625879 l -0.66904,1.8020994 q -0.71221,-0.4208496 -1.42441,-0.4208496 -0.63667,0 -1.14385,0.3884765 -0.50718,0.3776856 -0.723,1.0575196 -0.32373,1.0359375 -0.32373,2.2661133 V 0 Z" /><path
             id="path212"
             style=""
             d="m 142.32175,-3.6905274 2.00713,0.2481934 q -0.4748,1.7589355 -1.75893,2.73012696 -1.28413,0.97119142 -3.28047,0.97119142 -2.51431,0 -3.99268,-1.54311528 -1.46758,-1.5539063 -1.46758,-4.3487794 0,-2.8919922 1.48916,-4.4890627 1.48916,-1.59707 3.86319,-1.59707 2.29848,0 3.75527,1.564697 1.45679,1.5646974 1.45679,4.4027346 0,0.1726562 -0.0108,0.5179687 h -8.54649 q 0.10791,1.8884278 1.06831,2.8919923 0.9604,1.0035644 2.39561,1.0035644 1.06831,0 1.82368,-0.5611328 0.75537,-0.5611328 1.1978,-1.7913086 z m -6.37749,-3.1401856 h 6.39908 q -0.1295,-1.4459961 -0.73379,-2.1689942 -0.92803,-1.1222658 -2.4064,-1.1222658 -1.33809,0 -2.25532,0.8956545 -0.90645,0.8956543 -1.00357,2.3956055 z" /></g><g
           id="text78"
           style="font-variant:normal;font-weight:normal;font-size:16.60000038px;font-family:OpenSymbol;-inkscape-font-specification:OpenSymbol;writing-mode:lr-tb;fill:#003366;fill-opacity:1;fill-rule:nonzero;stroke:none"
           transform="matrix(1,0,0,-1,79.1,249.2)"
           aria-label=""><path
             id="path215"
             style=""
             d="M 2.4734001,-11.3544 H 10.7568 q -0.249,2.9215998 -0.747,4.6811998 l -1.1785998,-0.1328 q 0.5644,-1.826 0.6972,-3.4527998 H 2.4734001 Z" /></g><g
           id="text82"
           style="font-variant:normal;font-weight:normal;font-size:22.10000038px;font-family:Arial;-inkscape-font-specification:ArialMT;writing-mode:lr-tb;fill:#003366;fill-opacity:1;fill-rule:nonzero;stroke:none"
           transform="matrix(1,0,0,-1,103.9,245.3)"
           aria-label="Fonts"><path
             id="path218"
             style=""
             d="M 1.8128907,0 V -15.819629 H 12.485205 v 1.866846 H 3.9063477 v 4.8991207 h 7.4242193 v 1.8668458 H 3.9063477 V 0 Z" /><path
             id="path220"
             style=""
             d="m 14.214789,-5.7300294 q 0,-3.1833497 1.769727,-4.7156736 1.478369,-1.27334 3.604199,-1.27334 2.363232,0 3.863184,1.553906 1.499951,1.5431154 1.499951,4.2732424 0,2.2121582 -0.669043,3.4854981 -0.658252,1.2625488 -1.931592,1.96396485 -1.262549,0.70141603 -2.7625,0.70141603 -2.406397,0 -3.895557,-1.54311528 -1.478369,-1.5431152 -1.478369,-4.4458985 z m 1.996338,0 q 0,2.2013672 0.9604,3.3020508 0.960401,1.0898926 2.417188,1.0898926 1.445996,0 2.406396,-1.1006836 0.960401,-1.1006836 0.960401,-3.3560059 0,-2.1258301 -0.971192,-3.2157227 -0.9604,-1.1006838 -2.395605,-1.1006838 -1.456787,0 -2.417188,1.0898928 -0.9604,1.0898926 -0.9604,3.2912598 z" /><path
             id="path222"
             style=""
             d="m 27.313787,0 v -11.460059 h 1.748145 v 1.6294436 q 1.262549,-1.8884276 3.647363,-1.8884276 1.035938,0 1.899219,0.377685 0.874072,0.366895 1.305713,0.971192 0.431641,0.6042967 0.604297,1.4352049 0.10791,0.5395508 0.10791,1.8884278 V 0 h -1.942383 v -6.9709962 q 0,-1.1870118 -0.226611,-1.7697266 -0.226611,-0.5935059 -0.809326,-0.9388184 -0.571924,-0.3561038 -1.348877,-0.3561038 -1.240967,0 -2.147412,0.7877444 -0.895655,0.7877442 -0.895655,2.9891114 V 0 Z" /><path
             id="path224"
             style=""
             d="m 43.842256,-1.7373535 0.280567,1.71577147 q -0.820118,0.17265625 -1.467578,0.17265625 -1.05752,0 -1.640235,-0.33452149 -0.582715,-0.33452149 -0.820117,-0.87407223 -0.237402,-0.5503419 -0.237402,-2.2984864 v -6.5933107 h -1.424415 v -1.5107424 h 1.424415 v -2.838037 l 1.931591,-1.16543 v 4.003467 h 1.953174 v 1.5107424 h -1.953174 v 6.7012208 q 0,0.8309083 0.09712,1.0683106 0.10791,0.2374024 0.334521,0.3776856 0.237402,0.1402832 0.669043,0.1402832 0.32373,0 0.85249,-0.075537 z" /><path
             id="path226"
             style=""
             d="m 45.012434,-3.420752 1.9208,-0.3021485 q 0.161866,1.1546387 0.895655,1.7697266 0.74458,0.6150879 2.071875,0.6150879 1.338086,0 1.985547,-0.5395508 0.647461,-0.5503418 0.647461,-1.2841308 0,-0.658252 -0.571924,-1.0359376 -0.399268,-0.2589843 -1.985547,-0.6582519 -2.136621,-0.5395508 -2.967529,-0.9280274 -0.820118,-0.3992676 -1.251758,-1.0898926 -0.42085,-0.701416 -0.42085,-1.5431152 0,-0.7661622 0.345313,-1.4136231 0.356103,-0.6582516 0.9604,-1.0898926 0.453223,-0.334521 1.230176,-0.561133 0.787744,-0.237402 1.683398,-0.237402 1.348877,0 2.363233,0.388476 1.025146,0.388477 1.510742,1.05752 0.485596,0.6582519 0.669043,1.7697265 l -1.899219,0.2589844 q -0.129492,-0.8848633 -0.755371,-1.38125 -0.615088,-0.4963869 -1.748145,-0.4963869 -1.338085,0 -1.910009,0.4424318 -0.571924,0.4424317 -0.571924,1.0359375 0,0.3776856 0.237402,0.679834 0.237403,0.3129395 0.74458,0.5179688 0.291358,0.1079101 1.715772,0.4963867 2.061084,0.5503418 2.87041,0.9064453 0.820117,0.3453126 1.284131,1.0143555 0.464014,0.669043 0.464014,1.6618165 0,0.9711914 -0.571924,1.8344727 -0.561133,0.8524902 -1.629444,1.3272949 -1.06831,0.46401368 -2.417187,0.46401368 -2.23374,0 -3.409961,-0.92802736 -1.16543,-0.92802732 -1.48916,-2.75170902 z" /></g><g
           id="text86"
           style="font-variant:normal;font-weight:normal;font-size:16.60000038px;font-family:OpenSymbol;-inkscape-font-specification:OpenSymbol;writing-mode:lr-tb;fill:#003366;fill-opacity:1;fill-rule:nonzero;stroke:none"
           transform="matrix(1,0,0,-1,79.1,219.7)"
           aria-label=""><path
             id="path229"
             style=""
             d="M 2.4734001,-11.3544 H 10.7568 q -0.249,2.9215998 -0.747,4.6811998 l -1.1785998,-0.1328 q 0.5644,-1.826 0.6972,-3.4527998 H 2.4734001 Z" /></g><g
           id="text90"
           style="font-variant:normal;font-weight:normal;font-size:22.10000038px;font-family:Arial;-inkscape-font-specification:ArialMT;writing-mode:lr-tb;fill:#003366;fill-opacity:1;fill-rule:nonzero;stroke:none"
           transform="matrix(1,0,0,-1,103.9,215.9)"
           aria-label="Colour"><path
             id="path232"
             style=""
             d="m 12.992383,-5.5465821 2.093457,0.5287597 q -0.658252,2.5790528 -2.374023,3.9387208 -1.704981,1.348877 -4.1761235,1.348877 -2.5574707,0 -4.1653321,-1.03593752 Q 2.7732911,-1.8128907 1.9315918,-3.7876465 1.1006836,-5.7624024 1.1006836,-8.0285158 q 0,-2.4711422 0.9388184,-4.3056152 0.9496094,-1.845264 2.6869629,-2.794873 1.7481446,-0.960401 3.8416017,-0.960401 2.3740234,0 3.9926754,1.208594 1.618653,1.208594 2.255323,3.39917 l -2.061084,0.485596 q -0.550342,-1.726563 -1.597071,-2.514307 -1.046728,-0.787744 -2.6330075,-0.787744 -1.8236817,0 -3.0538575,0.874072 -1.2193848,0.874073 -1.7157715,2.352442 -0.4963867,1.4675779 -0.4963867,3.0322752 0,2.01792 0.5827148,3.5286622 0.5935059,1.4999512 1.8344727,2.2445313 1.2409668,0.7445801 2.686963,0.7445801 1.7589357,0 2.9783207,-1.0143555 1.219384,-1.0143555 1.651025,-3.0106934 z" /><path
             id="path234"
             style=""
             d="m 16.712089,-5.7300294 q 0,-3.1833497 1.769727,-4.7156736 1.478369,-1.27334 3.604199,-1.27334 2.363233,0 3.863184,1.553906 1.499951,1.5431154 1.499951,4.2732424 0,2.2121582 -0.669043,3.4854981 -0.658252,1.2625488 -1.931592,1.96396485 -1.262549,0.70141603 -2.7625,0.70141603 -2.406396,0 -3.895557,-1.54311528 -1.478369,-1.5431152 -1.478369,-4.4458985 z m 1.996338,0 q 0,2.2013672 0.960401,3.3020508 0.9604,1.0898926 2.417187,1.0898926 1.445996,0 2.406397,-1.1006836 0.9604,-1.1006836 0.9604,-3.3560059 0,-2.1258301 -0.971191,-3.2157227 -0.960401,-1.1006838 -2.395606,-1.1006838 -1.456787,0 -2.417187,1.0898928 -0.960401,1.0898926 -0.960401,3.2912598 z" /><path
             id="path236"
             style=""
             d="m 29.767923,0 v -15.819629 h 1.942382 V 0 Z" /><path
             id="path238"
             style=""
             d="m 33.994291,-5.7300294 q 0,-3.1833497 1.769727,-4.7156736 1.478369,-1.27334 3.604199,-1.27334 2.363232,0 3.863183,1.553906 1.499952,1.5431154 1.499952,4.2732424 0,2.2121582 -0.669043,3.4854981 -0.658252,1.2625488 -1.931592,1.96396485 -1.262549,0.70141603 -2.7625,0.70141603 -2.406397,0 -3.895557,-1.54311528 -1.478369,-1.5431152 -1.478369,-4.4458985 z m 1.996338,0 q 0,2.2013672 0.9604,3.3020508 0.960401,1.0898926 2.417188,1.0898926 1.445996,0 2.406396,-1.1006836 0.960401,-1.1006836 0.960401,-3.3560059 0,-2.1258301 -0.971192,-3.2157227 -0.9604,-1.1006838 -2.395605,-1.1006838 -1.456787,0 -2.417188,1.0898928 -0.9604,1.0898926 -0.9604,3.2912598 z" /><path
             id="path240"
             style=""
             d="m 54.603835,0 v -1.6833985 q -1.338086,1.94238288 -3.636572,1.94238288 -1.014355,0 -1.899219,-0.38847657 -0.874072,-0.38847657 -1.305713,-0.97119141 -0.420849,-0.5935059 -0.593505,-1.4459961 -0.118702,-0.5719239 -0.118702,-1.8128907 v -7.1004886 h 1.942383 v 6.3559085 q 0,1.5215333 0.118701,2.050293 0.183448,0.7661621 0.776954,1.2085938 0.593505,0.4316406 1.467578,0.4316406 0.874072,0 1.640234,-0.4424316 0.766162,-0.4532227 1.079102,-1.2193848 0.32373,-0.7769531 0.32373,-2.2445313 v -6.1400882 h 1.942383 V 0 Z" /><path
             id="path242"
             style=""
             d="m 59.359304,0 v -11.460059 h 1.748145 v 1.7373538 q 0.669043,-1.2193848 1.230175,-1.6078618 0.571924,-0.388476 1.251758,-0.388476 0.981983,0 1.996338,0.625879 l -0.669043,1.8020994 q -0.712207,-0.4208496 -1.424414,-0.4208496 -0.63667,0 -1.143848,0.3884765 -0.507177,0.3776856 -0.722998,1.0575196 -0.32373,1.0359375 -0.32373,2.2661133 V 0 Z" /></g><g
           id="text94"
           style="font-variant:normal;font-weight:normal;font-size:16.60000038px;font-family:OpenSymbol;-inkscape-font-specification:OpenSymbol;writing-mode:lr-tb;fill:#003366;fill-opacity:1;fill-rule:nonzero;stroke:none"
           transform="matrix(1,0,0,-1,79.1,190.3)"
           aria-label=""><path
             id="path245"
             style=""
             d="M 2.4734001,-11.3544 H 10.7568 q -0.249,2.9215998 -0.747,4.6811998 l -1.1785998,-0.1328 q 0.5644,-1.826 0.6972,-3.4527998 H 2.4734001 Z" /></g><g
           id="text98"
           style="font-variant:normal;font-weight:normal;font-size:22.10000038px;font-family:Arial;-inkscape-font-specification:ArialMT;writing-mode:lr-tb;fill:#003366;fill-opacity:1;fill-rule:nonzero;stroke:none"
           transform="matrix(1,0,0,-1,103.9,186.5)"
           aria-label="Background"><path
             id="path248"
             style=""
             d="m 1.6186524,0 v -15.819629 h 5.9350587 q 1.8128906,0 2.9027829,0.485596 1.100684,0.474804 1.715772,1.478369 0.625879,0.992773 0.625879,2.082666 0,1.014355 -0.550342,1.9100095 -0.550342,0.8956544 -1.661816,1.4459962 1.435205,0.4208496 2.201367,1.4352051 0.776953,1.0143555 0.776953,2.3956055 0,1.1114746 -0.474805,2.071875 -0.464014,0.9496094 -1.154639,1.4675782 -0.690625,0.51796873 -1.737353,0.78774412 Q 9.1615724,0 7.6508302,0 Z m 2.093457,-9.1723634 h 3.4207521 q 1.392041,0 1.9963379,-0.1834473 0.7985351,-0.2374024 1.1978026,-0.7877443 0.410059,-0.550342 0.410059,-1.38125 0,-0.787744 -0.377686,-1.38125 -0.3776854,-0.604297 -1.0791014,-0.820117 -0.701416,-0.226611 -2.4063965,-0.226611 H 3.7121094 Z m 0,7.3055177 h 3.9387208 q 1.0143555,0 1.4244141,-0.075537 0.7229981,-0.1294922 1.2085937,-0.4316407 0.485596,-0.3021484 0.798535,-0.8740723 0.31294,-0.5827148 0.31294,-1.3380859 0,-0.8848633 -0.453223,-1.5323243 Q 10.488867,-6.7767579 9.6795412,-7.0357423 8.881006,-7.3055177 7.3702638,-7.3055177 H 3.7121094 Z" /><path
             id="path250"
             style=""
             d="m 23.631461,-1.4136231 q -1.079102,0.91723637 -2.082666,1.29492193 -0.992774,0.37768555 -2.136621,0.37768555 -1.888428,0 -2.902784,-0.91723634 -1.014355,-0.92802734 -1.014355,-2.36323244 0,-0.8416993 0.377686,-1.5323243 0.388476,-0.701416 1.003564,-1.1222656 0.625879,-0.4208496 1.402832,-0.6366699 0.571924,-0.1510743 1.726563,-0.2913575 2.352441,-0.2805664 3.463916,-0.669043 0.01079,-0.3992675 0.01079,-0.5071777 0,-1.1870117 -0.550342,-1.6726075 -0.74458,-0.6582521 -2.212158,-0.6582521 -1.370459,0 -2.028711,0.4855959 -0.647461,0.4748047 -0.960401,1.6941895 L 15.829556,-8.190381 q 0.258985,-1.2193848 0.852491,-1.963965 0.593506,-0.755371 1.715771,-1.154639 1.122266,-0.410058 2.600635,-0.410058 1.467578,0 2.384815,0.345312 0.917236,0.345313 1.348877,0.874073 0.43164,0.5179684 0.604296,1.3165035 0.09712,0.4963868 0.09712,1.7913087 v 2.5898438 q 0,2.7085449 0.118701,3.431543 Q 25.681754,-0.65825196 26.048648,0 h -2.028711 q -0.302148,-0.60429689 -0.388476,-1.4136231 z m -0.161865,-4.3379883 q -1.05752,0.4316406 -3.172559,0.733789 -1.197803,0.1726563 -1.694189,0.3884766 -0.496387,0.2158203 -0.766163,0.6366699 -0.269775,0.4100587 -0.269775,0.9172364 0,0.7769531 0.582715,1.2949219 0.593506,0.5179688 1.726562,0.5179688 1.122266,0 1.996338,-0.4855958 0.874073,-0.4963867 1.284131,-1.3488769 0.31294,-0.658252 0.31294,-1.9423829 z" /><path
             id="path252"
             style=""
             d="m 36.007461,-4.1977052 1.91001,0.2481934 q -0.312939,1.9747559 -1.607861,3.09702155 -1.284131,1.11147463 -3.161768,1.11147463 -2.352441,0 -3.787646,-1.53232428 -1.424415,-1.5431152 -1.424415,-4.4135254 0,-1.8560548 0.615088,-3.2480958 0.615088,-1.3920409 1.866846,-2.0826659 1.262549,-0.701416 2.740918,-0.701416 1.866846,0 3.053858,0.949609 1.187011,0.9388186 1.521533,2.6761721 l -1.888428,0.2913575 q -0.269775,-1.1546387 -0.9604,-1.7373536 -0.679834,-0.582715 -1.651026,-0.582715 -1.467578,0 -2.384814,1.0575197 -0.917237,1.0467286 -0.917237,3.3236329 0,2.3092774 0.884864,3.3560059 0.884863,1.0467285 2.309277,1.0467285 1.143848,0 1.91001,-0.701416 0.766162,-0.701416 0.971191,-2.1582032 z" /><path
             id="path254"
             style=""
             d="m 39.612178,0 v -15.819629 h 1.942383 v 9.021289 l 4.596973,-4.661719 H 48.66584 L 44.284688,-7.2083986 49.108272,0 H 46.712666 L 42.92502,-5.8595216 41.554561,-4.5430177 V 0 Z" /><path
             id="path256"
             style=""
             d="m 50.427885,0.94960939 1.888428,0.28056641 q 0.118701,0.8740723 0.658252,1.2733399 0.722998,0.5395508 1.974756,0.5395508 1.348877,0 2.082666,-0.5395508 Q 57.765776,1.9639649 58.024761,0.99277345 58.175835,0.39926759 58.165044,-1.4999512 56.891704,0 54.992485,0 q -2.363232,0 -3.658154,-1.7049805 -1.294922,-1.7049805 -1.294922,-4.089795 0,-1.6402344 0.593506,-3.0214844 0.593506,-1.3920411 1.715771,-2.1474121 1.133057,-0.755371 2.65459,-0.755371 2.028711,0 3.345215,1.640234 v -1.38125 H 60.1398 v 9.9061527 q 0,2.6761719 -0.550342,3.7876466 -0.539551,1.1222656 -1.726563,1.7697266 -1.17622,0.6474609 -2.902783,0.6474609 -2.050293,0 -3.312842,-0.9280273 -1.262549,-0.9172364 -1.219385,-2.77329111 z m 1.607862,-6.88466809 q 0,2.2553223 0.895654,3.2912598 0.895654,1.0359375 2.244531,1.0359375 1.338086,0 2.244532,-1.0251465 0.906445,-1.0359375 0.906445,-3.2373047 0,-2.1042481 -0.938818,-3.1725586 -0.928028,-1.0683108 -2.244532,-1.0683108 -1.294922,0 -2.201367,1.0575197 -0.906445,1.0467286 -0.906445,3.1186036 z" /><path
             id="path258"
             style=""
             d="m 63.138406,0 v -11.460059 h 1.748145 v 1.7373538 q 0.669043,-1.2193848 1.230176,-1.6078618 0.571924,-0.388476 1.251758,-0.388476 0.981982,0 1.996338,0.625879 l -0.669043,1.8020994 q -0.712208,-0.4208496 -1.424415,-0.4208496 -0.636669,0 -1.143847,0.3884765 -0.507178,0.3776856 -0.722998,1.0575196 -0.323731,1.0359375 -0.323731,2.2661133 V 0 Z" /><path
             id="path260"
             style=""
             d="m 69.818391,-5.7300294 q 0,-3.1833497 1.769727,-4.7156736 1.478369,-1.27334 3.604199,-1.27334 2.363233,0 3.863184,1.553906 1.499951,1.5431154 1.499951,4.2732424 0,2.2121582 -0.669043,3.4854981 -0.658252,1.2625488 -1.931592,1.96396485 -1.262548,0.70141603 -2.7625,0.70141603 -2.406396,0 -3.895556,-1.54311528 -1.47837,-1.5431152 -1.47837,-4.4458985 z m 1.996338,0 q 0,2.2013672 0.960401,3.3020508 0.9604,1.0898926 2.417187,1.0898926 1.445996,0 2.406397,-1.1006836 0.9604,-1.1006836 0.9604,-3.3560059 0,-2.1258301 -0.971191,-3.2157227 -0.960401,-1.1006838 -2.395606,-1.1006838 -1.456787,0 -2.417187,1.0898928 -0.960401,1.0898926 -0.960401,3.2912598 z" /><path
             id="path262"
             style=""
             d="m 90.427936,0 v -1.6833985 q -1.338086,1.94238288 -3.636572,1.94238288 -1.014356,0 -1.899219,-0.38847657 -0.874072,-0.38847657 -1.305713,-0.97119141 -0.42085,-0.5935059 -0.593506,-1.4459961 -0.118701,-0.5719239 -0.118701,-1.8128907 v -7.1004886 h 1.942383 v 6.3559085 q 0,1.5215333 0.118701,2.050293 0.183447,0.7661621 0.776953,1.2085938 0.593506,0.4316406 1.467578,0.4316406 0.874072,0 1.640235,-0.4424316 0.766162,-0.4532227 1.079101,-1.2193848 0.323731,-0.7769531 0.323731,-2.2445313 v -6.1400882 h 1.942382 V 0 Z" /><path
             id="path264"
             style=""
             d="m 95.204987,0 v -11.460059 h 1.748144 v 1.6294436 q 1.262549,-1.8884276 3.647359,-1.8884276 1.03594,0 1.89922,0.377685 0.87408,0.366895 1.30572,0.971192 0.43164,0.6042967 0.60429,1.4352049 0.10791,0.5395508 0.10791,1.8884278 V 0 h -1.94238 v -6.9709962 q 0,-1.1870118 -0.22661,-1.7697266 -0.22661,-0.5935059 -0.80933,-0.9388184 -0.57192,-0.3561038 -1.34887,-0.3561038 -1.240971,0 -2.147416,0.7877444 -0.895655,0.7877442 -0.895655,2.9891114 V 0 Z" /><path
             id="path266"
             style=""
             d="m 115.016,0 v -1.4459961 q -1.0899,1.70498048 -3.20494,1.70498048 -1.37045,0 -2.52509,-0.75537111 -1.14385,-0.75537107 -1.78052,-2.10424807 -0.62588,-1.359668 -0.62588,-3.1186036 0,-1.7157715 0.57192,-3.1078125 0.57193,-1.4028321 1.71578,-2.1474121 1.14384,-0.74458 2.55747,-0.74458 1.03593,0 1.84526,0.442431 0.80933,0.431641 1.3165,1.133057 v -5.676074 h 1.9316 V 0 Z m -6.14009,-5.7192384 q 0,2.2013672 0.92803,3.2912598 0.92802,1.0898926 2.19057,1.0898926 1.27334,0 2.1582,-1.0359375 0.89566,-1.0467285 0.89566,-3.1833496 0,-2.3524415 -0.90645,-3.4531251 -0.90644,-1.1006838 -2.23374,-1.1006838 -1.29492,0 -2.16899,1.0575197 -0.86328,1.0575196 -0.86328,3.3344239 z" /></g><g
           id="text102"
           style="font-variant:normal;font-weight:normal;font-size:16.60000038px;font-family:OpenSymbol;-inkscape-font-specification:OpenSymbol;writing-mode:lr-tb;fill:#003366;fill-opacity:1;fill-rule:nonzero;stroke:none"
           transform="matrix(1,0,0,-1,79.1,160.9)"
           aria-label=""><path
             id="path269"
             style=""
             d="M 2.4734001,-11.3544 H 10.7568 q -0.249,2.9215998 -0.747,4.6811998 l -1.1785998,-0.1328 q 0.5644,-1.826 0.6972,-3.4527998 H 2.4734001 Z" /></g><g
           id="text106"
           style="font-variant:normal;font-weight:normal;font-size:22.10000038px;font-family:Arial;-inkscape-font-specification:ArialMT;writing-mode:lr-tb;fill:#003366;fill-opacity:1;fill-rule:nonzero;stroke:none"
           transform="matrix(1,0,0,-1,103.9,157.1)"
           aria-label="Graphs"><path
             id="path272"
             style=""
             d="m 9.1076173,-6.2048341 v -1.8560547 l 6.7012207,-0.010791 v 5.8703126 q -1.543115,1.23017578 -3.18335,1.85605469 -1.640234,0.61508791 -3.3667964,0.61508791 -2.3308594,0 -4.2408692,-0.99277346 Q 3.1186036,-1.7265625 2.1474121,-3.6149903 1.1762207,-5.5034181 1.1762207,-7.8342775 q 0,-2.3092775 0.9604004,-4.3056155 0.9711915,-2.007129 2.7840821,-2.97832 1.8128907,-0.971192 4.1761231,-0.971192 1.7157717,0 3.0970217,0.561133 1.392041,0.550342 2.179785,1.543116 0.787744,0.992773 1.197803,2.589843 l -1.888428,0.517969 q -0.356103,-1.208594 -0.884863,-1.899219 -0.52876,-0.690625 -1.510742,-1.100683 -0.981983,-0.42085 -2.1797857,-0.42085 -1.4352051,0 -2.4819336,0.442432 -1.0467285,0.43164 -1.6941895,1.143847 -0.6366699,0.712207 -0.9927734,1.564698 -0.6042969,1.4675778 -0.6042969,3.1833493 0,2.1150391 0.722998,3.5394532 0.7337891,1.4244141 2.1258302,2.1150391 1.392041,0.690625 2.9567383,0.690625 1.3596676,0 2.6545896,-0.5179687 1.294922,-0.5287598 1.963965,-1.1222657 v -2.9459473 z" /><path
             id="path274"
             style=""
             d="m 18.717405,0 v -11.460059 h 1.748145 v 1.7373538 q 0.669043,-1.2193848 1.230175,-1.6078618 0.571924,-0.388476 1.251758,-0.388476 0.981983,0 1.996338,0.625879 l -0.669043,1.8020994 q -0.712207,-0.4208496 -1.424414,-0.4208496 -0.63667,0 -1.143848,0.3884765 -0.507177,0.3776856 -0.722998,1.0575196 -0.32373,1.0359375 -0.32373,2.2661133 V 0 Z" /><path
             id="path276"
             style=""
             d="m 33.598562,-1.4136231 q -1.079102,0.91723637 -2.082666,1.29492193 -0.992773,0.37768555 -2.136621,0.37768555 -1.888428,0 -2.902783,-0.91723634 -1.014356,-0.92802734 -1.014356,-2.36323244 0,-0.8416993 0.377686,-1.5323243 0.388476,-0.701416 1.003564,-1.1222656 0.625879,-0.4208496 1.402832,-0.6366699 0.571924,-0.1510743 1.726563,-0.2913575 2.352441,-0.2805664 3.463916,-0.669043 0.01079,-0.3992675 0.01079,-0.5071777 0,-1.1870117 -0.550342,-1.6726075 -0.74458,-0.6582521 -2.212158,-0.6582521 -1.370459,0 -2.028711,0.4855959 -0.647461,0.4748047 -0.960401,1.6941895 L 25.796658,-8.190381 q 0.258984,-1.2193848 0.85249,-1.963965 0.593506,-0.755371 1.715771,-1.154639 1.122266,-0.410058 2.600635,-0.410058 1.467578,0 2.384815,0.345312 0.917236,0.345313 1.348877,0.874073 0.43164,0.5179684 0.604297,1.3165035 0.09712,0.4963868 0.09712,1.7913087 v 2.5898438 q 0,2.7085449 0.118701,3.431543 Q 35.648855,-0.65825196 36.01575,0 H 33.987039 Q 33.68489,-0.60429689 33.598562,-1.4136231 Z m -0.161865,-4.3379883 q -1.05752,0.4316406 -3.172559,0.733789 -1.197803,0.1726563 -1.694189,0.3884766 -0.496387,0.2158203 -0.766162,0.6366699 -0.269776,0.4100587 -0.269776,0.9172364 0,0.7769531 0.582715,1.2949219 0.593506,0.5179688 1.726563,0.5179688 1.122265,0 1.996337,-0.4855958 0.874073,-0.4963867 1.284131,-1.3488769 0.31294,-0.658252 0.31294,-1.9423829 z" /><path
             id="path278"
             style=""
             d="M 38.407986,4.3919434 V -11.460059 h 1.769726 v 1.4891604 q 0.625879,-0.8740724 1.413623,-1.3057134 0.787745,-0.442431 1.91001,-0.442431 1.467578,0 2.589844,0.755371 1.122266,0.755371 1.694189,2.1366211 0.571924,1.370459 0.571924,3.0106934 0,1.7589356 -0.63667,3.1725586 -0.625879,1.4028321 -1.834472,2.15820319 -1.197803,0.74458009 -2.525098,0.74458009 -0.971191,0 -1.748145,-0.4100586 -0.766162,-0.4100586 -1.262548,-1.03593748 v 5.5789551 z m 1.758935,-10.0572267 q 0,2.2121582 0.895655,3.2696778 0.895654,1.0575195 2.168994,1.0575195 1.294922,0 2.212158,-1.0898926 0.928027,-1.1006836 0.928027,-3.3991699 0,-2.1905762 -0.906445,-3.2804688 -0.895654,-1.0898927 -2.147412,-1.0898927 -1.240967,0 -2.201367,1.1654298 -0.94961,1.1546387 -0.94961,3.3667969 z" /><path
             id="path280"
             style=""
             d="m 50.783989,0 v -15.819629 h 1.942383 v 5.676074 q 1.359668,-1.575488 3.431543,-1.575488 1.27334,0 2.212158,0.507178 0.938818,0.496386 1.338086,1.3812496 0.410059,0.8848633 0.410059,2.5682618 V 0 h -1.942383 v -7.2623536 q 0,-1.4567872 -0.63667,-2.1150391 -0.625879,-0.6690433 -1.780518,-0.6690433 -0.863281,0 -1.629443,0.4532229 -0.755371,0.4424317 -1.079102,1.2085938 -0.32373,0.7661621 -0.32373,2.1150391 V 0 Z" /><path
             id="path282"
             style=""
             d="m 62.383035,-3.420752 1.920801,-0.3021485 q 0.161865,1.1546387 0.895654,1.7697266 0.744581,0.6150879 2.071875,0.6150879 1.338086,0 1.985547,-0.5395508 0.647461,-0.5503418 0.647461,-1.2841308 0,-0.658252 -0.571924,-1.0359376 -0.399267,-0.2589843 -1.985546,-0.6582519 -2.136622,-0.5395508 -2.96753,-0.9280274 -0.820117,-0.3992676 -1.251758,-1.0898926 -0.420849,-0.701416 -0.420849,-1.5431152 0,-0.7661622 0.345312,-1.4136231 0.356104,-0.6582516 0.960401,-1.0898926 0.453222,-0.334521 1.230175,-0.561133 0.787745,-0.237402 1.683399,-0.237402 1.348877,0 2.363232,0.388476 1.025147,0.388477 1.510743,1.05752 0.485595,0.6582519 0.669043,1.7697265 l -1.899219,0.2589844 q -0.129492,-0.8848633 -0.755371,-1.38125 -0.615088,-0.4963869 -1.748145,-0.4963869 -1.338086,0 -1.91001,0.4424318 -0.571923,0.4424317 -0.571923,1.0359375 0,0.3776856 0.237402,0.679834 0.237402,0.3129395 0.74458,0.5179688 0.291357,0.1079101 1.715771,0.4963867 2.061084,0.5503418 2.870411,0.9064453 0.820117,0.3453126 1.284131,1.0143555 0.464013,0.669043 0.464013,1.6618165 0,0.9711914 -0.571924,1.8344727 -0.561132,0.8524902 -1.629443,1.3272949 -1.068311,0.46401368 -2.417188,0.46401368 -2.23374,0 -3.409961,-0.92802736 -1.165429,-0.92802732 -1.48916,-2.75170902 z" /></g><g
           id="text110"
           style="font-variant:normal;font-weight:normal;font-size:16.60000038px;font-family:OpenSymbol;-inkscape-font-specification:OpenSymbol;writing-mode:lr-tb;fill:#003366;fill-opacity:1;fill-rule:nonzero;stroke:none"
           transform="matrix(1,0,0,-1,79.1,131.5)"
           aria-label=""><path
             id="path285"
             style=""
             d="M 2.4734001,-11.3544 H 10.7568 q -0.249,2.9215998 -0.747,4.6811998 l -1.1785998,-0.1328 q 0.5644,-1.826 0.6972,-3.4527998 H 2.4734001 Z" /></g><g
           id="text114"
           style="font-variant:normal;font-weight:normal;font-size:22.10000038px;font-family:Arial;-inkscape-font-specification:ArialMT;writing-mode:lr-tb;fill:#003366;fill-opacity:1;fill-rule:nonzero;stroke:none"
           transform="matrix(1,0,0,-1,103.9,127.6)"
           aria-label="Spelling and Grammar"><path
             id="path288"
             style=""
             d="M 0.99277345,-5.0825684 2.9675293,-5.2552247 q 0.1402833,1.1870117 0.647461,1.9531739 0.5179688,0.7553711 1.5970703,1.2301758 1.0791016,0.4640136 2.4279786,0.4640136 1.1978027,0 2.1150391,-0.3561035 0.9172367,-0.3561035 1.3596677,-0.9711914 0.453223,-0.6258789 0.453223,-1.359668 0,-0.7445801 -0.431641,-1.2949219 Q 10.704688,-6.150879 9.7119142,-6.5285646 9.0752443,-6.7767579 6.8954591,-7.2947267 4.7156739,-7.8234865 3.8416016,-8.2875001 2.708545,-8.881006 2.1474121,-9.7550783 1.5970703,-10.639942 1.5970703,-11.729834 q 0,-1.197803 0.679834,-2.23374 0.679834,-1.046729 1.9855469,-1.58628 1.305713,-0.539551 2.9027833,-0.539551 1.7589356,0 3.0970215,0.571924 1.348877,0.561133 2.071875,1.661817 0.722998,1.100683 0.776953,2.492724 l -2.007129,0.151075 q -0.161865,-1.499952 -1.100683,-2.266114 -0.9280277,-0.766162 -2.7517094,-0.766162 -1.8992188,0 -2.773291,0.701416 -0.8632813,0.690625 -0.8632813,1.672608 0,0.85249 0.6150879,1.402832 0.6042969,0.5503415 3.1509766,1.1330563 2.5574708,0.5719239 3.5070802,1.0035645 1.38125,0.6366699 2.039502,1.6186524 0.658252,0.9711914 0.658252,2.2445313 0,1.2625488 -0.722998,2.3848144 -0.722998,1.11147468 -2.082666,1.73735359 -1.3488772,0.61508791 -3.0430667,0.61508791 -2.1474121,0 -3.6041992,-0.62587892 Q 2.6869629,-0.98198244 1.8560547,-2.2337403 1.0359375,-3.4962891 0.99277345,-5.0825684 Z" /><path
             id="path290"
             style=""
             d="M 16.153287,4.3919434 V -11.460059 h 1.769727 v 1.4891604 q 0.625878,-0.8740724 1.413623,-1.3057134 0.787744,-0.442431 1.910009,-0.442431 1.467579,0 2.589844,0.755371 1.122266,0.755371 1.69419,2.1366211 0.571924,1.370459 0.571924,3.0106934 0,1.7589356 -0.63667,3.1725586 -0.625879,1.4028321 -1.834473,2.15820319 -1.197803,0.74458009 -2.525098,0.74458009 -0.971191,0 -1.748144,-0.4100586 -0.766162,-0.4100586 -1.262549,-1.03593748 v 5.5789551 z m 1.758936,-10.0572267 q 0,2.2121582 0.895654,3.2696778 0.895654,1.0575195 2.168994,1.0575195 1.294922,0 2.212158,-1.0898926 0.928028,-1.1006836 0.928028,-3.3991699 0,-2.1905762 -0.906446,-3.2804688 -0.895654,-1.0898927 -2.147412,-1.0898927 -1.240967,0 -2.201367,1.1654298 -0.949609,1.1546387 -0.949609,3.3667969 z" /><path
             id="path292"
             style=""
             d="m 36.374356,-3.6905274 2.007129,0.2481934 q -0.474805,1.7589355 -1.758936,2.73012696 -1.284131,0.97119142 -3.280469,0.97119142 -2.514306,0 -3.992675,-1.54311528 -1.467579,-1.5539063 -1.467579,-4.3487794 0,-2.8919922 1.489161,-4.4890627 1.48916,-1.59707 3.863183,-1.59707 2.298487,0 3.755274,1.564697 1.456787,1.5646974 1.456787,4.4027346 0,0.1726562 -0.01079,0.5179687 h -8.546485 q 0.107911,1.8884278 1.068311,2.8919923 0.9604,1.0035644 2.395605,1.0035644 1.068311,0 1.823682,-0.5611328 0.755371,-0.5611328 1.197803,-1.7913086 z m -6.37749,-3.1401856 h 6.399072 q -0.129492,-1.4459961 -0.733789,-2.1689942 -0.928028,-1.1222658 -2.406397,-1.1222658 -1.338086,0 -2.255322,0.8956545 -0.906445,0.8956543 -1.003564,2.3956055 z" /><path
             id="path294"
             style=""
             d="m 40.773723,0 v -15.819629 h 1.942383 V 0 Z" /><path
             id="path296"
             style=""
             d="m 45.746223,0 v -15.819629 h 1.942383 V 0 Z" /><path
             id="path298"
             style=""
             d="m 50.706378,-13.585889 v -2.23374 h 1.942383 v 2.23374 z m 0,13.585889 v -11.460059 h 1.942383 V 0 Z" /><path
             id="path300"
             style=""
             d="m 55.601788,0 v -11.460059 h 1.748144 v 1.6294436 q 1.262549,-1.8884276 3.647363,-1.8884276 1.035938,0 1.899219,0.377685 0.874073,0.366895 1.305713,0.971192 0.431641,0.6042967 0.604297,1.4352049 0.10791,0.5395508 0.10791,1.8884278 V 0 h -1.942383 v -6.9709962 q 0,-1.1870118 -0.226611,-1.7697266 -0.226611,-0.5935059 -0.809326,-0.9388184 -0.571924,-0.3561038 -1.348877,-0.3561038 -1.240967,0 -2.147412,0.7877444 -0.895655,0.7877442 -0.895655,2.9891114 V 0 Z" /><path
             id="path302"
             style=""
             d="m 67.621687,0.94960939 1.888428,0.28056641 q 0.118701,0.8740723 0.658252,1.2733399 0.722998,0.5395508 1.974756,0.5395508 1.348877,0 2.082666,-0.5395508 Q 74.959578,1.9639649 75.218562,0.99277345 75.369637,0.39926759 75.358846,-1.4999512 74.085506,0 72.186287,0 q -2.363232,0 -3.658154,-1.7049805 -1.294922,-1.7049805 -1.294922,-4.089795 0,-1.6402344 0.593506,-3.0214844 0.593506,-1.3920411 1.715771,-2.1474121 1.133057,-0.755371 2.65459,-0.755371 2.028711,0 3.345215,1.640234 v -1.38125 h 1.791309 v 9.9061527 q 0,2.6761719 -0.550342,3.7876466 -0.539551,1.1222656 -1.726563,1.7697266 -1.17622,0.6474609 -2.902783,0.6474609 -2.050293,0 -3.312842,-0.9280273 -1.262549,-0.9172364 -1.219385,-2.77329111 z m 1.607862,-6.88466809 q 0,2.2553223 0.895654,3.2912598 0.895654,1.0359375 2.244531,1.0359375 1.338086,0 2.244532,-1.0251465 0.906445,-1.0359375 0.906445,-3.2373047 0,-2.1042481 -0.938818,-3.1725586 -0.928028,-1.0683108 -2.244532,-1.0683108 -1.294922,0 -2.201367,1.0575197 -0.906445,1.0467286 -0.906445,3.1186036 z" /><path
             id="path304"
             style=""
             d="m 93.843164,-1.4136231 q -1.079101,0.91723637 -2.082666,1.29492193 -0.992773,0.37768555 -2.136621,0.37768555 -1.888428,0 -2.902783,-0.91723634 -1.014356,-0.92802734 -1.014356,-2.36323244 0,-0.8416993 0.377686,-1.5323243 0.388476,-0.701416 1.003564,-1.1222656 0.625879,-0.4208496 1.402832,-0.6366699 0.571924,-0.1510743 1.726563,-0.2913575 2.352441,-0.2805664 3.463916,-0.669043 0.01079,-0.3992675 0.01079,-0.5071777 0,-1.1870117 -0.550342,-1.6726075 -0.74458,-0.6582521 -2.212158,-0.6582521 -1.370459,0 -2.028711,0.4855959 -0.647461,0.4748047 -0.9604,1.6941895 L 86.04126,-8.190381 q 0.258984,-1.2193848 0.85249,-1.963965 0.593506,-0.755371 1.715772,-1.154639 1.122265,-0.410058 2.600634,-0.410058 1.467579,0 2.384815,0.345312 0.917236,0.345313 1.348877,0.874073 0.43164,0.5179684 0.604297,1.3165035 0.09712,0.4963868 0.09712,1.7913087 v 2.5898438 q 0,2.7085449 0.118701,3.431543 Q 95.893457,-0.65825196 96.260352,0 h -2.028711 q -0.302149,-0.60429689 -0.388477,-1.4136231 z m -0.161865,-4.3379883 q -1.05752,0.4316406 -3.172559,0.733789 -1.197802,0.1726563 -1.694189,0.3884766 -0.496387,0.2158203 -0.766162,0.6366699 -0.269776,0.4100587 -0.269776,0.9172364 0,0.7769531 0.582715,1.2949219 0.593506,0.5179688 1.726563,0.5179688 1.122265,0 1.996338,-0.4855958 0.874072,-0.4963867 1.284131,-1.3488769 0.312939,-0.658252 0.312939,-1.9423829 z" /><path
             id="path306"
             style=""
             d="m 98.74099,0 v -11.460059 h 1.74814 v 1.6294436 q 1.26255,-1.8884276 3.64737,-1.8884276 1.03594,0 1.89922,0.377685 0.87407,0.366895 1.30571,0.971192 0.43164,0.6042967 0.6043,1.4352049 0.10791,0.5395508 0.10791,1.8884278 V 0 h -1.94239 v -6.9709962 q 0,-1.1870118 -0.22661,-1.7697266 -0.22661,-0.5935059 -0.80932,-0.9388184 -0.57193,-0.3561038 -1.34888,-0.3561038 -1.24097,0 -2.14741,0.7877444 -0.89566,0.7877442 -0.89566,2.9891114 V 0 Z" /><path
             id="path308"
             style=""
             d="m 118.552,0 v -1.4459961 q -1.08989,1.70498048 -3.20493,1.70498048 -1.37046,0 -2.5251,-0.75537111 -1.14385,-0.75537107 -1.78052,-2.10424807 -0.62588,-1.359668 -0.62588,-3.1186036 0,-1.7157715 0.57193,-3.1078125 0.57192,-1.4028321 1.71577,-2.1474121 1.14385,-0.74458 2.55747,-0.74458 1.03594,0 1.84526,0.442431 0.80933,0.431641 1.31651,1.133057 v -5.676074 h 1.93159 V 0 Z m -6.14009,-5.7192384 q 0,2.2013672 0.92803,3.2912598 0.92803,1.0898926 2.19057,1.0898926 1.27334,0 2.15821,-1.0359375 0.89565,-1.0467285 0.89565,-3.1833496 0,-2.3524415 -0.90644,-3.4531251 -0.90645,-1.1006838 -2.23374,-1.1006838 -1.29493,0 -2.169,1.0575197 -0.86328,1.0575196 -0.86328,3.3344239 z" /><path
             id="path310"
             style=""
             d="m 137.15501,-6.2048341 v -1.8560547 l 6.70122,-0.010791 v 5.8703126 q -1.54311,1.23017578 -3.18335,1.85605469 -1.64023,0.61508791 -3.36679,0.61508791 -2.33086,0 -4.24087,-0.99277346 -1.89922,-1.00356444 -2.87041,-2.89199224 -0.9712,-1.8884278 -0.9712,-4.2192872 0,-2.3092775 0.9604,-4.3056155 0.9712,-2.007129 2.78409,-2.97832 1.81289,-0.971192 4.17612,-0.971192 1.71577,0 3.09702,0.561133 1.39204,0.550342 2.17979,1.543116 0.78774,0.992773 1.1978,2.589843 l -1.88843,0.517969 q -0.3561,-1.208594 -0.88486,-1.899219 -0.52876,-0.690625 -1.51074,-1.100683 -0.98199,-0.42085 -2.17979,-0.42085 -1.4352,0 -2.48193,0.442432 -1.04673,0.43164 -1.69419,1.143847 -0.63667,0.712207 -0.99278,1.564698 -0.60429,1.4675778 -0.60429,3.1833493 0,2.1150391 0.723,3.5394532 0.73378,1.4244141 2.12583,2.1150391 1.39204,0.690625 2.95673,0.690625 1.35967,0 2.65459,-0.5179687 1.29493,-0.5287598 1.96397,-1.1222657 v -2.9459473 z" /><path
             id="path312"
             style=""
             d="m 146.76481,0 v -11.460059 h 1.74814 v 1.7373538 q 0.66905,-1.2193848 1.23018,-1.6078618 0.57192,-0.388476 1.25176,-0.388476 0.98198,0 1.99634,0.625879 l -0.66905,1.8020994 q -0.7122,-0.4208496 -1.42441,-0.4208496 -0.63667,0 -1.14385,0.3884765 -0.50718,0.3776856 -0.723,1.0575196 -0.32373,1.0359375 -0.32373,2.2661133 V 0 Z" /><path
             id="path314"
             style=""
             d="m 161.73435,-1.4136231 q -1.0791,0.91723637 -2.08266,1.29492193 -0.99278,0.37768555 -2.13662,0.37768555 -1.88843,0 -2.90279,-0.91723634 -1.01435,-0.92802734 -1.01435,-2.36323244 0,-0.8416993 0.37768,-1.5323243 0.38848,-0.701416 1.00357,-1.1222656 0.62588,-0.4208496 1.40283,-0.6366699 0.57192,-0.1510743 1.72656,-0.2913575 2.35244,-0.2805664 3.46392,-0.669043 0.0108,-0.3992675 0.0108,-0.5071777 0,-1.1870117 -0.55034,-1.6726075 -0.74458,-0.6582521 -2.21216,-0.6582521 -1.37046,0 -2.02871,0.4855959 -0.64746,0.4748047 -0.9604,1.6941895 l -1.89922,-0.2589844 q 0.25898,-1.2193848 0.85249,-1.963965 0.59351,-0.755371 1.71577,-1.154639 1.12227,-0.410058 2.60064,-0.410058 1.46757,0 2.38481,0.345312 0.91724,0.345313 1.34888,0.874073 0.43164,0.5179684 0.60429,1.3165035 0.0971,0.4963868 0.0971,1.7913087 v 2.5898438 q 0,2.7085449 0.1187,3.431543 0.1295,0.71220704 0.49639,1.370459 h -2.02871 q -0.30215,-0.60429689 -0.38848,-1.4136231 z m -0.16186,-4.3379883 q -1.05752,0.4316406 -3.17256,0.733789 -1.1978,0.1726563 -1.69419,0.3884766 -0.49639,0.2158203 -0.76616,0.6366699 -0.26978,0.4100587 -0.26978,0.9172364 0,0.7769531 0.58272,1.2949219 0.5935,0.5179688 1.72656,0.5179688 1.12227,0 1.99634,-0.4855958 0.87407,-0.4963867 1.28413,-1.3488769 0.31294,-0.658252 0.31294,-1.9423829 z" /><path
             id="path316"
             style=""
             d="m 166.54379,0 v -11.460059 h 1.73736 v 1.6078616 q 0.53955,-0.8416996 1.4352,-1.3488766 0.89566,-0.517969 2.0395,-0.517969 1.27334,0 2.08267,0.52876 0.82012,0.528759 1.15464,1.4783688 1.35967,-2.0071288 3.53945,-2.0071288 1.70498,0 2.62222,0.949609 0.91723,0.9388186 0.91723,2.9027835 V 0 h -1.93159 v -7.2191896 q 0,-1.1654297 -0.19424,-1.6726074 -0.18344,-0.5179688 -0.67983,-0.8309082 -0.49639,-0.3129398 -1.16543,-0.3129398 -1.20859,0 -2.00713,0.8093265 -0.79853,0.7985352 -0.79853,2.5682617 V 0 h -1.94239 v -7.4458009 q 0,-1.2949219 -0.4748,-1.9423829 -0.47481,-0.6474612 -1.55391,-0.6474612 -0.82011,0 -1.52153,0.4316409 -0.69063,0.4316407 -1.00356,1.2625489 -0.31294,0.8309082 -0.31294,2.3956055 V 0 Z" /><path
             id="path318"
             style=""
             d="m 185.01939,0 v -11.460059 h 1.73736 v 1.6078616 q 0.53955,-0.8416996 1.4352,-1.3488766 0.89566,-0.517969 2.0395,-0.517969 1.27334,0 2.08267,0.52876 0.82012,0.528759 1.15464,1.4783688 1.35967,-2.0071288 3.53945,-2.0071288 1.70498,0 2.62222,0.949609 0.91724,0.9388186 0.91724,2.9027835 V 0 h -1.9316 v -7.2191896 q 0,-1.1654297 -0.19423,-1.6726074 -0.18345,-0.5179688 -0.67984,-0.8309082 -0.49639,-0.3129398 -1.16543,-0.3129398 -1.20859,0 -2.00713,0.8093265 -0.79853,0.7985352 -0.79853,2.5682617 V 0 h -1.94239 v -7.4458009 q 0,-1.2949219 -0.4748,-1.9423829 -0.4748,-0.6474612 -1.55391,-0.6474612 -0.82011,0 -1.52153,0.4316409 -0.69062,0.4316407 -1.00356,1.2625489 -0.31294,0.8309082 -0.31294,2.3956055 V 0 Z" /><path
             id="path320"
             style=""
             d="m 210.97315,-1.4136231 q -1.0791,0.91723637 -2.08266,1.29492193 -0.99278,0.37768555 -2.13662,0.37768555 -1.88843,0 -2.90279,-0.91723634 -1.01435,-0.92802734 -1.01435,-2.36323244 0,-0.8416993 0.37768,-1.5323243 0.38848,-0.701416 1.00357,-1.1222656 0.62588,-0.4208496 1.40283,-0.6366699 0.57192,-0.1510743 1.72656,-0.2913575 2.35244,-0.2805664 3.46392,-0.669043 0.0108,-0.3992675 0.0108,-0.5071777 0,-1.1870117 -0.55034,-1.6726075 -0.74458,-0.6582521 -2.21216,-0.6582521 -1.37046,0 -2.02871,0.4855959 -0.64746,0.4748047 -0.9604,1.6941895 l -1.89922,-0.2589844 q 0.25898,-1.2193848 0.85249,-1.963965 0.59351,-0.755371 1.71577,-1.154639 1.12227,-0.410058 2.60064,-0.410058 1.46757,0 2.38481,0.345312 0.91724,0.345313 1.34888,0.874073 0.43164,0.5179684 0.60429,1.3165035 0.0971,0.4963868 0.0971,1.7913087 v 2.5898438 q 0,2.7085449 0.1187,3.431543 0.1295,0.71220704 0.49639,1.370459 h -2.02871 q -0.30215,-0.60429689 -0.38848,-1.4136231 z m -0.16186,-4.3379883 q -1.05752,0.4316406 -3.17256,0.733789 -1.1978,0.1726563 -1.69419,0.3884766 -0.49639,0.2158203 -0.76616,0.6366699 -0.26978,0.4100587 -0.26978,0.9172364 0,0.7769531 0.58272,1.2949219 0.5935,0.5179688 1.72656,0.5179688 1.12227,0 1.99634,-0.4855958 0.87407,-0.4963867 1.28413,-1.3488769 0.31294,-0.658252 0.31294,-1.9423829 z" /><path
             id="path322"
             style=""
             d="m 215.76101,0 v -11.460059 h 1.74815 v 1.7373538 q 0.66904,-1.2193848 1.23017,-1.6078618 0.57192,-0.388476 1.25176,-0.388476 0.98198,0 1.99634,0.625879 l -0.66905,1.8020994 q -0.7122,-0.4208496 -1.42441,-0.4208496 -0.63667,0 -1.14385,0.3884765 -0.50718,0.3776856 -0.723,1.0575196 -0.32373,1.0359375 -0.32373,2.2661133 V 0 Z" /></g><g
           id="text118"
           style="font-variant:normal;font-weight:normal;font-size:16.60000038px;font-family:OpenSymbol;-inkscape-font-specification:OpenSymbol;writing-mode:lr-tb;fill:#003366;fill-opacity:1;fill-rule:nonzero;stroke:none"
           transform="matrix(1,0,0,-1,79.1,102)"
           aria-label=""><path
             id="path325"
             style=""
             d="M 2.4734001,-11.3544 H 10.7568 q -0.249,2.9215998 -0.747,4.6811998 l -1.1785998,-0.1328 q 0.5644,-1.826 0.6972,-3.4527998 H 2.4734001 Z" /></g><g
           id="text122"
           style="font-variant:normal;font-weight:normal;font-size:22.10000038px;font-family:Arial;-inkscape-font-specification:ArialMT;writing-mode:lr-tb;fill:#003366;fill-opacity:1;fill-rule:nonzero;stroke:none"
           transform="matrix(1,0,0,-1,103.9,98.2)"
           aria-label="Conclusions"><path
             id="path328"
             style=""
             d="m 12.992383,-5.5465821 2.093457,0.5287597 q -0.658252,2.5790528 -2.374023,3.9387208 -1.704981,1.348877 -4.1761235,1.348877 -2.5574707,0 -4.1653321,-1.03593752 Q 2.7732911,-1.8128907 1.9315918,-3.7876465 1.1006836,-5.7624024 1.1006836,-8.0285158 q 0,-2.4711422 0.9388184,-4.3056152 0.9496094,-1.845264 2.6869629,-2.794873 1.7481446,-0.960401 3.8416017,-0.960401 2.3740234,0 3.9926754,1.208594 1.618653,1.208594 2.255323,3.39917 l -2.061084,0.485596 q -0.550342,-1.726563 -1.597071,-2.514307 -1.046728,-0.787744 -2.6330075,-0.787744 -1.8236817,0 -3.0538575,0.874072 -1.2193848,0.874073 -1.7157715,2.352442 -0.4963867,1.4675779 -0.4963867,3.0322752 0,2.01792 0.5827148,3.5286622 0.5935059,1.4999512 1.8344727,2.2445313 1.2409668,0.7445801 2.686963,0.7445801 1.7589357,0 2.9783207,-1.0143555 1.219384,-1.0143555 1.651025,-3.0106934 z" /><path
             id="path330"
             style=""
             d="m 16.712089,-5.7300294 q 0,-3.1833497 1.769727,-4.7156736 1.478369,-1.27334 3.604199,-1.27334 2.363233,0 3.863184,1.553906 1.499951,1.5431154 1.499951,4.2732424 0,2.2121582 -0.669043,3.4854981 -0.658252,1.2625488 -1.931592,1.96396485 -1.262549,0.70141603 -2.7625,0.70141603 -2.406396,0 -3.895557,-1.54311528 -1.478369,-1.5431152 -1.478369,-4.4458985 z m 1.996338,0 q 0,2.2013672 0.960401,3.3020508 0.9604,1.0898926 2.417187,1.0898926 1.445996,0 2.406397,-1.1006836 0.9604,-1.1006836 0.9604,-3.3560059 0,-2.1258301 -0.971191,-3.2157227 -0.960401,-1.1006838 -2.395606,-1.1006838 -1.456787,0 -2.417187,1.0898928 -0.960401,1.0898926 -0.960401,3.2912598 z" /><path
             id="path332"
             style=""
             d="m 29.811087,0 v -11.460059 h 1.748144 v 1.6294436 q 1.262549,-1.8884276 3.647364,-1.8884276 1.035937,0 1.899218,0.377685 0.874073,0.366895 1.305713,0.971192 0.431641,0.6042967 0.604297,1.4352049 0.10791,0.5395508 0.10791,1.8884278 V 0 H 37.18135 v -6.9709962 q 0,-1.1870118 -0.226611,-1.7697266 -0.226611,-0.5935059 -0.809326,-0.9388184 -0.571924,-0.3561038 -1.348877,-0.3561038 -1.240967,0 -2.147412,0.7877444 -0.895654,0.7877442 -0.895654,2.9891114 V 0 Z" /><path
             id="path334"
             style=""
             d="m 49.665262,-4.1977052 1.91001,0.2481934 q -0.31294,1.9747559 -1.607862,3.09702155 -1.28413,1.11147463 -3.161767,1.11147463 -2.352442,0 -3.787647,-1.53232428 -1.424414,-1.5431152 -1.424414,-4.4135254 0,-1.8560548 0.615088,-3.2480958 0.615088,-1.3920409 1.866846,-2.0826659 1.262549,-0.701416 2.740918,-0.701416 1.866846,0 3.053857,0.949609 1.187012,0.9388186 1.521534,2.6761721 l -1.888428,0.2913575 q -0.269776,-1.1546387 -0.960401,-1.7373536 -0.679834,-0.582715 -1.651025,-0.582715 -1.467578,0 -2.384815,1.0575197 -0.917236,1.0467286 -0.917236,3.3236329 0,2.3092774 0.884863,3.3560059 0.884864,1.0467285 2.309278,1.0467285 1.143847,0 1.91001,-0.701416 0.766162,-0.701416 0.971191,-2.1582032 z" /><path
             id="path336"
             style=""
             d="m 53.216022,0 v -15.819629 h 1.942383 V 0 Z" /><path
             id="path338"
             style=""
             d="m 65.742233,0 v -1.6833985 q -1.338086,1.94238288 -3.636573,1.94238288 -1.014355,0 -1.899218,-0.38847657 -0.874073,-0.38847657 -1.305713,-0.97119141 -0.42085,-0.5935059 -0.593506,-1.4459961 -0.118701,-0.5719239 -0.118701,-1.8128907 v -7.1004886 h 1.942382 v 6.3559085 q 0,1.5215333 0.118702,2.050293 0.183447,0.7661621 0.776953,1.2085938 0.593506,0.4316406 1.467578,0.4316406 0.874072,0 1.640234,-0.4424316 0.766162,-0.4532227 1.079102,-1.2193848 0.32373,-0.7769531 0.32373,-2.2445313 v -6.1400882 h 1.942383 V 0 Z" /><path
             id="path340"
             style=""
             d="m 69.742334,-3.420752 1.920801,-0.3021485 q 0.161865,1.1546387 0.895654,1.7697266 0.74458,0.6150879 2.071875,0.6150879 1.338086,0 1.985547,-0.5395508 0.647461,-0.5503418 0.647461,-1.2841308 0,-0.658252 -0.571924,-1.0359376 -0.399267,-0.2589843 -1.985547,-0.6582519 -2.136621,-0.5395508 -2.967529,-0.9280274 -0.820117,-0.3992676 -1.251758,-1.0898926 -0.42085,-0.701416 -0.42085,-1.5431152 0,-0.7661622 0.345313,-1.4136231 0.356103,-0.6582516 0.9604,-1.0898926 0.453223,-0.334521 1.230176,-0.561133 0.787744,-0.237402 1.683399,-0.237402 1.348877,0 2.363232,0.388476 1.025147,0.388477 1.510742,1.05752 0.485596,0.6582519 0.669043,1.7697265 l -1.899218,0.2589844 q -0.129493,-0.8848633 -0.755372,-1.38125 -0.615087,-0.4963869 -1.748144,-0.4963869 -1.338086,0 -1.91001,0.4424318 -0.571924,0.4424317 -0.571924,1.0359375 0,0.3776856 0.237403,0.679834 0.237402,0.3129395 0.74458,0.5179688 0.291357,0.1079101 1.715771,0.4963867 2.061084,0.5503418 2.87041,0.9064453 0.820118,0.3453126 1.284131,1.0143555 0.464014,0.669043 0.464014,1.6618165 0,0.9711914 -0.571924,1.8344727 -0.561133,0.8524902 -1.629443,1.3272949 -1.068311,0.46401368 -2.417188,0.46401368 -2.23374,0 -3.409961,-0.92802736 -1.16543,-0.92802732 -1.48916,-2.75170902 z" /><path
             id="path342"
             style=""
             d="m 81.71268,-13.585889 v -2.23374 h 1.942383 v 2.23374 z M 81.71268,0 v -11.460059 h 1.942383 V 0 Z" /><path
             id="path344"
             style=""
             d="m 85.885088,-5.7300294 q 0,-3.1833497 1.769726,-4.7156736 1.478369,-1.27334 3.604199,-1.27334 2.363233,0 3.863184,1.553906 1.499951,1.5431154 1.499951,4.2732424 0,2.2121582 -0.669043,3.4854981 -0.658252,1.2625488 -1.931591,1.96396485 -1.262549,0.70141603 -2.762501,0.70141603 -2.406396,0 -3.895556,-1.54311528 -1.478369,-1.5431152 -1.478369,-4.4458985 z m 1.996338,0 q 0,2.2013672 0.9604,3.3020508 0.9604,1.0898926 2.417187,1.0898926 1.445997,0 2.406397,-1.1006836 0.9604,-1.1006836 0.9604,-3.3560059 0,-2.1258301 -0.971191,-3.2157227 -0.9604,-1.1006838 -2.395606,-1.1006838 -1.456787,0 -2.417187,1.0898928 -0.9604,1.0898926 -0.9604,3.2912598 z" /><path
             id="path346"
             style=""
             d="m 98.895691,0 v -11.460059 h 1.748149 v 1.6294436 q 1.26254,-1.8884276 3.64736,-1.8884276 1.03594,0 1.89922,0.377685 0.87407,0.366895 1.30571,0.971192 0.43164,0.6042967 0.6043,1.4352049 0.10791,0.5395508 0.10791,1.8884278 V 0 h -1.94239 v -6.9709962 q 0,-1.1870118 -0.22661,-1.7697266 -0.22661,-0.5935059 -0.80932,-0.9388184 -0.57193,-0.3561038 -1.34888,-0.3561038 -1.24097,0 -2.14741,0.7877444 -0.89566,0.7877442 -0.89566,2.9891114 V 0 Z" /><path
             id="path348"
             style=""
             d="m 110.49474,-3.420752 1.9208,-0.3021485 q 0.16186,1.1546387 0.89565,1.7697266 0.74458,0.6150879 2.07188,0.6150879 1.33808,0 1.98554,-0.5395508 0.64747,-0.5503418 0.64747,-1.2841308 0,-0.658252 -0.57193,-1.0359376 -0.39927,-0.2589843 -1.98555,-0.6582519 -2.13662,-0.5395508 -2.96752,-0.9280274 -0.82012,-0.3992676 -1.25176,-1.0898926 -0.42085,-0.701416 -0.42085,-1.5431152 0,-0.7661622 0.34531,-1.4136231 0.3561,-0.6582516 0.9604,-1.0898926 0.45322,-0.334521 1.23018,-0.561133 0.78774,-0.237402 1.68339,-0.237402 1.34888,0 2.36324,0.388476 1.02514,0.388477 1.51074,1.05752 0.4856,0.6582519 0.66904,1.7697265 l -1.89922,0.2589844 q -0.12949,-0.8848633 -0.75537,-1.38125 -0.61509,-0.4963869 -1.74814,-0.4963869 -1.33809,0 -1.91001,0.4424318 -0.57193,0.4424317 -0.57193,1.0359375 0,0.3776856 0.23741,0.679834 0.2374,0.3129395 0.74458,0.5179688 0.29135,0.1079101 1.71577,0.4963867 2.06108,0.5503418 2.87041,0.9064453 0.82012,0.3453126 1.28413,1.0143555 0.46401,0.669043 0.46401,1.6618165 0,0.9711914 -0.57192,1.8344727 -0.56113,0.8524902 -1.62944,1.3272949 -1.06831,0.46401368 -2.41719,0.46401368 -2.23374,0 -3.40996,-0.92802736 -1.16543,-0.92802732 -1.48916,-2.75170902 z" /></g><g
           id="text126"
           style="font-variant:normal;font-weight:normal;font-size:16.60000038px;font-family:OpenSymbol;-inkscape-font-specification:OpenSymbol;writing-mode:lr-tb;fill:#003366;fill-opacity:1;fill-rule:nonzero;stroke:none"
           transform="matrix(1,0,0,-1,79.1,72.6)"
           aria-label=""><path
             id="path351"
             style=""
             d="M 2.4734001,-11.3544 H 10.7568 q -0.249,2.9215998 -0.747,4.6811998 l -1.1785998,-0.1328 q 0.5644,-1.826 0.6972,-3.4527998 H 2.4734001 Z" /></g><g
           id="text130"
           style="font-variant:normal;font-weight:normal;font-size:22.10000038px;font-family:Arial;-inkscape-font-specification:ArialMT;writing-mode:lr-tb;fill:#003366;fill-opacity:1;fill-rule:nonzero;stroke:none"
           transform="matrix(1,0,0,-1,103.9,68.8)"
           aria-label="Questions"><path
             id="path354"
             style=""
             d="m 13.693799,-1.6941895 q 1.456787,1.00356449 2.686963,1.46757817 L 15.765674,1.2301758 q -1.70498,-0.6150879 -3.39917,-1.94238284 -1.758935,0.98198244 -3.8847656,0.98198244 -2.1474121,0 -3.8955567,-1.03593752 Q 2.8380372,-1.8020996 1.8884278,-3.6797364 0.94960939,-5.5573731 0.94960939,-7.9098146 q 0,-2.3416504 0.94960941,-4.2624514 0.9496094,-1.920801 2.6977539,-2.924365 1.7589356,-1.003565 3.9279298,-1.003565 2.1905765,0 3.9495115,1.046729 1.758936,1.035937 2.676172,2.913574 0.928028,1.866846 0.928028,4.2192874 0,1.9531739 -0.593506,3.5178711 -0.593506,1.5539063 -1.791309,2.708545 z M 9.0860353,-4.3703614 q 1.8128907,0.5071777 2.9891117,1.5107422 1.845263,-1.6833985 1.845263,-5.0609864 0,-1.9208008 -0.658252,-3.3560064 -0.647461,-1.435205 -1.910009,-2.222949 -1.251758,-0.798535 -2.8164555,-0.798535 -2.3416504,0 -3.8847657,1.607861 -1.5431152,1.597071 -1.5431152,4.7804204 0,3.0862305 1.5215332,4.737256 1.5323242,1.6510254 3.9063477,1.6510254 1.1222657,0 2.1150395,-0.4208496 -0.9819828,-0.63667 -2.0718754,-0.9064454 z" /><path
             id="path356"
             style=""
             d="m 26.249534,0 v -1.6833985 q -1.338086,1.94238288 -3.636572,1.94238288 -1.014356,0 -1.899219,-0.38847657 -0.874072,-0.38847657 -1.305713,-0.97119141 -0.42085,-0.5935059 -0.593506,-1.4459961 -0.118701,-0.5719239 -0.118701,-1.8128907 v -7.1004886 h 1.942383 v 6.3559085 q 0,1.5215333 0.118701,2.050293 0.183447,0.7661621 0.776953,1.2085938 0.593506,0.4316406 1.467578,0.4316406 0.874073,0 1.640235,-0.4424316 0.766162,-0.4532227 1.079101,-1.2193848 0.323731,-0.7769531 0.323731,-2.2445313 v -6.1400882 h 1.942383 V 0 Z" /><path
             id="path358"
             style=""
             d="m 38.871655,-3.6905274 2.007129,0.2481934 q -0.474805,1.7589355 -1.758936,2.73012696 -1.28413,0.97119142 -3.280468,0.97119142 -2.514307,0 -3.992676,-1.54311528 -1.467578,-1.5539063 -1.467578,-4.3487794 0,-2.8919922 1.48916,-4.4890627 1.48916,-1.59707 3.863183,-1.59707 2.298487,0 3.755274,1.564697 1.456787,1.5646974 1.456787,4.4027346 0,0.1726562 -0.01079,0.5179687 h -8.546484 q 0.10791,1.8884278 1.06831,2.8919923 0.960401,1.0035644 2.395606,1.0035644 1.06831,0 1.823681,-0.5611328 0.755371,-0.5611328 1.197803,-1.7913086 z m -6.37749,-3.1401856 h 6.399072 q -0.129492,-1.4459961 -0.733789,-2.1689942 -0.928027,-1.1222658 -2.406397,-1.1222658 -1.338085,0 -2.255322,0.8956545 -0.906445,0.8956543 -1.003564,2.3956055 z" /><path
             id="path360"
             style=""
             d="m 42.625635,-3.420752 1.920801,-0.3021485 q 0.161865,1.1546387 0.895654,1.7697266 0.74458,0.6150879 2.071875,0.6150879 1.338086,0 1.985547,-0.5395508 0.647461,-0.5503418 0.647461,-1.2841308 0,-0.658252 -0.571924,-1.0359376 -0.399268,-0.2589843 -1.985547,-0.6582519 -2.136621,-0.5395508 -2.967529,-0.9280274 -0.820117,-0.3992676 -1.251758,-1.0898926 -0.42085,-0.701416 -0.42085,-1.5431152 0,-0.7661622 0.345313,-1.4136231 0.356103,-0.6582516 0.9604,-1.0898926 0.453223,-0.334521 1.230176,-0.561133 0.787744,-0.237402 1.683398,-0.237402 1.348877,0 2.363233,0.388476 1.025146,0.388477 1.510742,1.05752 0.485596,0.6582519 0.669043,1.7697265 l -1.899219,0.2589844 q -0.129492,-0.8848633 -0.755371,-1.38125 -0.615088,-0.4963869 -1.748144,-0.4963869 -1.338086,0 -1.91001,0.4424318 -0.571924,0.4424317 -0.571924,1.0359375 0,0.3776856 0.237402,0.679834 0.237403,0.3129395 0.74458,0.5179688 0.291358,0.1079101 1.715772,0.4963867 2.061084,0.5503418 2.87041,0.9064453 0.820117,0.3453126 1.284131,1.0143555 0.464014,0.669043 0.464014,1.6618165 0,0.9711914 -0.571924,1.8344727 -0.561133,0.8524902 -1.629444,1.3272949 -1.06831,0.46401368 -2.417187,0.46401368 -2.23374,0 -3.409961,-0.92802736 -1.16543,-0.92802732 -1.48916,-2.75170902 z" /><path
             id="path362"
             style=""
             d="m 58.715555,-1.7373535 0.280566,1.71577147 q -0.820117,0.17265625 -1.467578,0.17265625 -1.057519,0 -1.640234,-0.33452149 -0.582715,-0.33452149 -0.820117,-0.87407223 -0.237403,-0.5503419 -0.237403,-2.2984864 v -6.5933107 h -1.424414 v -1.5107424 h 1.424414 v -2.838037 l 1.931592,-1.16543 v 4.003467 h 1.953174 v 1.5107424 h -1.953174 v 6.7012208 q 0,0.8309083 0.09712,1.0683106 0.10791,0.2374024 0.334522,0.3776856 0.237402,0.1402832 0.669043,0.1402832 0.32373,0 0.85249,-0.075537 z" /><path
             id="path364"
             style=""
             d="m 60.585078,-13.585889 v -2.23374 h 1.942383 v 2.23374 z m 0,13.585889 v -11.460059 h 1.942383 V 0 Z" /><path
             id="path366"
             style=""
             d="m 64.823785,-5.7300294 q 0,-3.1833497 1.769727,-4.7156736 1.478369,-1.27334 3.604199,-1.27334 2.363233,0 3.863184,1.553906 1.499951,1.5431154 1.499951,4.2732424 0,2.2121582 -0.669043,3.4854981 -0.658252,1.2625488 -1.931592,1.96396485 -1.262549,0.70141603 -2.7625,0.70141603 -2.406396,0 -3.895556,-1.54311528 -1.47837,-1.5431152 -1.47837,-4.4458985 z m 1.996338,0 q 0,2.2013672 0.960401,3.3020508 0.9604,1.0898926 2.417187,1.0898926 1.445996,0 2.406397,-1.1006836 0.9604,-1.1006836 0.9604,-3.3560059 0,-2.1258301 -0.971191,-3.2157227 -0.960401,-1.1006838 -2.395606,-1.1006838 -1.456787,0 -2.417187,1.0898928 -0.960401,1.0898926 -0.960401,3.2912598 z" /><path
             id="path368"
             style=""
             d="m 77.834389,0 v -11.460059 h 1.748144 v 1.6294436 q 1.262549,-1.8884276 3.647364,-1.8884276 1.035937,0 1.899218,0.377685 0.874073,0.366895 1.305713,0.971192 0.431641,0.6042967 0.604297,1.4352049 0.10791,0.5395508 0.10791,1.8884278 V 0 h -1.942382 v -6.9709962 q 0,-1.1870118 -0.226612,-1.7697266 -0.226611,-0.5935059 -0.809326,-0.9388184 -0.571924,-0.3561038 -1.348877,-0.3561038 -1.240967,0 -2.147412,0.7877444 -0.895654,0.7877442 -0.895654,2.9891114 V 0 Z" /><path
             id="path370"
             style=""
             d="m 89.433435,-3.420752 1.920801,-0.3021485 q 0.161865,1.1546387 0.895654,1.7697266 0.74458,0.6150879 2.071875,0.6150879 1.338086,0 1.985547,-0.5395508 0.647461,-0.5503418 0.647461,-1.2841308 0,-0.658252 -0.571924,-1.0359376 -0.399267,-0.2589843 -1.985547,-0.6582519 -2.136621,-0.5395508 -2.967529,-0.9280274 -0.820117,-0.3992676 -1.251758,-1.0898926 -0.420849,-0.701416 -0.420849,-1.5431152 0,-0.7661622 0.345312,-1.4136231 0.356104,-0.6582516 0.9604,-1.0898926 0.453223,-0.334521 1.230176,-0.561133 0.787744,-0.237402 1.683399,-0.237402 1.348877,0 2.363232,0.388476 1.025147,0.388477 1.510742,1.05752 0.485596,0.6582519 0.669043,1.7697265 l -1.899218,0.2589844 q -0.129493,-0.8848633 -0.755372,-1.38125 -0.615087,-0.4963869 -1.748144,-0.4963869 -1.338086,0 -1.91001,0.4424318 -0.571924,0.4424317 -0.571924,1.0359375 0,0.3776856 0.237403,0.679834 0.237402,0.3129395 0.74458,0.5179688 0.291357,0.1079101 1.715771,0.4963867 2.061084,0.5503418 2.87041,0.9064453 0.820118,0.3453126 1.284131,1.0143555 0.464014,0.669043 0.464014,1.6618165 0,0.9711914 -0.571924,1.8344727 -0.561133,0.8524902 -1.629443,1.3272949 -1.068311,0.46401368 -2.417188,0.46401368 -2.23374,0 -3.409961,-0.92802736 -1.165429,-0.92802732 -1.48916,-2.75170902 z" /></g></g></g></g></svg>